<svg width="17" height="24" viewBox="0 0 17 24" fill="none" xmlns="http://www.w3.org/2000/svg">
<path d="M3.4553 8.38739V6.54054C3.4553 3.48058 5.709 1 8.48909 1C11.2692 1 13.5229 3.48058 13.5229 6.54054V8.38739M1.00024 15.313C1.00024 12.0483 1.00024 10.4159 1.65925 9.40163C2.31826 8.38737 3.37892 8.38737 5.50024 8.38737H11.5002C13.6215 8.38737 14.6822 8.38737 15.3412 9.40163C16.0002 10.4159 16.0002 12.0483 16.0002 15.313C16.0002 18.5778 16.0002 20.2102 15.3412 21.2245C14.6822 22.2387 13.6215 22.2387 11.5002 22.2387H5.50024C3.37892 22.2387 2.31826 22.2387 1.65925 21.2245C1.00024 20.2102 1.00024 18.5778 1.00024 15.313Z" stroke="white" stroke-width="2" stroke-linecap="round"/>
</svg>
