<svg width="170" height="58" viewBox="0 0 170 58" fill="none" xmlns="http://www.w3.org/2000/svg">
<path d="M126.547 14.6681C125.24 14.5961 124.048 14.4519 122.989 14.1893C122.772 14.1302 122.608 13.9484 122.573 13.7266C122.538 13.5047 122.644 13.2907 122.84 13.1758C122.889 13.1471 128.121 10.1842 133.429 7.27253C144.275 1.30481 144.861 1.27428 145.129 1.27337C145.43 1.25853 146.015 1.24366 156.229 7.24131C161.214 10.1706 166.118 13.1268 166.164 13.1607C166.378 13.2825 166.474 13.5391 166.413 13.787C166.353 14.0193 166.122 14.1951 165.886 14.1821C165.712 14.1882 149.094 14.0576 143.254 14.0341C141.25 14.0178 138.904 14.1869 136.4 14.363C133.009 14.5845 129.522 14.8321 126.547 14.6681ZM124.707 13.3887C127.919 13.8328 132.198 13.5346 136.351 13.2452C138.871 13.0699 141.248 12.9026 143.285 12.9049C147.91 12.9242 159.289 13.0017 163.913 13.0366C156.671 8.67927 146.471 2.69814 145.196 2.34513C143.864 2.72724 132.481 9.01083 124.707 13.3887Z" fill="white"/>
<path d="M155.509 32.5746C155.244 32.5598 155.021 32.3574 155.004 32.0875C154.954 31.5783 153.604 19.5724 154.136 13.4946C154.168 13.1957 154.43 12.973 154.726 12.9895C155.021 13.0219 155.241 13.2873 155.225 13.587C154.699 19.5545 156.064 31.8303 156.089 31.9582C156.119 32.2606 155.901 32.5332 155.603 32.564C155.555 32.5772 155.524 32.5754 155.509 32.5746Z" fill="white"/>
<path d="M160.755 32.3751C160.46 32.3586 160.239 32.1089 160.24 31.8083C160.248 31.6663 160.59 17.1901 160.142 13.6362C160.112 13.3339 160.314 13.0603 160.612 13.0137C160.911 12.967 161.18 13.1878 161.226 13.491C161.669 17.1396 161.347 31.2371 161.33 31.8375C161.329 32.1381 161.067 32.3767 160.771 32.376C160.771 32.376 160.771 32.376 160.755 32.3751Z" fill="white"/>
<path d="M154.314 36.8714C154.063 36.8574 153.852 36.6724 153.803 36.4176C153.779 36.2902 153.754 36.1628 153.73 36.0354C153.474 34.6661 153.255 33.488 153.888 32.6092C154.331 32.0036 155.077 31.651 156.284 31.4975C158.08 31.2505 162.311 30.9024 162.646 32.8432C162.837 33.9411 162.75 36.3784 162.744 36.4884C162.727 36.7869 162.477 37.0251 162.178 37.0242C162.178 37.0242 162.177 37.0242 162.162 37.0233C161.863 37.0068 161.624 36.7572 161.641 36.4587C161.643 36.4273 161.728 34.037 161.561 33.0509C161.503 32.6853 159.876 32.1538 156.428 32.6084C155.57 32.7183 155.021 32.94 154.782 33.2734C154.423 33.7734 154.592 34.6967 154.812 35.8591C154.837 35.9865 154.861 36.1139 154.886 36.2413C154.948 36.5441 154.742 36.8321 154.44 36.8784C154.394 36.86 154.346 36.8731 154.314 36.8714Z" fill="white"/>
<path d="M141.756 32.7072C141.475 32.6916 141.254 32.4577 141.238 32.172C141.24 32.1404 141.092 28.5248 140.699 25.386C140.254 21.7853 140.014 18.1487 139.901 13.6015C139.886 13.3001 140.134 13.045 140.432 13.03C140.73 13.015 140.982 13.2664 140.997 13.5679C141.111 18.0835 141.353 21.6886 141.786 25.241C142.177 28.4114 142.322 32.0744 142.32 32.1059C142.335 32.4074 142.102 32.6633 141.789 32.6775C141.787 32.709 141.772 32.7081 141.756 32.7072Z" fill="white"/>
<path d="M148.217 32.7298C147.983 32.7167 147.774 32.5467 147.724 32.3066C147.223 30.3008 147.113 26.2758 147 22.0291C146.923 19.1135 146.837 16.1023 146.631 13.5592C146.6 13.2569 146.834 12.9852 147.132 12.9544C147.431 12.9236 147.699 13.1601 147.73 13.4625C147.95 16.0222 148.02 19.064 148.111 21.9962C148.228 26.1799 148.341 30.1418 148.801 32.0346C148.879 32.3238 148.691 32.6297 148.405 32.7087C148.327 32.7201 148.279 32.7332 148.217 32.7298Z" fill="white"/>
<path d="M140.643 37.0042C140.376 36.9894 140.151 36.7723 140.119 36.5028C140.091 36.1391 140.047 35.806 140.016 35.5051C139.856 33.8429 139.764 32.9246 140.289 32.2766C140.729 31.7499 141.446 31.6165 142.159 31.5615C144.349 31.3522 148.609 31.6355 149.533 31.7655C151.035 31.9904 150.865 34.4846 150.605 36.3439C150.557 36.6404 150.276 36.8611 149.979 36.8131C149.682 36.7651 149.461 36.4852 149.509 36.1887C149.878 33.5166 149.487 32.8809 149.362 32.8582C148.501 32.7318 144.334 32.4693 142.256 32.6691C141.621 32.7284 141.268 32.8348 141.133 33.0005C140.896 33.2865 140.989 34.1734 141.11 35.4083C141.141 35.7092 141.169 36.0571 141.212 36.4217C141.242 36.7225 141.022 36.9938 140.705 37.0234C140.69 37.0069 140.675 37.006 140.643 37.0042Z" fill="white"/>
<path d="M127.914 33.2146C127.68 33.2015 127.471 33.0316 127.407 32.7748C126.631 29.2186 126.549 18.5963 126.927 14.2026C126.959 13.9037 127.205 13.6801 127.5 13.6966L127.516 13.6975C127.811 13.7298 128.031 13.9953 128.014 14.295C127.602 19.0507 127.766 29.2979 128.481 32.5342C128.543 32.8383 128.355 33.1285 128.071 33.1917C128.008 33.204 127.96 33.2172 127.914 33.2146Z" fill="white"/>
<path d="M133.785 33.3327C133.49 33.3162 133.255 33.0499 133.271 32.7501C133.388 30.5729 133.348 17.4207 132.995 14.1412C132.964 13.8388 133.182 13.5661 133.48 13.5353C133.778 13.5044 134.047 13.7252 134.077 14.0275C134.454 17.4508 134.48 30.5706 134.359 32.8267C134.343 33.1106 134.081 33.3492 133.785 33.3327Z" fill="white"/>
<path d="M126.193 36.9259C125.91 36.9103 125.685 36.6933 125.669 36.4093C125.547 34.3415 125.479 33.2993 126.064 32.7024C126.583 32.1647 127.371 32.1926 128.789 32.2239L129.231 32.2326C131.674 32.2891 132.915 32.3892 134.015 32.4815C134.344 32.5155 134.659 32.5329 134.974 32.5503C135.54 32.5816 135.956 32.7777 136.235 33.1393C136.795 33.8625 136.572 35.0458 136.283 36.5559C136.235 36.8522 135.94 37.0561 135.643 36.9925C135.346 36.9446 135.141 36.6501 135.205 36.3547C135.405 35.3116 135.628 34.1283 135.362 33.7989C135.288 33.7162 135.133 33.6604 134.897 33.6474C134.567 33.6291 134.253 33.596 133.923 33.5777C132.839 33.4863 131.613 33.387 129.201 33.3322L128.76 33.3235C127.798 33.3018 127.042 33.2757 126.858 33.47C126.607 33.7236 126.682 34.9392 126.778 36.3447C126.793 36.6445 126.557 36.9146 126.256 36.9294C126.225 36.9277 126.209 36.9268 126.193 36.9259Z" fill="white"/>
<path d="M123.147 40.1499C122.864 40.1345 122.639 39.9191 122.623 39.637C122.518 37.8186 122.521 36.9125 123.057 36.3479C123.46 35.9166 124.049 35.8393 124.807 35.8337C126.466 35.8302 161.896 36.1328 163.236 36.1744C163.756 36.2027 164.158 36.3652 164.425 36.6766C164.959 37.2995 164.869 38.3572 164.68 39.7845C164.647 40.0797 164.367 40.2988 164.069 40.2513C163.771 40.2195 163.549 39.9418 163.597 39.6475C163.682 38.9646 163.847 37.6922 163.596 37.3816C163.536 37.3159 163.412 37.2779 163.223 37.2676C161.884 37.2103 126.501 36.9103 124.843 36.9138C124.305 36.9158 124.002 36.9774 123.886 37.0805C123.635 37.3325 123.687 38.3979 123.749 39.5576C123.764 39.8553 123.528 40.1238 123.227 40.1386C123.196 40.1369 123.179 40.1516 123.147 40.1499Z" fill="white"/>
<path d="M122.507 44.5213C121.499 44.4664 121.328 44.4102 121.22 44.373C119.824 43.9061 119.889 42.1586 119.928 40.8787L119.939 40.6761C119.979 39.0992 121.606 39.0941 123.849 39.0912C124.245 39.0815 124.671 39.0891 125.129 39.0828C126.457 39.0613 134.004 39.1286 141.976 39.2034C152.033 39.298 163.431 39.4032 164.446 39.3334C165.825 39.2522 166.723 39.2855 167.296 39.7857C167.613 40.0531 167.78 40.4531 167.816 40.9553L167.821 41.1432C167.903 42.2421 168.022 44.0778 166.325 44.2042C165.675 44.247 154.717 44.4628 144.064 44.5859C129.73 44.7272 124.491 44.6294 122.507 44.5213ZM121.042 40.7206L121.03 40.9388C120.992 41.9216 120.956 43.1392 121.576 43.3605C121.949 43.4746 124.89 43.6975 144.172 43.4818C155.363 43.3567 165.704 43.1541 166.26 43.1062C166.72 43.0688 166.839 42.6219 166.743 41.2096L166.738 41.0217C166.723 40.7238 166.633 40.6407 166.587 40.607C166.285 40.356 165.336 40.3825 164.543 40.4331C163.481 40.5003 152.556 40.4053 141.995 40.2988C134.022 40.224 126.491 40.1576 125.179 40.1799C124.721 40.1862 124.278 40.1933 123.883 40.1875C121.656 40.1912 121.052 40.2677 121.042 40.7206Z" fill="white"/>
<mask id="path-13-outside-1_292_905" maskUnits="userSpaceOnUse" x="0.000244141" y="21" width="152" height="25" fill="black">
<rect fill="white" x="0.000244141" y="21" width="152" height="25"/>
<path d="M13.082 29.5291C13.0082 28.7843 12.6912 28.2057 12.131 27.7933C11.5709 27.3809 10.8107 27.1747 9.8505 27.1747C9.19804 27.1747 8.64714 27.267 8.1978 27.4517C7.74846 27.6302 7.40377 27.8795 7.16371 28.1996C6.92981 28.5196 6.81286 28.8828 6.81286 29.2891C6.80055 29.6276 6.87133 29.9231 7.02522 30.1754C7.18525 30.4278 7.40377 30.6463 7.68076 30.831C7.95774 31.0095 8.27782 31.1664 8.64098 31.3018C9.00415 31.4311 9.39193 31.5419 9.80434 31.6342L11.5032 32.0405C12.328 32.2251 13.0851 32.4714 13.7745 32.7791C14.4639 33.0869 15.061 33.4654 15.5657 33.9148C16.0704 34.3641 16.4613 34.8935 16.7383 35.5028C17.0214 36.1122 17.1661 36.8108 17.1722 37.5987C17.1661 38.7559 16.8706 39.7592 16.2859 40.6087C15.7073 41.4519 14.8701 42.1075 13.7745 42.5753C12.685 43.0369 11.3709 43.2678 9.83203 43.2678C8.30552 43.2678 6.97597 43.0339 5.8434 42.5661C4.71698 42.0982 3.83677 41.4058 3.20277 40.4886C2.57493 39.5653 2.24562 38.4235 2.21485 37.0632H6.08345C6.12654 37.6972 6.30812 38.2266 6.6282 38.6513C6.95443 39.0698 7.38838 39.3868 7.93005 39.6023C8.47787 39.8116 9.09648 39.9162 9.78587 39.9162C10.463 39.9162 11.0508 39.8177 11.5494 39.6207C12.0541 39.4238 12.445 39.1499 12.7219 38.799C12.9989 38.4482 13.1374 38.045 13.1374 37.5895C13.1374 37.1648 13.0112 36.8078 12.7589 36.5185C12.5127 36.2292 12.1495 35.983 11.6694 35.7798C11.1954 35.5767 10.6138 35.392 9.92436 35.2259L7.86541 34.7088C6.27119 34.321 5.01243 33.7147 4.08914 32.8899C3.16584 32.0651 2.70727 30.9541 2.71343 29.5568C2.70727 28.4119 3.01196 27.4117 3.62749 26.5561C4.24917 25.7005 5.10168 25.0327 6.18502 24.5526C7.26835 24.0724 8.49941 23.8324 9.8782 23.8324C11.2816 23.8324 12.5065 24.0724 13.5529 24.5526C14.6055 25.0327 15.4241 25.7005 16.0089 26.5561C16.5936 27.4117 16.8952 28.4027 16.9137 29.5291H13.082ZM18.8213 24.0909H23.7517L28.9591 36.7955H29.1807L34.3881 24.0909H39.3185V43H35.4406V30.6925H35.2837L30.3902 42.9077H27.7496L22.8561 30.6463H22.6992V43H18.8213V24.0909ZM41.5723 43V24.0909H49.0326C50.4606 24.0909 51.6794 24.3464 52.6888 24.8572C53.7044 25.362 54.4769 26.0791 55.0063 27.0085C55.5418 27.9318 55.8096 29.0182 55.8096 30.2678C55.8096 31.5234 55.5387 32.6037 54.9971 33.5085C54.4554 34.4072 53.6706 35.0966 52.6427 35.5767C51.6209 36.0568 50.3837 36.2969 48.931 36.2969H43.936V33.0838H48.2847C49.048 33.0838 49.682 32.9792 50.1867 32.7699C50.6914 32.5606 51.0669 32.2467 51.3131 31.8281C51.5655 31.4096 51.6917 30.8894 51.6917 30.2678C51.6917 29.6399 51.5655 29.1106 51.3131 28.6797C51.0669 28.2488 50.6883 27.9226 50.1775 27.701C49.6727 27.4732 49.0357 27.3594 48.2662 27.3594H45.5702V43H41.5723ZM51.784 34.3949L56.4836 43H52.0702L47.4722 34.3949H51.784ZM56.8747 27.3871V24.0909H72.4045V27.3871H66.6154V43H62.6637V27.3871H56.8747ZM78.8996 43V24.0909H86.4706C87.8617 24.0909 89.022 24.2971 89.9515 24.7095C90.8809 25.1219 91.5795 25.6944 92.0473 26.4268C92.5151 27.1532 92.749 27.9903 92.749 28.9382C92.749 29.6768 92.6013 30.3262 92.3059 30.8864C92.0104 31.4403 91.6042 31.8958 91.0871 32.2528C90.5762 32.6037 89.9915 32.853 89.3329 33.0007V33.1854C90.053 33.2161 90.727 33.4193 91.3549 33.7947C91.9889 34.1702 92.5028 34.6965 92.8968 35.3736C93.2907 36.0445 93.4877 36.8447 93.4877 37.7741C93.4877 38.7775 93.2384 39.6731 92.7398 40.4609C92.2474 41.2427 91.518 41.8613 90.5516 42.3168C89.5852 42.7723 88.3942 43 86.9785 43H78.8996ZM82.8975 39.7315H86.1567C87.2708 39.7315 88.0833 39.5192 88.5942 39.0945C89.1051 38.6636 89.3606 38.0911 89.3606 37.3771C89.3606 36.8539 89.2344 36.3923 88.982 35.9922C88.7296 35.5921 88.3695 35.2782 87.9017 35.0504C87.4401 34.8227 86.8892 34.7088 86.249 34.7088H82.8975V39.7315ZM82.8975 32.0036H85.8613C86.4091 32.0036 86.8954 31.9081 87.3201 31.7173C87.7509 31.5204 88.0895 31.2434 88.3357 30.8864C88.5881 30.5294 88.7142 30.1016 88.7142 29.603C88.7142 28.9197 88.4711 28.3688 87.9848 27.9503C87.5047 27.5317 86.8215 27.3224 85.9351 27.3224H82.8975V32.0036ZM98.3083 43H94.0242L100.552 24.0909H105.704L112.222 43H107.938L103.202 28.4119H103.054L98.3083 43ZM98.0405 35.5675H108.16V38.6882H98.0405V35.5675ZM129.274 24.0909V43H125.821L117.595 31.0987H117.456V43H113.458V24.0909H116.967L125.129 35.983H125.295V24.0909H129.274ZM131.537 43V24.0909H135.535V32.4283H135.785L142.589 24.0909H147.381L140.364 32.5575L147.464 43H142.682L137.502 35.2259L135.535 37.6264V43H131.537Z"/>
</mask>
<path d="M13.082 29.5291C13.0082 28.7843 12.6912 28.2057 12.131 27.7933C11.5709 27.3809 10.8107 27.1747 9.8505 27.1747C9.19804 27.1747 8.64714 27.267 8.1978 27.4517C7.74846 27.6302 7.40377 27.8795 7.16371 28.1996C6.92981 28.5196 6.81286 28.8828 6.81286 29.2891C6.80055 29.6276 6.87133 29.9231 7.02522 30.1754C7.18525 30.4278 7.40377 30.6463 7.68076 30.831C7.95774 31.0095 8.27782 31.1664 8.64098 31.3018C9.00415 31.4311 9.39193 31.5419 9.80434 31.6342L11.5032 32.0405C12.328 32.2251 13.0851 32.4714 13.7745 32.7791C14.4639 33.0869 15.061 33.4654 15.5657 33.9148C16.0704 34.3641 16.4613 34.8935 16.7383 35.5028C17.0214 36.1122 17.1661 36.8108 17.1722 37.5987C17.1661 38.7559 16.8706 39.7592 16.2859 40.6087C15.7073 41.4519 14.8701 42.1075 13.7745 42.5753C12.685 43.0369 11.3709 43.2678 9.83203 43.2678C8.30552 43.2678 6.97597 43.0339 5.8434 42.5661C4.71698 42.0982 3.83677 41.4058 3.20277 40.4886C2.57493 39.5653 2.24562 38.4235 2.21485 37.0632H6.08345C6.12654 37.6972 6.30812 38.2266 6.6282 38.6513C6.95443 39.0698 7.38838 39.3868 7.93005 39.6023C8.47787 39.8116 9.09648 39.9162 9.78587 39.9162C10.463 39.9162 11.0508 39.8177 11.5494 39.6207C12.0541 39.4238 12.445 39.1499 12.7219 38.799C12.9989 38.4482 13.1374 38.045 13.1374 37.5895C13.1374 37.1648 13.0112 36.8078 12.7589 36.5185C12.5127 36.2292 12.1495 35.983 11.6694 35.7798C11.1954 35.5767 10.6138 35.392 9.92436 35.2259L7.86541 34.7088C6.27119 34.321 5.01243 33.7147 4.08914 32.8899C3.16584 32.0651 2.70727 30.9541 2.71343 29.5568C2.70727 28.4119 3.01196 27.4117 3.62749 26.5561C4.24917 25.7005 5.10168 25.0327 6.18502 24.5526C7.26835 24.0724 8.49941 23.8324 9.8782 23.8324C11.2816 23.8324 12.5065 24.0724 13.5529 24.5526C14.6055 25.0327 15.4241 25.7005 16.0089 26.5561C16.5936 27.4117 16.8952 28.4027 16.9137 29.5291H13.082ZM18.8213 24.0909H23.7517L28.9591 36.7955H29.1807L34.3881 24.0909H39.3185V43H35.4406V30.6925H35.2837L30.3902 42.9077H27.7496L22.8561 30.6463H22.6992V43H18.8213V24.0909ZM41.5723 43V24.0909H49.0326C50.4606 24.0909 51.6794 24.3464 52.6888 24.8572C53.7044 25.362 54.4769 26.0791 55.0063 27.0085C55.5418 27.9318 55.8096 29.0182 55.8096 30.2678C55.8096 31.5234 55.5387 32.6037 54.9971 33.5085C54.4554 34.4072 53.6706 35.0966 52.6427 35.5767C51.6209 36.0568 50.3837 36.2969 48.931 36.2969H43.936V33.0838H48.2847C49.048 33.0838 49.682 32.9792 50.1867 32.7699C50.6914 32.5606 51.0669 32.2467 51.3131 31.8281C51.5655 31.4096 51.6917 30.8894 51.6917 30.2678C51.6917 29.6399 51.5655 29.1106 51.3131 28.6797C51.0669 28.2488 50.6883 27.9226 50.1775 27.701C49.6727 27.4732 49.0357 27.3594 48.2662 27.3594H45.5702V43H41.5723ZM51.784 34.3949L56.4836 43H52.0702L47.4722 34.3949H51.784ZM56.8747 27.3871V24.0909H72.4045V27.3871H66.6154V43H62.6637V27.3871H56.8747ZM78.8996 43V24.0909H86.4706C87.8617 24.0909 89.022 24.2971 89.9515 24.7095C90.8809 25.1219 91.5795 25.6944 92.0473 26.4268C92.5151 27.1532 92.749 27.9903 92.749 28.9382C92.749 29.6768 92.6013 30.3262 92.3059 30.8864C92.0104 31.4403 91.6042 31.8958 91.0871 32.2528C90.5762 32.6037 89.9915 32.853 89.3329 33.0007V33.1854C90.053 33.2161 90.727 33.4193 91.3549 33.7947C91.9889 34.1702 92.5028 34.6965 92.8968 35.3736C93.2907 36.0445 93.4877 36.8447 93.4877 37.7741C93.4877 38.7775 93.2384 39.6731 92.7398 40.4609C92.2474 41.2427 91.518 41.8613 90.5516 42.3168C89.5852 42.7723 88.3942 43 86.9785 43H78.8996ZM82.8975 39.7315H86.1567C87.2708 39.7315 88.0833 39.5192 88.5942 39.0945C89.1051 38.6636 89.3606 38.0911 89.3606 37.3771C89.3606 36.8539 89.2344 36.3923 88.982 35.9922C88.7296 35.5921 88.3695 35.2782 87.9017 35.0504C87.4401 34.8227 86.8892 34.7088 86.249 34.7088H82.8975V39.7315ZM82.8975 32.0036H85.8613C86.4091 32.0036 86.8954 31.9081 87.3201 31.7173C87.7509 31.5204 88.0895 31.2434 88.3357 30.8864C88.5881 30.5294 88.7142 30.1016 88.7142 29.603C88.7142 28.9197 88.4711 28.3688 87.9848 27.9503C87.5047 27.5317 86.8215 27.3224 85.9351 27.3224H82.8975V32.0036ZM98.3083 43H94.0242L100.552 24.0909H105.704L112.222 43H107.938L103.202 28.4119H103.054L98.3083 43ZM98.0405 35.5675H108.16V38.6882H98.0405V35.5675ZM129.274 24.0909V43H125.821L117.595 31.0987H117.456V43H113.458V24.0909H116.967L125.129 35.983H125.295V24.0909H129.274ZM131.537 43V24.0909H135.535V32.4283H135.785L142.589 24.0909H147.381L140.364 32.5575L147.464 43H142.682L137.502 35.2259L135.535 37.6264V43H131.537Z" fill="white"/>
<path d="M13.082 29.5291L11.0918 29.7265L11.2706 31.5291H13.082V29.5291ZM8.1978 27.4517L8.93619 29.3104L8.94714 29.3061L8.95803 29.3016L8.1978 27.4517ZM7.16371 28.1996L5.56371 26.9996L5.55626 27.0095L5.54893 27.0195L7.16371 28.1996ZM6.81286 29.2891L8.81154 29.3617L8.81286 29.3254V29.2891H6.81286ZM7.02522 30.1754L5.31762 31.2166L5.32678 31.2317L5.3362 31.2465L7.02522 30.1754ZM7.68076 30.831L6.57136 32.4951L6.58429 32.5037L6.59735 32.5121L7.68076 30.831ZM8.64098 31.3018L7.94222 33.1758L7.95624 33.181L7.97033 33.1861L8.64098 31.3018ZM9.80434 31.6342L10.2695 29.6891L10.2554 29.6857L10.2413 29.6825L9.80434 31.6342ZM11.5032 32.0405L11.0381 33.9856L11.0521 33.989L11.0663 33.9922L11.5032 32.0405ZM13.7745 32.7791L12.9592 34.6054L13.7745 32.7791ZM15.5657 33.9148L16.8956 32.421L15.5657 33.9148ZM16.7383 35.5028L14.9176 36.3304L14.921 36.338L14.9245 36.3456L16.7383 35.5028ZM17.1722 37.5987L19.1722 37.6094L19.1723 37.5962L19.1722 37.5831L17.1722 37.5987ZM16.2859 40.6087L14.6385 39.4746L14.6367 39.4771L16.2859 40.6087ZM13.7745 42.5753L14.5548 44.4168L14.5598 44.4146L13.7745 42.5753ZM5.8434 42.5661L5.07632 44.4131L5.07988 44.4146L5.8434 42.5661ZM3.20277 40.4886L1.54892 41.6133L1.55323 41.6196L1.55759 41.6259L3.20277 40.4886ZM2.21485 37.0632V35.0632H0.169086L0.215358 37.1084L2.21485 37.0632ZM6.08345 37.0632L8.07885 36.9276L7.95215 35.0632H6.08345V37.0632ZM6.6282 38.6513L5.03098 39.855L5.04076 39.868L5.05074 39.8808L6.6282 38.6513ZM7.93005 39.6023L7.19091 41.4607L7.20357 41.4657L7.21631 41.4706L7.93005 39.6023ZM11.5494 39.6207L10.8223 37.7576L10.8145 37.7606L11.5494 39.6207ZM12.7219 38.799L14.2917 40.0383L14.2917 40.0383L12.7219 38.799ZM12.7589 36.5185L11.2358 37.8147L11.2437 37.824L11.2517 37.8332L12.7589 36.5185ZM11.6694 35.7798L10.8815 37.6181L10.8901 37.6218L11.6694 35.7798ZM9.92436 35.2259L9.43725 37.1656L9.44644 37.1679L9.45565 37.1702L9.92436 35.2259ZM7.86542 34.7088L8.35253 32.769L8.34533 32.7672L8.33812 32.7655L7.86542 34.7088ZM4.08914 32.8899L2.75671 34.3814H2.75671L4.08914 32.8899ZM2.71343 29.5568L4.71341 29.5656L4.71345 29.5558L4.7134 29.5461L2.71343 29.5568ZM3.62749 26.5561L2.0095 25.3804L2.00398 25.3881L3.62749 26.5561ZM13.5529 24.5526L12.7189 26.3704L12.7229 26.3722L13.5529 24.5526ZM16.0089 26.5561L14.3577 27.6846L14.3577 27.6846L16.0089 26.5561ZM16.9137 29.5291V31.5291H18.9468L18.9134 29.4963L16.9137 29.5291ZM15.0723 29.3317C14.9473 28.0714 14.3707 26.9587 13.3168 26.1828L10.9452 29.4039C11.0116 29.4527 11.0691 29.4973 11.0918 29.7265L15.0723 29.3317ZM13.3168 26.1828C12.3041 25.4371 11.0785 25.1747 9.8505 25.1747V29.1747C10.5429 29.1747 10.8377 29.3247 10.9452 29.4039L13.3168 26.1828ZM9.8505 25.1747C9.02157 25.1747 8.19545 25.2904 7.43757 25.6018L8.95803 29.3016C9.09882 29.2437 9.3745 29.1747 9.8505 29.1747V25.1747ZM7.45941 25.593C6.73935 25.8791 6.06692 26.3286 5.56371 26.9996L8.76371 29.3996C8.75564 29.4103 8.75464 29.4074 8.77431 29.3931C8.79573 29.3777 8.84484 29.3467 8.93619 29.3104L7.45941 25.593ZM5.54893 27.0195C5.05815 27.6911 4.81286 28.4698 4.81286 29.2891H8.81286C8.81286 29.2805 8.81363 29.2961 8.80429 29.3251C8.80001 29.3384 8.79479 29.3507 8.78935 29.3613C8.78395 29.3718 8.77969 29.378 8.77849 29.3796L5.54893 27.0195ZM4.81418 29.2164C4.78976 29.8879 4.93099 30.5826 5.31762 31.2166L8.73281 29.1342C8.76754 29.1912 8.78981 29.2491 8.80167 29.2986C8.81305 29.3461 8.81122 29.3704 8.81154 29.3617L4.81418 29.2164ZM5.3362 31.2465C5.66212 31.7605 6.08847 32.1731 6.57136 32.4951L8.79016 29.1669C8.75288 29.142 8.73262 29.1237 8.72334 29.1144C8.71447 29.1055 8.7129 29.1022 8.71423 29.1043L5.3362 31.2465ZM6.59735 32.5121C7.0142 32.7807 7.46719 32.9987 7.94222 33.1758L9.33975 29.4279C9.08845 29.3342 8.90129 29.2382 8.76416 29.1498L6.59735 32.5121ZM7.97033 33.1861C8.41684 33.345 8.88325 33.4775 9.36739 33.5859L10.2413 29.6825C9.90061 29.6063 9.59145 29.5172 9.31163 29.4176L7.97033 33.1861ZM9.33919 33.5794L11.0381 33.9856L11.9683 30.0953L10.2695 29.6891L9.33919 33.5794ZM11.0663 33.9922C11.7763 34.1511 12.4049 34.3579 12.9592 34.6054L14.5898 30.9528C13.7654 30.5848 12.8797 30.2992 11.9401 30.0888L11.0663 33.9922ZM12.9592 34.6054C13.4827 34.8391 13.9013 35.1108 14.2358 35.4086L16.8956 32.421C16.2206 31.8201 15.445 31.3346 14.5898 30.9528L12.9592 34.6054ZM14.2358 35.4086C14.5343 35.6743 14.7571 35.9774 14.9176 36.3304L18.559 34.6752C18.1655 33.8095 17.6065 33.0539 16.8956 32.421L14.2358 35.4086ZM14.9245 36.3456C15.0682 36.6548 15.168 37.0634 15.1723 37.6143L19.1722 37.5831C19.1642 36.5582 18.9747 35.5696 18.5521 34.6601L14.9245 36.3456ZM15.1723 37.5881C15.168 38.3948 14.9684 38.9953 14.6385 39.4746L17.9333 41.7427C18.7728 40.5231 19.1642 39.117 19.1722 37.6094L15.1723 37.5881ZM14.6367 39.4771C14.3065 39.9585 13.7942 40.3922 12.9892 40.7359L14.5598 44.4146C15.9461 43.8228 17.1081 42.9454 17.935 41.7402L14.6367 39.4771ZM12.9942 40.7338C12.2137 41.0645 11.1797 41.2678 9.83204 41.2678V45.2678C11.5621 45.2678 13.1564 45.0093 14.5548 44.4168L12.9942 40.7338ZM9.83204 41.2678C8.50526 41.2678 7.44581 41.064 6.60692 40.7175L5.07988 44.4146C6.50614 45.0037 8.10578 45.2678 9.83204 45.2678V41.2678ZM6.61048 40.719C5.8042 40.3842 5.24309 39.923 4.84795 39.3514L1.55759 41.6259C2.43044 42.8886 3.62975 43.8123 5.07632 44.4131L6.61048 40.719ZM4.85663 39.364C4.48893 38.8233 4.23831 38.0776 4.21433 37.018L0.215358 37.1084C0.252938 38.7695 0.660934 40.3074 1.54892 41.6133L4.85663 39.364ZM2.21485 39.0632H6.08345V35.0632H2.21485V39.0632ZM4.08806 37.1988C4.15225 38.1434 4.43516 39.0644 5.03098 39.855L8.22542 37.4476C8.18109 37.3888 8.10083 37.251 8.07885 36.9276L4.08806 37.1988ZM5.05074 39.8808C5.61668 40.6069 6.35234 41.1272 7.19091 41.4607L8.66918 37.7439C8.42442 37.6465 8.29218 37.5328 8.20565 37.4218L5.05074 39.8808ZM7.21631 41.4706C8.02821 41.7807 8.89452 41.9162 9.78587 41.9162V37.9162C9.29843 37.9162 8.92752 37.8424 8.64378 37.734L7.21631 41.4706ZM9.78587 41.9162C10.651 41.9162 11.4991 41.791 12.2842 41.4808L10.8145 37.7606C10.6025 37.8444 10.2749 37.9162 9.78587 37.9162V41.9162ZM12.2764 41.4839C13.0423 41.185 13.7519 40.7221 14.2917 40.0383L11.1522 37.5597C11.138 37.5776 11.0659 37.6625 10.8223 37.7576L12.2764 41.4839ZM14.2917 40.0383C14.853 39.3273 15.1374 38.4854 15.1374 37.5895H11.1374C11.1374 37.6017 11.1365 37.6056 11.137 37.6028C11.1375 37.5998 11.1389 37.593 11.142 37.5837C11.1452 37.5745 11.1489 37.5665 11.152 37.5608C11.1551 37.5553 11.156 37.5549 11.1522 37.5597L14.2917 40.0383ZM15.1374 37.5895C15.1374 36.7366 14.8707 35.8969 14.266 35.2037L11.2517 37.8332C11.2143 37.7903 11.1793 37.7326 11.1571 37.6697C11.1359 37.6098 11.1374 37.5768 11.1374 37.5895H15.1374ZM14.282 35.2222C13.7729 34.6241 13.1147 34.2197 12.4487 33.9379L10.8901 37.6218C11.1843 37.7462 11.2525 37.8343 11.2358 37.8147L14.282 35.2222ZM12.4572 33.9415C11.8499 33.6812 11.1542 33.465 10.3931 33.2816L9.45565 37.1702C10.0733 37.319 10.541 37.4722 10.8816 37.6181L12.4572 33.9415ZM10.4115 33.2861L8.35253 32.769L7.3783 36.6486L9.43725 37.1656L10.4115 33.2861ZM8.33812 32.7655C6.96325 32.431 6.03305 31.9447 5.42156 31.3984L2.75671 34.3814C3.99181 35.4848 5.57913 36.211 7.39271 36.6521L8.33812 32.7655ZM5.42156 31.3984C4.98281 31.0064 4.70941 30.4722 4.71341 29.5656L0.713446 29.548C0.705129 31.436 1.34887 33.1238 2.75671 34.3814L5.42156 31.3984ZM4.7134 29.5461C4.70931 28.7855 4.90397 28.2065 5.251 27.7241L2.00398 25.3881C1.11994 26.6169 0.705233 28.0383 0.713455 29.5676L4.7134 29.5461ZM5.24546 27.7318C5.63604 27.1942 6.19439 26.736 6.99537 26.381L5.37467 22.7241C4.00897 23.3293 2.86231 24.2068 2.00951 25.3805L5.24546 27.7318ZM6.99537 26.381C7.78514 26.031 8.73327 25.8324 9.8782 25.8324V21.8324C8.26555 21.8324 6.75156 22.1139 5.37467 22.7241L6.99537 26.381ZM9.8782 25.8324C11.0555 25.8324 11.985 26.0336 12.7189 26.3703L14.387 22.7348C13.0281 22.1113 11.5078 21.8324 9.8782 21.8324V25.8324ZM12.7229 26.3722C13.4835 26.7191 14.0018 27.164 14.3577 27.6846L17.6601 25.4276C16.8464 24.2371 15.7275 23.3462 14.3829 22.7329L12.7229 26.3722ZM14.3577 27.6846C14.7022 28.1888 14.9013 28.7914 14.914 29.5619L18.9134 29.4963C18.8891 28.014 18.485 26.6346 17.6601 25.4276L14.3577 27.6846ZM16.9137 27.5291H13.082V31.5291H16.9137V27.5291ZM18.8213 24.0909V22.0909H16.8213V24.0909H18.8213ZM23.7517 24.0909L25.6023 23.3324L25.0934 22.0909H23.7517V24.0909ZM28.9591 36.7955L27.1085 37.554L27.6174 38.7955H28.9591V36.7955ZM29.1807 36.7955V38.7955H30.5224L31.0313 37.554L29.1807 36.7955ZM34.3881 24.0909V22.0909H33.0464L32.5375 23.3324L34.3881 24.0909ZM39.3185 24.0909H41.3185V22.0909H39.3185V24.0909ZM39.3185 43V45H41.3185V43H39.3185ZM35.4407 43H33.4407V45H35.4407V43ZM35.4407 30.6925H37.4407V28.6925H35.4407V30.6925ZM35.2837 30.6925V28.6925H33.9304L33.4271 29.9487L35.2837 30.6925ZM30.3902 42.9077V44.9077H31.7435L32.2468 43.6514L30.3902 42.9077ZM27.7496 42.9077L25.8921 43.649L26.3944 44.9077H27.7496V42.9077ZM22.8561 30.6463L24.7137 29.905L24.2113 28.6463H22.8561V30.6463ZM22.6992 30.6463V28.6463H20.6992V30.6463H22.6992ZM22.6992 43V45H24.6992V43H22.6992ZM18.8213 43H16.8213V45H18.8213V43ZM18.8213 26.0909H23.7517V22.0909H18.8213V26.0909ZM21.9011 24.8494L27.1085 37.554L30.8097 36.0369L25.6023 23.3324L21.9011 24.8494ZM28.9591 38.7955H29.1807V34.7955H28.9591V38.7955ZM31.0313 37.554L36.2387 24.8494L32.5375 23.3324L27.3301 36.0369L31.0313 37.554ZM34.3881 26.0909H39.3185V22.0909H34.3881V26.0909ZM37.3185 24.0909V43H41.3185V24.0909H37.3185ZM39.3185 41H35.4407V45H39.3185V41ZM37.4407 43V30.6925H33.4407V43H37.4407ZM35.4407 28.6925H35.2837V32.6925H35.4407V28.6925ZM33.4271 29.9487L28.5337 42.1639L32.2468 43.6514L37.1403 31.4362L33.4271 29.9487ZM30.3902 40.9077H27.7496V44.9077H30.3902V40.9077ZM29.6071 42.1663L24.7137 29.905L20.9986 31.3876L25.8921 43.649L29.6071 42.1663ZM22.8561 28.6463H22.6992V32.6463H22.8561V28.6463ZM20.6992 30.6463V43H24.6992V30.6463H20.6992ZM22.6992 41H18.8213V45H22.6992V41ZM20.8213 43V24.0909H16.8213V43H20.8213ZM41.5723 43H39.5723V45H41.5723V43ZM41.5723 24.0909V22.0909H39.5723V24.0909H41.5723ZM52.6888 24.8572L51.7857 26.6417L51.7922 26.645L51.7987 26.6483L52.6888 24.8572ZM55.0063 27.0085L53.2684 27.9983L53.2723 28.0052L53.2762 28.012L55.0063 27.0085ZM54.9971 33.5085L56.71 34.541L56.7131 34.5358L54.9971 33.5085ZM52.6427 35.5767L51.7963 33.7646L51.7921 33.7666L52.6427 35.5767ZM43.936 36.2969H41.936V38.2969H43.936V36.2969ZM43.936 33.0838V31.0838H41.936V33.0838H43.936ZM50.1867 32.7699L50.9527 34.6174L50.1867 32.7699ZM51.3131 31.8281L49.6004 30.7954L49.5947 30.8047L49.5892 30.8141L51.3131 31.8281ZM51.3131 28.6797L49.5766 29.672L49.5819 29.6813L49.5873 29.6905L51.3131 28.6797ZM50.1775 27.701L49.3549 29.524L49.3682 29.53L49.3816 29.5358L50.1775 27.701ZM45.5702 27.3594V25.3594H43.5702V27.3594H45.5702ZM45.5702 43V45H47.5702V43H45.5702ZM51.784 34.3949L53.5393 33.4363L52.9705 32.3949H51.784V34.3949ZM56.4836 43V45H59.8547L58.2389 42.0414L56.4836 43ZM52.0702 43L50.3062 43.9426L50.8713 45H52.0702V43ZM47.4722 34.3949V32.3949H44.1359L45.7082 35.3374L47.4722 34.3949ZM43.5723 43V24.0909H39.5723V43H43.5723ZM41.5723 26.0909H49.0326V22.0909H41.5723V26.0909ZM49.0326 26.0909C50.227 26.0909 51.1199 26.3048 51.7857 26.6417L53.5919 23.0728C52.2388 22.3879 50.6942 22.0909 49.0326 22.0909V26.0909ZM51.7987 26.6483C52.481 26.9873 52.9479 27.4356 53.2684 27.9983L56.7442 26.0187C56.006 24.7226 54.9279 23.7366 53.5789 23.0662L51.7987 26.6483ZM53.2762 28.012C53.6068 28.5819 53.8096 29.31 53.8096 30.2678H57.8096C57.8096 28.7265 57.4768 27.2818 56.7364 26.0051L53.2762 28.012ZM53.8096 30.2678C53.8096 31.2311 53.6042 31.9415 53.281 32.4812L56.7131 34.5358C57.4733 33.2659 57.8096 31.8158 57.8096 30.2678H53.8096ZM53.2841 32.4761C52.9643 33.0068 52.495 33.4383 51.7963 33.7646L53.489 37.3888C54.8462 36.7549 55.9465 35.8076 56.71 34.541L53.2841 32.4761ZM51.7921 33.7666C51.1013 34.0912 50.1709 34.2969 48.931 34.2969V38.2969C50.5964 38.2969 52.1405 38.0225 53.4932 37.3868L51.7921 33.7666ZM48.931 34.2969H43.936V38.2969H48.931V34.2969ZM45.936 36.2969V33.0838H41.936V36.2969H45.936ZM43.936 35.0838H48.2847V31.0838H43.936V35.0838ZM48.2847 35.0838C49.2138 35.0838 50.1292 34.9588 50.9527 34.6174L49.4207 30.9224C49.2347 30.9995 48.8821 31.0838 48.2847 31.0838V35.0838ZM50.9527 34.6174C51.8061 34.2635 52.5432 33.6816 53.037 32.8422L49.5892 30.8141C49.5832 30.8244 49.5774 30.8319 49.564 30.8431C49.5486 30.856 49.5074 30.8864 49.4207 30.9224L50.9527 34.6174ZM53.0259 32.8608C53.5109 32.0564 53.6917 31.1558 53.6917 30.2678H49.6917C49.6917 30.6231 49.6201 30.7627 49.6004 30.7954L53.0259 32.8608ZM53.6917 30.2678C53.6917 29.3749 53.5115 28.4759 53.0389 27.6689L49.5873 29.6905C49.6194 29.7453 49.6917 29.9049 49.6917 30.2678H53.6917ZM53.0496 27.6874C52.5631 26.8361 51.8297 26.2376 50.9733 25.8662L49.3816 29.5358C49.547 29.6076 49.5707 29.6615 49.5766 29.672L53.0496 27.6874ZM51 25.878C50.1567 25.4975 49.2159 25.3594 48.2662 25.3594V29.3594C48.8554 29.3594 49.1887 29.449 49.3549 29.524L51 25.878ZM48.2662 25.3594H45.5702V29.3594H48.2662V25.3594ZM43.5702 27.3594V43H47.5702V27.3594H43.5702ZM45.5702 41H41.5723V45H45.5702V41ZM50.0287 35.3535L54.7283 43.9586L58.2389 42.0414L53.5393 33.4363L50.0287 35.3535ZM56.4836 41H52.0702V45H56.4836V41ZM53.8342 42.0574L49.2362 33.4523L45.7082 35.3374L50.3062 43.9426L53.8342 42.0574ZM47.4722 36.3949H51.784V32.3949H47.4722V36.3949ZM56.8747 27.3871H54.8747V29.3871H56.8747V27.3871ZM56.8747 24.0909V22.0909H54.8747V24.0909H56.8747ZM72.4045 24.0909H74.4045V22.0909H72.4045V24.0909ZM72.4045 27.3871V29.3871H74.4045V27.3871H72.4045ZM66.6154 27.3871V25.3871H64.6154V27.3871H66.6154ZM66.6154 43V45H68.6154V43H66.6154ZM62.6637 43H60.6637V45H62.6637V43ZM62.6637 27.3871H64.6637V25.3871H62.6637V27.3871ZM58.8747 27.3871V24.0909H54.8747V27.3871H58.8747ZM56.8747 26.0909H72.4045V22.0909H56.8747V26.0909ZM70.4045 24.0909V27.3871H74.4045V24.0909H70.4045ZM72.4045 25.3871H66.6154V29.3871H72.4045V25.3871ZM64.6154 27.3871V43H68.6154V27.3871H64.6154ZM66.6154 41H62.6637V45H66.6154V41ZM64.6637 43V27.3871H60.6637V43H64.6637ZM62.6637 25.3871H56.8747V29.3871H62.6637V25.3871ZM78.8996 43H76.8996V45H78.8996V43ZM78.8996 24.0909V22.0909H76.8996V24.0909H78.8996ZM89.9515 24.7095L89.1403 26.5376V26.5376L89.9515 24.7095ZM92.0473 26.4268L90.3618 27.5034L90.3659 27.5098L92.0473 26.4268ZM92.3059 30.8864L94.0706 31.8275L94.0749 31.8195L92.3059 30.8864ZM91.0871 32.2528L92.2193 33.9015L92.2235 33.8986L91.0871 32.2528ZM89.3329 33.0007L88.8951 31.0492L87.3329 31.3996V33.0007H89.3329ZM89.3329 33.1854H87.3329V35.1017L89.2475 35.1835L89.3329 33.1854ZM91.3549 33.7947L90.3283 35.5112L90.3357 35.5156L91.3549 33.7947ZM92.8968 35.3736L91.1681 36.3794L91.1721 36.3862L92.8968 35.3736ZM92.7398 40.4609L91.0498 39.3915L91.0476 39.395L92.7398 40.4609ZM90.5516 42.3168L89.6989 40.5076L90.5516 42.3168ZM82.8975 39.7315H80.8975V41.7315H82.8975V39.7315ZM88.5942 39.0945L89.8728 40.6324L89.8782 40.6279L89.8836 40.6233L88.5942 39.0945ZM88.982 35.9922L87.2904 37.0592V37.0592L88.982 35.9922ZM87.9017 35.0504L87.0169 36.8441L87.0263 36.8486L87.9017 35.0504ZM82.8975 34.7088V32.7088H80.8975V34.7088H82.8975ZM82.8975 32.0036H80.8975V34.0036H82.8975V32.0036ZM87.3201 31.7173L88.1397 33.5417L88.1516 33.5363L87.3201 31.7173ZM88.3357 30.8864L86.7025 29.7319L86.6958 29.7414L86.6893 29.7509L88.3357 30.8864ZM87.9848 27.9503L86.6705 29.4579L86.6801 29.4661L87.9848 27.9503ZM82.8975 27.3224V25.3224H80.8975V27.3224H82.8975ZM80.8996 43V24.0909H76.8996V43H80.8996ZM78.8996 26.0909H86.4706V22.0909H78.8996V26.0909ZM86.4706 26.0909C87.679 26.0909 88.5419 26.2721 89.1403 26.5376L90.7626 22.8814C89.5021 22.3221 88.0445 22.0909 86.4706 22.0909V26.0909ZM89.1403 26.5376C89.7732 26.8184 90.1393 27.155 90.3618 27.5033L93.7329 25.3503C93.0198 24.2338 91.9886 23.4254 90.7626 22.8814L89.1403 26.5376ZM90.3659 27.5098C90.6057 27.8821 90.749 28.3356 90.749 28.9382H94.749C94.749 27.645 94.4246 26.4242 93.7288 25.3439L90.3659 27.5098ZM90.749 28.9382C90.749 29.4059 90.6572 29.7252 90.5369 29.9533L94.0749 31.8195C94.5455 30.9273 94.749 29.9478 94.749 28.9382H90.749ZM90.5412 29.9452C90.396 30.2173 90.2053 30.4313 89.9507 30.607L92.2235 33.8986C93.003 33.3604 93.6248 32.6634 94.0706 31.8275L90.5412 29.9452ZM89.9549 30.6042C89.6721 30.7984 89.3273 30.9523 88.8951 31.0492L89.7706 34.9522C90.6556 34.7537 91.4803 34.409 92.2193 33.9015L89.9549 30.6042ZM87.3329 33.0007V33.1854H91.3329V33.0007H87.3329ZM89.2475 35.1835C89.6303 35.1999 89.9815 35.3038 90.3284 35.5112L92.3814 32.0783C91.4726 31.5348 90.4758 31.2324 89.4182 31.1872L89.2475 35.1835ZM90.3357 35.5156C90.6575 35.7062 90.9346 35.978 91.1681 36.3794L94.6255 34.3678C94.0711 33.415 93.3203 32.6343 92.374 32.0739L90.3357 35.5156ZM91.1721 36.3862C91.3535 36.6952 91.4877 37.1312 91.4877 37.7741H95.4877C95.4877 36.5582 95.2279 35.3938 94.6215 34.3609L91.1721 36.3862ZM91.4877 37.7741C91.4877 38.4288 91.3304 38.948 91.0498 39.3915L94.4298 41.5304C95.1464 40.3981 95.4877 39.1261 95.4877 37.7741H91.4877ZM91.0476 39.395C90.7886 39.806 90.3754 40.1888 89.6989 40.5076L91.4043 44.1259C92.6605 43.5338 93.7062 42.6793 94.4321 41.5269L91.0476 39.395ZM89.6989 40.5076C89.0711 40.8035 88.1908 41 86.9784 41V45C88.5975 45 90.0993 44.741 91.4043 44.1259L89.6989 40.5076ZM86.9784 41H78.8996V45H86.9784V41ZM82.8975 41.7315H86.1567V37.7315H82.8975V41.7315ZM86.1567 41.7315C87.4473 41.7315 88.8293 41.4999 89.8728 40.6324L87.3157 37.5565C87.3369 37.5388 87.2912 37.5862 87.0959 37.6373C86.8984 37.6889 86.595 37.7315 86.1567 37.7315V41.7315ZM89.8836 40.6233C90.8791 39.7838 91.3605 38.6347 91.3605 37.3771H87.3605C87.3605 37.4363 87.3553 37.4748 87.351 37.4966C87.3468 37.5177 87.3428 37.5263 87.3426 37.527C87.3424 37.5273 87.3423 37.5278 87.3401 37.5308C87.3376 37.5341 87.3279 37.5461 87.3048 37.5656L89.8836 40.6233ZM91.3605 37.3771C91.3605 36.5177 91.1485 35.678 90.6736 34.9252L87.2904 37.0592C87.3203 37.1066 87.3605 37.1902 87.3605 37.3771H91.3605ZM90.6736 34.9252C90.203 34.1791 89.5452 33.6261 88.7772 33.2522L87.0263 36.8486C87.1939 36.9302 87.2563 37.0051 87.2904 37.0592L90.6736 34.9252ZM88.7866 33.2568C87.991 32.8643 87.123 32.7088 86.249 32.7088V36.7088C86.6554 36.7088 86.8893 36.7811 87.0169 36.844L88.7866 33.2568ZM86.249 32.7088H82.8975V36.7088H86.249V32.7088ZM80.8975 34.7088V39.7315H84.8975V34.7088H80.8975ZM82.8975 34.0036H85.8613V30.0036H82.8975V34.0036ZM85.8613 34.0036C86.6423 34.0036 87.4158 33.8669 88.1397 33.5417L86.5004 29.893C86.3749 29.9494 86.1759 30.0036 85.8613 30.0036V34.0036ZM88.1516 33.5363C88.8795 33.2035 89.5122 32.7032 89.9821 32.0218L86.6893 29.7509C86.6667 29.7836 86.6224 29.8372 86.4885 29.8984L88.1516 33.5363ZM89.9688 32.0408C90.4925 31.3001 90.7142 30.4548 90.7142 29.603H86.7142C86.7142 29.683 86.7043 29.722 86.7013 29.7319C86.6991 29.7396 86.6995 29.7363 86.7025 29.7319L89.9688 32.0408ZM90.7142 29.603C90.7142 28.3803 90.2488 27.2601 89.2896 26.4345L86.6801 29.4661C86.6991 29.4825 86.7057 29.4913 86.7058 29.4915C86.706 29.4918 86.7054 29.491 86.7045 29.4894C86.7035 29.4877 86.7027 29.4861 86.7022 29.4849C86.7008 29.4818 86.7032 29.486 86.7064 29.502C86.7096 29.5185 86.7142 29.5509 86.7142 29.603H90.7142ZM89.2991 26.4427C88.3341 25.6014 87.116 25.3224 85.9351 25.3224V29.3224C86.2254 29.3224 86.414 29.3572 86.5266 29.3917C86.6324 29.4241 86.6667 29.4544 86.6706 29.4578L89.2991 26.4427ZM85.9351 25.3224H82.8975V29.3224H85.9351V25.3224ZM80.8975 27.3224V32.0036H84.8975V27.3224H80.8975ZM98.3083 43V45H99.7608L100.21 43.6187L98.3083 43ZM94.0242 43L92.1337 42.3474L91.218 45H94.0242V43ZM100.552 24.0909V22.0909H99.1265L98.6614 23.4383L100.552 24.0909ZM105.704 24.0909L107.595 23.4391L107.13 22.0909H105.704V24.0909ZM112.222 43V45H115.027L114.113 42.3482L112.222 43ZM107.938 43L106.036 43.6176L106.485 45H107.938V43ZM103.202 28.4119L105.104 27.7943L104.655 26.4119H103.202V28.4119ZM103.054 28.4119V26.4119H101.602L101.152 27.7932L103.054 28.4119ZM98.0405 35.5675V33.5675H96.0405V35.5675H98.0405ZM108.16 35.5675H110.16V33.5675H108.16V35.5675ZM108.16 38.6882V40.6882H110.16V38.6882H108.16ZM98.0405 38.6882H96.0405V40.6882H98.0405V38.6882ZM98.3083 41H94.0242V45H98.3083V41ZM95.9147 43.6526L102.442 24.7435L98.6614 23.4383L92.1337 42.3474L95.9147 43.6526ZM100.552 26.0909H105.704V22.0909H100.552V26.0909ZM103.813 24.7427L110.332 43.6518L114.113 42.3482L107.595 23.4391L103.813 24.7427ZM112.222 41H107.938V45H112.222V41ZM109.841 42.3824L105.104 27.7943L101.3 29.0296L106.036 43.6176L109.841 42.3824ZM103.202 26.4119H103.054V30.4119H103.202V26.4119ZM101.152 27.7932L96.4064 42.3813L100.21 43.6187L104.956 29.0306L101.152 27.7932ZM98.0405 37.5675H108.16V33.5675H98.0405V37.5675ZM106.16 35.5675V38.6882H110.16V35.5675H106.16ZM108.16 36.6882H98.0405V40.6882H108.16V36.6882ZM100.041 38.6882V35.5675H96.0405V38.6882H100.041ZM129.274 24.0909H131.274V22.0909H129.274V24.0909ZM129.274 43V45H131.274V43H129.274ZM125.821 43L124.176 44.1372L124.772 45H125.821V43ZM117.595 31.0987L119.24 29.9615L118.643 29.0987H117.595V31.0987ZM117.456 31.0987V29.0987H115.456V31.0987H117.456ZM117.456 43V45H119.456V43H117.456ZM113.458 43H111.458V45H113.458V43ZM113.458 24.0909V22.0909H111.458V24.0909H113.458ZM116.967 24.0909L118.616 22.9592L118.02 22.0909H116.967V24.0909ZM125.129 35.983L123.48 37.1147L124.076 37.983H125.129V35.983ZM125.295 35.983V37.983H127.295V35.983H125.295ZM125.295 24.0909V22.0909H123.295V24.0909H125.295ZM127.274 24.0909V43H131.274V24.0909H127.274ZM129.274 41H125.821V45H129.274V41ZM127.466 41.8628L119.24 29.9615L115.949 32.2359L124.176 44.1372L127.466 41.8628ZM117.595 29.0987H117.456V33.0987H117.595V29.0987ZM115.456 31.0987V43H119.456V31.0987H115.456ZM117.456 41H113.458V45H117.456V41ZM115.458 43V24.0909H111.458V43H115.458ZM113.458 26.0909H116.967V22.0909H113.458V26.0909ZM115.318 25.2227L123.48 37.1147L126.778 34.8512L118.616 22.9592L115.318 25.2227ZM125.129 37.983H125.295V33.983H125.129V37.983ZM127.295 35.983V24.0909H123.295V35.983H127.295ZM125.295 26.0909H129.274V22.0909H125.295V26.0909ZM131.537 43H129.537V45H131.537V43ZM131.537 24.0909V22.0909H129.537V24.0909H131.537ZM135.535 24.0909H137.535V22.0909H135.535V24.0909ZM135.535 32.4283H133.535V34.4283H135.535V32.4283ZM135.785 32.4283V34.4283H136.734L137.334 33.6929L135.785 32.4283ZM142.589 24.0909V22.0909H141.64L141.04 22.8263L142.589 24.0909ZM147.381 24.0909L148.921 25.3671L151.636 22.0909H147.381V24.0909ZM140.364 32.5575L138.824 31.2813L137.865 32.4388L138.71 33.6821L140.364 32.5575ZM147.464 43V45H151.243L149.118 41.8755L147.464 43ZM142.682 43L141.017 44.1089L141.611 45H142.682V43ZM137.502 35.2259L139.166 34.1169L137.668 31.8676L135.955 33.9584L137.502 35.2259ZM135.535 37.6264L133.988 36.359L133.535 36.9118V37.6264H135.535ZM135.535 43V45H137.535V43H135.535ZM133.537 43V24.0909H129.537V43H133.537ZM131.537 26.0909H135.535V22.0909H131.537V26.0909ZM133.535 24.0909V32.4283H137.535V24.0909H133.535ZM135.535 34.4283H135.785V30.4283H135.535V34.4283ZM137.334 33.6929L144.139 25.3555L141.04 22.8263L134.235 31.1637L137.334 33.6929ZM142.589 26.0909H147.381V22.0909H142.589V26.0909ZM145.841 22.8147L138.824 31.2813L141.904 33.8338L148.921 25.3671L145.841 22.8147ZM138.71 33.6821L145.81 44.1245L149.118 41.8755L142.018 31.433L138.71 33.6821ZM147.464 41H142.682V45H147.464V41ZM144.346 41.8911L139.166 34.1169L135.838 36.3348L141.017 44.1089L144.346 41.8911ZM135.955 33.9584L133.988 36.359L137.082 38.8939L139.049 36.4933L135.955 33.9584ZM133.535 37.6264V43H137.535V37.6264H133.535ZM135.535 41H131.537V45H135.535V41Z" fill="#0E0E0E" mask="url(#path-13-outside-1_292_905)"/>
</svg>
