<svg width="68" height="69" viewBox="0 0 68 69" fill="none" xmlns="http://www.w3.org/2000/svg">
<path d="M33.2991 63.1804H34.5259L35.4898 63.5309L36.1032 64.0567L36.629 64.8454L36.8919 65.4588V66.5103L36.5414 67.3866L35.7527 68.2629L35.0517 68.701L34.1754 68.9639L33.3867 68.8763L32.5981 68.5258L31.8971 67.9124L31.3713 67.2113L31.1084 66.5103V65.3711L31.4589 64.5825L31.9847 63.8815L32.9486 63.268L33.2991 63.1804Z" fill="white"/>
<path d="M60.9019 15.7733H61.6905L62.7421 16.1238L63.6183 16.9125L64.1441 17.7888L64.2317 18.1393V19.1908L63.6183 20.4176L62.8297 21.1187L62.041 21.4692L61.6905 21.5568H60.9895L60.1132 21.2939L59.3245 20.6805L58.7111 19.8919L58.4482 19.1908V17.964L58.974 16.9125L59.7627 16.2115L60.5513 15.8609L60.9019 15.7733Z" fill="white"/>
<path d="M44.5156 1.84021L45.4795 1.92784L46.531 2.45361L47.2321 3.24227L47.6702 4.20619V5.25774L47.4073 6.0464L46.6187 6.92268L45.83 7.44846L44.9537 7.71134L44.0774 7.62371L43.1135 7.09794L42.5001 6.48454L42.062 5.78351L41.8867 5.17011V4.20619L42.1496 3.50516L42.6754 2.80413L43.2888 2.27835L44.0774 1.92784L44.5156 1.84021Z" fill="white"/>
<path d="M60.9895 47.3196H61.6905L62.6544 47.6701L63.3555 48.1959L63.9689 48.9845L64.2317 49.6856V50.7371L63.8812 51.6134L63.0926 52.4897L62.3915 52.9278L61.7781 53.1031H60.9019L60.1132 52.8402L59.4122 52.3144L58.7988 51.6134L58.4482 50.8247V49.5979L58.7111 48.8969L59.3245 48.1082L60.2008 47.5825L60.9895 47.3196Z" fill="white"/>
<path d="M22.8713 1.84021H23.4847L24.361 2.1031L25.1497 2.62887L25.6754 3.3299L26.026 4.11856L26.1136 4.46908V5.17011L25.6754 6.22165L24.9744 7.01031L24.1857 7.44846L23.3971 7.71134L22.5208 7.62371L21.4693 7.09794L20.7682 6.30928L20.4177 5.60825L20.3301 5.17011V4.11856L20.6806 3.24227L21.2064 2.62887L22.2579 2.01547L22.8713 1.84021Z" fill="white"/>
<path d="M33.4744 0H34.5259L35.4022 0.350515L36.1032 0.963917L36.7166 1.84021L36.8919 2.36598V3.41753L36.3661 4.46907L35.5775 5.25773L34.7012 5.69588L34.3507 5.7835H33.6496L32.6857 5.43299L31.8094 4.73196L31.2837 3.85567L31.1084 3.3299V2.27835L31.4589 1.40206L32.2476 0.525773L33.1239 0.0876289L33.4744 0Z" fill="white"/>
<path d="M44.2527 61.2526H45.3042L46.1805 61.6031L46.8816 62.1289L47.4073 62.9175L47.6702 63.6185V64.5825L47.3197 65.5464L46.7063 66.2474L45.6548 66.8608L44.9537 67.0361L44.0774 66.9484L43.2012 66.5103L42.3249 65.634L41.9743 64.8453L41.8867 64.4948V63.5309L42.2372 62.6546L42.8506 61.9536L43.7269 61.4278L44.2527 61.2526Z" fill="white"/>
<path d="M53.8918 55.7321H54.5929L55.4691 55.9949L56.2578 56.5207L56.7836 57.2217L57.1341 57.9228L57.2217 58.2733V58.8867L56.8712 59.8506L56.2578 60.6393L55.6444 61.165L54.8557 61.5156L54.0671 61.6032L53.1908 61.3403L52.4898 60.8145L51.7887 60.0259L51.4382 59.2372L51.3506 58.4486L51.7011 57.3094L52.4021 56.4331L53.1908 55.9073L53.8918 55.7321Z" fill="white"/>
<path d="M13.2319 55.7321H14.1082L15.0721 56.0826L15.8608 56.7836L16.3866 57.6599L16.5618 58.098V59.2372L16.0361 60.2888L15.2474 61.0774L14.2835 61.5156L13.4072 61.6032L12.4433 61.2527L11.567 60.464L11.0412 59.6754L10.7783 58.8867V58.1857L11.1288 57.2217L11.9175 56.3455L12.6185 55.9073L13.2319 55.7321Z" fill="white"/>
<path d="M2.54124 26.0259L3.50515 26.1135L4.38144 26.464L4.99485 26.9898L5.60825 27.9537L5.7835 28.5671V29.531L5.25773 30.5826L4.5567 31.2836L3.50515 31.8094H2.27835L1.48969 31.4589L0.613402 30.6702L0.0876289 29.7939L0 29.4434V28.3919L0.350515 27.5156L1.05155 26.7269L1.92783 26.2011L2.54124 26.0259Z" fill="white"/>
<path d="M2.71649 36.9795L3.76804 37.1547L4.46907 37.5053L5.1701 38.1187L5.69588 39.1702L5.7835 39.5207V40.397L5.43299 41.2733L4.81959 42.062L3.76804 42.6754L3.06701 42.8506L2.27835 42.763L1.2268 42.2372L0.613402 41.6238L0.175258 40.9228L0 40.397V39.3455L0.350515 38.4692L1.05155 37.6805L1.84021 37.2424L2.71649 36.9795Z" fill="white"/>
<path d="M64.407 26.1135H65.7215L66.5978 26.464L67.2112 26.9898L67.8246 28.0414L67.9998 28.5671V29.1805L67.7369 30.0568L67.1235 30.9331L66.5101 31.4589L65.7215 31.8094H64.407L63.3555 31.2836L62.6545 30.495L62.3039 29.7063L62.2163 29.3558V28.4795L62.4792 27.6032L63.0926 26.8146L63.9689 26.2888L64.407 26.1135Z" fill="white"/>
<path d="M6.22167 47.3196H7.01033L7.97425 47.6701L8.67528 48.1959L9.20106 48.9845L9.46394 49.5103L9.55157 49.9484V50.6495L9.20106 51.5258L8.58765 52.3144L7.71137 52.9278L7.09796 53.1031H6.22167L5.25776 52.7526L4.55673 52.1392L4.03095 51.4381L3.76807 50.3866V49.7732L4.03095 48.8969L4.64436 48.1082L5.60827 47.4948L6.22167 47.3196Z" fill="white"/>
<path d="M22.7837 61.2526H23.66L24.6239 61.6031L25.5002 62.3917L26.026 63.3557L26.1136 63.7062V64.5825L25.5878 65.634L24.8868 66.4227L24.0981 66.8608L23.3095 67.0361L22.5208 66.9484L21.4693 66.4227L20.7682 65.634L20.4177 64.933L20.3301 64.5825V63.4433L20.593 62.7423L21.3816 61.866L21.9074 61.5155L22.7837 61.2526Z" fill="white"/>
<path d="M53.8918 7.36084H54.5929L55.4691 7.62373L56.2578 8.1495L56.7836 8.85053L57.1341 9.63919L57.2217 10.5155L56.9588 11.3918L56.3454 12.1804L55.732 12.7062L55.031 13.0567L54.6805 13.1443H53.8042L53.1032 12.8815L52.4021 12.3557L51.7887 11.6547L51.4382 10.7784L51.3506 9.98971L51.6135 9.11342L52.1392 8.32476L52.7526 7.79898L53.5413 7.44847L53.8918 7.36084Z" fill="white"/>
<path d="M6.04642 15.7733H7.18559L7.97425 16.1238L8.67528 16.6496L9.20106 17.3506L9.55157 18.3146V19.0156L9.20106 19.8919L8.85054 20.4176L8.23714 21.031L7.36085 21.4692L7.01033 21.5568H6.3093L5.52064 21.2939L4.73198 20.7682L4.20621 20.1548L3.8557 19.3661L3.76807 18.928V18.2269L4.03095 17.3506L4.55673 16.6496L5.34539 16.0362L6.04642 15.7733Z" fill="white"/>
<path d="M64.4947 37.067H65.6338L66.6854 37.5052L67.2988 38.1186L67.8246 38.9949L67.9998 39.6083V40.2217L67.6493 41.1856L66.9483 42.0619L66.1596 42.5876L65.2833 42.8505L64.4947 42.7629L63.6184 42.4124L62.8297 41.7113L62.3039 40.6598L62.2163 40.3093V39.3454L62.6545 38.2938L63.3555 37.5928L64.2318 37.1546L64.4947 37.067Z" fill="white"/>
<path d="M13.3196 7.36084H13.933L15.0721 7.71136L15.9484 8.50002L16.4742 9.3763L16.5618 9.72682V10.7784L16.0361 11.8299L15.5103 12.4433L14.634 12.9691L14.1082 13.1443H13.2319L12.5309 12.8815L12.0051 12.5309L11.567 12.1804L11.0412 11.3041L10.7783 10.5155V9.81445L11.2165 8.7629L12.0051 7.88661L12.7062 7.5361L13.3196 7.36084Z" fill="white"/>
<path d="M38.1188 57.3093H38.7322L39.4333 57.6598L39.959 58.2732L40.2219 58.8866V59.6753L39.959 60.2011L39.258 60.8145L38.3817 61.165L37.8559 61.0774L37.0673 60.5516L36.6291 59.9382L36.5415 59.6753V58.7114L36.892 58.0104L37.5931 57.4846L38.1188 57.3093Z" fill="white"/>
<path d="M21.2938 54.33L22.1701 54.5052L22.8711 55.1186L23.2217 55.6444L23.3093 55.9073V56.5207L22.9588 57.2217L22.1701 57.9227L21.732 58.098H21.0309L20.3299 57.7475L19.7165 57.1341L19.4536 56.433L19.5412 55.6444L19.8918 55.1186L20.5052 54.5928L21.2938 54.33Z" fill="white"/>
<path d="M57.2216 41.1857H58.0979L58.6237 41.4486L59.0618 41.8867L59.4123 42.3248L59.5876 42.8506V43.3764L59.1495 44.0774L58.4484 44.6908L57.835 44.9537H57.2216L56.433 44.4279L55.9072 43.7269L55.7319 42.8506L56.0824 41.9743L56.7835 41.3609L57.2216 41.1857Z" fill="white"/>
<path d="M29.268 57.3093H29.8814L30.6701 57.6598L31.1958 58.2732L31.4587 58.799V59.6753L31.1958 60.2011L30.5824 60.8145L30.0567 61.0774H29.1804L28.3917 60.6392L27.9536 60.1135L27.7783 59.6753V58.7114L28.0412 58.1856L28.6546 57.5722L29.268 57.3093Z" fill="white"/>
<path d="M58.8864 32.598H59.5874L60.2885 32.9485L60.8142 33.5619L61.0771 34.1753L60.9895 34.964L60.4637 35.7527L59.6751 36.2784L59.4122 36.3661H58.7111L57.9225 35.8403L57.3967 35.0516L57.3091 34.8764V34.0001L57.6596 33.2991L58.3606 32.7733L58.8864 32.598Z" fill="white"/>
<path d="M8.5878 32.598H9.2012L9.90223 32.9485L10.428 33.5619L10.6909 34.1753V34.7887L10.1651 35.665L9.55172 36.1908L9.11357 36.3661H8.41254L7.53625 35.8403L7.01048 35.0516L6.92285 34.7011V34.0001L7.27337 33.2991L7.9744 32.7733L8.5878 32.598Z" fill="white"/>
<path d="M57.134 24.0104H58.1855L58.7113 24.2733L59.3247 24.9743L59.5876 25.5877L59.5 26.2887L59.1495 26.9021L58.5361 27.4279L58.0103 27.6908H57.2216L56.5206 27.2526L56.0824 26.8145L55.8196 26.2887L55.7319 25.6753L55.9948 24.8867L56.433 24.3609L57.134 24.0104Z" fill="white"/>
<path d="M21.2065 10.6908L21.9951 10.7784L22.5209 11.1289L23.0467 11.7423L23.3095 12.3557V12.9691L22.8714 13.6702L22.1704 14.2836L21.7322 14.4588H20.9436L20.1549 13.9331L19.6291 13.3197L19.5415 13.0568V12.0929L19.892 11.4795L20.5054 10.9537L21.2065 10.6908Z" fill="white"/>
<path d="M52.8401 16.3866H53.7163L54.4174 16.7371L55.0308 17.5258L55.206 18.0515L55.1184 18.7526L54.5926 19.5412L53.7163 20.067L53.1906 20.1546L52.4019 19.8918L51.7009 19.2783L51.438 18.6649V17.7887L51.7885 17.0876L52.3143 16.6495L52.8401 16.3866Z" fill="white"/>
<path d="M53.0153 48.7217H53.6287L54.3297 49.0722L54.9431 49.7732L55.206 50.3866L55.1184 51.1753L54.5926 51.8763L54.1545 52.2268L53.6287 52.4897H52.8401L52.139 52.0516L51.6132 51.4382L51.438 51V50.0361L51.7885 49.5103L52.4895 48.8969L53.0153 48.7217Z" fill="white"/>
<path d="M38.1188 7.71143L38.9075 7.79905L39.6961 8.32483L40.1343 9.02586L40.2219 9.28875V10.0774L39.6961 10.8661L38.9951 11.3918L38.4693 11.5671L37.8559 11.4795L37.0673 10.9537L36.6291 10.3403L36.5415 10.0774V9.11349L36.892 8.50009L37.3302 8.06194L38.1188 7.71143Z" fill="white"/>
<path d="M46.4435 54.33L47.1445 54.4176L47.9332 54.9434L48.459 55.9949L48.3713 56.6959L48.0208 57.397L47.3198 57.9227L46.9693 58.098H46.1806L45.3043 57.5722L44.7785 56.8712L44.6909 56.6083V55.732L45.1291 55.031L45.8301 54.5052L46.4435 54.33Z" fill="white"/>
<path d="M14.4589 48.7217H15.0723L15.7733 49.0722L16.3867 49.7732L16.562 50.2114V51L16.1238 51.7011L15.4228 52.3145L15.0723 52.4897H14.2836L13.4073 51.9639L12.8816 51.1753L12.7939 50.3866L13.0568 49.6856L13.4073 49.2475L14.1084 48.8093L14.4589 48.7217Z" fill="white"/>
<path d="M9.90206 41.1857H10.7784L11.3041 41.4486L11.9175 42.062L12.1804 42.6754V43.3764L11.8299 44.0774L11.0412 44.7785L10.6031 44.9537H9.98969L9.20103 44.5156L8.67526 43.9022L8.5 43.5516V42.5001L8.85052 41.8867L9.46392 41.3609L9.90206 41.1857Z" fill="white"/>
<path d="M14.2836 16.3866H15.2476L15.9486 16.9124L16.4744 17.6134L16.562 17.8763V18.6649L16.1238 19.366L15.5104 19.8918L15.1599 20.067H14.1084L13.4073 19.5412L13.0568 19.1031L12.7939 18.4021L12.8816 17.6134L13.2321 17.0876L13.8455 16.5619L14.2836 16.3866Z" fill="white"/>
<path d="M46.3559 10.6908L47.1445 10.7784L47.6703 11.1289L48.1961 11.7423L48.459 12.3557L48.3713 13.1444L47.8456 13.9331L47.1445 14.3712L46.8816 14.4588H46.1806L45.3919 14.0207L44.8662 13.4073L44.6909 12.9691V12.1805L45.0414 11.4795L45.6548 10.9537L46.3559 10.6908Z" fill="white"/>
<path d="M9.81443 24.0104H10.9536L11.4794 24.3609L12.0052 25.0619L12.1804 25.5001V26.2011L11.7423 26.9898L11.0412 27.5155L10.6031 27.6908H9.90206L9.02577 27.165L8.67526 26.7269L8.5 26.3764V25.2372L8.93814 24.5361L9.63918 24.098L9.81443 24.0104Z" fill="white"/>
<path d="M29.1804 7.79907H30.1443L30.7577 8.14959L31.2835 8.85062L31.4587 9.28876V10.0774L31.0206 10.7785L30.4948 11.2166L29.969 11.4795H29.0928L28.3917 11.0413L27.9536 10.5156L27.7783 9.98979V9.20113L28.2165 8.32485L28.9175 7.8867L29.1804 7.79907Z" fill="white"/>
<path d="M22.876 40.2455C22.556 40.2455 22.208 40.2375 21.832 40.2215C21.464 40.2055 21.1 40.1815 20.74 40.1495C20.388 40.1175 20.072 40.0855 19.792 40.0535V38.5055C20.088 38.5295 20.384 38.5535 20.68 38.5775C20.984 38.6015 21.272 38.6175 21.544 38.6255C21.816 38.6335 22.044 38.6375 22.228 38.6375C22.612 38.6375 22.904 38.6255 23.104 38.6015C23.304 38.5695 23.452 38.5255 23.548 38.4695C23.612 38.4135 23.656 38.3535 23.68 38.2895C23.712 38.2255 23.732 38.1495 23.74 38.0615C23.748 37.9735 23.752 37.8735 23.752 37.7615C23.752 37.5935 23.74 37.4615 23.716 37.3655C23.7 37.2615 23.66 37.1815 23.596 37.1255C23.54 37.0695 23.452 37.0295 23.332 37.0055C23.212 36.9735 23.056 36.9455 22.864 36.9215L21.172 36.7055C20.844 36.6655 20.576 36.5855 20.368 36.4655C20.16 36.3375 19.996 36.1695 19.876 35.9615C19.756 35.7535 19.672 35.5095 19.624 35.2295C19.576 34.9415 19.552 34.6215 19.552 34.2695C19.552 33.7255 19.632 33.2935 19.792 32.9735C19.952 32.6455 20.172 32.3975 20.452 32.2295C20.74 32.0535 21.072 31.9375 21.448 31.8815C21.832 31.8255 22.248 31.7975 22.696 31.7975C23.016 31.7975 23.348 31.8095 23.692 31.8335C24.036 31.8495 24.36 31.8775 24.664 31.9175C24.968 31.9495 25.22 31.9895 25.42 32.0375V33.5495C25.22 33.5175 24.984 33.4935 24.712 33.4775C24.448 33.4535 24.172 33.4375 23.884 33.4295C23.596 33.4135 23.324 33.4055 23.068 33.4055C22.756 33.4055 22.508 33.4175 22.324 33.4415C22.14 33.4575 21.996 33.4935 21.892 33.5495C21.78 33.6135 21.708 33.6975 21.676 33.8015C21.652 33.9055 21.64 34.0375 21.64 34.1975C21.64 34.3975 21.656 34.5535 21.688 34.6655C21.72 34.7695 21.792 34.8415 21.904 34.8815C22.016 34.9215 22.188 34.9575 22.42 34.9895L24.064 35.1815C24.288 35.2055 24.492 35.2455 24.676 35.3015C24.868 35.3575 25.04 35.4455 25.192 35.5655C25.352 35.6855 25.484 35.8575 25.588 36.0815C25.644 36.1855 25.688 36.3135 25.72 36.4655C25.752 36.6095 25.78 36.7775 25.804 36.9695C25.828 37.1615 25.84 37.3775 25.84 37.6175C25.84 38.0895 25.792 38.4895 25.696 38.8175C25.6 39.1375 25.464 39.3935 25.288 39.5855C25.112 39.7695 24.9 39.9135 24.652 40.0175C24.404 40.1135 24.128 40.1735 23.824 40.1975C23.528 40.2295 23.212 40.2455 22.876 40.2455ZM27.2465 40.1495V31.8935H30.1145L31.7585 36.7895H31.8425L33.4865 31.8935H36.3425V40.1495H34.3385V34.7855H34.2545L32.4665 40.1495H31.0625L29.2865 34.7855H29.1905V40.1495H27.2465ZM38.0512 40.1495V31.8935H42.1432C42.6792 31.8935 43.1112 31.9535 43.4392 32.0735C43.7752 32.1855 44.0272 32.3575 44.1952 32.5895C44.3712 32.8135 44.4872 33.0935 44.5432 33.4295C44.6072 33.7575 44.6392 34.1335 44.6392 34.5575C44.6392 34.8695 44.6152 35.1855 44.5672 35.5055C44.5192 35.8175 44.4152 36.1055 44.2552 36.3695C44.1032 36.6255 43.8672 36.8215 43.5472 36.9575L44.7952 40.1495H42.6232L41.4592 36.8495L41.9872 37.1375C41.9152 37.1775 41.8392 37.2015 41.7592 37.2095C41.6872 37.2175 41.5952 37.2215 41.4832 37.2215H40.1392V40.1495H38.0512ZM40.1392 35.6735H41.3392C41.6112 35.6735 41.8272 35.6615 41.9872 35.6375C42.1552 35.6055 42.2792 35.5495 42.3592 35.4695C42.4392 35.3895 42.4912 35.2775 42.5152 35.1335C42.5392 34.9895 42.5512 34.8055 42.5512 34.5815C42.5512 34.3495 42.5392 34.1615 42.5152 34.0175C42.4992 33.8735 42.4512 33.7655 42.3712 33.6935C42.2992 33.6135 42.1792 33.5575 42.0112 33.5255C41.8512 33.4935 41.6272 33.4775 41.3392 33.4775H40.1392V35.6735ZM47.7337 40.1495V33.5735H45.4777V31.8935H52.0897V33.5735H49.8217V40.1495H47.7337Z" fill="white"/>
</svg>
