<svg width="253" height="63" viewBox="0 0 253 63" fill="none" xmlns="http://www.w3.org/2000/svg">
<path d="M11.3969 6.04723C11.3259 5.33108 11.0211 4.77474 10.4825 4.3782C9.9439 3.98165 9.21296 3.78338 8.28966 3.78338C7.66229 3.78338 7.13258 3.87216 6.70053 4.04972C6.26847 4.22135 5.93703 4.46106 5.70621 4.76882C5.4813 5.07659 5.36885 5.42578 5.36885 5.81641C5.35702 6.14193 5.42508 6.42602 5.57304 6.66868C5.72693 6.91134 5.93703 7.12145 6.20337 7.29901C6.4697 7.47064 6.77747 7.62157 7.12666 7.75178C7.47586 7.87607 7.84873 7.9826 8.24527 8.07138L9.8788 8.462C10.6719 8.63956 11.3999 8.8763 12.0627 9.17223C12.7256 9.46816 13.2997 9.83215 13.785 10.2642C14.2704 10.6963 14.6462 11.2053 14.9125 11.7912C15.1848 12.3771 15.3239 13.0489 15.3298 13.8065C15.3239 14.9192 15.0398 15.8839 14.4775 16.7006C13.9212 17.5115 13.1162 18.1418 12.0627 18.5916C11.0152 19.0355 9.75155 19.2575 8.27191 19.2575C6.8041 19.2575 5.52569 19.0326 4.43668 18.5827C3.35358 18.1329 2.50723 17.4671 1.89762 16.5852C1.29392 15.6974 0.97728 14.5996 0.947687 13.2915H4.6675C4.70893 13.9012 4.88353 14.4102 5.1913 14.8185C5.50498 15.221 5.92224 15.5258 6.44307 15.733C6.96982 15.9342 7.56464 16.0348 8.22752 16.0348C8.87856 16.0348 9.44378 15.9401 9.92318 15.7507C10.4085 15.5613 10.7843 15.2979 11.0507 14.9606C11.317 14.6232 11.4502 14.2356 11.4502 13.7976C11.4502 13.3892 11.3288 13.0459 11.0862 12.7678C10.8494 12.4896 10.5002 12.2528 10.0386 12.0575C9.58287 11.8622 9.02356 11.6847 8.36068 11.5249L6.38093 11.0277C4.84802 10.6548 3.63767 10.0719 2.74989 9.27876C1.8621 8.48568 1.42117 7.41738 1.42709 6.07386C1.42117 4.97301 1.71414 4.01124 2.306 3.18857C2.90377 2.36589 3.72349 1.72372 4.76516 1.26207C5.80683 0.800426 6.99054 0.569602 8.3163 0.569602C9.66573 0.569602 10.8435 0.800426 11.8497 1.26207C12.8618 1.72372 13.6489 2.36589 14.2112 3.18857C14.7734 4.01124 15.0635 4.96413 15.0812 6.04723H11.3969ZM16.9155 0.818181H21.6562L26.6633 13.0341H26.8764L31.8835 0.818181H36.6243V19H32.8956V7.16584H32.7447L28.0394 18.9112H25.5003L20.7951 7.12145H20.6442V19H16.9155V0.818181ZM38.7914 19V0.818181H45.9647C47.3378 0.818181 48.5097 1.0638 49.4804 1.55504C50.4569 2.04036 51.1997 2.72988 51.7087 3.62358C52.2236 4.51136 52.4811 5.55599 52.4811 6.75746C52.4811 7.96484 52.2207 9.00355 51.6998 9.87358C51.179 10.7377 50.4244 11.4006 49.436 11.8622C48.4535 12.3239 47.2639 12.5547 45.8671 12.5547H41.0642V9.4652H45.2456C45.9795 9.4652 46.5891 9.36458 47.0745 9.16335C47.5598 8.96212 47.9208 8.66027 48.1576 8.25781C48.4002 7.85535 48.5216 7.35523 48.5216 6.75746C48.5216 6.15376 48.4002 5.64477 48.1576 5.23047C47.9208 4.81617 47.5568 4.50248 47.0656 4.28942C46.5803 4.07043 45.9677 3.96094 45.2279 3.96094H42.6355V19H38.7914ZM48.6103 10.7259L53.1292 19H48.8855L44.4644 10.7259H48.6103ZM53.5052 3.98757V0.818181H68.4377V3.98757H62.8713V19H59.0716V3.98757H53.5052ZM74.683 19V0.818181H81.9629C83.3005 0.818181 84.4161 1.01645 85.3098 1.413C86.2035 1.80954 86.8753 2.35997 87.3251 3.06428C87.7749 3.76267 87.9998 4.56759 87.9998 5.47905C87.9998 6.18928 87.8578 6.81368 87.5737 7.35227C87.2896 7.88494 86.8989 8.32292 86.4018 8.66619C85.9105 9.00355 85.3483 9.24325 84.715 9.3853V9.56285C85.4075 9.59245 86.0556 9.78776 86.6592 10.1488C87.2689 10.5098 87.7631 11.0159 88.1418 11.6669C88.5206 12.312 88.71 13.0814 88.71 13.9751C88.71 14.9399 88.4703 15.801 87.9909 16.5586C87.5174 17.3103 86.8161 17.9051 85.8869 18.343C84.9577 18.781 83.8124 19 82.4511 19H74.683ZM78.5271 15.8572H81.661C82.7323 15.8572 83.5135 15.6531 84.0048 15.2447C84.496 14.8304 84.7416 14.2799 84.7416 13.5934C84.7416 13.0903 84.6203 12.6464 84.3776 12.2617C84.135 11.877 83.7887 11.5752 83.3389 11.3562C82.895 11.1372 82.3653 11.0277 81.7498 11.0277H78.5271V15.8572ZM78.5271 8.42649H81.3769C81.9037 8.42649 82.3712 8.33475 82.7796 8.15128C83.1939 7.96188 83.5195 7.69555 83.7562 7.35227C83.9989 7.009 84.1202 6.59766 84.1202 6.11825C84.1202 5.46129 83.8864 4.93158 83.4188 4.52912C82.9572 4.12666 82.3002 3.92543 81.448 3.92543H78.5271V8.42649ZM94.0288 19.2575C93.1588 19.2575 92.3835 19.1065 91.7028 18.8047C91.0222 18.4969 90.4836 18.0442 90.0871 17.4464C89.6964 16.8427 89.5011 16.091 89.5011 15.1914C89.5011 14.4338 89.6402 13.7976 89.9184 13.2827C90.1966 12.7678 90.5754 12.3535 91.0548 12.0398C91.5342 11.7261 92.0787 11.4893 92.6883 11.3295C93.3038 11.1697 93.9489 11.0573 94.6236 10.9922C95.4167 10.9093 96.0559 10.8324 96.5413 10.7614C97.0266 10.6844 97.3787 10.572 97.5977 10.424C97.8167 10.276 97.9262 10.0571 97.9262 9.76705V9.71378C97.9262 9.15152 97.7486 8.7165 97.3935 8.40874C97.0443 8.10097 96.5472 7.94709 95.9021 7.94709C95.2214 7.94709 94.6799 8.09801 94.2774 8.39986C93.8749 8.69579 93.6086 9.06866 93.4784 9.51847L89.9805 9.23438C90.1581 8.40578 90.5073 7.68963 91.0281 7.08594C91.549 6.47633 92.2207 6.00876 93.0434 5.68324C93.872 5.3518 94.8308 5.18608 95.9198 5.18608C96.6774 5.18608 97.4024 5.27486 98.0949 5.45241C98.7933 5.62997 99.4118 5.90518 99.9504 6.27805C100.495 6.65092 100.924 7.13033 101.238 7.71626C101.551 8.29628 101.708 8.99171 101.708 9.80256V19H98.1215V17.109H98.015C97.796 17.5352 97.503 17.911 97.1361 18.2365C96.7691 18.5561 96.3282 18.8076 95.8133 18.9911C95.2984 19.1687 94.7035 19.2575 94.0288 19.2575ZM95.1119 16.6474C95.6683 16.6474 96.1595 16.5379 96.5856 16.3189C97.0118 16.094 97.3462 15.7921 97.5888 15.4134C97.8315 15.0346 97.9528 14.6055 97.9528 14.1261V12.679C97.8345 12.7559 97.6717 12.8269 97.4646 12.892C97.2633 12.9512 97.0355 13.0075 96.781 13.0607C96.5265 13.1081 96.272 13.1525 96.0175 13.1939C95.763 13.2294 95.5321 13.262 95.325 13.2915C94.8811 13.3567 94.4934 13.4602 94.162 13.6023C93.8306 13.7443 93.5731 13.9367 93.3896 14.1793C93.2062 14.4161 93.1144 14.712 93.1144 15.0671C93.1144 15.582 93.3008 15.9756 93.6737 16.2479C94.0525 16.5142 94.5319 16.6474 95.1119 16.6474ZM107.424 11.1165V19H103.642V5.36364H107.247V7.76953H107.406C107.708 6.97644 108.214 6.34908 108.925 5.88743C109.635 5.41986 110.496 5.18608 111.508 5.18608C112.455 5.18608 113.281 5.39323 113.985 5.80753C114.689 6.22183 115.237 6.81368 115.627 7.5831C116.018 8.34659 116.213 9.25805 116.213 10.3175V19H112.431V10.9922C112.437 10.1577 112.224 9.50663 111.792 9.03906C111.36 8.56558 110.765 8.32884 110.008 8.32884C109.499 8.32884 109.049 8.43833 108.658 8.65731C108.274 8.8763 107.972 9.1959 107.753 9.61612C107.54 10.0304 107.43 10.5305 107.424 11.1165ZM121.621 15.076L121.63 10.5394H122.18L126.548 5.36364H130.889L125.021 12.2173H124.124L121.621 15.076ZM118.194 19V0.818181H121.976V19H118.194ZM126.717 19L122.704 13.0607L125.225 10.3885L131.147 19H126.717ZM142.692 19.2663C141.313 19.2663 140.121 18.9734 139.114 18.3874C138.114 17.7956 137.342 16.9729 136.797 15.9194C136.253 14.86 135.981 13.6319 135.981 12.2351C135.981 10.8265 136.253 9.59541 136.797 8.5419C137.342 7.48248 138.114 6.6598 139.114 6.07386C140.121 5.48201 141.313 5.18608 142.692 5.18608C144.071 5.18608 145.261 5.48201 146.261 6.07386C147.267 6.6598 148.043 7.48248 148.587 8.5419C149.132 9.59541 149.404 10.8265 149.404 12.2351C149.404 13.6319 149.132 14.86 148.587 15.9194C148.043 16.9729 147.267 17.7956 146.261 18.3874C145.261 18.9734 144.071 19.2663 142.692 19.2663ZM142.71 16.3366C143.337 16.3366 143.861 16.1591 144.281 15.804C144.702 15.4429 145.018 14.9517 145.231 14.3303C145.45 13.7088 145.56 13.0015 145.56 12.2085C145.56 11.4154 145.45 10.7081 145.231 10.0866C145.018 9.4652 144.702 8.97396 144.281 8.61293C143.861 8.25189 143.337 8.07138 142.71 8.07138C142.077 8.07138 141.544 8.25189 141.112 8.61293C140.686 8.97396 140.363 9.4652 140.144 10.0866C139.931 10.7081 139.825 11.4154 139.825 12.2085C139.825 13.0015 139.931 13.7088 140.144 14.3303C140.363 14.9517 140.686 15.4429 141.112 15.804C141.544 16.1591 142.077 16.3366 142.71 16.3366ZM154.645 11.1165V19H150.863V5.36364H154.467V7.76953H154.627C154.929 6.97644 155.435 6.34908 156.145 5.88743C156.856 5.41986 157.717 5.18608 158.729 5.18608C159.676 5.18608 160.501 5.39323 161.206 5.80753C161.91 6.22183 162.457 6.81368 162.848 7.5831C163.239 8.34659 163.434 9.25805 163.434 10.3175V19H159.652V10.9922C159.658 10.1577 159.445 9.50663 159.013 9.03906C158.581 8.56558 157.986 8.32884 157.228 8.32884C156.719 8.32884 156.27 8.43833 155.879 8.65731C155.494 8.8763 155.192 9.1959 154.973 9.61612C154.76 10.0304 154.651 10.5305 154.645 11.1165ZM173.911 10.0334V13.0341H165.619V10.0334H173.911ZM183.387 5.36364V8.20455H175.175V5.36364H183.387ZM177.039 2.09659H180.821V14.8097C180.821 15.1589 180.874 15.4311 180.981 15.6264C181.087 15.8158 181.235 15.949 181.425 16.0259C181.62 16.1029 181.845 16.1413 182.099 16.1413C182.277 16.1413 182.455 16.1265 182.632 16.0969C182.81 16.0614 182.946 16.0348 183.04 16.017L183.635 18.8313C183.446 18.8905 183.18 18.9586 182.836 19.0355C182.493 19.1184 182.076 19.1687 181.584 19.1864C180.673 19.2219 179.874 19.1006 179.187 18.8224C178.507 18.5443 177.977 18.1122 177.598 17.5263C177.22 16.9403 177.033 16.2005 177.039 15.3068V2.09659ZM188.925 11.1165V19H185.143V0.818181H188.819V7.76953H188.978C189.286 6.96461 189.783 6.33428 190.47 5.87855C191.157 5.4169 192.018 5.18608 193.053 5.18608C194 5.18608 194.826 5.39323 195.53 5.80753C196.241 6.21591 196.791 6.80481 197.182 7.57422C197.578 8.33771 197.773 9.25213 197.768 10.3175V19H193.986V10.9922C193.992 10.1518 193.778 9.49775 193.346 9.03018C192.92 8.56262 192.322 8.32884 191.553 8.32884C191.038 8.32884 190.582 8.43833 190.186 8.65731C189.795 8.8763 189.487 9.1959 189.263 9.61612C189.044 10.0304 188.931 10.5305 188.925 11.1165ZM205.958 19.2663C204.556 19.2663 203.348 18.9822 202.336 18.4141C201.33 17.84 200.555 17.0291 200.01 15.9815C199.466 14.928 199.193 13.6822 199.193 12.244C199.193 10.8413 199.466 9.6102 200.01 8.55078C200.555 7.49136 201.321 6.66572 202.31 6.07386C203.304 5.48201 204.47 5.18608 205.807 5.18608C206.707 5.18608 207.545 5.33108 208.32 5.62109C209.101 5.90518 209.782 6.33428 210.362 6.90838C210.948 7.48248 211.403 8.20455 211.729 9.07457C212.054 9.93868 212.217 10.9508 212.217 12.1108V13.1495H200.703V10.8058H208.657C208.657 10.2612 208.539 9.77888 208.302 9.35866C208.065 8.93845 207.737 8.60997 207.317 8.37322C206.902 8.13056 206.42 8.00923 205.87 8.00923C205.295 8.00923 204.786 8.1424 204.343 8.40874C203.905 8.66915 203.561 9.02131 203.313 9.4652C203.064 9.90317 202.937 10.3915 202.931 10.93V13.1584C202.931 13.8331 203.055 14.4161 203.304 14.9073C203.558 15.3986 203.916 15.7773 204.378 16.0437C204.84 16.31 205.387 16.4432 206.02 16.4432C206.441 16.4432 206.825 16.384 207.175 16.2656C207.524 16.1473 207.823 15.9697 208.071 15.733C208.32 15.4962 208.509 15.2062 208.639 14.8629L212.137 15.0938C211.96 15.9342 211.596 16.6681 211.045 17.2955C210.501 17.9169 209.797 18.4022 208.932 18.7514C208.074 19.0947 207.083 19.2663 205.958 19.2663ZM222.181 10.0334V13.0341H213.889V10.0334H222.181ZM230.547 24.3977C229.322 24.3977 228.272 24.229 227.396 23.8917C226.526 23.5603 225.833 23.1075 225.318 22.5334C224.804 21.9593 224.469 21.3142 224.315 20.598L227.813 20.1275C227.92 20.3997 228.088 20.6542 228.319 20.891C228.55 21.1277 228.855 21.3171 229.234 21.4592C229.618 21.6071 230.086 21.6811 230.636 21.6811C231.459 21.6811 232.137 21.4799 232.669 21.0774C233.208 20.6809 233.477 20.015 233.477 19.0799V16.5852H233.317C233.152 16.964 232.903 17.3221 232.572 17.6594C232.24 17.9968 231.814 18.272 231.293 18.4851C230.772 18.6982 230.151 18.8047 229.429 18.8047C228.405 18.8047 227.473 18.5679 226.632 18.0945C225.798 17.6151 225.132 16.8841 224.635 15.9016C224.144 14.9132 223.898 13.6644 223.898 12.1552C223.898 10.6104 224.15 9.32019 224.653 8.28445C225.156 7.2487 225.824 6.47337 226.659 5.95845C227.499 5.44354 228.42 5.18608 229.42 5.18608C230.183 5.18608 230.823 5.31629 231.338 5.5767C231.853 5.8312 232.267 6.1508 232.581 6.53551C232.9 6.9143 233.146 7.28717 233.317 7.65412H233.459V5.36364H237.215V19.1332C237.215 20.2932 236.931 21.2638 236.362 22.0451C235.794 22.8263 235.007 23.4123 234.001 23.8029C233.001 24.1995 231.85 24.3977 230.547 24.3977ZM230.627 15.9638C231.237 15.9638 231.752 15.8129 232.172 15.511C232.598 15.2032 232.924 14.7653 233.149 14.1971C233.38 13.623 233.495 12.9364 233.495 12.1374C233.495 11.3384 233.382 10.646 233.158 10.06C232.933 9.46816 232.607 9.00947 232.181 8.68395C231.755 8.35843 231.237 8.19567 230.627 8.19567C230.006 8.19567 229.482 8.36435 229.056 8.7017C228.63 9.03314 228.307 9.49479 228.088 10.0866C227.869 10.6785 227.76 11.3621 227.76 12.1374C227.76 12.9246 227.869 13.6052 228.088 14.1793C228.313 14.7475 228.636 15.1884 229.056 15.5021C229.482 15.8099 230.006 15.9638 230.627 15.9638ZM245.386 19.2663C244.007 19.2663 242.814 18.9734 241.808 18.3874C240.808 17.7956 240.035 16.9729 239.491 15.9194C238.946 14.86 238.674 13.6319 238.674 12.2351C238.674 10.8265 238.946 9.59541 239.491 8.5419C240.035 7.48248 240.808 6.6598 241.808 6.07386C242.814 5.48201 244.007 5.18608 245.386 5.18608C246.765 5.18608 247.954 5.48201 248.954 6.07386C249.961 6.6598 250.736 7.48248 251.28 8.5419C251.825 9.59541 252.097 10.8265 252.097 12.2351C252.097 13.6319 251.825 14.86 251.28 15.9194C250.736 16.9729 249.961 17.7956 248.954 18.3874C247.954 18.9734 246.765 19.2663 245.386 19.2663ZM245.403 16.3366C246.031 16.3366 246.554 16.1591 246.975 15.804C247.395 15.4429 247.712 14.9517 247.925 14.3303C248.144 13.7088 248.253 13.0015 248.253 12.2085C248.253 11.4154 248.144 10.7081 247.925 10.0866C247.712 9.4652 247.395 8.97396 246.975 8.61293C246.554 8.25189 246.031 8.07138 245.403 8.07138C244.77 8.07138 244.237 8.25189 243.805 8.61293C243.379 8.97396 243.057 9.4652 242.838 10.0866C242.625 10.7081 242.518 11.4154 242.518 12.2085C242.518 13.0015 242.625 13.7088 242.838 14.3303C243.057 14.9517 243.379 15.4429 243.805 15.804C244.237 16.1591 244.77 16.3366 245.403 16.3366ZM59.4421 57L55.7312 43.3636H59.5576L61.6705 52.5256H61.7948L63.9965 43.3636H67.7518L69.989 52.4723H70.1044L72.1818 43.3636H75.9993L72.2973 57H68.2933L65.9496 48.424H65.7809L63.4372 57H59.4421ZM77.0168 57V43.3636H80.7988V57H77.0168ZM78.9167 41.6058C78.3544 41.6058 77.872 41.4194 77.4696 41.0465C77.073 40.6677 76.8748 40.215 76.8748 39.6882C76.8748 39.1674 77.073 38.7205 77.4696 38.3477C77.872 37.9689 78.3544 37.7795 78.9167 37.7795C79.4789 37.7795 79.9583 37.9689 80.3549 38.3477C80.7573 38.7205 80.9586 39.1674 80.9586 39.6882C80.9586 40.215 80.7573 40.6677 80.3549 41.0465C79.9583 41.4194 79.4789 41.6058 78.9167 41.6058ZM90.0815 43.3636V46.2045H81.8695V43.3636H90.0815ZM83.7339 40.0966H87.5158V52.8097C87.5158 53.1589 87.5691 53.4311 87.6756 53.6264C87.7822 53.8158 87.9301 53.949 88.1195 54.0259C88.3148 54.1029 88.5397 54.1413 88.7942 54.1413C88.9718 54.1413 89.1493 54.1265 89.3269 54.0969C89.5045 54.0614 89.6406 54.0348 89.7353 54.017L90.3301 56.8313C90.1407 56.8905 89.8744 56.9586 89.5311 57.0355C89.1878 57.1184 88.7706 57.1687 88.2793 57.1864C87.3679 57.2219 86.5689 57.1006 85.8823 56.8224C85.2017 56.5443 84.672 56.1122 84.2932 55.5263C83.9144 54.9403 83.7279 54.2005 83.7339 53.3068V40.0966ZM95.6201 49.1165V57H91.8381V38.8182H95.5135V45.7695H95.6733C95.9811 44.9646 96.4782 44.3343 97.1648 43.8786C97.8513 43.4169 98.7125 43.1861 99.7482 43.1861C100.695 43.1861 101.521 43.3932 102.225 43.8075C102.935 44.2159 103.486 44.8048 103.876 45.5742C104.273 46.3377 104.468 47.2521 104.462 48.3175V57H100.68V48.9922C100.686 48.1518 100.473 47.4978 100.041 47.0302C99.6151 46.5626 99.0173 46.3288 98.2479 46.3288C97.733 46.3288 97.2772 46.4383 96.8807 46.6573C96.4901 46.8763 96.1823 47.1959 95.9574 47.6161C95.7384 48.0304 95.626 48.5305 95.6201 49.1165ZM117.386 57.2663C116.007 57.2663 114.814 56.9734 113.808 56.3874C112.808 55.7956 112.036 54.9729 111.491 53.9194C110.947 52.86 110.674 51.6319 110.674 50.2351C110.674 48.8265 110.947 47.5954 111.491 46.5419C112.036 45.4825 112.808 44.6598 113.808 44.0739C114.814 43.482 116.007 43.1861 117.386 43.1861C118.765 43.1861 119.955 43.482 120.955 44.0739C121.961 44.6598 122.736 45.4825 123.281 46.5419C123.825 47.5954 124.098 48.8265 124.098 50.2351C124.098 51.6319 123.825 52.86 123.281 53.9194C122.736 54.9729 121.961 55.7956 120.955 56.3874C119.955 56.9734 118.765 57.2663 117.386 57.2663ZM117.404 54.3366C118.031 54.3366 118.555 54.1591 118.975 53.804C119.395 53.4429 119.712 52.9517 119.925 52.3303C120.144 51.7088 120.254 51.0015 120.254 50.2085C120.254 49.4154 120.144 48.7081 119.925 48.0866C119.712 47.4652 119.395 46.974 118.975 46.6129C118.555 46.2519 118.031 46.0714 117.404 46.0714C116.771 46.0714 116.238 46.2519 115.806 46.6129C115.38 46.974 115.057 47.4652 114.838 48.0866C114.625 48.7081 114.518 49.4154 114.518 50.2085C114.518 51.0015 114.625 51.7088 114.838 52.3303C115.057 52.9517 115.38 53.4429 115.806 53.804C116.238 54.1591 116.771 54.3366 117.404 54.3366ZM134.302 51.1939V43.3636H138.083V57H134.452V54.5231H134.31C134.003 55.3221 133.491 55.9643 132.775 56.4496C132.064 56.9349 131.197 57.1776 130.173 57.1776C129.262 57.1776 128.46 56.9704 127.767 56.5561C127.075 56.1418 126.533 55.5529 126.143 54.7894C125.758 54.0259 125.563 53.1115 125.557 52.0462V43.3636H129.339V51.3714C129.345 52.1764 129.561 52.8126 129.987 53.2802C130.413 53.7478 130.984 53.9815 131.7 53.9815C132.156 53.9815 132.582 53.878 132.979 53.6708C133.375 53.4577 133.695 53.1441 133.938 52.7298C134.186 52.3155 134.307 51.8035 134.302 51.1939ZM140.109 57V43.3636H143.775V45.7429H143.917C144.166 44.8965 144.583 44.2573 145.169 43.8253C145.755 43.3873 146.43 43.1683 147.193 43.1683C147.383 43.1683 147.587 43.1802 147.806 43.2038C148.025 43.2275 148.217 43.2601 148.383 43.3015V46.6573C148.205 46.604 147.96 46.5567 147.646 46.5153C147.332 46.4738 147.045 46.4531 146.785 46.4531C146.228 46.4531 145.731 46.5745 145.293 46.8171C144.861 47.0539 144.518 47.3853 144.263 47.8114C144.015 48.2376 143.891 48.7288 143.891 49.2852V57H140.109ZM158.013 57.2575C157.143 57.2575 156.367 57.1065 155.687 56.8047C155.006 56.4969 154.467 56.0442 154.071 55.4464C153.68 54.8427 153.485 54.091 153.485 53.1914C153.485 52.4338 153.624 51.7976 153.902 51.2827C154.18 50.7678 154.559 50.3535 155.039 50.0398C155.518 49.7261 156.063 49.4893 156.672 49.3295C157.288 49.1697 157.933 49.0573 158.608 48.9922C159.401 48.9093 160.04 48.8324 160.525 48.7614C161.01 48.6844 161.363 48.572 161.582 48.424C161.801 48.276 161.91 48.0571 161.91 47.767V47.7138C161.91 47.1515 161.733 46.7165 161.377 46.4087C161.028 46.101 160.531 45.9471 159.886 45.9471C159.205 45.9471 158.664 46.098 158.261 46.3999C157.859 46.6958 157.592 47.0687 157.462 47.5185L153.964 47.2344C154.142 46.4058 154.491 45.6896 155.012 45.0859C155.533 44.4763 156.205 44.0088 157.027 43.6832C157.856 43.3518 158.815 43.1861 159.904 43.1861C160.661 43.1861 161.386 43.2749 162.079 43.4524C162.777 43.63 163.396 43.9052 163.934 44.2781C164.479 44.6509 164.908 45.1303 165.222 45.7163C165.535 46.2963 165.692 46.9917 165.692 47.8026V57H162.105V55.109H161.999C161.78 55.5352 161.487 55.911 161.12 56.2365C160.753 56.5561 160.312 56.8076 159.797 56.9911C159.282 57.1687 158.687 57.2575 158.013 57.2575ZM159.096 54.6474C159.652 54.6474 160.143 54.5379 160.57 54.3189C160.996 54.094 161.33 53.7921 161.573 53.4134C161.815 53.0346 161.937 52.6055 161.937 52.1261V50.679C161.818 50.7559 161.656 50.8269 161.448 50.892C161.247 50.9512 161.019 51.0075 160.765 51.0607C160.51 51.1081 160.256 51.1525 160.001 51.1939C159.747 51.2294 159.516 51.262 159.309 51.2915C158.865 51.3567 158.477 51.4602 158.146 51.6023C157.814 51.7443 157.557 51.9367 157.374 52.1793C157.19 52.4161 157.098 52.712 157.098 53.0671C157.098 53.582 157.285 53.9756 157.658 54.2479C158.036 54.5142 158.516 54.6474 159.096 54.6474ZM167.626 62.1136V43.3636H171.355V45.6541H171.524C171.689 45.2872 171.929 44.9143 172.243 44.5355C172.562 44.1508 172.977 43.8312 173.486 43.5767C174 43.3163 174.64 43.1861 175.403 43.1861C176.397 43.1861 177.315 43.4465 178.155 43.9673C178.996 44.4822 179.667 45.2605 180.171 46.3022C180.674 47.3379 180.925 48.6371 180.925 50.1996C180.925 51.7206 180.68 53.005 180.188 54.0526C179.703 55.0942 179.04 55.8844 178.2 56.4229C177.365 56.9556 176.43 57.2219 175.394 57.2219C174.66 57.2219 174.036 57.1006 173.521 56.858C173.012 56.6153 172.595 56.3105 172.269 55.9435C171.944 55.5707 171.695 55.1948 171.524 54.8161H171.408V62.1136H167.626ZM171.328 50.1818C171.328 50.9927 171.441 51.6999 171.666 52.3036C171.89 52.9073 172.216 53.3778 172.642 53.7152C173.068 54.0466 173.586 54.2124 174.196 54.2124C174.811 54.2124 175.332 54.0437 175.758 53.7063C176.184 53.363 176.507 52.8896 176.726 52.2859C176.951 51.6763 177.063 50.9749 177.063 50.1818C177.063 49.3946 176.954 48.7022 176.735 48.1044C176.516 47.5066 176.193 47.0391 175.767 46.7017C175.341 46.3643 174.817 46.1957 174.196 46.1957C173.58 46.1957 173.059 46.3584 172.633 46.6839C172.213 47.0095 171.89 47.4711 171.666 48.0689C171.441 48.6667 171.328 49.371 171.328 50.1818ZM182.446 62.1136V43.3636H186.175V45.6541H186.344C186.51 45.2872 186.749 44.9143 187.063 44.5355C187.383 44.1508 187.797 43.8312 188.306 43.5767C188.821 43.3163 189.46 43.1861 190.223 43.1861C191.218 43.1861 192.135 43.4465 192.976 43.9673C193.816 44.4822 194.488 45.2605 194.991 46.3022C195.494 47.3379 195.745 48.6371 195.745 50.1996C195.745 51.7206 195.5 53.005 195.009 54.0526C194.523 55.0942 193.86 55.8844 193.02 56.4229C192.185 56.9556 191.25 57.2219 190.215 57.2219C189.481 57.2219 188.856 57.1006 188.341 56.858C187.832 56.6153 187.415 56.3105 187.09 55.9435C186.764 55.5707 186.515 55.1948 186.344 54.8161H186.228V62.1136H182.446ZM186.149 50.1818C186.149 50.9927 186.261 51.6999 186.486 52.3036C186.711 52.9073 187.036 53.3778 187.462 53.7152C187.889 54.0466 188.406 54.2124 189.016 54.2124C189.632 54.2124 190.152 54.0437 190.579 53.7063C191.005 53.363 191.327 52.8896 191.546 52.2859C191.771 51.6763 191.884 50.9749 191.884 50.1818C191.884 49.3946 191.774 48.7022 191.555 48.1044C191.336 47.5066 191.014 47.0391 190.587 46.7017C190.161 46.3643 189.638 46.1957 189.016 46.1957C188.401 46.1957 187.88 46.3584 187.454 46.6839C187.033 47.0095 186.711 47.4711 186.486 48.0689C186.261 48.6667 186.149 49.371 186.149 50.1818Z" fill="#D9D9D9"/>
</svg>
