<svg width="17" height="23" viewBox="0 0 17 23" fill="none" xmlns="http://www.w3.org/2000/svg">
<path d="M3.49302 8.27862V6.45896C3.49302 3.44406 5.80458 1 8.65605 1C11.0619 1 13.0833 2.73974 13.6565 5.09422M1.00024 15.1763C1.00024 11.9596 1.00024 10.3513 1.64955 9.35195C2.29886 8.35261 3.3439 8.35261 5.43399 8.35261H11.3456C13.4357 8.35261 14.4807 8.35261 15.1301 9.35195C15.7794 10.3513 15.7794 11.9596 15.7794 15.1763C15.7794 18.393 15.7794 20.0014 15.1301 21.0007C14.4807 22 13.4357 22 11.3456 22H5.43399C3.3439 22 2.29886 22 1.64955 21.0007C1.00024 20.0014 1.00024 18.393 1.00024 15.1763Z" stroke="white" stroke-width="1.5" stroke-linecap="round"/>
</svg>
