<svg width="171" height="132" viewBox="0 0 171 132" fill="none" xmlns="http://www.w3.org/2000/svg">
<path d="M92.5234 103.609C90.4242 106.938 87.7537 109.87 84.6856 112.428C68.0411 126.303 39.348 129.06 22.1818 121.583C18.2195 119.856 14.8657 117.583 12.4187 114.764C-2.56132 97.5477 -8.89617 52.0114 22.1446 34.7707C88.1263 -1.88447 108.684 78.1209 92.5234 103.609Z" fill="#737373"/>
<path d="M84.6861 112.429C68.0416 126.303 39.3485 129.061 22.1823 121.583C22.4308 119.944 23.1139 118.341 24.3188 116.876C24.3188 116.876 20.0334 111.559 18.0212 98.5666C15.4748 82.096 18.5926 76.8791 18.5926 76.8791C15.2264 73.4135 12.4441 69.6499 11.0777 65.6751C9.18968 60.1849 12.0217 55.7754 15.4376 54.1854C18.8534 52.5955 22.5798 54.7196 26.0205 55.4897H26.0578C26.0453 55.5766 26.0329 55.6636 26.0329 55.7505C25.8714 57.9988 28.2191 58.8186 33.4733 58.508C33.4857 58.5329 36.7276 65.0665 38.8144 69.2897C39.2119 70.0847 39.5597 70.8051 39.8454 71.3765C43.6835 71.1032 54.3907 66.8924 55.757 66.4452C55.6576 66.2465 55.3719 65.6627 54.9745 64.8305C53.7075 62.1723 51.2605 56.9554 49.5464 53.3035C53.2479 51.2789 64.7376 44.6956 68.7372 45.9129C72.7369 47.1426 75.867 50.2355 73.9169 61.2159C72.1158 71.3268 68.2031 83.0028 67.5945 84.8038C73.9542 95.0141 82.8975 109.622 82.8975 109.622L84.6861 112.429Z" fill="#FCFCFC"/>
<path d="M54.9866 64.8056C53.7197 62.1475 51.2727 56.9305 49.5585 53.2787C48.4779 50.9683 47.6829 49.279 47.6829 49.279C47.6829 49.279 53.583 42.9069 53.583 42.2362C53.583 41.5654 47.5215 42.025 41.1494 43.0808C39.6961 46.0247 34.5412 47.3041 34.5412 47.3041C35.7337 51.0677 34.1438 56.3716 32.2682 55.3282C31.734 55.0301 31.1999 54.4587 30.7652 53.7507C28.1816 53.3656 26.3432 53.7755 26.0575 55.4648C26.0451 55.5518 26.0327 55.6387 26.0327 55.7257C25.8712 57.9739 28.2188 58.7937 33.473 58.4832C33.4854 58.508 36.7274 65.0416 38.8142 69.2648C39.2116 70.0598 39.5594 70.7802 39.8451 71.3516C43.6833 71.0783 54.3904 66.8675 55.7568 66.4204C55.6698 66.2341 55.3965 65.6503 54.9866 64.8056ZM40.0439 51.4652C39.7458 51.577 39.4104 51.4279 39.2862 51.1298L38.7645 49.7386C38.6527 49.4405 38.8017 49.1051 39.0998 48.9809C39.162 48.9561 39.2365 48.9437 39.2986 48.9437C39.5346 48.9437 39.7582 49.0927 39.8451 49.3287L40.3668 50.7199C40.491 51.018 40.342 51.3534 40.0439 51.4652ZM42.8138 49.3908C42.5157 49.5026 42.1803 49.3536 42.0561 49.0555L41.5344 47.6643C41.4226 47.3662 41.5717 47.0308 41.8698 46.9066C41.9319 46.8817 42.0064 46.8693 42.0809 46.8693C42.317 46.8693 42.5405 47.0184 42.6275 47.2419L43.1492 48.6331C43.261 48.9437 43.1119 49.279 42.8138 49.3908Z" fill="#FCFCFC"/>
<path d="M43.1494 48.633C43.2612 48.9311 43.1121 49.2664 42.814 49.3907C42.5159 49.5024 42.1806 49.3534 42.0563 49.0553L41.5222 47.6641C41.4104 47.366 41.5595 47.0306 41.8576 46.9064C41.9197 46.8816 41.9942 46.8691 42.0688 46.8691C42.3048 46.8691 42.5284 47.0182 42.6153 47.2418L43.1494 48.633Z" fill="#FCFCFC"/>
<path d="M40.3794 50.7073C40.4912 51.0054 40.3421 51.3408 40.044 51.465C39.7459 51.5768 39.4105 51.4277 39.2863 51.1296L38.7522 49.7384C38.6404 49.4403 38.7895 49.105 39.0876 48.9807C39.1497 48.9559 39.2242 48.9435 39.2987 48.9435C39.5347 48.9435 39.7583 49.0925 39.8453 49.3161L40.3794 50.7073Z" fill="#FCFCFC"/>
<path d="M40.0311 51.4649C39.733 51.5766 39.3976 51.4276 39.2734 51.1295L38.7517 49.7383C38.6399 49.4402 38.789 49.1048 39.0871 48.9806C39.3852 48.8688 39.7206 49.0179 39.8448 49.316L40.3665 50.7071C40.4907 51.0177 40.3416 51.3531 40.0311 51.4649Z" fill="#595959"/>
<path d="M42.8136 49.3905C42.5155 49.5023 42.1801 49.3532 42.0559 49.0551L41.5342 47.664C41.4224 47.3658 41.5715 47.0305 41.8696 46.9063C42.1677 46.7945 42.503 46.9435 42.6273 47.2416L43.149 48.6328C43.2607 48.9433 43.1117 49.2787 42.8136 49.3905Z" fill="#595959"/>
<path d="M87.6043 5.4442C101.156 4.31386 128.694 4.02818 129.924 5.4442C131.166 6.86022 133.364 44.1489 131.774 48.1237C130.184 52.0985 97.7524 52.6326 91.1319 52.5456C84.499 52.4587 83.5301 50.0738 83.0954 46.012C82.6482 41.9503 82.0396 14.7353 82.0396 11.4685C82.0396 8.17688 82.3004 5.87894 87.6043 5.4442Z" fill="#FCFCFC"/>
<path d="M92.6723 52.9804C92.0637 52.9804 91.5544 52.9804 91.1445 52.968C87.8777 52.9183 85.7785 52.3221 84.4991 51.0675C83.3067 49.8875 82.9092 48.2106 82.6732 46.0493C82.226 41.9006 81.605 14.3503 81.605 11.4561C81.605 7.97817 82.0273 5.46907 87.5672 5.00949C94.0883 4.46295 104.212 4.09031 113.379 4.05305C117.937 4.0282 121.862 4.10273 124.719 4.25179C129.688 4.51263 130.06 4.93496 130.259 5.15854C130.421 5.34486 130.806 5.7796 131.402 12.1144C131.762 15.9029 132.097 20.7596 132.358 25.8027C132.594 30.3985 133.265 45.6022 132.197 48.2852C131.924 48.9683 130.955 49.9993 125.775 50.9309C122.719 51.4774 118.546 51.937 113.379 52.2848C105.367 52.8313 96.8831 52.9804 92.6723 52.9804ZM87.6044 5.44423L87.6417 5.87897C82.7105 6.28888 82.4745 8.16449 82.4745 11.4561C82.4745 15.1204 83.108 42.0248 83.5303 45.9624C83.9402 49.726 84.6606 52.024 91.1445 52.1109C94.4361 52.1606 104.187 52.0488 113.316 51.4277C128.781 50.3844 131.104 48.6578 131.377 47.9622C132.035 46.3226 132.073 37.7271 131.489 26.0635C130.905 14.4993 130.06 6.54972 129.601 5.72992C129.104 5.39454 125.117 4.86043 113.118 4.92254C104.05 4.97222 94.0511 5.34486 87.6417 5.86655L87.6044 5.44423Z" fill="#595959"/>
<path d="M122.881 5.97822C122.583 9.53071 124.906 11.9156 127.999 12.1764C131.091 12.4373 134.209 10.4996 134.507 6.94708C134.805 3.3946 132.11 0.276865 129.017 0.0160185C125.924 -0.232407 123.179 2.43816 122.881 5.97822Z" fill="#454545"/>
<path d="M158.778 82.1702C158.754 82.1702 158.729 82.1702 158.704 82.1577C158.468 82.1205 158.306 81.8969 158.344 81.6609C158.418 81.251 165.449 40.0869 166.194 35.4662C167.014 30.448 167.274 27.9886 164.554 27.1067C163.163 26.6595 157.101 26.7216 149.462 27.2682C141.687 27.8271 134.917 28.6842 132.247 29.4543C132.011 29.5164 131.775 29.3922 131.712 29.1562C131.65 28.9202 131.775 28.6842 132.011 28.6221C135.327 27.6657 143.463 26.8334 149.413 26.4111C155.661 25.9639 163.002 25.6907 164.828 26.2869C168.392 27.4421 167.833 30.8703 167.063 35.6153C166.318 40.2484 159.275 81.4 159.213 81.8224C159.163 82.0211 158.977 82.1702 158.778 82.1702Z" fill="#595959"/>
<path d="M151.003 81.6114C150.978 81.6114 150.953 81.6114 150.928 81.6114C150.692 81.5741 150.531 81.3505 150.568 81.1145C150.63 80.6922 157.288 39.2673 157.797 33.4044C157.847 32.8455 157.81 32.0629 157.325 31.5785C156.928 31.1686 156.257 30.9823 155.338 31.0196C154.555 31.0568 153.76 31.0941 152.953 31.1314C144.618 31.5413 135.166 31.9884 132.445 32.6592C132.209 32.7213 131.973 32.5722 131.924 32.3362C131.862 32.1002 132.011 31.8642 132.247 31.8145C135.054 31.1314 144.134 30.6842 152.928 30.2619C153.736 30.2246 154.53 30.1873 155.313 30.1501C156.493 30.088 157.387 30.3737 157.971 30.9699C158.53 31.5413 158.766 32.4107 158.679 33.479C158.17 39.3791 151.512 80.8288 151.45 81.2511C151.388 81.4623 151.202 81.6114 151.003 81.6114Z" fill="#595959"/>
<path d="M141.749 114.142C141.736 114.142 141.724 114.142 141.724 114.142C141.587 114.13 138.37 113.906 126.272 112.006C114.273 110.118 111.416 109.671 111.416 104.193C111.404 94.4174 116.422 68.3949 118.186 60.0478C118.235 59.8118 118.471 59.6627 118.695 59.7124C118.931 59.7621 119.08 59.9981 119.03 60.2217C116.819 70.6928 112.273 95.2124 112.286 104.181C112.286 108.752 113.888 109.174 126.408 111.136C138.445 113.024 141.749 113.26 141.786 113.26C142.022 113.273 142.208 113.484 142.196 113.72C142.171 113.956 141.972 114.142 141.749 114.142Z" fill="#595959"/>
<path d="M132.185 110.043C130.023 110.043 123.216 108.441 122.546 108.205C121.788 107.932 121.602 106.64 121.726 105.795C121.838 104.963 122.235 104.466 122.806 104.429C125.589 104.243 132.47 105.41 133.538 106.429C134.135 106.988 134.358 107.907 134.11 108.702C133.886 109.422 133.315 109.894 132.57 110.019C132.458 110.031 132.334 110.043 132.185 110.043ZM123.552 105.286C123.303 105.286 123.067 105.299 122.856 105.311C122.782 105.311 122.682 105.472 122.62 105.758C122.459 106.479 122.682 107.298 122.856 107.398C123.539 107.646 130.297 109.186 132.16 109.186C132.271 109.186 132.358 109.186 132.433 109.174C132.967 109.087 133.191 108.739 133.278 108.466C133.427 107.982 133.29 107.41 132.942 107.075C132.284 106.454 126.781 105.286 123.552 105.286Z" fill="#595959"/>
<path d="M145.897 105.957C145.873 105.957 145.86 105.957 145.835 105.957C145.761 105.944 138.755 105.038 131.7 103.845C127.551 103.15 124.198 102.491 121.726 101.895C117.465 100.864 116.658 100.231 116.422 99.7463C115.751 98.3427 116.521 90.1571 117.291 83.5365C118.148 76.1956 119.353 67.8112 120.049 64.4575C120.099 64.2215 120.322 64.0724 120.558 64.1221C120.794 64.1718 120.943 64.3954 120.893 64.6314C120.21 67.9727 118.993 76.3198 118.148 83.6359C116.931 94.1443 116.857 98.6532 117.192 99.3612C117.242 99.4606 117.714 100.032 121.937 101.051C124.384 101.634 127.725 102.293 131.849 102.988C138.892 104.168 145.873 105.087 145.947 105.1C146.183 105.125 146.357 105.348 146.32 105.584C146.295 105.795 146.109 105.957 145.897 105.957Z" fill="#595959"/>
<path d="M154.977 80.9529C154.952 80.9529 154.928 80.9529 154.903 80.9404C154.667 80.9032 154.505 80.6796 154.555 80.4436C154.679 79.748 154.94 78.332 155.3 76.3818C157.337 65.3642 162.765 36.1121 161.97 31.8392C161.921 31.6032 162.082 31.3796 162.318 31.3299C162.554 31.2802 162.778 31.4417 162.827 31.6777C163.56 35.6028 159.648 57.7127 156.157 76.5309C155.797 78.481 155.536 79.8846 155.412 80.5802C155.375 80.8038 155.188 80.9529 154.977 80.9529Z" fill="#595959"/>
<path d="M163.198 99.436C167.107 93.8144 165.946 86.2475 160.606 82.5347C155.267 78.8219 147.769 80.3693 143.861 85.9909C139.952 91.6124 141.112 99.1793 146.452 102.892C151.792 106.605 159.289 105.058 163.198 99.436Z" fill="#454545"/>
<path d="M106.845 92.6662C106.82 92.6662 106.783 92.6662 106.758 92.6537C101.081 91.4737 96.9575 87.1884 95.4421 80.8908C95.38 80.6548 95.5291 80.4188 95.7651 80.3691C96.0011 80.307 96.2371 80.456 96.2868 80.6921C97.7276 86.6543 101.603 90.7036 106.932 91.8091C107.168 91.8588 107.317 92.0823 107.267 92.3184C107.23 92.5171 107.044 92.6662 106.845 92.6662Z" fill="#595959"/>
<path d="M86.1265 69.6371C87.0581 68.3825 97.6162 66.7057 98.4608 67.7242C99.2309 68.6558 100.97 75.5993 99.2309 75.9843C96.9206 76.4936 88.9337 77.9842 88.0394 76.8414C87.145 75.6738 84.8844 71.3015 86.1265 69.6371Z" fill="#FCFCFC"/>
<path d="M90.0268 77.6862C88.4245 77.6862 87.9152 77.3881 87.6916 77.09C86.8967 76.0714 84.3006 71.3513 85.7663 69.3763C86.6731 68.1591 93.3309 67.066 96.3244 66.979C98.1131 66.9294 98.5727 67.1902 98.7838 67.4386C99.5788 68.3951 100.883 73.5375 100.212 75.4752C99.9887 76.1211 99.5912 76.3323 99.3055 76.3944C98.1628 76.6428 95.5791 77.1521 93.1321 77.4502C91.8031 77.6241 90.7969 77.6862 90.0268 77.6862ZM96.7467 67.8485C95.9518 67.8485 94.809 67.9231 93.2812 68.1342C89.679 68.6187 86.7849 69.4633 86.4619 69.9105C85.4806 71.2271 87.3314 75.2392 88.3748 76.5683C88.3872 76.5931 88.8468 77.1148 93.0452 76.6055C95.4549 76.3074 98.0013 75.8106 99.1316 75.5621C99.2434 75.5373 99.3303 75.4131 99.4049 75.2019C99.9763 73.5499 98.672 68.6932 98.1379 68.01C98.0137 67.9231 97.5541 67.8485 96.7467 67.8485Z" fill="#595959"/>
<path d="M93.0577 73.8853C92.0764 73.8853 90.5486 73.3512 87.7414 72.3078C87.5178 72.2209 87.406 71.9725 87.4805 71.7489C87.5675 71.5253 87.8159 71.4135 88.0395 71.488C91.3808 72.7426 92.8713 73.2146 93.4551 72.9413C93.8526 72.755 95.5171 70.7552 96.8213 69.0162C96.9704 68.8299 97.2436 68.7802 97.4299 68.9292C97.6163 69.0783 97.666 69.3516 97.5169 69.5379C96.8462 70.4322 94.5979 73.3636 93.8278 73.7239C93.6042 73.8232 93.3558 73.8853 93.0577 73.8853Z" fill="#595959"/>
<path d="M93.592 23.9022C92.561 23.9022 91.617 23.8401 90.7723 23.6786C90.5984 23.6413 90.4618 23.5047 90.4245 23.3308C90.3873 23.1569 90.4618 22.983 90.6109 22.8836C90.6481 22.8588 94.6353 20.2876 98.6847 17.7537C106.957 12.5616 107.417 12.5119 107.628 12.4995C107.864 12.4746 108.324 12.4374 116.621 16.7351C120.67 18.8343 124.658 20.9583 124.695 20.9832C124.869 21.0701 124.956 21.2689 124.918 21.4676C124.881 21.6539 124.707 21.803 124.521 21.803C124.384 21.8154 111.305 22.4365 106.709 22.6725C105.131 22.747 103.293 22.983 101.33 23.2314C98.6722 23.5544 95.9396 23.9022 93.592 23.9022ZM92.089 22.9706C94.6353 23.1817 97.9891 22.7594 101.243 22.3495C103.218 22.1011 105.082 21.8651 106.684 21.7781C110.323 21.5918 119.279 21.1571 122.919 20.9832C117.031 17.853 108.746 13.5677 107.727 13.3441C106.696 13.7043 98.0139 19.1697 92.089 22.9706Z" fill="#595959"/>
<path d="M117.118 36.6835C116.907 36.6835 116.72 36.5345 116.695 36.3233C116.633 35.9258 115.043 26.5602 115.205 21.7656C115.217 21.5296 115.416 21.3433 115.652 21.3433C115.888 21.3557 116.074 21.5544 116.074 21.7904C115.913 26.4981 117.528 36.0749 117.552 36.1742C117.59 36.4102 117.428 36.6338 117.192 36.6711C117.155 36.6835 117.13 36.6835 117.118 36.6835Z" fill="#595959"/>
<path d="M121.229 36.3109C120.993 36.3109 120.807 36.1246 120.794 35.8886C120.794 35.7768 120.446 24.3989 119.937 21.629C119.9 21.393 120.049 21.1694 120.285 21.1197C120.521 21.07 120.744 21.2315 120.794 21.4675C121.303 24.312 121.651 35.3918 121.664 35.8638C121.676 36.0998 121.477 36.2985 121.241 36.3109C121.241 36.3109 121.241 36.3109 121.229 36.3109Z" fill="#595959"/>
<path d="M116.335 40.1244C116.137 40.1244 115.963 39.9877 115.913 39.789C115.888 39.6896 115.863 39.5902 115.839 39.4909C115.578 38.4226 115.354 37.5035 115.814 36.783C116.137 36.2862 116.708 35.9757 117.652 35.8018C119.056 35.5285 122.372 35.0689 122.72 36.5843C122.919 37.4414 122.956 39.3667 122.956 39.4536C122.956 39.6896 122.77 39.8884 122.534 39.9008C122.534 39.9008 122.534 39.9008 122.521 39.9008C122.285 39.9008 122.086 39.7145 122.086 39.4785C122.086 39.4536 122.049 37.5656 121.875 36.7955C121.813 36.5098 120.509 36.162 117.814 36.6712C117.143 36.7955 116.72 36.9942 116.547 37.2675C116.286 37.6774 116.46 38.3978 116.683 39.3046C116.708 39.4039 116.733 39.5033 116.758 39.6027C116.82 39.8387 116.671 40.0747 116.435 40.1244C116.398 40.1119 116.36 40.1244 116.335 40.1244Z" fill="#595959"/>
<path d="M106.311 37.3542C106.088 37.3542 105.901 37.1803 105.876 36.9567C105.876 36.9319 105.603 34.0998 105.156 31.6528C104.647 28.8456 104.299 26.0012 104.013 22.4363C103.988 22.2003 104.175 21.9891 104.411 21.9643C104.647 21.9394 104.858 22.1257 104.883 22.3617C105.168 25.9018 105.516 28.7214 106.013 31.4914C106.46 33.9632 106.733 36.8325 106.733 36.8574C106.758 37.0934 106.584 37.3045 106.336 37.3294C106.336 37.3542 106.324 37.3542 106.311 37.3542Z" fill="#595959"/>
<path d="M111.391 37.1058C111.205 37.1058 111.031 36.9816 110.981 36.7953C110.497 35.2426 110.236 32.0876 109.963 28.7587C109.777 26.4732 109.578 24.1132 109.305 22.1258C109.267 21.8898 109.441 21.6662 109.677 21.6289C109.913 21.5917 110.137 21.7656 110.174 22.0016C110.46 24.0014 110.646 26.3863 110.845 28.6842C111.118 31.9634 111.379 35.0687 111.826 36.5345C111.901 36.758 111.764 37.0065 111.54 37.081C111.478 37.0934 111.441 37.1058 111.391 37.1058Z" fill="#595959"/>
<path d="M105.591 40.7951C105.38 40.7951 105.193 40.6336 105.156 40.4225C105.119 40.1368 105.069 39.8759 105.032 39.6399C104.833 38.3357 104.721 37.6153 105.107 37.0811C105.429 36.6464 105.988 36.5098 106.547 36.4352C108.262 36.1744 111.628 36.2117 112.361 36.2738C113.553 36.3856 113.528 38.3605 113.404 39.8387C113.379 40.0747 113.168 40.261 112.932 40.2361C112.696 40.2113 112.51 40.0001 112.534 39.7641C112.708 37.6401 112.373 37.1557 112.274 37.1433C111.59 37.0811 108.299 37.0563 106.672 37.3047C106.175 37.3793 105.901 37.4786 105.802 37.6153C105.628 37.8513 105.74 38.5469 105.889 39.5157C105.926 39.7517 105.964 40.025 106.013 40.3107C106.051 40.5467 105.889 40.7703 105.641 40.8075C105.628 40.7951 105.616 40.7951 105.591 40.7951Z" fill="#595959"/>
<path d="M95.4426 38.3231C95.2563 38.3231 95.0824 38.1989 95.0203 38.0002C94.2502 35.2427 93.7285 26.908 93.8403 23.4425C93.8527 23.2065 94.039 23.0201 94.275 23.0201H94.2874C94.5234 23.0326 94.7098 23.2313 94.7098 23.4673C94.5855 27.2185 95.1569 35.2551 95.8649 37.7642C95.927 38.0002 95.7904 38.2362 95.5668 38.2983C95.5171 38.3107 95.4799 38.3231 95.4426 38.3231Z" fill="#595959"/>
<path d="M100.063 38.174C99.8274 38.174 99.6286 37.9753 99.6286 37.7393C99.6286 36.0251 99.0324 25.7031 98.6101 23.1443C98.5728 22.9083 98.7343 22.6847 98.9703 22.6474C99.2063 22.6102 99.4299 22.7716 99.4672 23.0077C99.9143 25.6782 100.498 35.9755 100.498 37.7517C100.498 37.9753 100.299 38.174 100.063 38.174Z" fill="#595959"/>
<path d="M94.2253 41.3291C94.0017 41.3291 93.8154 41.1676 93.7906 40.944C93.6043 39.3168 93.5049 38.497 93.9396 38.0002C94.3247 37.553 94.9458 37.5406 96.0637 37.5033L96.4115 37.4909C98.3368 37.4288 99.318 37.4536 100.188 37.4785C100.448 37.4909 100.697 37.4909 100.945 37.4909C101.392 37.4909 101.728 37.6275 101.964 37.9008C102.436 38.4473 102.312 39.3913 102.15 40.5962C102.125 40.8322 101.902 41.0061 101.666 40.9688C101.43 40.944 101.256 40.7204 101.293 40.4844C101.405 39.6522 101.529 38.7082 101.305 38.4597C101.243 38.3976 101.119 38.3604 100.933 38.3604C100.672 38.3604 100.424 38.3479 100.163 38.3479C99.3056 38.3231 98.3368 38.2983 96.4363 38.3604L96.0885 38.3728C95.3308 38.3976 94.7346 38.4101 94.598 38.5715C94.4116 38.7827 94.5234 39.7391 94.6601 40.8446C94.6849 41.0806 94.511 41.3042 94.275 41.3291C94.2502 41.3291 94.2378 41.3291 94.2253 41.3291Z" fill="#595959"/>
<path d="M91.9648 44.0246C91.7412 44.0246 91.5549 43.8631 91.53 43.6395C91.3685 42.1987 91.3313 41.4782 91.7288 41.0062C92.0269 40.646 92.4865 40.5591 93.0827 40.5218C94.3869 40.4473 122.26 39.1555 123.316 39.1306C123.726 39.1306 124.049 39.2424 124.272 39.4784C124.72 39.9504 124.695 40.7951 124.608 41.9378C124.595 42.1738 124.384 42.3601 124.148 42.3353C123.912 42.3229 123.726 42.1117 123.751 41.8757C123.788 41.3292 123.863 40.3106 123.651 40.0746C123.602 40.0249 123.502 40.0001 123.353 40.0001C122.297 40.0125 94.4614 41.3043 93.1572 41.3789C92.7349 41.4037 92.4989 41.4658 92.4119 41.5528C92.2256 41.7639 92.3126 42.6086 92.4119 43.5277C92.4368 43.7637 92.2629 43.9873 92.0269 44.0122C92.002 44.0122 91.9896 44.0246 91.9648 44.0246Z" fill="#595959"/>
<path d="M91.6418 47.4902C90.8468 47.4902 90.7102 47.4529 90.6232 47.428C89.5053 47.1175 89.4805 45.7263 89.4556 44.7078V44.5463C89.4184 43.2918 90.6977 43.2172 92.4616 43.1179C92.7721 43.093 93.1075 43.0806 93.4677 43.0558C94.5111 42.9812 100.448 42.708 106.721 42.4223C114.634 42.0621 123.602 41.6522 124.397 41.5528C125.477 41.4286 126.185 41.4162 126.657 41.7888C126.918 41.9875 127.067 42.2981 127.117 42.6955L127.129 42.8446C127.241 43.7141 127.415 45.1674 126.086 45.3413C125.577 45.4034 116.969 46.0493 108.597 46.6082C97.3307 47.3411 93.2068 47.4902 91.6418 47.4902ZM90.3251 44.5339V44.7078C90.3375 45.4903 90.3624 46.4592 90.8592 46.6082C91.1573 46.6828 93.4801 46.7325 108.634 45.7263C117.428 45.1425 125.552 44.5339 125.987 44.4718C126.347 44.4221 126.421 44.0619 126.285 42.944L126.272 42.7949C126.247 42.5589 126.173 42.4968 126.136 42.472C125.887 42.2856 125.142 42.3478 124.521 42.4223C123.689 42.5216 115.093 42.9191 106.783 43.2918C100.511 43.5775 94.5856 43.8507 93.5546 43.9252C93.1944 43.9501 92.8466 43.9749 92.5361 43.9874C90.7847 44.0867 90.3127 44.1737 90.3251 44.5339Z" fill="#595959"/>
<path d="M25.2125 131.234C25.0883 131.234 24.964 131.185 24.8771 131.085C23.0263 128.936 21.9208 126.477 21.6973 123.968C21.4612 121.397 22.1693 118.937 23.7716 116.863C22.8649 115.596 19.3621 110.106 17.5982 98.6285C15.0643 82.1951 18.0951 76.8788 18.2317 76.6552C18.3559 76.4441 18.6168 76.382 18.8279 76.5062C19.0391 76.6304 19.1012 76.8912 18.977 77.1024C18.9521 77.1521 15.9835 82.456 18.4553 98.4918C20.4179 111.186 24.6163 116.552 24.6659 116.602C24.7901 116.764 24.7901 116.987 24.6659 117.149C21.5234 120.987 21.8711 126.241 25.5478 130.514C25.7093 130.7 25.6845 130.973 25.4982 131.122C25.4112 131.197 25.3118 131.234 25.2125 131.234Z" fill="#595959"/>
<path d="M32.2308 117.111C32.0941 117.111 31.9451 117.037 31.8706 116.913C31.7339 116.714 31.796 116.441 31.9948 116.316C35.7336 113.882 43.5093 112.168 52.2787 111.857C61.309 111.534 69.0971 112.739 73.134 115.074C73.3452 115.198 73.4073 115.459 73.2955 115.67C73.1837 115.882 72.9104 115.944 72.6992 115.832C68.799 113.571 61.1847 112.416 52.316 112.727C43.6956 113.037 36.0814 114.689 32.4792 117.049C32.3923 117.086 32.3053 117.111 32.2308 117.111Z" fill="#595959"/>
<path d="M40.0188 75.6241C39.8325 75.6241 39.6586 75.4999 39.5964 75.3136C39.2238 74.0342 39.7331 73.1523 40.056 72.7424L36.665 65.8735C34.2801 61.054 33.4852 59.4641 33.2368 58.9424C29.5352 59.1411 27.3367 58.7437 26.3057 57.7003C25.7964 57.191 25.5604 56.5078 25.6225 55.7004C25.6846 54.9055 26.0076 54.2844 26.5914 53.8497C27.672 53.0547 29.647 52.9802 32.4294 53.6261C32.6654 53.6758 32.8144 53.9118 32.7523 54.1478C32.7026 54.3838 32.4666 54.5328 32.2306 54.4707C29.734 53.8869 27.9577 53.9118 27.1007 54.5453C26.728 54.8185 26.5293 55.216 26.492 55.7625C26.4547 56.3215 26.5914 56.7562 26.9268 57.0916C27.7838 57.9611 29.9203 58.2716 33.4852 58.0605C33.6591 58.0481 33.8206 58.1474 33.9075 58.3089C33.9572 58.4083 40.7019 72.022 41.0001 72.6182C41.0001 72.6306 41.0125 72.6306 41.0125 72.6306C41.0994 72.8294 41.0373 72.9908 40.9876 73.0654C40.9504 73.1275 40.8883 73.1772 40.8262 73.2144C40.6398 73.4256 40.1678 74.0591 40.4659 75.0652C40.528 75.3012 40.4038 75.5372 40.1678 75.5993C40.0933 75.6117 40.056 75.6241 40.0188 75.6241Z" fill="#595959"/>
<path d="M36.5406 42.1241C38.9131 36.9072 42.6146 40.1367 41.1613 43.0806C39.708 46.0244 34.5532 47.3038 34.5532 47.3038C35.7457 51.0675 34.1557 56.3713 32.2801 55.328C30.7896 54.5081 29.2866 51.4774 29.8083 49.4527C31.2243 43.8755 34.7892 39.0809 36.5406 42.1241Z" fill="#595959"/>
<path d="M32.7648 55.8992C32.5288 55.8992 32.3052 55.8371 32.0692 55.7128C30.4048 54.7937 28.8024 51.6014 29.3862 49.3407C30.4048 45.3535 32.7648 41.0558 34.9634 40.7576C35.3857 40.6955 35.9571 40.7701 36.4788 41.2918C37.5346 39.3665 38.7022 38.9814 39.3356 38.9193C40.143 38.8448 40.9256 39.2422 41.4224 39.9751C42.0559 40.9067 42.1056 42.1612 41.5715 43.2667C40.2797 45.8628 36.4291 47.2167 35.1124 47.6018C35.895 50.6698 35.0627 54.4335 33.7212 55.5265C33.4107 55.775 33.0878 55.8992 32.7648 55.8992ZM35.2118 41.6147C35.1497 41.6147 35.1124 41.6271 35.0752 41.6271C33.6591 41.8259 31.3736 45.0554 30.2309 49.5643C29.7713 51.3654 31.1625 54.2099 32.504 54.9551C32.6654 55.0421 32.8766 55.1042 33.1747 54.8682C34.2181 54.0111 35.0752 50.3469 34.156 47.4403C34.1187 47.3285 34.1311 47.2043 34.1932 47.0925C34.2554 46.9931 34.3547 46.9062 34.4665 46.8813C34.5162 46.8689 39.4474 45.6019 40.7889 42.8817C41.2734 41.9004 41.0622 40.9936 40.702 40.4595C40.379 39.9875 39.907 39.7391 39.4102 39.7888C38.5407 39.8633 37.6464 40.7825 36.9508 42.2979C36.8887 42.4469 36.7396 42.5463 36.5781 42.5463C36.4167 42.5587 36.2676 42.4718 36.1806 42.3351C35.7956 41.7017 35.423 41.6147 35.2118 41.6147Z" fill="#595959"/>
<path d="M40.7019 55.5267C39.8075 55.5267 38.5033 55.3031 37.2736 54.5454C37.0749 54.4212 37.0003 54.1479 37.137 53.9491C37.2612 53.7504 37.5345 53.6759 37.7332 53.8125C39.2983 54.7814 40.9627 54.7317 41.3726 54.5951C41.5962 54.5205 41.8446 54.6447 41.9192 54.8807C41.9937 55.1043 41.8695 55.3527 41.6335 55.4273C41.4347 55.477 41.1118 55.5267 40.7019 55.5267Z" fill="#595959"/>
<path d="M31.1623 56.8556C31.0754 56.8556 30.9884 56.8308 30.9139 56.7687C30.653 56.6445 29.1252 56.2346 28.1315 56.4706C27.8955 56.5327 27.6595 56.3836 27.6098 56.1476C27.5477 55.9116 27.6968 55.6756 27.9328 55.6259C29.1998 55.3154 31.1872 55.8122 31.4728 56.1103C31.6467 56.2842 31.6467 56.5575 31.4728 56.7314C31.3859 56.8184 31.2741 56.8556 31.1623 56.8556Z" fill="#595959"/>
<path d="M55.769 66.8672C55.6075 66.8672 55.4584 66.7803 55.3839 66.6312C54.7628 65.4388 47.5958 50.1109 47.2977 49.465C47.2231 49.3035 47.248 49.1172 47.3722 48.9806C49.8192 46.3473 52.4152 43.3662 53.0363 42.4097C51.8935 42.211 47.5088 42.4719 41.2361 43.5152C41.0001 43.5525 40.7765 43.391 40.7392 43.155C40.702 42.919 40.8634 42.6954 41.0995 42.6582C44.0681 42.1613 46.9996 41.8011 49.3596 41.6148C53.2474 41.3043 53.6574 41.6645 53.8312 41.8135C53.9679 41.9253 54.0424 42.0744 54.0424 42.2483C54.0424 42.4967 54.0424 42.8321 50.9868 46.31C49.844 47.6143 48.6764 48.8812 48.2293 49.3781C49.2105 51.4648 55.6075 65.1655 56.1789 66.2461C56.2907 66.4573 56.2037 66.7182 55.9925 66.8299C55.9056 66.8424 55.8435 66.8672 55.769 66.8672Z" fill="#595959"/>
<path d="M60.0294 73.1027C59.9052 73.1027 59.781 73.053 59.7065 72.9536C58.5637 71.637 57.806 70.0719 57.2098 68.8298C56.7875 67.9478 56.2161 66.7554 55.9304 66.8424C55.7068 66.9169 55.1975 67.1032 54.4895 67.3641C51.0737 68.6186 43.1365 71.5624 39.8945 71.7984C39.6585 71.8109 39.4474 71.637 39.435 71.401C39.4225 71.165 39.5964 70.9538 39.8324 70.9414C42.9377 70.7178 50.8004 67.8112 54.1666 66.5691C54.887 66.3082 55.3963 66.1095 55.6447 66.035C56.6508 65.6996 57.247 66.9169 57.9923 68.4695C58.5761 69.6744 59.2966 71.1774 60.3648 72.4071C60.5263 72.5934 60.5014 72.8667 60.3275 73.0157C60.2281 73.0654 60.1288 73.1027 60.0294 73.1027Z" fill="#595959"/>
<path d="M54.9863 65.2401C54.7875 65.2401 54.6012 65.1034 54.564 64.9047C54.1789 63.1781 55.0484 60.9796 56.6632 59.5511C57.8929 58.4705 59.3337 58.0357 60.7125 58.3214C60.7994 57.4644 61.0727 55.8869 62.054 55.3652C62.0913 54.595 62.2527 52.8064 62.7868 52.2102C62.9483 52.0363 63.2216 52.0114 63.3955 52.1729C63.5694 52.3344 63.5942 52.6076 63.4327 52.7815C63.1595 53.0797 62.9483 54.5205 62.9111 55.6633C62.8986 55.8496 62.7744 56.0111 62.5881 56.0608C61.8304 56.2719 61.5571 58.0482 61.5447 58.868C61.5447 59.0046 61.4702 59.1412 61.3584 59.2158C61.2466 59.2903 61.0975 59.3151 60.9609 59.2654C59.284 58.6692 57.9053 59.5884 57.2345 60.1722C55.8682 61.3771 55.0981 63.2775 55.4086 64.6811C55.4583 64.9171 55.3092 65.1531 55.0732 65.2028C55.0484 65.2401 55.0236 65.2401 54.9863 65.2401Z" fill="#595959"/>
<path d="M67.6065 85.2257C67.5568 85.2257 67.5071 85.2133 67.4699 85.2009C67.2463 85.1264 67.1221 84.8779 67.1966 84.6419C67.2463 84.5177 71.5813 71.9474 73.5066 61.1161C75.4816 49.9866 72.1527 47.3781 68.625 46.2975C65.0974 45.2168 54.6387 50.9679 50.7012 53.1416C50.3534 53.3279 50.0428 53.5018 49.7696 53.6509C49.5584 53.7627 49.2976 53.6882 49.1858 53.477C49.074 53.2658 49.1485 53.005 49.3597 52.8932C49.6329 52.7441 49.9435 52.5827 50.2788 52.3839C57.5577 48.3718 65.4576 44.4219 68.8859 45.4653C71.4074 46.2354 73.0222 47.5769 73.9786 49.6885C75.1586 52.297 75.2828 56.0855 74.3637 61.2527C72.4259 72.1461 68.0661 84.791 68.0288 84.9152C67.9543 85.1139 67.7804 85.2257 67.6065 85.2257Z" fill="#595959"/>
<path d="M49.2479 76.3819C47.7822 76.3819 46.3661 76.208 45.2606 75.8975C45.0246 75.8354 44.888 75.5994 44.9625 75.3634C45.0246 75.1273 45.2606 74.9907 45.4966 75.0652C48.6765 75.9472 53.8189 75.5497 55.4585 73.7362C55.62 73.5623 55.8932 73.5374 56.0671 73.6989C56.241 73.8604 56.2659 74.1336 56.1044 74.3075C54.7753 75.7857 51.9433 76.3819 49.2479 76.3819Z" fill="#595959"/>
<path d="M82.9093 110.044C82.7602 110.044 82.6236 109.969 82.5366 109.832C82.4 109.609 68.7739 87.3374 63.2837 78.7295C63.1595 78.5308 63.2091 78.2575 63.4203 78.1333C63.619 78.0091 63.8923 78.0588 64.0165 78.2699C69.5191 86.8903 83.1453 109.162 83.2819 109.385C83.4061 109.584 83.344 109.857 83.1328 109.981C83.0583 110.019 82.9838 110.044 82.9093 110.044Z" fill="#595959"/>
<path d="M45.0617 113.323C44.8753 113.323 44.7139 113.211 44.6518 113.025C44.5896 112.838 38.379 94.8399 36.2053 89.0641C36.1183 88.8405 36.2301 88.592 36.4537 88.5051C36.6773 88.4181 36.9257 88.5299 37.0127 88.7535C39.1864 94.5418 45.4095 112.553 45.4716 112.739C45.5461 112.963 45.4343 113.211 45.1983 113.298C45.161 113.31 45.1113 113.323 45.0617 113.323Z" fill="#595959"/>
<path d="M38.8388 69.7117C38.7518 69.7117 38.6773 69.6869 38.6028 69.6372C35.0875 67.3144 31.473 65.8611 29.8458 65.6748C28.79 65.5506 27.6224 64.6811 26.5045 63.8489C25.635 63.203 24.7406 62.5322 24.1693 62.4577C22.8899 62.2838 22.4054 62.4329 22.393 62.4329C22.1819 62.5198 21.9459 62.408 21.8465 62.1968C20.8652 59.9486 17.8468 60.197 17.8096 60.2094C17.5736 60.2343 17.3624 60.0604 17.3376 59.812C17.3127 59.576 17.4866 59.3648 17.735 59.34C17.8841 59.3275 21.1385 59.0667 22.4924 61.5385C22.8278 61.5013 23.3991 61.4764 24.281 61.6006C25.076 61.7124 26.02 62.408 27.0137 63.1657C27.995 63.8986 29.1253 64.7432 29.9327 64.8302C31.6965 65.0289 35.4105 66.507 39.0748 68.9292C39.2735 69.0658 39.3356 69.3267 39.199 69.5378C39.112 69.6496 38.9754 69.7117 38.8388 69.7117Z" fill="#595959"/>
<path d="M37.6338 92.4301C37.5469 92.4301 37.4599 92.4053 37.373 92.3432C36.4165 91.6352 35.3359 90.8651 34.1931 90.0577C26.1814 84.3563 14.0831 75.7484 10.6673 65.7989C8.74197 60.1969 11.5243 55.5141 15.2507 53.7752C17.9337 52.5206 20.7285 53.4149 23.4363 54.272C24.3679 54.5701 25.2498 54.8434 26.1193 55.0421C26.3553 55.0918 26.5044 55.3278 26.4547 55.5638C26.405 55.7998 26.169 55.9489 25.933 55.8992C25.0262 55.7005 24.0822 55.4023 23.1755 55.1042C20.6291 54.2969 17.9958 53.4646 15.6233 54.5701C12.2448 56.1476 9.73567 60.4081 11.4871 65.5257C14.816 75.2143 26.7776 83.7228 34.69 89.3621C35.8327 90.1819 36.9134 90.952 37.8822 91.66C38.081 91.7967 38.1183 92.0699 37.9816 92.2687C37.9071 92.368 37.7705 92.4301 37.6338 92.4301Z" fill="#595959"/>
<path d="M127.514 47.5894C127.514 47.5894 122.781 50.7444 117.775 50.8561C117.03 66.9293 125.638 68.8049 125.638 68.8049C125.638 68.8049 134.395 69.0036 136.482 53.092C131.588 51.8002 127.514 47.5894 127.514 47.5894Z" fill="#FCFCFC"/>
<path d="M125.651 69.2272C125.638 69.2272 125.626 69.2272 125.626 69.2272C125.601 69.2272 125.576 69.2272 125.539 69.2147C125.44 69.1899 123.216 68.6806 121.092 66.1219C119.167 63.7991 116.956 59.2653 117.341 50.8189C117.353 50.5953 117.54 50.409 117.763 50.409C122.583 50.3096 127.228 47.254 127.266 47.2167C127.439 47.1049 127.675 47.1297 127.825 47.2788C127.862 47.3161 131.886 51.4151 136.582 52.6572C136.793 52.7069 136.929 52.918 136.904 53.1292C136.023 59.8491 133.886 64.594 130.545 67.2398C128.123 69.1651 125.936 69.2272 125.651 69.2272ZM118.186 51.266C117.888 59.1784 119.949 63.4016 121.751 65.5753C123.539 67.7242 125.378 68.2832 125.676 68.3577C125.974 68.3453 127.924 68.2335 130.048 66.5193C132.16 64.8176 134.892 61.1658 135.985 53.3901C131.849 52.1728 128.396 49.0426 127.452 48.1234C126.346 48.819 122.446 51.0424 118.186 51.266Z" fill="#595959"/>
<path d="M121.552 57.8619C121.502 58.3214 124.533 61.5137 125.316 61.9236C126.086 62.3459 132.868 56.8682 132.918 56.1353C132.967 55.4024 131.787 54.5205 131.427 54.8062C131.067 55.0919 126.396 59.4145 125.8 59.1785C125.204 58.9425 123.813 56.4334 123.366 56.334C122.931 56.2595 121.651 57.0172 121.552 57.8619Z" fill="#222222"/>
<path d="M125.427 62.1472C125.34 62.1472 125.278 62.1224 125.229 62.0975C124.57 61.7373 121.304 58.4829 121.366 57.8495C121.415 57.4147 121.738 56.9551 122.248 56.5825C122.57 56.3465 123.08 56.0981 123.403 56.1602C123.676 56.2223 124.024 56.6943 124.632 57.5389C125.067 58.1351 125.601 58.8929 125.85 59.0046C126.222 59.0046 127.862 57.7128 130.719 55.1665C131.017 54.8932 131.216 54.7193 131.29 54.6696C131.464 54.533 131.75 54.5454 132.06 54.7069C132.582 54.9802 133.116 55.6012 133.079 56.1478C133.029 56.9303 128.297 60.7064 126.396 61.7622C125.899 62.0603 125.601 62.1472 125.427 62.1472ZM121.738 57.8743C121.813 58.3463 124.645 61.3523 125.403 61.7622C125.403 61.7622 125.589 61.8118 126.446 61.315C128.806 59.9238 132.632 56.6073 132.731 56.1229C132.756 55.7379 132.321 55.2534 131.911 55.0298C131.7 54.918 131.576 54.918 131.539 54.9553C131.477 55.005 131.278 55.1913 130.992 55.4397C127.104 58.8929 126.098 59.5015 125.738 59.3524C125.403 59.2158 124.968 58.632 124.347 57.7501C124.011 57.2781 123.502 56.5701 123.341 56.5204C123.229 56.4955 122.881 56.5949 122.471 56.8806C122.049 57.1787 121.788 57.5514 121.738 57.8743Z" fill="black"/>
<path d="M129.787 2.81095V9.60538C129.787 9.64265 129.775 9.67991 129.75 9.70475C129.725 9.72959 129.688 9.74201 129.65 9.74201H127.936C127.899 9.74201 127.862 9.72959 127.837 9.70475C127.812 9.67991 127.8 9.64265 127.8 9.60538V4.46298H127.29C127.253 4.46298 127.216 4.45056 127.191 4.42572C127.166 4.40087 127.154 4.36361 127.154 4.32635V2.81095C127.154 2.77369 127.166 2.73642 127.191 2.71158C127.216 2.68674 127.253 2.67432 127.29 2.67432H129.65C129.688 2.67432 129.725 2.68674 129.75 2.71158C129.775 2.73642 129.787 2.77369 129.787 2.81095Z" fill="white"/>
<path d="M129.651 9.94079H127.936C127.849 9.94079 127.775 9.91595 127.713 9.85385C127.651 9.79174 127.613 9.70479 127.613 9.61784V4.66176H127.29C127.191 4.66176 127.117 4.6245 127.054 4.56239C126.992 4.50028 126.968 4.42575 126.968 4.3388V2.82341C126.968 2.73646 127.005 2.64952 127.067 2.58741C127.129 2.5253 127.204 2.48804 127.303 2.48804H129.663C129.75 2.48804 129.824 2.5253 129.887 2.58741C129.949 2.64952 129.986 2.72404 129.986 2.82341V9.61784C129.986 9.70479 129.949 9.79174 129.887 9.85385C129.812 9.90353 129.737 9.94079 129.651 9.94079ZM127.986 9.56816H129.601V2.86068H127.328V4.28912H127.787C127.887 4.28912 127.974 4.37607 127.974 4.47544V9.56816H127.986ZM129.601 2.81099H129.787H129.601Z" fill="white"/>
<path d="M157.486 95.0261C157.648 95.7465 157.611 96.3676 157.399 96.8769C157.188 97.3986 156.766 97.8209 156.12 98.1687L156.53 100.057C156.542 100.106 156.53 100.156 156.505 100.206C156.48 100.255 156.431 100.28 156.381 100.293L153.897 100.839C153.847 100.852 153.797 100.839 153.748 100.814C153.698 100.79 153.673 100.74 153.661 100.69L153.3 99.0133C152.828 99.1003 152.406 99.15 152.009 99.1872C151.959 99.1872 151.909 99.1748 151.872 99.1375C151.835 99.1003 151.797 99.063 151.785 99.0009L151.537 96.9514C151.524 96.8893 151.549 96.8396 151.586 96.7899C151.624 96.7402 151.686 96.7278 151.748 96.7278C151.909 96.7278 152.071 96.7278 152.232 96.7154C152.394 96.703 152.617 96.6905 152.878 96.6657C153.139 96.6409 153.387 96.6036 153.599 96.5539C153.835 96.5042 154.033 96.4297 154.195 96.3303C154.344 96.231 154.443 96.1192 154.493 96.0074C154.543 95.8956 154.567 95.7962 154.58 95.7093C154.592 95.6223 154.592 95.5478 154.58 95.4857C154.567 95.4112 154.53 95.3491 154.493 95.2745C154.443 95.2 154.369 95.113 154.269 95.0012C154.157 94.8895 153.996 94.8025 153.785 94.728C153.561 94.6535 153.3 94.6162 153.015 94.6038C152.679 94.6038 152.344 94.5417 152.009 94.4299C151.673 94.3181 151.35 94.1566 151.04 93.9454C150.729 93.7343 150.456 93.4486 150.208 93.076C149.972 92.7033 149.798 92.2934 149.686 91.8214C149.537 91.1631 149.586 90.5669 149.822 90.0452C150.058 89.5235 150.468 89.0887 151.052 88.7285L150.63 86.7908C150.617 86.7411 150.63 86.679 150.655 86.6293C150.68 86.5796 150.729 86.5548 150.779 86.5424L153.263 85.9958C153.313 85.9834 153.375 85.9958 153.425 86.0207C153.474 86.0579 153.512 86.0952 153.512 86.1573L153.872 87.8342C154.319 87.7597 154.766 87.6976 155.213 87.6479C155.263 87.6479 155.313 87.6603 155.362 87.6976C155.412 87.7348 155.437 87.7721 155.437 87.8342L155.685 89.8837C155.685 89.9458 155.673 89.9955 155.636 90.0452C155.598 90.0949 155.549 90.1197 155.487 90.1197C154.766 90.1197 154.12 90.1818 153.549 90.2936C153.313 90.3433 153.114 90.4054 152.965 90.5172C152.816 90.6165 152.704 90.7283 152.655 90.8526C152.605 90.9768 152.58 91.0761 152.568 91.1507C152.555 91.2376 152.555 91.3121 152.568 91.3742C152.58 91.4364 152.605 91.5109 152.655 91.5854C152.704 91.6599 152.779 91.7469 152.891 91.8587C153.002 91.958 153.164 92.0574 153.387 92.1319C153.611 92.2065 153.872 92.2437 154.157 92.2562C154.493 92.2686 154.828 92.3307 155.164 92.4425C155.499 92.5543 155.822 92.7157 156.132 92.9269C156.443 93.1381 156.716 93.4362 156.952 93.7964C157.213 94.1442 157.387 94.5541 157.486 95.0261Z" fill="white"/>
<path d="M153.847 101.026C153.773 101.026 153.711 101.001 153.636 100.964C153.549 100.901 153.487 100.827 153.462 100.715L153.139 99.2121C152.729 99.2742 152.357 99.3239 152.009 99.3612C151.91 99.3736 151.823 99.3363 151.736 99.2742C151.661 99.2121 151.611 99.1252 151.587 99.0382V99.0258L151.338 96.9763C151.326 96.8521 151.363 96.7527 151.438 96.6658C151.512 96.5788 151.611 96.5415 151.736 96.5415C151.885 96.5415 152.046 96.5416 152.22 96.5291C152.382 96.5167 152.593 96.5043 152.854 96.4794C153.114 96.4546 153.35 96.4173 153.562 96.3676C153.785 96.3304 153.959 96.2559 154.096 96.1689C154.22 96.0944 154.294 96.0074 154.332 95.9329C154.369 95.8335 154.394 95.7466 154.406 95.6845C154.419 95.6224 154.419 95.5727 154.406 95.523C154.394 95.4733 154.369 95.4236 154.332 95.3615C154.307 95.3243 154.245 95.2373 154.133 95.1255C154.046 95.0386 153.909 94.9641 153.711 94.9019C153.512 94.8398 153.263 94.8026 152.99 94.7902C152.63 94.7902 152.282 94.7156 151.922 94.6038C151.574 94.4796 151.226 94.3181 150.903 94.0946C150.568 93.871 150.27 93.5604 150.021 93.1754C149.773 92.7903 149.587 92.3432 149.475 91.8587C149.326 91.1631 149.376 90.5297 149.624 89.9707C149.86 89.449 150.257 89.0018 150.816 88.6416L150.419 86.8405C150.394 86.7412 150.419 86.6418 150.469 86.5549C150.518 86.4555 150.605 86.3934 150.717 86.3685L153.201 85.822C153.301 85.7972 153.412 85.822 153.499 85.8717C153.586 85.9338 153.649 86.0207 153.673 86.1201L153.996 87.6231C154.394 87.561 154.779 87.5113 155.176 87.4616C155.276 87.4492 155.363 87.4864 155.45 87.5361C155.537 87.5982 155.599 87.6976 155.611 87.8094L155.847 89.8589C155.859 89.9707 155.822 90.0701 155.748 90.157C155.673 90.244 155.561 90.2937 155.45 90.2937C154.742 90.2937 154.108 90.3558 153.562 90.4675C153.35 90.5048 153.176 90.5669 153.04 90.6539C152.916 90.7284 152.841 90.8153 152.804 90.9023C152.767 91.0017 152.729 91.0886 152.729 91.1507C152.717 91.2128 152.717 91.2625 152.729 91.3122C152.742 91.337 152.754 91.3867 152.791 91.4612C152.816 91.4985 152.866 91.573 152.99 91.6973C153.077 91.7842 153.226 91.8587 153.413 91.9208C153.611 91.983 153.86 92.0202 154.133 92.0326C154.481 92.0451 154.841 92.1072 155.189 92.2314C155.537 92.3432 155.884 92.5171 156.207 92.7406C156.543 92.9642 156.828 93.2748 157.089 93.6598C157.338 94.0449 157.524 94.4796 157.623 94.9641C157.785 95.7218 157.76 96.3801 157.524 96.9266C157.313 97.4483 156.89 97.8955 156.294 98.2433L156.679 99.9947C156.704 100.094 156.679 100.193 156.63 100.28C156.568 100.367 156.493 100.429 156.381 100.454L153.897 101.001C153.909 101.026 153.885 101.026 153.847 101.026ZM153.301 98.8271C153.388 98.8271 153.462 98.8892 153.487 98.9761L153.847 100.653L153.86 100.665L156.356 100.119L156.369 100.106L155.959 98.2184C155.946 98.1315 155.984 98.0569 156.046 98.0197C156.642 97.6967 157.04 97.2868 157.238 96.8148C157.437 96.3304 157.462 95.7466 157.313 95.0758C157.213 94.6287 157.052 94.2312 156.828 93.8958C156.605 93.548 156.344 93.2748 156.058 93.076C155.76 92.8773 155.45 92.7158 155.127 92.6164C154.804 92.5171 154.493 92.455 154.17 92.4425C153.86 92.4301 153.586 92.3928 153.338 92.3059C153.09 92.219 152.903 92.1196 152.767 91.9954C152.642 91.8712 152.555 91.7718 152.506 91.6848C152.444 91.5855 152.419 91.5109 152.394 91.424C152.369 91.337 152.369 91.2377 152.382 91.1383C152.394 91.0389 152.431 90.9271 152.481 90.7905C152.543 90.6415 152.667 90.5048 152.854 90.3806C153.027 90.2688 153.251 90.1819 153.499 90.1322C154.071 90.0204 154.729 89.9583 155.462 89.9583C155.474 89.9459 155.474 89.9334 155.474 89.9334L155.238 87.8964C155.226 87.8839 155.226 87.8839 155.214 87.8839C154.779 87.9336 154.332 87.9957 153.897 88.0703C153.798 88.0827 153.711 88.0206 153.686 87.9212L153.326 86.2443C153.326 86.2443 153.326 86.2319 153.313 86.2319C153.301 86.2195 153.301 86.2195 153.301 86.2319L150.816 86.7784C150.804 86.7909 150.804 86.7909 150.804 86.8033L151.226 88.741C151.239 88.8155 151.214 88.9025 151.139 88.9397C150.593 89.2751 150.195 89.6974 149.984 90.1819C149.761 90.6663 149.723 91.2252 149.86 91.8339C149.959 92.2811 150.121 92.6785 150.344 93.0263C150.568 93.3741 150.829 93.6474 151.127 93.8461C151.425 94.0449 151.736 94.2063 152.046 94.3181C152.357 94.4299 152.68 94.4796 153.003 94.492C153.313 94.5045 153.599 94.5417 153.835 94.6287C154.083 94.7156 154.27 94.815 154.394 94.9392C154.506 95.0634 154.593 95.1628 154.655 95.2497C154.704 95.3491 154.754 95.4361 154.766 95.523C154.779 95.61 154.791 95.6969 154.779 95.8087C154.766 95.9081 154.729 96.0199 154.679 96.1565C154.617 96.3055 154.493 96.4422 154.307 96.5664C154.133 96.6782 153.909 96.7651 153.649 96.8148C153.425 96.8645 153.177 96.9018 152.903 96.9266C152.63 96.9514 152.419 96.9639 152.245 96.9763C152.071 96.9887 151.91 96.9887 151.748 96.9887C151.736 96.9887 151.736 96.9887 151.736 96.9887C151.736 96.9887 151.736 96.9887 151.736 97.0011L151.972 99.0382C151.972 99.0506 151.984 99.0506 151.984 99.0631C152.369 99.0382 152.804 98.9761 153.263 98.9016C153.276 98.8271 153.288 98.8271 153.301 98.8271Z" fill="white"/>
<path d="M142.419 115.422C142.941 114.528 163.287 112.975 164.082 113.671C164.877 114.366 165.088 118.043 163.821 118.279C162.542 118.502 143.339 120.229 142.817 119.757C142.295 119.285 142.034 116.08 142.419 115.422Z" fill="#FCFCFC"/>
<path d="M143.873 120.279C142.718 120.279 142.606 120.179 142.519 120.092C141.824 119.446 141.588 116.006 142.035 115.211C142.171 114.987 142.42 114.776 144.271 114.478C146.693 114.08 151.363 113.621 155.884 113.323C163.747 112.813 164.194 113.211 164.368 113.348C165.126 114.006 165.349 116.192 165.002 117.459C164.741 118.378 164.256 118.651 163.896 118.714C163.238 118.838 158.108 119.322 153.065 119.72C147.748 120.142 145.165 120.279 143.873 120.279ZM143.066 119.384C143.674 119.471 146.643 119.359 153.338 118.825C158.207 118.44 163.126 117.968 163.735 117.856C163.896 117.832 164.058 117.596 164.157 117.223C164.468 116.093 164.169 114.416 163.822 114.031C163.213 113.844 159.151 113.919 153.251 114.379C147.177 114.851 143.376 115.409 142.768 115.695C142.532 116.304 142.743 118.85 143.066 119.384Z" fill="#595959"/>
<path d="M141.426 111.05C141.936 110.155 162.282 108.478 163.089 109.174C163.897 109.87 164.257 113.012 162.99 113.248C161.71 113.484 142.383 115.857 141.861 115.385C141.34 114.913 141.054 111.708 141.426 111.05Z" fill="#FCFCFC"/>
<path d="M142.507 115.882C141.749 115.882 141.65 115.795 141.563 115.72C140.855 115.074 140.606 111.634 141.054 110.851C141.19 110.615 141.426 110.416 143.277 110.106C145.699 109.696 150.357 109.199 154.878 108.888C162.741 108.329 163.188 108.727 163.362 108.864C164.07 109.472 164.455 111.335 164.12 112.54C163.884 113.41 163.35 113.633 163.052 113.695C162.393 113.82 157.151 114.478 152.171 115.037C146.159 115.683 143.612 115.882 142.507 115.882ZM142.109 115.012C143.799 115.198 161.089 113.161 162.903 112.826C163.114 112.789 163.238 112.515 163.3 112.304C163.548 111.397 163.238 109.944 162.84 109.547C162.232 109.36 158.17 109.46 152.27 109.957C146.196 110.466 142.395 111.037 141.786 111.335C141.55 111.932 141.774 114.453 142.109 115.012Z" fill="#595959"/>
<path d="M142.718 106.131C143.227 105.236 164.057 104.218 164.865 104.913C165.672 105.609 165.809 108.776 164.529 109.012C163.25 109.248 143.662 110.938 143.14 110.466C142.631 109.994 142.345 106.789 142.718 106.131Z" fill="#FCFCFC"/>
<path d="M144.245 110.975C143.065 110.975 142.941 110.876 142.854 110.789C142.146 110.143 141.898 106.702 142.345 105.92C142.482 105.684 142.755 105.535 143.86 105.348C146.27 104.938 151.599 104.578 155.822 104.404C158.182 104.305 160.356 104.255 161.933 104.268C164.765 104.28 164.977 104.466 165.138 104.603C165.858 105.236 166.07 107.025 165.759 108.155C165.56 108.888 165.15 109.348 164.591 109.447C163.883 109.584 158.418 110.068 153.574 110.441C148.195 110.851 145.562 110.975 144.245 110.975ZM143.401 110.081C144.009 110.168 147.028 110.068 153.872 109.534C158.865 109.149 163.871 108.677 164.455 108.578C164.728 108.528 164.877 108.131 164.939 107.907C165.2 106.963 164.964 105.634 164.604 105.261C164.008 105.063 159.847 105.038 153.797 105.348C147.512 105.671 143.699 106.118 143.065 106.404C142.842 107.025 143.078 109.547 143.401 110.081Z" fill="#595959"/>
</svg>
