<svg width="110" height="36" viewBox="0 0 110 36" fill="none" xmlns="http://www.w3.org/2000/svg">
<g clip-path="url(#clip0_25_34)">
<path fill-rule="evenodd" clip-rule="evenodd" d="M20.9807 0.181338C23.6563 0.725141 25.1907 3.37377 24.8125 6.71362C24.3489 10.8081 22.9245 14.1825 21.4018 16.747C22.5867 16.8084 23.7646 17.2346 24.6995 18.1549C25.646 19.0868 26.2079 20.3909 26.3992 21.9614C26.5371 23.0938 26.4423 24.2987 26.3026 25.4075C26.2318 25.9696 26.1454 26.5351 26.063 27.0733L26.0595 27.0965C25.9772 27.6338 25.8992 28.143 25.8365 28.6354C25.7064 29.6563 25.6623 30.4675 25.7505 31.0894C25.8351 31.6858 26.0129 31.9234 26.1771 32.0474C26.4621 32.2626 26.9782 32.4604 27.7932 32.5322C28.5889 32.6023 29.5374 32.5401 30.5444 32.3634C31.9762 32.1122 33.384 31.6561 34.4708 31.158C33.3506 29.5633 32.8878 27.6272 32.8832 25.7906C32.8767 23.2339 33.7481 20.5717 35.3441 18.7592C37.4707 16.344 40.5429 15.7084 42.9614 16.7711C44.1682 17.3014 45.1774 18.2487 45.7399 19.5368C46.303 20.8264 46.3719 22.3466 45.9072 23.9631C44.9046 27.4511 42.4191 29.9711 40.0627 31.5773C43.0998 32.8779 47.988 32.9604 52.6563 28.1616C52.3327 26.6033 52.2525 25.1087 52.2777 24.0036C52.2781 23.9858 52.2788 23.9681 52.2797 23.9504C52.2781 23.9206 52.2772 23.8906 52.2772 23.8604C52.2772 19.8014 52.5041 16.9424 53.5796 11.6232C54.3573 7.77679 55.6478 4.74314 57.2431 2.79992C58.814 0.886474 61.1 -0.359525 63.4687 0.768545C65.6081 1.7875 66.1413 4.11905 66.1293 6.32364C66.1167 8.62857 65.5225 11.5365 64.6055 14.7795C63.0542 20.2655 58.4784 26.3435 56.4616 28.8594C56.4059 28.929 56.3455 28.9928 56.2813 29.0507C56.3643 29.2851 56.4557 29.5153 56.5559 29.739C57.355 31.5224 58.595 32.6975 60.6679 32.7488C63.5044 32.8189 66.0045 31.5534 68.1253 29.7766C68.6515 29.3358 69.1465 28.87 69.6089 28.3957C69.5381 28.1557 69.4738 27.9116 69.4156 27.6637C69.3027 27.2102 69.2172 26.7569 69.1615 26.3091C68.8661 24.2658 68.9089 22.0398 69.1151 19.859C69.4185 16.6502 70.0957 13.3585 70.7428 10.5711C71.4789 7.40035 72.635 4.76263 74.0647 2.99123C75.4545 1.26929 77.4888 -0.0308941 79.7629 0.740942C80.4853 0.986126 81.1843 1.38218 81.7519 2.02027C82.319 2.65791 82.6705 3.4423 82.8499 4.33313C83.1941 6.04204 82.9394 8.32604 82.1787 11.326C80.8242 16.6678 77.6379 22.964 75.7499 25.8587C75.7356 25.8806 75.7209 25.902 75.7058 25.923C75.6741 25.9861 75.638 26.0479 75.5972 26.108C75.0505 26.9133 74.3148 27.9475 73.4006 29.0409C73.6518 29.5309 73.9431 30.0024 74.269 30.437C75.3526 31.8822 76.6065 32.6575 77.7576 32.7047C79.6933 32.7842 81.3339 32.1186 82.7829 30.6786C84.2787 29.1922 85.5935 26.8491 86.664 23.5861C86.6828 23.5284 86.7048 23.4725 86.7294 23.4185C86.7393 23.3282 86.7571 23.2375 86.7832 23.1472C87.1109 22.0124 87.8652 20.3707 89.1176 18.9809C90.3886 17.5705 92.2757 16.3193 94.7979 16.3193C94.8796 16.3193 94.9594 16.3199 95.0384 16.3211C95.0638 16.3199 95.0892 16.3193 95.1155 16.3193C95.6029 16.3193 96.0649 16.3539 96.5014 16.4197C97.0796 16.4932 97.5933 16.6051 98.0588 16.7479C98.9419 17.0181 99.5872 17.3791 100.099 17.6845C100.18 17.7325 100.255 17.7774 100.325 17.8194L100.327 17.8205C100.723 18.0586 100.968 18.2052 101.273 18.3225C101.581 18.4409 101.988 18.5367 102.651 18.5193C104.741 18.4649 106.506 16.9839 107.085 16.2599C107.644 15.5598 108.671 15.4407 109.379 15.9941C110.087 16.5475 110.208 17.5638 109.648 18.2639C108.744 19.3953 106.165 21.6609 102.737 21.7502C102.632 21.7529 102.529 21.7539 102.428 21.753C102.86 23.1997 102.927 24.6544 102.828 25.7506C102.783 27.3476 102.326 29.7042 101.048 31.7564C99.7125 33.9022 97.4489 35.735 93.9629 35.8887C92.2557 35.9641 90.7709 35.5996 89.5562 34.8184C88.347 34.0405 87.5257 32.9266 87.0066 31.6983C86.9079 31.4648 86.8195 31.2259 86.7408 30.9823C86.2328 31.7136 85.6864 32.3746 85.0987 32.9586C83.0535 34.9912 80.5419 36.0538 77.622 35.9339C75.0917 35.8299 73.0329 34.2137 71.6447 32.3624C71.4405 32.09 71.2462 31.8068 71.0627 31.515C70.7962 31.7618 70.5209 32.0051 70.2369 32.243C67.7668 34.3123 64.5113 36.0767 60.5862 35.9796C57.0989 35.8934 54.9882 33.8604 53.8072 31.5466C47.5973 36.9887 40.7524 36.1256 36.9119 33.5453C35.3683 34.4268 33.2094 35.1783 31.115 35.5457C29.9155 35.7561 28.6659 35.8538 27.5033 35.7514C26.3598 35.6507 25.1572 35.3434 24.1942 34.6161C23.1105 33.7975 22.67 32.6322 22.5149 31.5383C22.3634 30.47 22.4583 29.3033 22.5949 28.2313C22.6627 27.6984 22.746 27.1548 22.8262 26.6309V26.6308V26.6306L22.8326 26.5893C22.9159 26.0452 22.9957 25.5211 23.0604 25.0079C23.1916 23.9664 23.2442 23.0784 23.1553 22.348C23.028 21.3027 22.6951 20.7416 22.3945 20.4456C22.103 20.1587 21.7131 19.9926 21.1966 19.9729C20.0806 19.9302 18.5483 20.6064 17.4491 21.8951C16.4659 23.0477 15.561 25.2252 14.8269 27.7568C14.1124 30.22 13.6264 32.7738 13.3688 34.4696C13.2349 35.3522 12.4029 35.9601 11.5106 35.8275C10.6184 35.695 10.0038 34.872 10.1378 33.9895C10.3625 32.5095 10.7514 30.4096 11.3111 28.2375C10.3866 28.9235 9.37244 29.6232 8.37328 30.2867C6.16749 31.7516 3.89014 33.1336 2.45966 33.9629C1.68123 34.4141 0.680387 34.1557 0.22421 33.3857C-0.231967 32.6157 0.0292713 31.6257 0.807701 31.1744C2.19075 30.3728 4.41051 29.0257 6.55208 27.6034C8.73438 26.1542 10.6966 24.717 11.6687 23.7239C11.77 23.6205 11.8819 23.5332 12.001 23.4624C12.1204 22.3427 12.2406 21.1427 12.3649 19.9025V19.9024C12.5155 18.3982 12.6722 16.8347 12.8404 15.2829C13.0795 13.0772 13.341 10.9109 13.6395 9.03598C13.9329 7.19212 14.2786 5.51796 14.7142 4.35599C15.8381 1.35753 18.3904 -0.345129 20.9807 0.181338ZM96.0458 19.6203C95.6937 19.5772 95.2825 19.5512 94.7979 19.5512C93.4719 19.5512 92.4091 20.1853 91.5569 21.1315C90.6852 22.0983 90.1416 23.2845 89.9247 24.035C89.9162 24.0647 89.9069 24.0939 89.8968 24.1227C89.8941 24.2317 89.8801 24.3422 89.854 24.4525C89.3313 26.6658 89.365 28.8992 90.0211 30.4518C90.3382 31.2018 90.78 31.7505 91.3372 32.1091C91.8899 32.4644 92.675 32.7104 93.8177 32.6601C96.0304 32.5625 97.3899 31.4701 98.2667 30.0615C99.1861 28.5851 99.5373 26.7915 99.5627 25.621L99.5645 25.5611L99.57 25.5014C99.678 24.3921 99.5219 22.8085 98.8448 21.5724C98.332 20.6377 97.5098 19.8518 96.0458 19.6203ZM72.8847 24.3063C72.7098 24.5638 72.5178 24.8411 72.309 25.1326C72.1635 23.64 72.1986 21.9548 72.3682 20.1601C72.6514 17.1658 73.2902 14.0385 73.9272 11.2945C74.5979 8.40536 75.5973 6.27243 76.6181 5.00765C77.6788 3.69339 78.3899 3.69183 78.7025 3.79791C79.0105 3.90245 79.184 4.026 79.2989 4.15515C79.4141 4.28475 79.5551 4.51522 79.6456 4.96463C79.8412 5.93619 79.7463 7.63415 79.0095 10.5396C77.761 15.463 74.7467 21.4351 73.0043 24.1066C72.9703 24.1588 72.9396 24.2123 72.9124 24.2667C72.903 24.2797 72.8938 24.2929 72.8847 24.3063ZM55.5442 24.7128C57.6719 21.824 60.4104 17.6165 61.4589 13.9089C62.357 10.733 62.8519 8.16463 62.862 6.30622C62.8727 4.34747 62.3622 3.82864 62.0512 3.68051C61.697 3.51181 60.9426 3.42037 59.7795 4.83729C58.6406 6.22444 57.5033 8.69697 56.7835 12.257C55.7491 17.3725 55.5446 20.0192 55.5446 23.8604C55.5446 23.8905 55.5438 23.9203 55.5421 23.95C55.5444 23.9917 55.5451 24.0339 55.5441 24.0763C55.5396 24.2766 55.5394 24.4897 55.5442 24.7128ZM15.744 18.9515C17.5691 16.9525 20.8585 12.5972 21.5655 6.35389C21.8226 4.08276 20.8137 3.44684 20.3232 3.34712C19.7472 3.23007 18.5103 3.52491 17.7776 5.47959C17.4644 6.31512 17.1578 7.71203 16.867 9.53863C16.5812 11.3342 16.3265 13.4379 16.0891 15.6275C15.9705 16.721 15.856 17.8404 15.744 18.9515ZM37.2905 29.4943C36.5392 28.5307 36.1542 27.2292 36.1504 25.7824C36.1456 23.87 36.8172 22.0069 37.8078 20.8819C39.0794 19.4378 40.6445 19.2894 41.6349 19.7247C42.1326 19.9434 42.5209 20.3156 42.7404 20.8184C42.9593 21.3195 43.057 22.0615 42.7644 23.0792C41.908 26.0585 39.4723 28.2373 37.2905 29.4943Z" fill="white"/>
</g>
<defs>
<clipPath id="clip0_25_34">
<rect width="110" height="36" fill="white"/>
</clipPath>
</defs>
</svg>
