<svg width="108" height="38" viewBox="0 0 108 38" fill="none" xmlns="http://www.w3.org/2000/svg">
<path d="M2 31.811C6.38253 28.8316 10.1741 25.0935 14.4045 18.4794C17.3737 13.8373 18.8259 9.66351 18.9052 6.33754C18.9448 3.87111 17.9164 2.00003 15.9783 2.00003C13.8425 2.00003 12.4977 3.87111 11.6671 8.1661C10.7574 12.8863 10.085 18.3026 8.38424 35.6705" stroke="white" stroke-width="3.5" stroke-linecap="round"/>
<path d="M8.55103 33.9732C9.3901 25.4553 12.7351 18.679 16.9672 18.679C19.4986 18.679 21.1074 21.0085 20.6506 24.3429C20.3934 26.3069 19.9288 28.5908 19.6634 30.8289C19.3405 33.6608 20.263 35.8533 23.1199 35.8533C27.163 35.8533 29.5853 30.803 30.8984 25.4867" stroke="white" stroke-width="3.5" stroke-linecap="round"/>
<path d="M43.3724 21.4C42.597 19.3393 40.9489 17.9481 38.3253 17.9481C33.9745 17.9481 30.7047 22.9725 30.4901 28.3623C30.303 33.2953 32.2741 36.0683 35.0816 36.0359C39.0666 35.9899 41.9958 31.4698 43.3033 21.9057C43.4646 20.7257 43.6318 19.4935 43.7931 18.3135" stroke="white" stroke-width="3.5" stroke-linecap="round"/>
<path d="M43.7932 18.3135C43.6298 19.5105 43.4665 20.7074 43.3032 21.9044C42.5889 27.1394 42.2593 29.2048 42.2947 30.5548C42.3773 33.7064 43.3588 35.8532 46.465 35.8532C51.8493 35.8532 59.2735 25.398 62.8456 14.5399C63.878 11.4016 64.272 8.43675 64.272 6.36492C64.272 3.90834 63.5996 2.02204 61.7011 2.02204C59.8421 2.02204 58.616 3.689 57.5085 6.32105C56.211 9.37372 55.2512 13.7767 54.8585 18.7539C53.8697 31.2427 56.0847 35.8532 61.3512 35.8532C67.7372 35.8532 74.8371 25.5793 78.4624 14.5595C79.5013 11.4016 79.8953 8.43675 79.8953 6.36492C79.8953 3.90834 79.2229 2.02204 77.3244 2.02204C75.4654 2.02204 74.2393 3.689 73.1318 6.32105C71.8342 9.37372 70.8745 13.7767 70.4818 18.7539C69.493 31.2427 71.7079 35.8532 76.411 35.8532C81.1066 35.8532 83.6573 31.1264 85.1866 26.1072C86.6983 21.1455 88.5573 18.0852 92.4335 18.0852C95.6372 18.0852 98.1686 20.8257 98.1686 25.9871C98.1686 31.6967 94.9609 35.9902 90.9075 36.0359C87.3404 36.0816 84.9976 32.7472 85.2349 27.7228C85.5118 22.1503 88.4387 18.0852 92.2753 18.0852C94.4902 18.0852 96.3506 19.2222 97.8126 20.4603C101.776 23.7996 104.83 21.736 106 18.4343" stroke="white" stroke-width="3.5" stroke-linecap="round"/>
</svg>
