<svg width="108" height="38" viewBox="0 0 108 38" fill="none" xmlns="http://www.w3.org/2000/svg">
<path d="M2 31.8143C7.24411 28.8346 11.781 25.0961 16.8432 18.4812C20.3961 13.8386 22.1338 9.66437 22.2287 6.33803C22.276 3.87133 21.0455 2.00003 18.7264 2.00003C16.1707 2.00003 14.5615 3.87133 13.5676 8.16679C12.4791 12.8875 11.6745 18.3044 9.63935 35.6743" stroke="white" stroke-width="3.5" stroke-linecap="round"/>
<path d="M9.83887 33.9768C10.8429 25.4579 14.8455 18.6809 19.9097 18.6809C22.9387 18.6809 24.8637 21.0106 24.3171 24.3454C24.0094 26.3097 23.4535 28.5937 23.1359 30.8321C22.7494 33.6644 23.8533 35.8571 27.2663 35.8571C32.0836 35.8571 35.1163 31.3424 36.4285 25.9966" stroke="white" stroke-width="3.5" stroke-linecap="round"/>
<path d="M45.0883 17.9957C40.354 18.3651 36.8124 22.238 36.1432 27.5431C35.528 32.3853 38.3204 36.0398 42.7692 36.0398C48.1647 36.0398 51.667 31.563 51.9036 25.9899C52.0929 20.6452 49.4425 17.95 45.8456 17.95C43.0059 17.95 41.4914 20.0056 41.586 22.5181C41.6785 25.9534 44.3475 29.8105 49.9476 30.3033C57.7153 30.987 68.339 25.4439 72.6285 14.546C73.8658 11.4027 74.3373 8.43753 74.3373 6.36547C74.3373 3.90861 73.5327 2.0221 71.2609 2.0221C69.0365 2.0221 67.5693 3.68925 66.2441 6.32159C64.6915 9.37461 63.543 13.7781 63.0731 18.7558C61.8899 31.246 64.5403 35.8571 70.2104 35.8571C75.9567 35.8571 79.7564 31.0498 81.3995 25.4894" stroke="white" stroke-width="3.5" stroke-linecap="round"/>
<path d="M96.326 21.4022C95.3982 19.3413 93.426 17.9499 90.2866 17.9499C85.0805 17.9499 81.1679 22.9749 80.911 28.3653C80.6872 33.2989 83.0458 36.0722 86.4053 36.0398C91.1736 35.9937 94.6787 31.4731 96.2433 21.908C96.4363 20.7279 96.6364 19.4955 96.8294 18.3154" stroke="white" stroke-width="3.5" stroke-linecap="round"/>
<path d="M96.8295 18.3154C96.634 19.5125 96.4386 20.7096 96.2432 21.9067C95.3884 27.1423 94.994 29.2079 95.0364 30.558C95.1353 33.71 96.3097 35.8571 99.2441 35.8571C102.936 35.8571 105.006 33.4359 106 30.7864" stroke="white" stroke-width="3.5" stroke-linecap="round"/>
</svg>
