<svg width="108" height="45" viewBox="0 0 108 45" fill="none" xmlns="http://www.w3.org/2000/svg">
<path d="M8.16427 24.6947C10.0888 25.2473 11.3601 26.6509 11.3601 28.7635C11.3601 31.0547 9.56516 32.8323 7.15738 32.8323C4.92471 32.8323 3.30493 31.4102 3.30493 29.3165C3.30493 26.3291 6.1943 24.4182 10.6596 24.5367C15.1687 24.6552 18.9859 26.8694 21.9223 30.2771" stroke="white" stroke-width="3.5" stroke-linecap="round"/>
<path d="M24.2397 15.7132C22.6443 25.3113 21.3818 34.1956 20.395 43" stroke="white" stroke-width="3.5" stroke-linecap="round"/>
<path d="M38.8926 15.2887C38.9915 19.5963 38.9373 22.7345 38.5948 26.297C38.09 31.549 35.9926 34.7421 32.6082 34.7421C30.5545 34.7421 29.0635 33.5033 29.0635 31.6033C29.0635 29.0279 31.72 26.9676 36.6161 27.1421C41.2402 27.307 45.9663 28.6524 49.2279 31.3845" stroke="white" stroke-width="3.5" stroke-linecap="round"/>
<path d="M51.7596 15.1442C50.1306 24.7203 48.7927 33.8935 47.8589 42.6842" stroke="white" stroke-width="3.5" stroke-linecap="round"/>
<path d="M66.6605 15.1457C70.3419 17.0611 72.6851 21.2879 72.6851 25.3437C72.6851 30.2887 69.0449 33.5433 63.9295 33.5433C58.9507 33.5433 55.5802 30.4314 56.7062 27.934C57.6478 25.8455 60.9141 25.7788 63.5355 27.6969C66.7883 30.077 68.0886 35.3229 68.6137 42.392" stroke="white" stroke-width="3.5" stroke-linecap="round"/>
<path d="M71.8694 29.0805C74.4471 29.9987 78.1658 30.1568 81.564 29.4394" stroke="white" stroke-width="3.5" stroke-linecap="round"/>
<path d="M98.9518 14.8456C97.1569 24.6339 95.6685 33.7703 94.5303 42.6687" stroke="white" stroke-width="3.5" stroke-linecap="round"/>
<path d="M95.4075 36.2301C96.306 30.0013 93.9604 25.0898 88.27 25.0898C84.0236 25.0898 80.7402 28.6846 80.7402 33.1484C80.7402 36.3876 82.0536 39.9428 84.5051 42.4315" stroke="white" stroke-width="3.5" stroke-linecap="round"/>
<path d="M92.6497 8.04736C86.3618 7.66254 84.4631 5.9716 84.4631 4.24243C84.4631 2.85778 85.8488 1.93626 87.7533 2.00348C92.1256 2.14749 96.4783 6.43994 98.7044 12.0289" stroke="white" stroke-width="3.5" stroke-linecap="round"/>
<path d="M2 14.9324C6.13995 14.9628 11.0973 15.0166 17.5124 15.0166C24.006 15.0166 37.412 15.0243 45.4319 15.016C52.7481 15.0084 70.6713 14.987 80.5688 14.9871C89.9897 14.9873 98.2225 14.895 106 14.7103" stroke="white" stroke-width="3.5" stroke-linecap="round"/>
</svg>
