<svg width="142" height="38" viewBox="0 0 142 38" fill="none" xmlns="http://www.w3.org/2000/svg">
<path d="M4.12103 4.13235C8.9045 4.23379 13.8731 5.81709 15.8506 7.33316C17.2203 8.38327 17.6532 9.46875 17.6489 10.6035C17.6416 12.5098 16.236 13.8313 14.5316 14.5085" stroke="white" stroke-width="3.5" stroke-linecap="round"/>
<path d="M5.24084 22.023C3.0774 24.0752 2.09844 26.2802 2.00563 28.6853C1.87102 32.1735 4.15151 34.4456 8.57341 34.6001C12.5757 34.74 16.5045 33.821 18.8178 32.2071" stroke="white" stroke-width="3.5" stroke-linecap="round"/>
<path d="M35.3613 2.45851C31.8657 10.9664 27.5104 24.7049 25.2417 35.3682" stroke="white" stroke-width="3.5" stroke-linecap="round"/>
<path d="M25.245 35.3616C27.7435 27.1399 30.7267 22.5569 33.9119 22.5472C35.9061 22.5412 37.1753 24.1145 37.623 27.4972C37.7177 28.2124 37.8123 28.9277 37.907 29.6429C38.3985 33.3566 39.6807 34.9022 41.8022 34.9022C44.5789 34.9022 47.5895 31.8369 49.1361 26.7487" stroke="white" stroke-width="3.5" stroke-linecap="round"/>
<path d="M59.0973 2.66256C57.4297 12.632 56.3536 25.1471 56.1168 36.04" stroke="white" stroke-width="3.5" stroke-linecap="round"/>
<path d="M65.5596 8.20591C69.5732 7.6174 73.7133 8.17407 75.4074 9.22994C76.526 9.92708 76.8861 10.8615 76.8851 11.8616C76.8833 13.5934 75.7109 14.9924 74.2873 15.8486" stroke="white" stroke-width="3.5" stroke-linecap="round"/>
<path d="M66.4183 23.1038C64.5953 25.0079 63.7732 27.0288 63.7002 29.2149C63.5899 32.5198 65.5256 34.5871 69.2619 34.6437C72.6434 34.695 75.9603 33.7974 77.911 32.3061" stroke="white" stroke-width="3.5" stroke-linecap="round"/>
<path d="M84.7374 7.94268C86.7281 9.78977 90.4849 11.7391 96.3082 11.4441C101.508 11.1807 103.909 8.68817 103.909 5.93303C103.909 3.93671 102.782 2.70438 100.639 2.70438C95.6156 2.70438 90.8472 9.46986 86.9708 23.9014" stroke="white" stroke-width="3.5" stroke-linecap="round"/>
<path d="M86.9708 23.9014C90.5433 21.0679 94.6078 19.3078 98.5189 19.3078C103.426 19.3078 105.552 22.1763 105.541 26.4315C105.525 32.5342 100.185 35.7512 94.7057 35.7512C91.2403 35.7512 88.5132 34.8628 87.1973 33.806" stroke="white" stroke-width="3.5" stroke-linecap="round"/>
<path d="M117.509 2.82781C115.841 12.6985 114.765 25.0897 114.528 35.8748" stroke="white" stroke-width="3.5" stroke-linecap="round"/>
<path d="M123.467 10.777C126.997 11.2289 135.497 10.6253 140 9.90421" stroke="white" stroke-width="3.5" stroke-linecap="round"/>
<path d="M132.21 1.99995C132.678 7.25963 132.838 13.7305 132.685 20.9705C132.477 30.7355 129.677 35.2111 125.642 35.3076C122.986 35.3711 121.587 33.4146 121.614 31.042C121.643 28.3978 123.456 26.3554 126.77 26.3461C130.601 26.3354 133.986 28.9184 138.749 34.5788" stroke="white" stroke-width="3.5" stroke-linecap="round"/>
</svg>
