<svg width="134" height="38" viewBox="0 0 134 38" fill="none" xmlns="http://www.w3.org/2000/svg">
<path d="M22.2835 7.63056C20.9649 4.38873 18.1889 2.00002 13.9555 2.00002C5.94064 2.00002 2 10.8724 2 19.5741C2 29.0437 6.85801 36.0392 15.1018 36.0392C25.769 36.0392 35.3127 25.7391 37.5013 10.6804C37.8723 8.1276 38.3683 5.52004 38.7096 2.93844" stroke="white" stroke-width="3.5" stroke-linecap="round"/>
<path d="M38.7096 2.93844C37.9426 8.7396 37.2364 13.517 36.7941 17.7826C36.5436 20.5979 36.4241 22.9866 36.438 25.3753C36.4738 31.5177 38.3657 35.6979 42.9915 35.6979C49.4791 35.6979 55.8067 26.4619 58.0659 16.3359" stroke="white" stroke-width="3.5" stroke-linecap="round"/>
<path d="M79.1116 8.70312C77.8034 4.85426 75.0227 2.25591 70.5963 2.25591C63.2559 2.25591 57.7393 11.6401 57.3772 21.7069C57.0616 30.9205 60.3871 36.0997 65.1238 36.0391C71.847 35.9532 76.789 27.5108 78.995 9.64766C79.2672 7.44374 79.5492 5.14232 79.8214 2.9384" stroke="white" stroke-width="3.5" stroke-linecap="round"/>
<path d="M79.8214 2.93843C79.5458 5.17401 79.2703 7.40959 78.9947 9.64516C77.7896 19.4229 77.2335 23.2804 77.2932 25.8018C77.4327 31.6883 79.0885 35.6979 83.4664 35.6979C89.517 35.6979 94.4659 26.4869 96.967 17.3993C99.4912 8.22772 102.628 2.51187 109.167 2.51187C114.572 2.51187 118.843 7.63054 118.843 17.2707C118.843 27.9346 113.431 35.9539 106.593 36.0392C100.575 36.1245 96.6218 29.8968 97.0222 20.5125C97.4893 10.1046 102.427 2.51187 108.9 2.51187C112.637 2.51187 115.776 4.63551 118.243 6.94806C124.93 13.1849 130.083 9.33068 132.056 3.1639" stroke="white" stroke-width="3.5" stroke-linecap="round"/>
</svg>
