<svg width="108" height="38" viewBox="0 0 108 38" fill="none" xmlns="http://www.w3.org/2000/svg">
<path d="M2.00002 19.3027C2.39763 17.0575 3.56206 14.5061 5.66372 14.5061C7.76538 14.5061 8.3618 16.7513 7.82218 19.745C7.45297 21.8882 7.16897 24.0994 6.57255 27.4673" stroke="white" stroke-width="3.5" stroke-linecap="round"/>
<path d="M7.15297 23.9798C8.08282 18.0571 10.3194 14.302 13.0479 14.302C14.894 14.302 15.8596 15.9349 15.6892 18.2482C15.5472 19.9831 15.0644 21.9903 14.9508 23.6912C14.8088 26.0045 15.4336 27.6374 17.429 27.6374C20.7132 27.6374 23.3828 23.1821 24.2445 17.6265C24.3971 16.6434 24.5886 15.6054 24.7247 14.5741" stroke="white" stroke-width="3.5" stroke-linecap="round"/>
<path d="M24.7248 14.5741C23.7819 21.7181 23.0386 28.8961 22.4082 36.04" stroke="white" stroke-width="3.5" stroke-linecap="round"/>
<path d="M23.5042 24.7956C24.2291 18.0757 26.7485 14.302 29.5772 14.302C31.8126 14.336 33.0647 16.5069 32.8392 20.1532C32.5942 24.1149 30.1209 27.7734 27.1306 27.7734C25.1994 27.7394 24.039 26.5488 23.4994 24.9499" stroke="white" stroke-width="3.5" stroke-linecap="round"/>
<path d="M26.4423 27.7079C32.7228 28.8317 39.5809 24.5846 40.6446 17.7273C40.8128 16.6434 41.0322 15.6147 41.2328 14.5987" stroke="white" stroke-width="3.5" stroke-linecap="round"/>
<path d="M41.2328 14.5986C40.742 17.0841 40.4131 19.0986 40.2383 20.5954C40.0931 21.684 40.0022 22.4325 39.9667 23.351C39.9198 25.7664 41.051 27.5013 43.238 27.5013C46.4189 27.5013 47.9994 24.1111 48.9577 18.5512C49.1869 17.2214 49.4367 15.9524 49.6387 14.6164" stroke="white" stroke-width="3.5" stroke-linecap="round"/>
<path d="M49.6387 14.6164C48.9287 19.311 48.3501 22.1263 48.3501 23.6912C48.3501 26.0385 49.1169 27.6374 51.3491 27.6374C55.2216 27.6374 60.214 18.8347 63.2445 11.3469C64.1687 9.06349 64.5058 6.98247 64.5664 5.41038C64.6429 3.42295 63.9728 2.00006 62.6357 2.00006C61.3577 2.00006 60.5057 3.10023 59.5684 5.43393C58.4608 8.23437 57.8076 11.5682 57.4668 14.9021C56.5864 24.2035 58.4324 27.6374 61.5281 27.6374C64.0842 27.6374 65.703 24.8819 65.9018 21.2418C66.0154 18.1801 64.9362 15.7988 63.0049 14.6762" stroke="white" stroke-width="3.5" stroke-linecap="round"/>
<path d="M64.6967 16.2801C67.3798 20.2682 69.7327 23.4339 73.2391 22.9493C76.2398 22.5345 78.0575 20.2893 78.1427 18.044C78.2279 15.8668 77.2338 14.2679 75.2458 14.2679C72.8885 14.2679 71.1561 17.2276 71.1561 20.7315C71.1561 25.1617 73.1725 27.7856 76.5908 27.7856C81.1619 27.7856 84.4967 23.5786 85.4156 17.655C85.5725 16.6434 85.7655 15.6065 85.8956 14.5741" stroke="white" stroke-width="3.5" stroke-linecap="round"/>
<path d="M85.8956 14.5741C85.351 18.8945 84.8878 23.1469 84.3432 27.4673" stroke="white" stroke-width="3.5" stroke-linecap="round"/>
<path d="M84.7996 23.7292C85.5033 17.8197 87.6422 14.302 90.1505 14.302C92.1954 14.302 93.0133 16.241 92.9043 18.8605C92.7952 20.6295 92.2772 24.0994 91.8409 27.4673" stroke="white" stroke-width="3.5" stroke-linecap="round"/>
<path d="M92.3209 23.8744C93.1178 17.951 95.0309 14.302 97.8119 14.302C99.7204 14.302 100.675 16.207 100.457 18.5203C100.32 20.1532 99.8567 22.0923 99.7749 23.6912C99.6386 26.0385 100.608 27.6374 102.202 27.6374C104.206 27.6374 105.438 25.9378 106 24.0778" stroke="white" stroke-width="3.5" stroke-linecap="round"/>
</svg>
