<svg width="108" height="58" viewBox="0 0 108 58" fill="none" xmlns="http://www.w3.org/2000/svg">
<path d="M2.00002 48.5031C10.0155 44.0275 17.3194 38.2725 25.6058 28.4763C31.2461 21.7892 34.2786 14.1535 34.423 8.88687C34.4952 4.97084 32.5942 2.00006 29.0801 2.00006C25.1812 2.00006 22.7263 4.97084 21.2101 11.7901C19.5494 19.2846 18.322 27.8842 15.2173 55.4599" stroke="white" stroke-width="3.5" stroke-linecap="round"/>
<path d="M15.5216 52.7649C17.1111 38.7304 23.1595 28.4818 30.8851 28.4818C35.506 28.4818 38.4428 32.1804 37.6089 37.4745C37.1395 40.5929 36.5954 43.7839 35.9614 47.4825C35.2224 52.1239 37.3346 55.75 43.7343 55.75C53.0673 55.75 63.2491 50.5404 68.4598 42.4716C70.2351 39.7226 70.9571 37.2569 71.0293 34.8637C71.1015 30.5124 68.6467 27.2489 64.3145 27.2489C58.8272 27.2489 54.6395 33.4858 54.6395 41.4632C54.6395 50.0207 59.2604 56.04 68.3938 56.04C79.466 56.04 88.2076 47.0218 90.5306 34.4641C90.9286 32.3128 91.4653 30.0962 91.8346 27.9016" stroke="white" stroke-width="3.5" stroke-linecap="round"/>
<path d="M91.8345 27.9016C91.0047 32.8331 90.2406 36.8943 89.762 40.5204C89.491 42.9136 89.3616 44.9442 89.3767 46.9748C89.4154 52.1964 91.9457 55.7499 96.1555 55.7499C101.466 55.7499 104.575 52.172 106 48.2037" stroke="white" stroke-width="3.5" stroke-linecap="round"/>
</svg>
