<svg width="108" height="38" viewBox="0 0 108 38" fill="none" xmlns="http://www.w3.org/2000/svg">
<path d="M2 35.0341C8.14494 33.9625 11.1303 30.6697 14.5939 16.9783" stroke="white" stroke-width="3.5" stroke-linecap="round"/>
<path d="M14.2108 18.4572C18.9535 21.6113 21.2894 25.0691 21.2894 29.3203C21.2894 32.84 18.7786 35.7655 14.9526 35.7655C12.0034 35.7655 9.89113 33.7085 9.0542 31.8344" stroke="white" stroke-width="3.5" stroke-linecap="round"/>
<path d="M13.5497 35.6045C21.9179 37.5672 29.22 32.5699 30.9825 25.4825" stroke="white" stroke-width="3.5" stroke-linecap="round"/>
<path d="M43.5518 21.3927C42.7704 19.3305 41.1097 17.9382 38.4661 17.9382C34.0822 17.9382 30.7875 22.9664 30.5712 28.3603C30.3827 33.2971 32.3688 36.0722 35.1977 36.0398C39.2131 35.9937 42.1646 31.4701 43.4821 21.8988C43.6446 20.7179 43.8131 19.4848 43.9756 18.3039" stroke="white" stroke-width="3.5" stroke-linecap="round"/>
<path d="M43.9756 18.3039C43.811 19.5018 43.6465 20.6996 43.4819 21.8975C42.7622 27.1365 42.4301 29.2035 42.4657 30.5545C42.549 33.7085 43.5379 35.8569 46.6678 35.8569C52.0931 35.8569 59.5739 25.3938 63.1732 14.5274C64.2135 11.3867 64.6105 8.41963 64.6105 6.34622C64.6105 3.88778 63.933 2.00004 62.02 2.00004C60.1469 2.00004 58.9114 3.66827 57.7955 6.30232C56.4881 9.35731 55.521 13.7636 55.1253 18.7446C54.129 31.2429 56.3608 35.8569 61.2632 35.8569C66.4852 35.8569 70.2414 30.0193 71.4731 22.4161C71.6889 21.0844 71.9967 19.7021 72.2783 18.3369" stroke="white" stroke-width="3.5" stroke-linecap="round"/>
<path d="M72.2783 18.3369C71.5896 21.6766 71.128 24.3835 70.8828 26.3948C70.6791 27.8575 70.5515 28.8631 70.5017 30.0973C70.4359 33.3429 72.0232 35.6741 75.0921 35.6741C79.5558 35.6741 81.7737 31.1188 83.1185 23.6479C83.4401 21.8611 83.7906 20.1559 84.0741 18.3607" stroke="white" stroke-width="3.5" stroke-linecap="round"/>
<path d="M84.0741 18.3607C83.0778 24.6688 82.2659 28.4518 82.2659 30.5545C82.2659 33.7085 83.3419 35.8569 86.144 35.8569C90.4167 35.8569 95.4355 30.8066 96.7049 22.8875" stroke="white" stroke-width="3.5" stroke-linecap="round"/>
<path d="M99.0922 11.0125C97.2991 18.9424 96.2151 24.8156 96.0612 28.5889C95.8659 32.8234 97.3978 35.8688 100.287 35.8688C103.467 35.8688 105.472 33.1007 106 30.1528" stroke="white" stroke-width="3.5" stroke-linecap="round"/>
<path d="M92.8782 18.2582C96.5049 18.2582 100.132 18.2582 103.758 18.2582" stroke="white" stroke-width="3.5" stroke-linecap="round"/>
</svg>
