<svg width="28" height="33" viewBox="0 0 28 33" fill="none" xmlns="http://www.w3.org/2000/svg">
<path fill-rule="evenodd" clip-rule="evenodd" d="M1.57781 15.2367C0.44283 14.1017 0.44283 12.2615 1.57781 11.1266L11.8531 0.851236C12.9881 -0.283745 14.8283 -0.283745 15.9633 0.851236L26.2386 11.1266C27.3736 12.2615 27.3736 14.1017 26.2386 15.2367L25.8523 15.6229L26.7524 16.523C28.1711 17.9417 28.1711 20.2419 26.7524 21.6606L16.477 31.936C15.0583 33.3547 12.7581 33.3547 11.3394 31.936L1.06404 21.6606C-0.354682 20.2419 -0.354681 17.9417 1.06405 16.523L1.96406 15.6229L1.57781 15.2367ZM11.8531 25.512L2.9916 16.6505L2.09158 17.5505C1.24034 18.4017 1.24034 19.7819 2.09158 20.6331L12.3669 30.9084C13.2181 31.7597 14.5983 31.7597 15.4495 30.9084L25.7248 20.6331C26.5761 19.7819 26.5761 18.4017 25.7248 17.5505L24.8248 16.6505L15.9633 25.512C14.8283 26.647 12.9881 26.647 11.8531 25.512ZM14.5681 19.7903L19.192 15.1664C19.4757 14.8827 19.4757 14.4226 19.192 14.1389C18.9083 13.8551 18.4482 13.8551 18.1645 14.1389L14.7809 17.5224V6.15939C14.7809 5.75812 14.4556 5.43282 14.0543 5.43282C13.6531 5.43282 13.3278 5.75812 13.3278 6.15939V17.5224L9.94421 14.1389C9.66046 13.8551 9.20042 13.8551 8.91667 14.1389C8.63293 14.4226 8.63293 14.8827 8.91667 15.1664L13.5406 19.7903C13.8243 20.074 14.2844 20.074 14.5681 19.7903Z" fill="white"/>
</svg>
