<svg width="39" height="38" viewBox="0 0 39 38" fill="none" xmlns="http://www.w3.org/2000/svg">
<path d="M19.3682 38C29.8616 38 38.3682 29.4934 38.3682 19C38.3682 8.50659 29.8616 0 19.3682 0C8.87475 0 0.368164 8.50659 0.368164 19C0.368164 24.2447 2.49322 28.9931 5.92927 32.4312V19.4634H5.94735C5.93534 19.2345 5.92927 19.004 5.92927 18.7722C5.92927 11.4758 11.9461 5.56094 19.3683 5.56094C26.7905 5.56094 32.8073 11.4758 32.8073 18.7722C32.8073 26.0686 26.7905 31.9834 19.3683 31.9834C16.4256 31.9834 13.7037 31.0536 11.4902 29.4766V36.2949C13.8902 37.3899 16.558 38 19.3682 38Z" fill="white"/>
<path d="M21.8622 16.385C21.8622 17.2871 21.1316 18.018 20.23 18.0183H17.483C17.4802 18.0212 16.7338 18.7697 17.4823 19.5183H21.5403C22.23 19.5183 22.789 20.0773 22.789 20.7683V20.939C22.789 21.6294 22.2293 22.189 21.539 22.189H16.8926C16.7546 22.189 16.6426 22.0771 16.6426 21.939L16.6426 15.5976C16.6426 15.4595 16.7546 15.3476 16.8926 15.3476L20.8247 15.3476C21.3977 15.3476 21.8622 15.8121 21.8622 16.385Z" fill="white"/>
<path fill-rule="evenodd" clip-rule="evenodd" d="M19.3683 26.2839C15.1481 26.2839 11.727 22.9208 11.727 18.7722C11.727 14.6236 15.1481 11.2604 19.3683 11.2604C23.5884 11.2604 27.0096 14.6236 27.0096 18.7722C27.0096 22.9208 23.5884 26.2839 19.3683 26.2839ZM24.289 20.939V20.7683C24.289 19.6727 23.6488 18.7262 22.7214 18.2842C23.1234 17.7573 23.3622 17.099 23.3622 16.385C23.3622 14.9836 22.2261 13.8476 20.8247 13.8476L16.8926 13.8476C15.9261 13.8476 15.1426 14.6311 15.1426 15.5976L15.1426 21.939C15.1426 22.9055 15.9261 23.689 16.8926 23.689H21.539C23.0578 23.689 24.289 22.4578 24.289 20.939Z" fill="white"/>
</svg>
