<svg width="33" height="33" viewBox="0 0 33 33" fill="none" xmlns="http://www.w3.org/2000/svg">
<path d="M33 16.5C33 25.6127 25.6127 33 16.5 33C7.3873 33 0 25.6127 0 16.5C0 7.3873 7.3873 0 16.5 0C25.6127 0 33 7.3873 33 16.5Z" fill="white"/>
<path fill-rule="evenodd" clip-rule="evenodd" d="M10.2934 10.5964H22.7062V26.6423H10.2934V10.5964ZM11.2018 11.5046H13.321V13.6238H11.2018V11.5046ZM21.4951 11.2019H14.229V11.8074H21.4951V11.2019ZM14.229 13.3212H21.4951V13.9267H14.229V13.3212ZM21.4951 14.5322H14.229V15.1377H21.4951V14.5322ZM14.229 16.6513H21.4951V17.2568H14.229V16.6513ZM21.4951 18.1654H14.229V18.7709H21.4951V18.1654ZM14.229 20.2847H21.4951V20.8902H14.229V20.2847ZM21.4951 21.4956H14.229V22.1011H21.4951V21.4956ZM14.229 23.6147H21.4951V24.2202H14.229V23.6147ZM13.321 14.8349H11.2018V16.9541H13.321V14.8349ZM11.2018 18.468H13.321V20.5873H11.2018V18.468ZM13.321 21.7983H11.2018V23.9175H13.321V21.7983Z" fill="#353636"/>
<path d="M19.3758 7.87163H18.7707V8.1744C18.7707 8.67601 18.3641 9.08265 17.8625 9.08265C17.3609 9.08265 16.9542 8.67601 16.9542 8.1744V7.87163H16.0455V8.1744C16.0455 8.67601 15.6389 9.08265 15.1373 9.08265C14.6356 9.08265 14.229 8.67601 14.229 8.1744V7.87163H13.3207V8.1744C13.3207 8.67601 12.9141 9.08265 12.4125 9.08265C11.9109 9.08265 11.5042 8.67601 11.5042 8.1744V7.87163H10.2934V9.9909H22.7062V7.87163H21.1923V8.1744C21.1923 8.67601 20.7856 9.08265 20.284 9.08265C19.7824 9.08265 19.3758 8.67601 19.3758 8.1744V7.87163Z" fill="#353636"/>
<path d="M11.9588 6.81215C11.9588 6.56134 12.1621 6.35802 12.4129 6.35802C12.6638 6.35802 12.8671 6.56134 12.8671 6.81215V8.32591C12.8671 8.57672 12.6638 8.78004 12.4129 8.78004C12.1621 8.78004 11.9588 8.57672 11.9588 8.32591V6.81215Z" fill="#353636"/>
<path d="M14.6832 6.81215C14.6832 6.56134 14.8865 6.35802 15.1373 6.35802C15.3881 6.35802 15.5915 6.56134 15.5915 6.81215V8.32591C15.5915 8.57672 15.3881 8.78004 15.1373 8.78004C14.8865 8.78004 14.6832 8.57672 14.6832 8.32591V6.81215Z" fill="#353636"/>
<path d="M17.408 6.81215C17.408 6.56134 17.6113 6.35802 17.8621 6.35802C18.1129 6.35802 18.3163 6.56134 18.3163 6.81215V8.32591C18.3163 8.57672 18.1129 8.78004 17.8621 8.78004C17.6113 8.78004 17.408 8.57672 17.408 8.32591V6.81215Z" fill="#353636"/>
<path d="M19.8304 6.81215C19.8304 6.56134 20.0337 6.35802 20.2845 6.35802C20.5353 6.35802 20.7386 6.56134 20.7386 6.81215V8.32591C20.7386 8.57672 20.5353 8.78004 20.2845 8.78004C20.0337 8.78004 19.8304 8.57672 19.8304 8.32591V6.81215Z" fill="#353636"/>
</svg>
