<svg width="46" height="33" viewBox="0 0 46 33" fill="none" xmlns="http://www.w3.org/2000/svg">
<path d="M0.816406 8.04602C0.816406 6.42598 2.12971 5.11268 3.74975 5.11268C4.61574 5.11268 5.43748 4.73003 5.99483 4.06723L7.6168 2.1384C8.75683 0.782693 10.4376 0 12.209 0H20.7478C22.5474 0 24.252 0.80776 25.3915 2.20057L25.6736 2.54534C27.0031 4.17029 28.9918 5.11268 31.0913 5.11268H38.4361C42.3021 5.11268 45.4361 8.24668 45.4361 12.1127V26C45.4361 29.866 42.3021 33 38.4361 33H7.8164C3.95041 33 0.816406 29.866 0.816406 26V8.04602Z" fill="white"/>
<path d="M30.563 18.5915C30.563 22.6987 27.2336 26.0282 23.1264 26.0282C19.0193 26.0282 15.6898 22.6987 15.6898 18.5915C15.6898 14.4844 19.0193 11.1549 23.1264 11.1549C27.2336 11.1549 30.563 14.4844 30.563 18.5915ZM17.6778 18.5915C17.6778 21.6008 20.1172 24.0402 23.1264 24.0402C26.1356 24.0402 28.5751 21.6008 28.5751 18.5915C28.5751 15.5823 26.1356 13.1429 23.1264 13.1429C20.1172 13.1429 17.6778 15.5823 17.6778 18.5915Z" fill="#6D6D6D"/>
<path d="M11.5067 8.3662C11.5067 9.13628 10.8824 9.76056 10.1123 9.76056C9.34225 9.76056 8.71797 9.13628 8.71797 8.3662C8.71797 7.59611 9.34225 6.97183 10.1123 6.97183C10.8824 6.97183 11.5067 7.59611 11.5067 8.3662Z" fill="#6D6D6D"/>
</svg>
