<svg width="49" height="33" viewBox="0 0 49 33" fill="none" xmlns="http://www.w3.org/2000/svg">
<path d="M48.791 11.0138C48.5811 11.9191 48.2149 12.7804 47.7104 13.5555C47.2621 14.23 46.6904 14.8073 46.0289 15.2533C45.3391 15.7075 44.5944 16.0621 43.8158 16.3071C42.9254 16.5886 42.0154 16.7926 41.0954 16.9171L40.2495 20.2982L35.2616 19.0503L36.5117 14.0537C37.2293 14.0339 37.8846 13.9935 38.4773 13.9327C39.1462 13.8491 39.8022 13.6677 40.426 13.3939C41.0394 13.1653 41.6031 12.8075 42.0812 12.3432C42.5336 11.8898 42.8533 11.3129 43.0017 10.6819C43.1392 10.286 43.1761 9.86187 43.1087 9.45116C43.0412 9.04044 42.8719 8.65726 42.6172 8.33922C41.9522 7.67864 41.1135 7.23632 40.2024 7.06564C39.411 6.88931 38.5945 6.84985 37.7853 6.94881C36.8864 7.03334 35.9988 7.23428 35.1433 7.54695L34.5764 7.40512L35.7067 2.88727C36.7034 2.75486 37.7072 2.70838 38.7078 2.7483C40.0368 2.77198 41.3564 2.9466 42.643 3.26906C44.6411 3.65215 46.4501 4.70764 47.7935 6.2743C48.3221 6.91084 48.6895 7.67592 48.8634 8.50232C49.0374 9.32871 49.0125 10.1911 48.791 11.0138ZM39.164 26.3224L33.4391 24.8901L34.4175 20.9797L40.1423 22.412L39.164 26.3224Z" fill="white"/>
<path d="M31.6808 0H4.0073C1.8607 0 0.121826 1.74682 0.121826 3.90094V21.5798C0.121826 23.734 1.8607 25.4808 4.0073 25.4808H5.51241L2.43933 31.6696C2.21942 32.0162 2.2718 32.468 2.5635 32.753C2.72986 32.9176 2.94751 33 3.16625 33C3.33042 33 3.49897 32.952 3.646 32.8536L16.4487 25.4808H31.6808C33.8275 25.4808 35.5663 23.734 35.5663 21.5798V3.90094C35.5663 1.74682 33.8274 0 31.6808 0ZM9.854 15.2878C8.42718 15.2878 7.27046 14.1265 7.27046 12.694C7.27046 11.2615 8.42718 10.1002 9.854 10.1002C11.2809 10.1002 12.4375 11.2615 12.4375 12.694C12.4375 14.1265 11.2808 15.2878 9.854 15.2878ZM17.8441 15.2878C16.4172 15.2878 15.2606 14.1265 15.2606 12.694C15.2606 11.2615 16.4172 10.1002 17.8441 10.1002C19.2709 10.1002 20.4276 11.2615 20.4276 12.694C20.4276 14.1265 19.2709 15.2878 17.8441 15.2878ZM25.8341 15.2878C24.4073 15.2878 23.2506 14.1265 23.2506 12.694C23.2506 11.2615 24.4073 10.1002 25.8341 10.1002C27.2609 10.1002 28.4176 11.2615 28.4176 12.694C28.4176 14.1265 27.261 15.2878 25.8341 15.2878Z" fill="white"/>
</svg>
