<svg width="34" height="33" viewBox="0 0 34 33" fill="none" xmlns="http://www.w3.org/2000/svg">
<g opacity="0.8">
<path d="M28.6777 21.2443C30.6914 23.2579 30.6914 26.5227 28.6777 28.5363C26.6641 30.55 23.3993 30.55 21.3857 28.5363L17.6355 24.7862C15.6219 22.7725 15.6219 19.5078 17.6355 17.4941C19.6492 15.4805 22.9139 15.4805 24.9275 17.4941L28.6777 21.2443Z" fill="#9F9F9F" fill-opacity="0.8"/>
<path d="M11.9272 5.15624C11.9272 2.30853 14.2357 0 17.0834 0C19.9311 0 22.2397 2.30853 22.2397 5.15624V10.4598C22.2397 13.3075 19.9311 15.616 17.0834 15.616C14.2357 15.616 11.9272 13.3075 11.9272 10.4598V5.15624Z" fill="#EBEBEB" fill-opacity="0.8"/>
<path d="M12.8472 5.11916C10.8336 3.10553 7.56886 3.10553 5.55523 5.11916C3.54159 7.1328 3.54159 10.3975 5.55523 12.4112L9.30541 16.1614C11.319 18.175 14.5838 18.175 16.5974 16.1614C18.6111 14.1477 18.6111 10.883 16.5974 8.86934L12.8472 5.11916Z" fill="white" fill-opacity="0.8"/>
<path d="M28.2797 11.491C31.1274 11.491 33.436 13.7995 33.436 16.6472C33.436 19.4949 31.1274 21.8034 28.2797 21.8034H22.9762C20.1284 21.8034 17.8199 19.4949 17.8199 16.6472C17.8199 13.7995 20.1284 11.491 22.9762 11.491H28.2797Z" fill="#B5B5B5" fill-opacity="0.8"/>
<path d="M5.5552 21.2443C3.54156 23.2579 3.54156 26.5227 5.5552 28.5363C7.56883 30.55 10.8336 30.55 12.8472 28.5363L16.5974 24.7862C18.611 22.7725 18.611 19.5078 16.5974 17.4941C14.5838 15.4805 11.319 15.4805 9.30538 17.4941L5.5552 21.2443Z" fill="#AEAEAE" fill-opacity="0.8"/>
<path d="M21.3857 5.11916C23.3993 3.10553 26.6641 3.10553 28.6777 5.11916C30.6913 7.1328 30.6913 10.3975 28.6777 12.4112L24.9275 16.1614C22.9139 18.175 19.6491 18.175 17.6355 16.1614C15.6219 14.1477 15.6219 10.883 17.6355 8.86934L21.3857 5.11916Z" fill="#D5D5D5" fill-opacity="0.8"/>
<path d="M11.9272 22.5402C11.9272 19.6925 14.2357 17.384 17.0834 17.384C19.9311 17.384 22.2397 19.6925 22.2397 22.5402V27.8438C22.2397 30.6915 19.9311 33 17.0834 33C14.2357 33 11.9272 30.6915 11.9272 27.8438V22.5402Z" fill="#898989" fill-opacity="0.8"/>
<path d="M5.59227 11.491C2.74456 11.491 0.436035 13.7995 0.436035 16.6472C0.436035 19.4949 2.74456 21.8034 5.59227 21.8034H10.8958C13.7435 21.8034 16.0521 19.4949 16.0521 16.6472C16.0521 13.7995 13.7435 11.491 10.8958 11.491H5.59227Z" fill="#C6C6C6" fill-opacity="0.8"/>
<path d="M18.9985 16.5C18.9985 17.4763 18.2071 18.2678 17.2307 18.2678C16.2543 18.2678 15.4628 17.4763 15.4628 16.5C15.4628 15.5236 16.2543 14.7321 17.2307 14.7321C18.2071 14.7321 18.9985 15.5236 18.9985 16.5Z" fill="#AAAAAA" fill-opacity="0.8"/>
</g>
</svg>
