<svg width="34" height="33" viewBox="0 0 34 33" fill="none" xmlns="http://www.w3.org/2000/svg">
<path fill-rule="evenodd" clip-rule="evenodd" d="M1.61938 11.3627C0.385256 12.3036 1.05062 14.2738 2.60249 14.2738V29.9998C2.60249 31.6566 3.94564 32.9998 5.60249 32.9998H6.63551V32.4191V31.5832V31.3674V30.9832V30.7674V28.8944V28.6785V28.2944V28.0785V26.2055V25.9897V25.6055V25.3897V23.5167V23.3008V22.9167V22.7008V20.8278V20.2278L6.63552 20.0118V18.1389V17.5388H7.23552H27.5464H28.1464V18.1389V20.0118V20.6118L28.1464 20.8278V22.7008V22.9167V23.3008V23.5167V25.3897V25.6055V25.9897V26.2055V28.0785V28.2944V28.6785V28.8944V30.7674V30.9832V31.3674V31.5832V32.4191V32.9998H28.7958C30.4527 32.9998 31.7958 31.6566 31.7958 29.9998V14.2738C33.3477 14.2738 34.0131 12.3036 32.7789 11.3627L18.4117 0.409499C17.6955 -0.136498 16.7028 -0.1365 15.9866 0.409497L1.61938 11.3627ZM27.5464 18.1389H7.23552V20.0118H27.5464V18.1389ZM27.5464 20.8278H7.23551V22.7008H27.5464V20.8278ZM7.23551 23.5167H27.5464V25.3897H7.23551V23.5167ZM27.5464 26.2055H7.23551V28.0785H27.5464V26.2055ZM7.23551 28.8944H27.5464V30.7674H7.23551V28.8944ZM27.5464 31.5832H7.23551V32.4191H27.5464V31.5832Z" fill="white"/>
<mask id="mask0_664_106" style="mask-type:alpha" maskUnits="userSpaceOnUse" x="0" y="0" width="34" height="33">
<path fill-rule="evenodd" clip-rule="evenodd" d="M1.61938 11.3627C0.385256 12.3036 1.05062 14.2738 2.60249 14.2738V29.9998C2.60249 31.6566 3.94564 32.9998 5.60249 32.9998H6.63551V32.4191V31.5832V31.3674V30.9832V30.7674V28.8944V28.6785V28.2944V28.0785V26.2055V25.9897V25.6055V25.3897V23.5167V23.3008V22.9167V22.7008V20.8278V20.2278L6.63552 20.0118V18.1389V17.5388H7.23552H27.5464H28.1464V18.1389V20.0118V20.6118L28.1464 20.8278V22.7008V22.9167V23.3008V23.5167V25.3897V25.6055V25.9897V26.2055V28.0785V28.2944V28.6785V28.8944V30.7674V30.9832V31.3674V31.5832V32.4191V32.9998H28.7958C30.4527 32.9998 31.7958 31.6566 31.7958 29.9998V14.2738C33.3477 14.2738 34.0131 12.3036 32.7789 11.3627L18.4117 0.409499C17.6955 -0.136498 16.7028 -0.1365 15.9866 0.409497L1.61938 11.3627ZM27.5464 18.1389H7.23552V20.0118H27.5464V18.1389ZM27.5464 20.8278H7.23551V22.7008H27.5464V20.8278ZM7.23551 23.5167H27.5464V25.3897H7.23551V23.5167ZM27.5464 26.2055H7.23551V28.0785H27.5464V26.2055ZM7.23551 28.8944H27.5464V30.7674H7.23551V28.8944ZM27.5464 31.5832H7.23551V32.4191H27.5464V31.5832Z" fill="#7F51AE"/>
</mask>
<g mask="url(#mask0_664_106)">
<path d="M20.4218 25.9802C23.409 31.5934 17.4022 37.5858 11.176 36.2958C7.65253 35.5657 3.78969 34.6109 0.681404 34.1446C-3.8859 33.1719 -6.92435 23.2892 -6.00992 16.7898C-5.25773 11.4435 2.58867 9.99978 6.30504 13.916V13.916C7.36348 15.0314 10.1184 17.2361 11.533 17.8389C15.8925 19.6965 18.7496 22.8382 20.4218 25.9802Z" fill="#DFDFDF" fill-opacity="0.6"/>
<path d="M38.5177 11.9693C38.1336 15.6185 26.6099 14.8502 18.9275 13.6978C11.5615 12.1291 7.9422 7.67096 8.69342 4.1436C9.44464 0.616243 15.979 -1.89134 23.3449 -0.32262C30.7109 1.2461 41.597 11.2332 38.5177 11.9693Z" fill="#D9D9D9" fill-opacity="0.6"/>
</g>
</svg>
