<svg width="37" height="41" viewBox="0 0 37 41" fill="none" xmlns="http://www.w3.org/2000/svg">
<path d="M18.3883 6.09277C20.0707 6.09277 21.4347 4.72885 21.4347 3.04638C21.4347 1.36391 20.0707 0 18.3883 0C16.7058 0 15.3419 1.36391 15.3419 3.04638C15.3419 4.72885 16.7058 6.09277 18.3883 6.09277Z" fill="white"/>
<path d="M18.4916 6.76403C16.4263 6.66568 15.0838 4.95685 15.0838 4.95685L14.914 5.09754C13.8319 5.99414 12.9264 7.0846 12.244 8.31304C13.8139 8.75672 15.2885 9.48632 16.5937 10.4652L16.6845 10.5333H22.7772L23.6829 14.5651C23.8972 15.5189 25.0745 15.5785 25.2752 14.6217C25.6031 13.0586 25.7981 11.1327 25.3589 9.44898C24.4295 5.88626 21.6929 4.54378 21.6929 4.54378C21.6929 4.54378 20.557 6.86238 18.4916 6.76403Z" fill="white"/>
<path d="M33.2587 14.7673C34.9412 14.7673 36.3051 13.4034 36.3051 11.7209C36.3051 10.0384 34.9412 8.6745 33.2587 8.6745C31.5763 8.6745 30.2124 10.0384 30.2124 11.7209C30.2124 13.4034 31.5763 14.7673 33.2587 14.7673Z" fill="white"/>
<path d="M30.1722 13.6383C29.2129 11.8066 30.0086 9.7844 30.0086 9.7844L29.8014 9.70903C28.4807 9.22867 27.0821 8.99871 25.6772 9.03092C26.0881 10.6098 26.2041 12.2509 26.0194 13.8718L26.0065 13.9846L29.0867 19.2414L26.066 22.0611C25.3514 22.7282 25.8951 23.7741 26.8221 23.4636C28.3365 22.9563 30.0968 22.1509 31.3274 20.9207C33.9315 18.3177 33.7063 15.2779 33.7063 15.2779C33.7063 15.2779 31.1315 15.47 30.1722 13.6383Z" fill="white"/>
<path d="M30.0954 27.19C31.2176 25.4533 33.3695 25.1505 33.3695 25.1505L33.3331 24.933C33.1012 23.547 32.6129 22.2164 31.8934 21.0093C30.7213 22.1442 29.3498 23.0529 27.8479 23.69L27.7434 23.7343L24.6838 29.0031L20.7424 27.7617C19.81 27.468 19.1672 28.4561 19.8938 29.1102C21.0809 30.1787 22.6484 31.3145 24.325 31.7802C27.8726 32.7656 30.4078 31.0733 30.4078 31.0733C30.4078 31.0733 28.9732 28.9266 30.0954 27.19Z" fill="white"/>
<path d="M33.3105 32.0126C34.993 32.0126 36.3569 30.6487 36.3569 28.9663C36.3569 27.2838 34.993 25.9199 33.3105 25.9199C31.628 25.9199 30.2641 27.2838 30.2641 28.9663C30.2641 30.6487 31.628 32.0126 33.3105 32.0126Z" fill="white"/>
<path d="M18.3334 33.8198C20.3987 33.9181 21.7412 35.6269 21.7412 35.6269L21.911 35.4862C22.9931 34.5896 23.8986 33.4992 24.5811 32.2708C23.0111 31.8271 21.5365 31.0975 20.2314 30.1186L20.1406 30.0505H14.0478L13.1421 26.0187C12.9279 25.0649 11.7505 25.0053 11.5498 25.9621C11.2219 27.5252 11.0269 29.4511 11.4661 31.1348C12.3955 34.6975 15.1321 36.04 15.1321 36.04C15.1321 36.04 16.2681 33.7214 18.3334 33.8198Z" fill="white"/>
<path d="M18.3882 40.5839C20.0707 40.5839 21.4346 39.22 21.4346 37.5375C21.4346 35.855 20.0707 34.4911 18.3882 34.4911C16.7058 34.4911 15.3419 35.855 15.3419 37.5375C15.3419 39.22 16.7058 40.5839 18.3882 40.5839Z" fill="white"/>
<path d="M6.61134 27.0441C7.57209 28.875 6.77804 30.8978 6.77804 30.8978L6.98533 30.973C8.30636 31.4523 9.70515 31.6812 11.11 31.6478C10.6979 30.0693 10.5806 28.4283 10.764 26.8072L10.7768 26.6944L7.69235 21.4401L10.7108 18.6179C11.4249 17.9503 10.8803 16.9048 9.9536 17.2161C8.43958 17.7246 6.67996 18.5314 5.45029 19.7626C2.84834 22.3677 3.07599 25.4073 3.07599 25.4073C3.07599 25.4073 5.65058 25.2132 6.61134 27.0441Z" fill="white"/>
<path d="M3.41455 32.0127C5.09702 32.0127 6.46093 30.6487 6.46093 28.9663C6.46093 27.2838 5.09702 25.9199 3.41455 25.9199C1.73208 25.9199 0.368164 27.2838 0.368164 28.9663C0.368164 30.6487 1.73208 32.0127 3.41455 32.0127Z" fill="white"/>
<path d="M6.64425 13.3745C5.53035 15.1165 3.37992 15.4296 3.37992 15.4296L3.41736 15.6469C3.65593 17.0318 4.15056 18.3601 4.87592 19.5637C6.04255 18.4233 7.40962 17.5079 8.90846 16.8637L9.01274 16.8189L12.0472 11.5355L15.9944 12.7581C16.9282 13.0473 17.5663 12.0561 16.8366 11.4055C15.6444 10.3427 14.0715 9.21441 12.3927 8.75674C8.84035 7.78831 6.3133 9.49276 6.3133 9.49276C6.3133 9.49276 7.75815 11.6325 6.64425 13.3745Z" fill="white"/>
<path d="M3.41455 14.7672C5.09702 14.7672 6.46094 13.4033 6.46094 11.7208C6.46094 10.0384 5.09702 8.67445 3.41455 8.67445C1.73208 8.67445 0.368168 10.0384 0.368168 11.7208C0.368168 13.4033 1.73208 14.7672 3.41455 14.7672Z" fill="white"/>
</svg>
