<svg width="41" height="33" viewBox="0 0 41 33" fill="none" xmlns="http://www.w3.org/2000/svg">
<path d="M20.7667 0.194351C20.3983 -0.0765679 19.893 -0.0630115 19.5396 0.227274L0.36529 15.9776C-0.0608895 16.3277 -0.123175 16.9567 0.226072 17.3836L1.16813 18.535C1.51554 18.9596 2.14018 19.025 2.56804 18.6816L19.1248 5.39266C19.8599 4.8026 20.9073 4.80599 21.6386 5.4008L37.8768 18.6079C38.3343 18.98 39.0128 18.8774 39.3399 18.3868L40.2002 17.0963C40.4786 16.6787 40.4044 16.1195 40.0267 15.789L34.8163 11.2299V0.222987H28.4568V5.84877L20.7667 0.194351Z" fill="white"/>
<path fill-rule="evenodd" clip-rule="evenodd" d="M19.7479 7.58346C20.1184 7.28578 20.6473 7.2901 21.013 7.59379L34.816 19.0573V29.9994C34.816 31.6563 33.4729 32.9994 31.816 32.9994H8.46411C6.80726 32.9994 5.46411 31.6563 5.46411 29.9994V19.0573L19.7479 7.58346ZM17.2044 23.2154H23.564V32.9994H17.2044V23.2154Z" fill="white"/>
</svg>
