<svg width="60" height="60" viewBox="0 0 60 60" fill="none" xmlns="http://www.w3.org/2000/svg">
	<rect width="60" height="60" rx="13.28" fill="url(#paint0_linear_1148_10)" />
	<path d="M30.0002 45.4667L27.5835 43.2667C19.0002 35.4834 13.3335 30.35 13.3335 24.05C13.3335 18.9167 17.3668 14.8834 22.5002 14.8834C25.4002 14.8834 28.1835 16.2334 30.0002 18.3667C31.8168 16.2334 34.6002 14.8834 37.5002 14.8834C42.6335 14.8834 46.6668 18.9167 46.6668 24.05C46.6668 30.35 41.0002 35.4834 32.4168 43.2834L30.0002 45.4667Z" fill="#FF6B6B" />
	<path d="M36.6668 26.6667C38.5078 26.6667 40.0002 25.1743 40.0002 23.3333C40.0002 21.4924 38.5078 20 36.6668 20C34.8259 20 33.3335 21.4924 33.3335 23.3333C33.3335 25.1743 34.8259 26.6667 36.6668 26.6667Z" fill="#FF8E8E" />
	<path d="M23.3335 29.1667C24.7142 29.1667 25.8335 28.0474 25.8335 26.6667C25.8335 25.286 24.7142 24.1667 23.3335 24.1667C21.9528 24.1667 20.8335 25.286 20.8335 26.6667C20.8335 28.0474 21.9528 29.1667 23.3335 29.1667Z" fill="#FFAAAA" />
	<defs>
		<linearGradient id="paint0_linear_1148_10" x1="30" y1="0" x2="30" y2="60" gradientUnits="userSpaceOnUse">
			<stop stop-color="#313131" />
			<stop offset="1" stop-color="#141514" />
		</linearGradient>
	</defs>
</svg>
