<svg width="45" height="30" viewBox="0 0 45 30" fill="none" xmlns="http://www.w3.org/2000/svg">
<path d="M43.9854 3.67703L32.5146 15.0937C32.4293 15.1771 32.4293 15.3021 32.5146 15.3854L40.542 23.7396C41.0857 24.2708 41.0857 25.125 40.542 25.6562C40.2755 25.9167 39.913 26.0521 39.5612 26.0521C39.2094 26.0521 38.847 25.9167 38.5805 25.6562L30.5851 17.3333C30.4998 17.25 30.3612 17.25 30.2759 17.3333L28.325 19.2708C26.694 20.8854 24.5299 21.7812 22.2059 21.7916C19.8499 21.8021 17.6112 20.8333 15.9588 19.1979L14.0826 17.3333C13.9973 17.25 13.8587 17.25 13.7734 17.3333L5.77801 25.6562C5.5115 25.9167 5.14904 26.0521 4.79724 26.0521C4.44544 26.0521 4.08299 25.9167 3.81647 25.6562C3.27278 25.125 3.27278 24.2708 3.81647 23.7396L11.8439 15.3854C11.9185 15.3021 11.9185 15.1771 11.8439 15.0937L0.362458 3.67703C0.223871 3.54161 0 3.63536 0 3.82286V26.6667C0 28.5 1.53512 30 3.41137 30H40.9365C42.8127 30 44.3478 28.5 44.3478 26.6667V3.82286C44.3478 3.63536 44.1133 3.55203 43.9854 3.67703Z" fill="white"/>
<path d="M22.1738 19.073C23.7516 19.073 25.2334 18.4688 26.3421 17.3646L43.0685 0.729168C42.4821 0.270834 41.7572 0 40.9577 0H3.40062C2.60108 0 1.8655 0.270834 1.28983 0.729168L18.0162 17.3646C19.1142 18.4584 20.5961 19.073 22.1738 19.073Z" fill="white"/>
</svg>
