<svg width="33" height="33" viewBox="0 0 33 33" fill="none" xmlns="http://www.w3.org/2000/svg">
<path d="M9.62615 16.8754C10.825 16.8754 11.7969 15.8564 11.7969 14.5993C11.7969 13.3423 10.825 12.3232 9.62615 12.3232C8.42727 12.3232 7.45539 13.3423 7.45539 14.5993C7.45539 15.8564 8.42727 16.8754 9.62615 16.8754Z" fill="white"/>
<path d="M19.0325 14.5993C19.0325 15.8564 18.0606 16.8754 16.8617 16.8754C15.6628 16.8754 14.6909 15.8564 14.6909 14.5993C14.6909 13.3423 15.6628 12.3232 16.8617 12.3232C18.0606 12.3232 19.0325 13.3423 19.0325 14.5993Z" fill="white"/>
<path d="M24.0975 16.8754C25.2964 16.8754 26.2683 15.8564 26.2683 14.5993C26.2683 13.3423 25.2964 12.3232 24.0975 12.3232C22.8986 12.3232 21.9267 13.3423 21.9267 14.5993C21.9267 15.8564 22.8986 16.8754 24.0975 16.8754Z" fill="white"/>
<path fill-rule="evenodd" clip-rule="evenodd" d="M24.2786 0C26.8394 0 29.0405 0.897552 30.5994 2.52706C32.1547 4.15278 33 6.43223 33 9.07342V18.8304C33 21.4716 32.1547 23.751 30.5994 25.3768C29.2354 26.8026 27.3796 27.668 25.2214 27.8621V30.4249C25.2214 32.4132 23.0401 33.741 21.3281 32.5479L14.6487 27.9038H8.72143C6.16063 27.9038 3.9595 27.0063 2.40059 25.3768C0.845293 23.751 0 21.4716 0 18.8304V9.07342C0 6.43223 0.845293 4.15278 2.40059 2.52706C3.95951 0.897552 6.16063 0 8.72143 0H24.2786ZM31.1143 9.07342C31.1143 6.83613 30.4039 5.05018 29.2367 3.83013C28.0731 2.61386 26.3849 1.88525 24.2786 1.88525H8.72143C6.61509 1.88525 4.92692 2.61386 3.76334 3.83013C2.59614 5.05018 1.88571 6.83613 1.88571 9.07342V18.8304C1.88571 21.0677 2.59614 22.8536 3.76334 24.0737C4.92692 25.29 6.61509 26.0186 8.72143 26.0186H14.9443C15.1368 26.0186 15.3246 26.0775 15.4826 26.1873L22.4056 31.0007L22.4064 31.0013C22.7479 31.2393 23.3357 31.0385 23.3357 30.4249V26.9612C23.3357 26.4406 23.7578 26.0186 24.2786 26.0186C26.3849 26.0186 28.0731 25.29 29.2367 24.0737C30.4039 22.8536 31.1143 21.0677 31.1143 18.8304V9.07342Z" fill="white"/>
</svg>
