<svg width="33" height="33" viewBox="0 0 33 33" fill="none" xmlns="http://www.w3.org/2000/svg">
	<path d="M0 4.58333C0 20.2774 12.7226 33 28.4167 33C29.1247 33 29.8267 32.9741 30.5219 32.9232C31.3196 32.8647 31.7183 32.8356 32.0815 32.6266C32.3822 32.4535 32.6673 32.1466 32.818 31.834C33 31.4567 33 31.0165 33 30.1363V24.9713C33 24.231 33 23.8608 32.8781 23.5437C32.7707 23.2634 32.5957 23.0138 32.3691 22.8169C32.1127 22.594 31.7647 22.4675 31.0691 22.2145L25.19 20.0767C24.3806 19.7824 23.9758 19.6352 23.5919 19.6601C23.2533 19.6821 22.9275 19.7978 22.6507 19.994C22.3368 20.2164 22.1153 20.5856 21.6722 21.3242L20.1667 23.8333C15.3085 21.6332 11.3702 17.6897 9.16667 12.8333L11.6758 11.3278C12.4143 10.8847 12.7836 10.6632 13.006 10.3493C13.2022 10.0725 13.3179 9.74668 13.3399 9.40812C13.3648 9.02416 13.2176 8.61947 12.9234 7.81009L10.7855 1.93088C10.5325 1.23523 10.406 0.887388 10.1831 0.63085C9.98619 0.404232 9.73663 0.229442 9.45637 0.121825C9.13909 2.1855e-07 8.76898 0 8.02875 0H2.86368C1.98345 0 1.54332 1.36594e-07 1.16596 0.181958C0.853416 0.332677 0.54659 0.617852 0.37345 0.918555C0.164413 1.28163 0.135208 1.68047 0.0767982 2.47817C0.0259048 3.17324 0 3.87526 0 4.58333Z" fill="white" />
</svg>
