<svg width="33" height="33" viewBox="0 0 33 33" fill="none" xmlns="http://www.w3.org/2000/svg">
<path d="M31.3459 2.24898C31.064 2.03273 30.6701 1.65301 30.461 1.36536C30.053 0.806071 29.2755 0.0164045 28.128 0.000319091C26.3478 -0.0260636 23.7767 1.58289 23.5791 5.07759C23.3809 8.57222 21.1399 13.7145 19.4911 14.8356C17.8422 15.9554 15.0079 19.8459 10.8542 21.1646C6.70049 22.4827 1.49198 23.3399 1.5576 24.7236C1.61037 25.8364 5.70165 25.6298 7.31194 25.5056C7.66656 25.4779 7.68264 25.5481 7.35057 25.6755C5.57687 26.3506 0.491254 28.383 0.436537 29.4713C0.370849 30.79 6.76618 27.361 11.6452 27.0984C16.5242 26.8345 19.1938 26.5378 20.5788 28.9107C20.5788 28.9107 20.8511 29.3496 21.3492 29.8484C21.3492 29.8484 21.5556 30.1423 21.5793 30.1842L21.6292 30.3072C21.7469 30.5978 21.7578 30.9208 21.66 31.2187C21.3659 31.267 21.0551 31.3325 20.7982 31.4433C20.4713 31.5843 20.5067 31.8005 20.7435 31.7451C20.9804 31.6911 21.1722 31.7502 21.1722 31.877C21.1722 32.0051 21.4289 31.9762 21.7566 31.8378C22.1459 31.673 22.6221 31.5083 22.8204 31.5804C22.9492 31.6267 23.0482 31.7072 23.1236 31.7915C23.2606 31.9434 23.0264 32.0791 22.6718 32.1056C22.3731 32.1281 22.0217 32.1886 21.734 32.3341C21.4174 32.4962 21.5526 32.7048 21.9027 32.6442C22.4684 32.549 23.2567 32.448 23.5785 32.569C24.1056 32.7666 25.5234 33.1952 26.6117 32.8985C27.3647 32.6938 28.1338 32.4725 28.711 32.3554C29.0593 32.2852 29.6038 31.9769 29.3205 31.8817C29.2112 31.845 29.0413 31.8185 28.787 31.8115C27.9169 31.7864 27.2154 32.0992 26.5693 32.0703C26.214 32.0542 26.1387 31.6828 26.4361 31.4884C26.6504 31.3475 26.9355 31.2059 27.292 31.1242C27.6389 31.045 27.7348 30.8171 27.3918 30.7232C27.115 30.6466 26.7147 30.6228 26.1496 30.7573C25.1605 30.9916 24.3283 30.9852 23.7504 30.6775C23.2676 30.2638 22.9387 29.7055 22.7636 29.0942C22.7435 29.0241 22.7285 28.9773 22.7222 28.9699C22.6662 27.8842 23.2362 26.3577 24.995 24.9547C27.5997 22.8779 29.9069 21.6904 30.6322 18.7235C31.3575 15.7572 29.3464 7.61397 29.3464 7.61397C29.3464 7.61397 29.0149 6.31071 29.1752 5.10976C29.2221 4.7577 29.47 4.23125 29.7525 4.01629C30.1161 3.73826 30.7262 3.45962 31.6492 3.56643C32.0025 3.60762 32.2335 3.4004 32.0662 3.08764C31.9303 2.83075 31.707 2.52505 31.3459 2.24898Z" fill="white"/>
<circle cx="28.0978" cy="2.19538" r="0.439074" stroke="black" stroke-width="0.3"/>
</svg>
