<svg width="33" height="33" viewBox="0 0 33 33" fill="none" xmlns="http://www.w3.org/2000/svg">
<path d="M33 16.5C33 25.6127 25.6127 33 16.5 33C7.3873 33 0 25.6127 0 16.5C0 7.3873 7.3873 0 16.5 0C25.6127 0 33 7.3873 33 16.5ZM17.1875 16.5C17.1875 16.8797 16.8797 17.1875 16.5 17.1875C16.1203 17.1875 15.8125 16.8797 15.8125 16.5C15.8125 16.1203 16.1203 15.8125 16.5 15.8125C16.8797 15.8125 17.1875 16.1203 17.1875 16.5ZM13.6585 20.3107C13.7195 20.3553 13.8049 20.3398 13.8482 20.2778L14.8071 18.9046C14.8507 18.8421 14.8349 18.7562 14.7743 18.71C14.3285 18.3706 13.9901 17.9104 13.8019 17.3853C13.5983 16.8171 13.5812 16.2021 13.7531 15.6284C13.9249 15.0548 14.2769 14.5521 14.7584 14.1925C15.24 13.8329 15.8263 13.6349 16.4334 13.627C17.0404 13.619 17.6369 13.8014 18.1372 14.148C18.6375 14.4947 19.0159 14.9878 19.218 15.5565C19.4202 16.1252 19.4358 16.7402 19.2625 17.3134C19.1027 17.8422 18.7898 18.3102 18.3635 18.6609C18.3043 18.7096 18.2918 18.7967 18.3384 18.8576L19.3717 20.2074C19.4174 20.267 19.5027 20.2791 19.5617 20.2326C20.321 19.6342 20.8777 18.8198 21.1571 17.8954C21.4496 16.9278 21.4233 15.8895 21.082 14.9296C20.7407 13.9696 20.102 13.1373 19.2575 12.5521C18.413 11.967 17.4061 11.6591 16.3814 11.6726C15.3568 11.686 14.367 12.0203 13.5541 12.6273C12.7413 13.2343 12.1472 14.0828 11.8571 15.0511C11.567 16.0194 11.5959 17.0576 11.9396 18.0168C12.268 18.9333 12.8677 19.7327 13.6585 20.3107ZM11.7388 23.908C11.6986 23.9722 11.614 23.9918 11.5503 23.9509C9.91616 22.9019 8.65318 21.3705 7.94517 19.5764C7.22053 17.7402 7.11658 15.7285 7.64899 13.8449C8.1814 11.9612 9.32128 10.3079 10.8966 9.1343C12.472 7.96072 14.3973 7.3306 16.382 7.33903C18.3668 7.34746 20.3033 7.99399 21.8993 9.18105C23.4953 10.3681 24.6642 12.0313 25.2296 13.9196C25.795 15.8079 25.7263 17.8189 25.0337 19.649C24.357 21.4372 23.1208 22.9579 21.5049 23.9931C21.4417 24.0336 21.3578 24.0146 21.3173 23.9514L20.3986 22.5198C20.3572 22.4552 20.3767 22.3692 20.4412 22.3275C21.6934 21.5168 22.6515 20.3326 23.1777 18.9421C23.7204 17.5081 23.7742 15.9325 23.3312 14.4531C22.8882 12.9736 21.9724 11.6705 20.7219 10.7404C19.4715 9.81035 17.9542 9.3038 16.3992 9.29719C14.8441 9.29059 13.3356 9.78428 12.1014 10.7038C10.8671 11.6233 9.97397 12.9187 9.55683 14.3945C9.13969 15.8704 9.22114 17.4465 9.78889 18.8852C10.3399 20.2813 11.3198 21.4744 12.5876 22.2958C12.6515 22.3373 12.6713 22.4223 12.6308 22.4868L11.7388 23.908ZM9.22051 27.9486C9.28442 27.9892 9.369 27.9696 9.40924 27.9055L10.4436 26.2575C10.4841 26.193 10.4643 26.1078 10.4001 26.0669C8.31721 24.7386 6.70754 22.7925 5.80707 20.5108C4.88983 18.1865 4.75824 15.6401 5.43217 13.2558C6.10609 10.8715 7.54895 8.77866 9.54302 7.29315C11.5371 5.80763 13.9742 5.01003 16.4865 5.0207C18.9988 5.03138 21.45 5.84975 23.4702 7.35232C25.4904 8.8549 26.97 10.9601 27.6857 13.3504C28.4014 15.7406 28.3144 18.2861 27.4377 20.6027C26.5775 22.8759 25.0027 24.8078 22.9443 26.1185C22.8795 26.1597 22.8599 26.2457 22.9014 26.3104L23.9664 27.97C24.0069 28.0332 24.0908 28.0522 24.1542 28.012C26.6261 26.4462 28.5169 24.1318 29.5482 21.4066C30.5953 18.6394 30.6993 15.5988 29.8444 12.7437C28.9895 9.88864 27.2221 7.37395 24.809 5.57913C22.3959 3.78432 19.4679 2.80678 16.467 2.79402C13.4661 2.78127 10.555 3.734 8.17309 5.50845C5.79119 7.28289 4.0677 9.78275 3.26271 12.6308C2.45771 15.4788 2.61489 18.5205 3.71053 21.2968C4.78954 24.031 6.72107 26.3616 9.22051 27.9486Z" fill="white"/>
<path d="M33 16.5C33 25.6127 25.6127 33 16.5 33C7.3873 33 0 25.6127 0 16.5C0 7.3873 7.3873 0 16.5 0C25.6127 0 33 7.3873 33 16.5ZM17.1875 16.5C17.1875 16.8797 16.8797 17.1875 16.5 17.1875C16.1203 17.1875 15.8125 16.8797 15.8125 16.5C15.8125 16.1203 16.1203 15.8125 16.5 15.8125C16.8797 15.8125 17.1875 16.1203 17.1875 16.5ZM13.6585 20.3107C13.7195 20.3553 13.8049 20.3398 13.8482 20.2778L14.8071 18.9046C14.8507 18.8421 14.8349 18.7562 14.7743 18.71C14.3285 18.3706 13.9901 17.9104 13.8019 17.3853C13.5983 16.8171 13.5812 16.2021 13.7531 15.6284C13.9249 15.0548 14.2769 14.5521 14.7584 14.1925C15.24 13.8329 15.8263 13.6349 16.4334 13.627C17.0404 13.619 17.6369 13.8014 18.1372 14.148C18.6375 14.4947 19.0159 14.9878 19.218 15.5565C19.4202 16.1252 19.4358 16.7402 19.2625 17.3134C19.1027 17.8422 18.7898 18.3102 18.3635 18.6609C18.3043 18.7096 18.2918 18.7967 18.3384 18.8576L19.3717 20.2074C19.4174 20.267 19.5027 20.2791 19.5617 20.2326C20.321 19.6342 20.8777 18.8198 21.1571 17.8954C21.4496 16.9278 21.4233 15.8895 21.082 14.9296C20.7407 13.9696 20.102 13.1373 19.2575 12.5521C18.413 11.967 17.4061 11.6591 16.3814 11.6726C15.3568 11.686 14.367 12.0203 13.5541 12.6273C12.7413 13.2343 12.1472 14.0828 11.8571 15.0511C11.567 16.0194 11.5959 17.0576 11.9396 18.0168C12.268 18.9333 12.8677 19.7327 13.6585 20.3107ZM11.7388 23.908C11.6986 23.9722 11.614 23.9918 11.5503 23.9509C9.91616 22.9019 8.65318 21.3705 7.94517 19.5764C7.22053 17.7402 7.11658 15.7285 7.64899 13.8449C8.1814 11.9612 9.32128 10.3079 10.8966 9.1343C12.472 7.96072 14.3973 7.3306 16.382 7.33903C18.3668 7.34746 20.3033 7.99399 21.8993 9.18105C23.4953 10.3681 24.6642 12.0313 25.2296 13.9196C25.795 15.8079 25.7263 17.8189 25.0337 19.649C24.357 21.4372 23.1208 22.9579 21.5049 23.9931C21.4417 24.0336 21.3578 24.0146 21.3173 23.9514L20.3986 22.5198C20.3572 22.4552 20.3767 22.3692 20.4412 22.3275C21.6934 21.5168 22.6515 20.3326 23.1777 18.9421C23.7204 17.5081 23.7742 15.9325 23.3312 14.4531C22.8882 12.9736 21.9724 11.6705 20.7219 10.7404C19.4715 9.81035 17.9542 9.3038 16.3992 9.29719C14.8441 9.29059 13.3356 9.78428 12.1014 10.7038C10.8671 11.6233 9.97397 12.9187 9.55683 14.3945C9.13969 15.8704 9.22114 17.4465 9.78889 18.8852C10.3399 20.2813 11.3198 21.4744 12.5876 22.2958C12.6515 22.3373 12.6713 22.4223 12.6308 22.4868L11.7388 23.908ZM9.22051 27.9486C9.28442 27.9892 9.369 27.9696 9.40924 27.9055L10.4436 26.2575C10.4841 26.193 10.4643 26.1078 10.4001 26.0669C8.31721 24.7386 6.70754 22.7925 5.80707 20.5108C4.88983 18.1865 4.75824 15.6401 5.43217 13.2558C6.10609 10.8715 7.54895 8.77866 9.54302 7.29315C11.5371 5.80763 13.9742 5.01003 16.4865 5.0207C18.9988 5.03138 21.45 5.84975 23.4702 7.35232C25.4904 8.8549 26.97 10.9601 27.6857 13.3504C28.4014 15.7406 28.3144 18.2861 27.4377 20.6027C26.5775 22.8759 25.0027 24.8078 22.9443 26.1185C22.8795 26.1597 22.8599 26.2457 22.9014 26.3104L23.9664 27.97C24.0069 28.0332 24.0908 28.0522 24.1542 28.012C26.6261 26.4462 28.5169 24.1318 29.5482 21.4066C30.5953 18.6394 30.6993 15.5988 29.8444 12.7437C28.9895 9.88864 27.2221 7.37395 24.809 5.57913C22.3959 3.78432 19.4679 2.80678 16.467 2.79402C13.4661 2.78127 10.555 3.734 8.17309 5.50845C5.79119 7.28289 4.0677 9.78275 3.26271 12.6308C2.45771 15.4788 2.61489 18.5205 3.71053 21.2968C4.78954 24.031 6.72107 26.3616 9.22051 27.9486Z" stroke="black"/>
</svg>
