<svg width="33" height="33" viewBox="0 0 33 33" fill="none" xmlns="http://www.w3.org/2000/svg">
<path d="M9.21596 16.4999C9.21596 18.0144 9.67816 19.4209 10.4692 20.5862L15.6303 16.2555C15.8082 16.1063 15.9109 15.8859 15.9109 15.6537V9.23906C12.1635 9.53909 9.21596 12.6753 9.21596 16.4999Z" fill="white"/>
<path d="M16.5003 23.7842C14.4155 23.7842 12.5352 22.9084 11.2074 21.5046C11.214 21.4995 11.2205 21.4943 11.2269 21.4889L15.9793 17.5012C16.2714 17.2561 16.6973 17.2561 16.9894 17.5012L21.7418 21.4889C21.7543 21.4994 21.767 21.5092 21.78 21.5184C20.453 22.9141 18.5782 23.7842 16.5003 23.7842Z" fill="white"/>
<path d="M23.7846 16.4999C23.7846 18.022 23.3178 19.435 22.5195 20.6037C22.5129 20.5977 22.5063 20.5918 22.4994 20.5861L17.3702 16.2822C17.1923 16.1329 17.0895 15.9125 17.0895 15.6803V9.23905C20.837 9.53901 23.7846 12.6752 23.7846 16.4999Z" fill="white"/>
<path fill-rule="evenodd" clip-rule="evenodd" d="M16.5002 25.6338C21.5448 25.6338 25.6342 21.5444 25.6342 16.4998C25.6342 11.4553 21.5448 7.3659 16.5002 7.3659C11.4557 7.3659 7.3663 11.4553 7.3663 16.4998C7.3663 21.5444 11.4557 25.6338 16.5002 25.6338ZM25.0449 16.4999C25.0449 21.219 21.2194 25.0445 16.5003 25.0445C11.7812 25.0445 7.95564 21.219 7.95564 16.4999C7.95564 11.7808 11.7812 7.95524 16.5003 7.95524C21.2194 7.95524 25.0449 11.7808 25.0449 16.4999Z" fill="white"/>
<path fill-rule="evenodd" clip-rule="evenodd" d="M33 16.5C33 25.6127 25.6127 33 16.5 33C7.3873 33 0 25.6127 0 16.5C0 7.3873 7.3873 0 16.5 0C25.6127 0 33 7.3873 33 16.5ZM15.096 3.31445C15.0257 3.32185 14.9672 3.37256 14.9544 3.44207L14.7585 4.51338C14.52 5.81719 12.8738 6.25829 12.0154 5.24839L11.31 4.41859C11.2634 4.36366 11.1857 4.34877 11.1198 4.37805C10.2579 4.76118 9.44443 5.23355 8.69112 5.78342C8.6342 5.82497 8.60898 5.898 8.63267 5.96437L8.99862 6.99013C9.444 8.2385 8.23891 9.4436 6.99053 8.99822L5.96478 8.63226C5.89838 8.60857 5.82532 8.6338 5.78375 8.69074C5.23391 9.44399 4.76155 10.2574 4.37842 11.1193C4.34911 11.1852 4.36401 11.2629 4.41899 11.3096L5.2488 12.015C6.25869 12.8734 5.8176 14.5196 4.51378 14.7581L3.44248 14.954C3.37285 14.9668 3.32206 15.0254 3.31465 15.0958C3.26609 15.5572 3.24119 16.0257 3.24119 16.4999C3.24119 16.9741 3.26608 17.4425 3.31463 17.9038C3.32204 17.9742 3.37284 18.0329 3.44247 18.0456L4.51378 18.2416C5.8176 18.48 6.25869 20.1262 5.2488 20.9847L4.41899 21.69C4.36398 21.7368 4.34906 21.8145 4.3784 21.8805C4.7615 22.7423 5.2338 23.5557 5.78359 24.3089C5.82519 24.3659 5.89831 24.3911 5.96478 24.3674L6.99053 24.0014C8.2389 23.5561 9.444 24.7612 8.99862 26.0095L8.63267 27.0353C8.60895 27.1017 8.6342 27.1749 8.6912 27.2165C9.44441 27.7663 10.2578 28.2386 11.1196 28.6217C11.1855 28.651 11.2633 28.6361 11.31 28.5811L12.0154 27.7513C12.8738 26.7414 14.52 27.1825 14.7585 28.4863L14.9544 29.5576C14.9672 29.6272 15.0258 29.678 15.0962 29.6854C15.5576 29.7339 16.0259 29.7588 16.5001 29.7588C16.9744 29.7588 17.4429 29.7339 17.9043 29.6854C17.9746 29.678 18.0333 29.6272 18.046 29.5576L18.242 28.4863C18.4804 27.1825 20.1266 26.7414 20.9851 27.7513L21.6904 28.5811C21.7371 28.636 21.8148 28.6509 21.8807 28.6216C22.7426 28.2385 23.5561 27.7661 24.3093 27.2162C24.3663 27.1747 24.3915 27.1017 24.3678 27.0353L24.0018 26.0095C23.5565 24.7612 24.7616 23.5561 26.0099 24.0014L27.0357 24.3674C27.102 24.3911 27.175 24.3659 27.2166 24.309C27.7665 23.5556 28.2388 22.7421 28.622 21.8802C28.6513 21.8143 28.6364 21.7367 28.5815 21.69L27.7517 20.9847C26.7418 20.1262 27.1829 18.48 28.4867 18.2416L29.558 18.0456C29.6275 18.0329 29.6782 17.9743 29.6856 17.9041C29.7341 17.4427 29.759 16.9742 29.759 16.4999C29.759 16.0256 29.7341 15.557 29.6855 15.0955C29.6782 15.0253 29.6275 14.9668 29.558 14.954L28.4867 14.7581C27.1829 14.5196 26.7418 12.8734 27.7517 12.015L28.5815 11.3096C28.6363 11.263 28.6512 11.1854 28.622 11.1196C28.2388 10.2576 27.7664 9.44402 27.2164 8.69063C27.1749 8.63379 27.102 8.60861 27.0357 8.63226L26.0099 8.99822C24.7616 9.4436 23.5565 8.2385 24.0018 6.99013L24.3678 5.96438C24.3914 5.89808 24.3663 5.82515 24.3094 5.78365C23.556 5.2337 22.7425 4.76126 21.8805 4.37808C21.8146 4.34882 21.7371 4.3637 21.6904 4.41859L20.9851 5.24839C20.1266 6.25829 18.4804 5.8172 18.242 4.51338L18.046 3.44207C18.0333 3.37258 17.9747 3.32188 17.9045 3.31448C17.443 3.2659 16.9745 3.24099 16.5001 3.24099C16.0258 3.24099 15.5574 3.26589 15.096 3.31445Z" fill="white"/>
</svg>
