<svg width="47" height="33" viewBox="0 0 47 33" fill="none" xmlns="http://www.w3.org/2000/svg">
<path d="M33.667 0H33.9543L34.3053 0.0638298L34.7522 0.319149L35.0713 0.606383L35.2309 0.765957L35.4543 1.08511L35.7415 1.69149L36.1883 2.90426L36.5075 3.82979L36.7947 4.65957L37.05 5.23404V5.29787L37.7202 5.20213L38.55 5.07447H38.8692L39.316 5.1383L39.6032 5.26596L39.8905 5.45745L40.1777 5.7766L40.4968 6.38298L40.6883 7.05319L40.9117 8.10638L41.199 9.70213L41.3585 10.6596L41.4224 10.8511L41.55 10.883L42.6032 10.9149L43.2734 11.0106L43.6883 11.1702L43.9756 11.3936L44.3266 11.7447L44.55 12.1277L44.6777 12.5745L44.7096 12.766L44.7415 13.4043V19.0213L44.8053 19.3404L45.4117 19.5L45.667 19.5957V19.6596L45.7947 19.6915L45.9862 19.8191L46.3053 20.1064L46.4968 20.3936L46.6564 20.7128L46.7522 21.0957L46.7841 21.4149V22.2766L46.7202 22.9149L46.5926 23.2979L46.4011 23.6489L46.0181 24.0957L45.7628 24.2872L45.5075 24.4149L45.0607 24.5106L44.4862 24.5745L44.6458 24.734L44.7096 25.0213L44.7415 25.6596V30.9255L44.6458 31.5319L44.5181 31.883L44.1671 32.3617L43.8798 32.6808L43.4968 32.8404L42.8585 32.9362L42.2522 32.9681L40.2734 33H9.44365L8.90109 32.9362L8.29471 32.7128L7.6245 32.266L7.27343 32.0106L7.08194 31.7872L6.82662 31.3723L6.63513 30.9894L6.37982 30.3511L6.15641 29.7128L5.90109 29.0106L5.64577 28.2766L5.35854 27.4787L5.13513 26.8404L4.46492 25.0213L3.9862 23.7128L3.63513 22.7872L3.06067 21.1915L2.74152 20.2979L2.19896 18.8298L1.46492 16.8191L1.24152 16.2128L1.11386 15.8298L1.01811 15.6064L0.794709 14.9681L0.47556 13.9787L0.3479 13.5319V13.0851L0.60322 12.5745L0.858539 12.2553L1.17769 11.9362L1.78407 11.617L2.51811 11.2979L3.37982 10.9787L4.11386 10.6915L4.65641 10.5L5.42237 10.2128L6.5713 9.79787L7.75216 9.38298L8.45428 9.12766L8.64577 9.06383L11.3266 8.07447L12.2841 7.7234L13.05 7.43617L13.9117 7.11702L15.316 6.60638L23.1671 3.76596L24.0926 3.41489L25.4011 2.93617L26.0394 2.71277L29.1671 1.56383L29.8692 1.30851L30.2841 1.14894L31.4011 0.734043L32.8373 0.223404L33.2202 0.0957447L33.667 0Z" fill="white"/>
<path d="M33.667 0H33.9543L34.3053 0.0638298L34.7522 0.319149L35.0713 0.606383L35.2309 0.765957L35.4543 1.08511L35.7415 1.69149L36.1883 2.90426L36.5075 3.82979L36.7947 4.65957L37.05 5.23404V5.29787L37.7202 5.20213L38.55 5.07447H38.8692L39.316 5.1383L39.6032 5.26596L39.8905 5.45745L40.1777 5.7766L40.4968 6.38298L40.6564 6.92553L40.7522 7.53191L40.9756 8.68085L41.0394 9.09574L41.1671 9.76596L41.2947 10.5319L41.3266 10.883L41.199 10.9468L35.167 10.9787H14.0713L8.51811 11.0106L8.23088 11.1702L7.91173 11.4574L7.59258 11.9043L7.43301 12.2553L7.40109 12.6064L7.36918 13.6596V28.7234L7.30535 29.4574L7.27343 29.8085V30.5426L7.43301 31.5L7.52875 31.8511L7.65641 32.234L7.52875 32.2021L7.2096 31.9468L6.95428 31.5957L6.69896 31.1489L6.37982 30.3511L6.15641 29.7128L5.90109 29.0106L5.64577 28.2766L5.35854 27.4787L5.13513 26.8404L4.46492 25.0213L3.9862 23.7128L3.63513 22.7872L3.06067 21.1915L2.74152 20.2979L2.19896 18.8298L1.46492 16.8191L1.24152 16.2128L1.11386 15.8298L1.01811 15.6064L0.794709 14.9681L0.47556 13.9787L0.3479 13.5319V13.0851L0.60322 12.5745L0.858539 12.2553L1.17769 11.9362L1.78407 11.617L2.51811 11.2979L3.37982 10.9787L4.11386 10.6915L4.65641 10.5L5.42237 10.2128L6.5713 9.79787L7.75216 9.38298L8.45428 9.12766L8.64577 9.06383L11.3266 8.07447L12.2841 7.7234L13.05 7.43617L13.9117 7.11702L15.316 6.60638L23.1671 3.76596L24.0926 3.41489L25.4011 2.93617L26.0394 2.71277L29.1671 1.56383L29.8692 1.30851L30.2841 1.14894L31.4011 0.734043L32.8373 0.223404L33.2202 0.0957447L33.667 0Z" fill="#D0D0D0"/>
<path d="M33.667 0H33.9543L34.3053 0.0638298L34.7522 0.319149L35.0713 0.606383L35.2309 0.765957L35.4543 1.08511L35.7415 1.69149L36.1883 2.90426L36.5075 3.82979L36.7947 4.65957L36.9862 5.10638V5.29787L36.667 5.42553L35.933 5.58511L33.9543 5.96808L31.2734 6.41489L29.9011 6.67021L28.4649 6.92553L26.8053 7.24468L25.3692 7.5L23.7096 7.78723L22.5607 7.97872L21.6351 8.1383L21.2202 8.20213L17.1032 8.90425L15.7309 9.12766L14.7096 9.28723L13.4649 9.47872L12.3798 9.6383L10.3053 9.95745L9.09258 10.117L8.32662 10.2447L6.9862 10.5638L6.44365 10.6915L5.7096 10.883L5.32662 11.0106L4.75216 11.234L4.6245 11.3298L4.11386 11.5851L3.82662 11.7447L3.79471 11.8085V12.5426L3.89045 13.3723L4.2096 15.2553L4.46492 16.8191L4.65641 17.9362L5.13513 20.9362L5.32662 22.2128L5.55003 23.4255L5.74152 24.4149L6.02875 26.1383L6.15641 26.9681L6.41173 28.0213L6.60322 28.6915L6.82662 29.3617L6.95428 29.6808L7.14577 30.2553L7.27343 31.0532L7.33726 31.5638L7.36918 31.6596V31.9149L7.27343 31.9468L7.14577 31.883L6.82662 31.3723L6.63513 30.9894L6.37982 30.3511L6.15641 29.7128L5.90109 29.0106L5.64577 28.2766L5.35854 27.4787L5.13513 26.8404L4.46492 25.0213L3.9862 23.7128L3.63513 22.7872L3.06067 21.1915L2.74152 20.2979L2.19896 18.8298L1.46492 16.8191L1.24152 16.2128L1.11386 15.8298L1.01811 15.6064L0.794709 14.9681L0.47556 13.9787L0.3479 13.5319V13.0851L0.60322 12.5745L0.858539 12.2553L1.17769 11.9362L1.78407 11.617L2.51811 11.2979L3.37982 10.9787L4.11386 10.6915L4.65641 10.5L5.42237 10.2128L6.5713 9.79787L7.75216 9.38298L8.45428 9.12766L8.64577 9.06383L11.3266 8.07447L12.2841 7.7234L13.05 7.43617L13.9117 7.11702L15.316 6.60638L23.1671 3.76596L24.0926 3.41489L25.4011 2.93617L26.0394 2.71277L29.1671 1.56383L29.8692 1.30851L30.2841 1.14894L31.4011 0.734043L32.8373 0.223404L33.2202 0.0957447L33.667 0Z" fill="#B8B8B8"/>
<path d="M40.3374 19.4681H45.0927L45.5076 19.532L45.667 19.5957V19.6596L45.7947 19.6915L45.9862 19.8191L46.3053 20.1064L46.4968 20.3936L46.6564 20.7128L46.7522 21.0957L46.7841 21.4149V22.2766L46.7202 22.9149L46.5926 23.2979L46.4011 23.6489L46.0181 24.0957L45.7628 24.2872L45.6033 24.383L45.0289 24.4469H44.6459V24.5107H38.7416L38.3267 24.4469L37.9438 24.2873L37.6565 24.0639L37.4012 23.7447L37.2416 23.4256L37.1459 23.0745L37.0821 22.5958V21.3511L37.1778 20.7767L37.3374 20.3937L37.6884 19.9788L37.9757 19.7235L38.2629 19.5958L38.8693 19.5001L40.3374 19.4681Z" fill="#C8C8C8"/>
</svg>
