<svg width="60" height="60" viewBox="0 0 60 60" fill="none" xmlns="http://www.w3.org/2000/svg">
<g id="AppStore ICON">
<rect width="60" height="60" rx="13.28" fill="url(#paint0_linear_123_104)"/>
<path id="Subtract" fill-rule="evenodd" clip-rule="evenodd" d="M13.1715 27.9705C11.6095 26.4085 11.6095 23.8758 13.1715 22.3138L27.3136 8.17169C28.8756 6.60944 31.4083 6.60944 32.9703 8.17169L47.1124 22.3138C48.6744 23.8758 48.6744 26.4085 47.1124 27.9705L46.5812 28.5023L47.8195 29.741C49.7721 31.6937 49.7721 34.8594 47.8195 36.8121L33.6774 50.9542C31.7247 52.9068 28.5592 52.9068 26.6066 50.9542L12.4645 36.8121C10.5118 34.8594 10.5118 31.6937 12.4645 29.741L13.7032 28.5023L13.1715 27.9705ZM27.3136 42.1129L15.1173 29.9166L13.8785 31.1551C12.7072 32.3267 12.7072 34.2261 13.8785 35.3978L28.0206 49.5399C29.1925 50.7115 31.0919 50.7115 32.2633 49.5399L46.4054 35.3978C47.5773 34.2261 47.5773 32.3267 46.4054 31.1551L45.1666 29.9166L32.9703 42.1129C31.4083 43.6749 28.8756 43.6749 27.3136 42.1129ZM31.0499 34.2379L37.4142 27.8738C37.8043 27.4835 37.8043 26.8502 37.4142 26.4598C37.0236 26.0692 36.3903 26.0692 35.9996 26.4598L31.3429 31.1165V15.4774C31.3429 14.9251 30.8951 14.4774 30.3429 14.4774C29.7906 14.4774 29.3429 14.9251 29.3429 15.4774V31.1165L24.6862 26.4598C24.2955 26.0692 23.6622 26.0692 23.2716 26.4598C22.8815 26.8502 22.8815 27.4835 23.2716 27.8738L29.6359 34.2379C30.0265 34.6285 30.6593 34.6285 31.0499 34.2379Z" fill="#009FFC"/>
</g>
<defs>
<linearGradient id="paint0_linear_123_104" x1="30" y1="0" x2="30" y2="60" gradientUnits="userSpaceOnUse">
<stop stop-color="#313131"/>
<stop offset="1" stop-color="#141514"/>
</linearGradient>
</defs>
</svg>
