<svg width="60" height="60" viewBox="0 0 60 60" fill="none" xmlns="http://www.w3.org/2000/svg">
<g id="BluePages ICON">
<rect width="60" height="60" rx="13.28" fill="url(#paint0_linear_130_202)"/>
<path id="Subtract" fill-rule="evenodd" clip-rule="evenodd" d="M30 49C40.4934 49 49 40.4934 49 30C49 19.5066 40.4934 11 30 11C19.5066 11 11 19.5066 11 30C11 35.2447 13.1251 39.9931 16.5611 43.4312V30.4634H16.5792C16.5672 30.2345 16.5611 30.004 16.5611 29.7722C16.5611 22.4758 22.578 16.5609 30.0001 16.5609C37.4223 16.5609 43.4392 22.4758 43.4392 29.7722C43.4392 37.0686 37.4223 42.9834 30.0001 42.9834C27.0574 42.9834 24.3356 42.0536 22.1221 40.4766V47.2949C24.5221 48.3899 27.1898 49 30 49ZM30.0001 37.2839C25.78 37.2839 22.3589 33.9208 22.3589 29.7722C22.3589 25.6236 25.78 22.2604 30.0001 22.2604C34.2203 22.2604 37.6414 25.6236 37.6414 29.7722C37.6414 33.9208 34.2203 37.2839 30.0001 37.2839ZM34.9208 31.939V31.7683C34.9208 30.6727 34.2806 29.7262 33.3532 29.2842C33.7553 28.7573 33.994 28.099 33.994 27.385C33.994 25.9836 32.858 24.8476 31.4566 24.8476L27.5245 24.8476C26.558 24.8476 25.7745 25.6311 25.7745 26.5976L25.7745 32.939C25.7745 33.9055 26.558 34.689 27.5245 34.689H32.1708C33.6896 34.689 34.9208 33.4578 34.9208 31.939ZM32.494 27.385C32.494 28.2871 31.7634 29.018 30.8618 29.0183H30.8613H28.9223H28.6099H28.1835H28.1371H28.1169H28.1167H28.1149H28.1148H28.1144H28.1143H28.1142H28.1142H28.1142C28.1113 29.0212 27.3656 29.7697 28.1141 30.5183H28.1143H28.1148H28.1167H28.1169H28.1371H28.1835H28.6099H28.9223H30.8613H32.1721C32.8619 30.5183 33.4208 31.0773 33.4208 31.7683V31.939C33.4208 32.6294 32.8612 33.189 32.1708 33.189H27.5245C27.3864 33.189 27.2745 33.0771 27.2745 32.939L27.2745 26.5976C27.2745 26.4595 27.3864 26.3476 27.5245 26.3476L31.4566 26.3476C32.0295 26.3476 32.494 26.8121 32.494 27.385Z" fill="#00AAE0"/>
</g>
<defs>
<linearGradient id="paint0_linear_130_202" x1="30" y1="0" x2="30" y2="60" gradientUnits="userSpaceOnUse">
<stop stop-color="#313131"/>
<stop offset="1" stop-color="#141514"/>
</linearGradient>
</defs>
</svg>
