<svg width="60" height="60" viewBox="0 0 60 60" fill="none" xmlns="http://www.w3.org/2000/svg">
<g id="Camera ICON">
<rect width="60" height="60" rx="13.28" fill="url(#paint0_linear_127_36)"/>
<g id="Group 8599">
<g id="Rectangle 1477">
<path d="M7 21.2949C7 19.6248 8.35393 18.2708 10.0241 18.2708C10.9169 18.2708 11.764 17.8763 12.3386 17.193L14.0664 15.1384C15.2064 13.7827 16.8872 13 18.6586 13H27.6359C29.4355 13 31.1401 13.8078 32.2796 15.2006L32.6911 15.7035C34.0206 17.3284 36.0093 18.2708 38.1088 18.2708H46C49.866 18.2708 53 21.4048 53 25.2708V40.0208C53 43.8868 49.866 47.0208 46 47.0208H14C10.134 47.0208 7 43.8868 7 40.0208V21.2949Z" fill="#B6B7BB"/>
<path d="M7.25 21.2949C7.25 19.7628 8.492 18.5208 10.0241 18.5208C10.9907 18.5208 11.9079 18.0937 12.53 17.3539L14.2577 15.2993C15.3503 14.0001 16.961 13.25 18.6586 13.25H27.6359C29.3605 13.25 30.9941 14.0241 32.0861 15.3589L32.4976 15.8618C33.8746 17.5448 35.9343 18.5208 38.1088 18.5208H46C49.7279 18.5208 52.75 21.5429 52.75 25.2708V40.0208C52.75 43.7488 49.7279 46.7708 46 46.7708H14C10.2721 46.7708 7.25 43.7488 7.25 40.0208V21.2949Z" stroke="black" stroke-opacity="0.5" stroke-width="0.5"/>
</g>
<path id="Ellipse 14" d="M37.6666 32.1667C37.6666 36.4008 34.2341 39.8333 29.9999 39.8333C25.7657 39.8333 22.3333 36.4008 22.3333 32.1667C22.3333 27.9325 25.7657 24.5 29.9999 24.5C34.2341 24.5 37.6666 27.9325 37.6666 32.1667ZM24.3827 32.1667C24.3827 35.269 26.8976 37.7839 29.9999 37.7839C33.1022 37.7839 35.6171 35.269 35.6171 32.1667C35.6171 29.0644 33.1022 26.5494 29.9999 26.5494C26.8976 26.5494 24.3827 29.0644 24.3827 32.1667Z" fill="url(#paint1_linear_127_36)"/>
<circle id="Ellipse 15" cx="16.5833" cy="21.625" r="1.4375" fill="#E6E65C"/>
</g>
</g>
<defs>
<linearGradient id="paint0_linear_127_36" x1="30" y1="0" x2="30" y2="60" gradientUnits="userSpaceOnUse">
<stop stop-color="#313131"/>
<stop offset="1" stop-color="#141514"/>
</linearGradient>
<linearGradient id="paint1_linear_127_36" x1="29.9999" y1="24.5" x2="29.9999" y2="39.8333" gradientUnits="userSpaceOnUse">
<stop stop-color="#313131"/>
<stop offset="1" stop-color="#141514"/>
</linearGradient>
</defs>
</svg>
