<svg width="158" height="158" viewBox="0 0 158 158" fill="none" xmlns="http://www.w3.org/2000/svg">
	<rect x="0.00012207" width="158" height="158" rx="22" fill="white" />
	<path d="M71.8143 7.56409C71.795 7.28862 72.0027 7.04969 72.2782 7.03043C72.5536 7.01117 72.7926 7.21886 72.8118 7.49433L73.3001 14.4773C73.3194 14.7528 73.1117 14.9917 72.8362 15.0109C72.5608 15.0302 72.3218 14.8225 72.3026 14.547L71.8143 7.56409Z" fill="#8F8E94" />
	<path d="M87.8129 7.56848C87.8321 7.29301 87.6244 7.05409 87.349 7.03482C87.0735 7.01556 86.8346 7.22326 86.8153 7.49873L86.327 14.4817C86.3077 14.7571 86.5154 14.9961 86.7909 15.0153C87.0664 15.0346 87.3053 14.8269 87.3246 14.5514L87.8129 7.56848Z" fill="#8F8E94" />
	<path d="M95.2609 7.66611C95.3089 7.39416 95.1273 7.13483 94.8553 7.08688C94.5834 7.03893 94.3241 7.22051 94.2761 7.49246L93.0606 14.3861C93.0126 14.6581 93.1942 14.9174 93.4662 14.9653C93.7381 15.0133 93.9974 14.8317 94.0454 14.5598L95.2609 7.66611Z" fill="#8F8E94" />
	<path d="M64.4346 7.66611C64.3866 7.39416 64.5682 7.13483 64.8401 7.08688C65.1121 7.03893 65.3714 7.22051 65.4194 7.49246L66.6349 14.3861C66.6829 14.6581 66.5013 14.9174 66.2293 14.9653C65.9574 15.0133 65.6981 14.8317 65.6501 14.5598L64.4346 7.66611Z" fill="#8F8E94" />
	<path d="M56.0023 7.97553C55.9169 7.7129 56.0606 7.43082 56.3233 7.34549C56.5859 7.26016 56.868 7.40388 56.9533 7.66651L59.1164 14.3239C59.2018 14.5865 59.058 14.8686 58.7954 14.9539C58.5328 15.0393 58.2507 14.8956 58.1654 14.6329L56.0023 7.97553Z" fill="#8F8E94" />
	<path d="M103.493 7.97553C103.578 7.7129 103.435 7.43082 103.172 7.34549C102.909 7.26016 102.627 7.40388 102.542 7.66651L100.379 14.3239C100.294 14.5865 100.437 14.8686 100.7 14.9539C100.963 15.0393 101.245 14.8956 101.33 14.6329L103.493 7.97553Z" fill="#8F8E94" />
	<path d="M111.811 7.86351C111.924 7.61124 111.81 7.31569 111.558 7.20337C111.306 7.09105 111.01 7.20451 110.898 7.45677L107.848 14.3062C107.736 14.5585 107.849 14.854 108.102 14.9663C108.354 15.0786 108.649 14.9652 108.762 14.7129L111.811 7.86351Z" fill="#8F8E94" />
	<path d="M132.054 8.02817C132.216 7.80476 132.167 7.49208 131.943 7.32976C131.72 7.16745 131.407 7.21698 131.245 7.44038L125.954 14.7221C125.792 14.9455 125.842 15.2582 126.065 15.4205C126.288 15.5828 126.601 15.5333 126.763 15.3099L132.054 8.02817Z" fill="#8F8E94" />
	<path d="M151.795 27.3923C152.021 27.2339 152.076 26.9221 151.917 26.6959C151.759 26.4697 151.447 26.4147 151.221 26.5731L143.849 31.7353C143.622 31.8937 143.567 32.2055 143.726 32.4317C143.884 32.6579 144.196 32.7128 144.422 32.5544L151.795 27.3923Z" fill="#8F8E94" />
	<path d="M150.569 16.328C150.777 16.1469 150.8 15.8311 150.618 15.6226C150.437 15.4142 150.121 15.3922 149.913 15.5733L143.8 20.8872C143.592 21.0683 143.57 21.3841 143.751 21.5925C143.932 21.8009 144.248 21.823 144.456 21.6419L150.569 16.328Z" fill="#8F8E94" />
	<path d="M143.54 9.05437C143.732 8.85573 143.727 8.5392 143.528 8.34737C143.329 8.15555 143.013 8.16107 142.821 8.35971L137.195 14.1861C137.003 14.3847 137.008 14.7013 137.207 14.8931C137.406 15.0849 137.722 15.0794 137.914 14.8808L143.54 9.05437Z" fill="#8F8E94" />
	<path d="M27.4541 8.02817C27.2918 7.80476 27.3414 7.49208 27.5648 7.32976C27.7882 7.16745 28.1008 7.21698 28.2632 7.44038L33.5536 14.7221C33.716 14.9455 33.6664 15.2582 33.443 15.4205C33.2196 15.5828 32.9069 15.5333 32.7446 15.3099L27.4541 8.02817Z" fill="#8F8E94" />
	<path d="M7.71338 27.3923C7.48717 27.2339 7.4322 26.9221 7.59059 26.6959C7.74898 26.4697 8.06075 26.4147 8.28695 26.5731L15.6593 31.7353C15.8855 31.8937 15.9405 32.2055 15.7821 32.4317C15.6237 32.6579 15.3119 32.7128 15.0857 32.5544L7.71338 27.3923Z" fill="#8F8E94" />
	<path d="M8.93897 16.328C8.73056 16.1469 8.70848 15.8311 8.88964 15.6226C9.07081 15.4142 9.38662 15.3922 9.59503 15.5733L15.7079 20.8872C15.9163 21.0683 15.9384 21.3841 15.7572 21.5925C15.5761 21.8009 15.2602 21.823 15.0518 21.6419L8.93897 16.328Z" fill="#8F8E94" />
	<path d="M8.29904 47.7153C8.0498 47.5964 7.94412 47.2979 8.063 47.0487C8.18188 46.7995 8.48031 46.6938 8.72955 46.8127L16.0402 50.2997C16.2894 50.4185 16.3951 50.717 16.2762 50.9662C16.1573 51.2154 15.8589 51.3211 15.6096 51.2022L8.29904 47.7153Z" fill="#8F8E94" />
	<path d="M8.33711 56.0358C8.07601 55.9459 7.93723 55.6614 8.02713 55.4003C8.11703 55.1392 8.40158 55.0004 8.66267 55.0903L15.8892 57.5786C16.1502 57.6685 16.289 57.953 16.1991 58.2141C16.1092 58.4752 15.8247 58.614 15.5636 58.5241L8.33711 56.0358Z" fill="#8F8E94" />
	<path d="M8.33291 64.3039C8.06281 64.2465 7.89038 63.981 7.9478 63.7109C8.00521 63.4408 8.27072 63.2683 8.54083 63.3258L15.7784 64.8642C16.0485 64.9216 16.2209 65.1871 16.1635 65.4572C16.1061 65.7273 15.8406 65.8997 15.5705 65.8423L8.33291 64.3039Z" fill="#8F8E94" />
	<path d="M8.34584 72.0398C8.07075 72.0157 7.86726 71.7732 7.89132 71.4981C7.91539 71.223 8.15791 71.0195 8.433 71.0436L15.8041 71.6885C16.0792 71.7126 16.2827 71.9551 16.2586 72.2302C16.2345 72.5053 15.992 72.7087 15.7169 72.6847L8.34584 72.0398Z" fill="#8F8E94" />
	<path d="M151.393 47.7153C151.642 47.5964 151.747 47.2979 151.629 47.0487C151.51 46.7995 151.211 46.6938 150.962 46.8127L143.651 50.2997C143.402 50.4185 143.297 50.717 143.415 50.9662C143.534 51.2154 143.833 51.3211 144.082 51.2022L151.393 47.7153Z" fill="#8F8E94" />
	<path d="M151.354 56.0358C151.616 55.9459 151.754 55.6614 151.664 55.4003C151.575 55.1392 151.29 55.0004 151.029 55.0903L143.802 57.5786C143.541 57.6685 143.403 57.953 143.492 58.2141C143.582 58.4752 143.867 58.614 144.128 58.5241L151.354 56.0358Z" fill="#8F8E94" />
	<path d="M151.359 64.3039C151.629 64.2465 151.801 63.981 151.744 63.7109C151.686 63.4408 151.421 63.2683 151.151 63.3258L143.913 64.8642C143.643 64.9216 143.471 65.1871 143.528 65.4572C143.585 65.7273 143.851 65.8997 144.121 65.8423L151.359 64.3039Z" fill="#8F8E94" />
	<path d="M151.346 72.0398C151.621 72.0157 151.824 71.7732 151.8 71.4981C151.776 71.223 151.534 71.0195 151.259 71.0436L143.887 71.6885C143.612 71.7126 143.409 71.9551 143.433 72.2302C143.457 72.5053 143.7 72.7087 143.975 72.6847L151.346 72.0398Z" fill="#8F8E94" />
	<path d="M15.9675 9.05437C15.7757 8.85573 15.7812 8.5392 15.9799 8.34737C16.1785 8.15555 16.4951 8.16107 16.6869 8.35971L22.3134 14.1861C22.5052 14.3847 22.4997 14.7013 22.301 14.8931C22.1024 15.0849 21.7858 15.0794 21.594 14.8808L15.9675 9.05437Z" fill="#8F8E94" />
	<path d="M47.5511 7.86351C47.4388 7.61124 47.5522 7.31569 47.8045 7.20337C48.0568 7.09105 48.3523 7.20451 48.4647 7.45677L51.5145 14.3068C51.6268 14.5591 51.5133 14.8546 51.2611 14.9669C51.0088 15.0792 50.7133 14.9658 50.6009 14.7135L47.5511 7.86351Z" fill="#8F8E94" />
	<path d="M71.8143 150.431C71.795 150.707 72.0027 150.946 72.2782 150.965C72.5536 150.984 72.7926 150.777 72.8118 150.501L73.3001 143.518C73.3194 143.243 73.1117 143.004 72.8362 142.985C72.5608 142.965 72.3218 143.173 72.3026 143.449L71.8143 150.431Z" fill="#8F8E94" />
	<path d="M87.8129 150.427C87.8321 150.703 87.6244 150.941 87.349 150.961C87.0735 150.98 86.8346 150.772 86.8153 150.497L86.327 143.514C86.3077 143.238 86.5154 142.999 86.7909 142.98C87.0664 142.961 87.3053 143.169 87.3246 143.444L87.8129 150.427Z" fill="#8F8E94" />
	<path d="M95.2609 150.329C95.3089 150.601 95.1273 150.861 94.8553 150.909C94.5834 150.957 94.3241 150.775 94.2761 150.503L93.0606 143.609C93.0126 143.337 93.1942 143.078 93.4662 143.03C93.7381 142.982 93.9974 143.164 94.0454 143.436L95.2609 150.329Z" fill="#8F8E94" />
	<path d="M64.4346 150.329C64.3866 150.601 64.5682 150.861 64.8401 150.909C65.1121 150.957 65.3714 150.775 65.4194 150.503L66.6349 143.609C66.6829 143.337 66.5013 143.078 66.2293 143.03C65.9574 142.982 65.6981 143.164 65.6501 143.436L64.4346 150.329Z" fill="#8F8E94" />
	<path d="M56.0023 150.02C55.9169 150.283 56.0606 150.565 56.3233 150.65C56.5859 150.735 56.868 150.592 56.9533 150.329L59.1164 143.672C59.2018 143.409 59.058 143.127 58.7954 143.042C58.5328 142.956 58.2507 143.1 58.1654 143.363L56.0023 150.02Z" fill="#8F8E94" />
	<path d="M103.493 150.02C103.578 150.283 103.435 150.565 103.172 150.65C102.909 150.735 102.627 150.592 102.542 150.329L100.379 143.672C100.294 143.409 100.437 143.127 100.7 143.042C100.963 142.956 101.245 143.1 101.33 143.363L103.493 150.02Z" fill="#8F8E94" />
	<path d="M111.811 150.132C111.924 150.384 111.81 150.68 111.558 150.792C111.306 150.904 111.01 150.791 110.898 150.539L107.848 143.689C107.736 143.437 107.849 143.142 108.102 143.029C108.354 142.917 108.649 143.03 108.762 143.283L111.811 150.132Z" fill="#8F8E94" />
	<path d="M132.054 149.967C132.216 150.191 132.167 150.503 131.943 150.666C131.72 150.828 131.407 150.779 131.245 150.555L125.954 143.273C125.792 143.05 125.842 142.737 126.065 142.575C126.288 142.413 126.601 142.462 126.763 142.686L132.054 149.967Z" fill="#8F8E94" />
	<path d="M151.795 130.603C152.021 130.762 152.076 131.073 151.917 131.3C151.759 131.526 151.447 131.581 151.221 131.422L143.849 126.26C143.622 126.102 143.567 125.79 143.726 125.564C143.884 125.338 144.196 125.283 144.422 125.441L151.795 130.603Z" fill="#8F8E94" />
	<path d="M150.569 141.668C150.777 141.849 150.8 142.164 150.618 142.373C150.437 142.581 150.121 142.603 149.913 142.422L143.8 137.108C143.592 136.927 143.57 136.611 143.751 136.403C143.932 136.195 144.248 136.173 144.456 136.354L150.569 141.668Z" fill="#8F8E94" />
	<path d="M143.54 148.941C143.732 149.14 143.727 149.456 143.528 149.648C143.329 149.84 143.013 149.834 142.821 149.636L137.195 143.809C137.003 143.611 137.008 143.294 137.207 143.102C137.406 142.911 137.722 142.916 137.914 143.115L143.54 148.941Z" fill="#8F8E94" />
	<path d="M27.4541 149.967C27.2918 150.191 27.3414 150.503 27.5648 150.666C27.7882 150.828 28.1008 150.779 28.2632 150.555L33.5536 143.273C33.716 143.05 33.6664 142.737 33.443 142.575C33.2196 142.413 32.9069 142.462 32.7446 142.686L27.4541 149.967Z" fill="#8F8E94" />
	<path d="M7.71338 130.603C7.48717 130.762 7.4322 131.073 7.59059 131.3C7.74898 131.526 8.06075 131.581 8.28695 131.422L15.6593 126.26C15.8855 126.102 15.9405 125.79 15.7821 125.564C15.6237 125.338 15.3119 125.283 15.0857 125.441L7.71338 130.603Z" fill="#8F8E94" />
	<path d="M8.93897 141.668C8.73056 141.849 8.70848 142.164 8.88964 142.373C9.07081 142.581 9.38662 142.603 9.59503 142.422L15.7079 137.108C15.9163 136.927 15.9384 136.611 15.7572 136.403C15.5761 136.195 15.2602 136.173 15.0518 136.354L8.93897 141.668Z" fill="#8F8E94" />
	<path d="M8.29904 110.28C8.0498 110.399 7.94412 110.698 8.063 110.947C8.18188 111.196 8.48031 111.302 8.72955 111.183L16.0402 107.696C16.2894 107.577 16.3951 107.279 16.2762 107.029C16.1573 106.78 15.8589 106.674 15.6096 106.793L8.29904 110.28Z" fill="#8F8E94" />
	<path d="M8.33711 101.96C8.07601 102.05 7.93723 102.334 8.02713 102.595C8.11703 102.856 8.40158 102.995 8.66267 102.905L15.8892 100.417C16.1502 100.327 16.289 100.043 16.1991 99.7814C16.1092 99.5203 15.8247 99.3815 15.5636 99.4714L8.33711 101.96Z" fill="#8F8E94" />
	<path d="M8.33291 93.6916C8.06281 93.7491 7.89038 94.0146 7.9478 94.2847C8.00521 94.5548 8.27072 94.7272 8.54083 94.6698L15.7784 93.1314C16.0485 93.074 16.2209 92.8085 16.1635 92.5384C16.1061 92.2683 15.8406 92.0958 15.5705 92.1533L8.33291 93.6916Z" fill="#8F8E94" />
	<path d="M8.34584 85.9558C8.07075 85.9798 7.86726 86.2223 7.89132 86.4974C7.91539 86.7725 8.15791 86.976 8.433 86.952L15.8041 86.3071C16.0792 86.283 16.2827 86.0405 16.2586 85.7654C16.2345 85.4903 15.992 85.2868 15.7169 85.3109L8.34584 85.9558Z" fill="#8F8E94" />
	<path d="M151.393 110.28C151.642 110.399 151.747 110.698 151.629 110.947C151.51 111.196 151.211 111.302 150.962 111.183L143.651 107.696C143.402 107.577 143.297 107.279 143.415 107.029C143.534 106.78 143.833 106.674 144.082 106.793L151.393 110.28Z" fill="#8F8E94" />
	<path d="M151.354 101.96C151.616 102.05 151.754 102.334 151.664 102.595C151.575 102.856 151.29 102.995 151.029 102.905L143.802 100.417C143.541 100.327 143.403 100.043 143.492 99.7814C143.582 99.5203 143.867 99.3815 144.128 99.4714L151.354 101.96Z" fill="#8F8E94" />
	<path d="M151.359 93.6916C151.629 93.7491 151.801 94.0146 151.744 94.2847C151.686 94.5548 151.421 94.7272 151.151 94.6698L143.913 93.1314C143.643 93.074 143.471 92.8085 143.528 92.5384C143.585 92.2683 143.851 92.0958 144.121 92.1533L151.359 93.6916Z" fill="#8F8E94" />
	<path d="M151.346 85.9558C151.621 85.9798 151.824 86.2223 151.8 86.4974C151.776 86.7725 151.534 86.976 151.259 86.952L143.887 86.3071C143.612 86.283 143.409 86.0405 143.433 85.7654C143.457 85.4903 143.7 85.2868 143.975 85.3109L151.346 85.9558Z" fill="#8F8E94" />
	<path d="M15.9675 148.941C15.7757 149.14 15.7812 149.456 15.9799 149.648C16.1785 149.84 16.4951 149.834 16.6869 149.636L22.3134 143.809C22.5052 143.611 22.4997 143.294 22.301 143.102C22.1024 142.911 21.7858 142.916 21.594 143.115L15.9675 148.941Z" fill="#8F8E94" />
	<path d="M47.5511 150.132C47.4388 150.384 47.5522 150.68 47.8045 150.792C48.0568 150.904 48.3523 150.791 48.4647 150.539L51.5145 143.689C51.6268 143.436 51.5133 143.141 51.2611 143.029C51.0088 142.916 50.7133 143.03 50.6009 143.282L47.5511 150.132Z" fill="#8F8E94" />
	<path d="M79.3477 7.5C79.3477 7.22386 79.5716 7 79.8477 7C80.1239 7 80.3477 7.22386 80.3477 7.5V21.5C80.3477 21.7761 80.1239 22 79.8477 22C79.5716 22 79.3477 21.7761 79.3477 21.5V7.5Z" fill="#1D1D20" />
	<path d="M8.34775 79.5C8.0716 79.5 7.84775 79.2761 7.84775 79C7.84775 78.7239 8.0716 78.5 8.34775 78.5H22.3477C22.6239 78.5 22.8477 78.7239 22.8477 79C22.8477 79.2761 22.6239 79.5 22.3477 79.5H8.34775Z" fill="#1D1D20" />
	<path d="M137.348 79.5C137.072 79.5 136.848 79.2761 136.848 79C136.848 78.7239 137.072 78.5 137.348 78.5H151.348C151.624 78.5 151.848 78.7239 151.848 79C151.848 79.2761 151.624 79.5 151.348 79.5H137.348Z" fill="#1D1D20" />
	<path d="M79.3477 136.5C79.3477 136.224 79.5716 136 79.8477 136C80.1239 136 80.3477 136.224 80.3477 136.5V150.5C80.3477 150.776 80.1239 151 79.8477 151C79.5716 151 79.3477 150.776 79.3477 150.5V136.5Z" fill="#1D1D20" />
	<path d="M120.528 7.48334C120.666 7.24419 120.971 7.16225 121.211 7.30032C121.45 7.4384 121.532 7.74419 121.394 7.98334L109.394 28.7679C109.256 29.0071 108.95 29.089 108.711 28.951C108.471 28.8129 108.39 28.5071 108.528 28.2679L120.528 7.48334Z" fill="#1D1D20" />
	<path d="M151.065 37.25C151.304 37.1119 151.61 37.1939 151.748 37.433C151.886 37.6722 151.804 37.978 151.565 38.116L130.781 50.116C130.541 50.2541 130.236 50.1722 130.098 49.933C129.959 49.6939 130.041 49.3881 130.281 49.25L151.065 37.25Z" fill="#1D1D20" />
	<path d="M151.065 120.75C151.304 120.888 151.61 120.806 151.748 120.567C151.886 120.328 151.804 120.022 151.565 119.884L130.781 107.884C130.541 107.746 130.236 107.828 130.098 108.067C129.959 108.306 130.041 108.612 130.281 108.75L151.065 120.75Z" fill="#1D1D20" />
	<path d="M8.28076 38.116C8.04161 37.9779 7.95967 37.6721 8.09775 37.433C8.23582 37.1938 8.54161 37.1119 8.78076 37.2499L29.5654 49.2499C29.8045 49.388 29.8865 49.6938 29.7484 49.933C29.6103 50.1721 29.3045 50.254 29.0654 50.116L8.28076 38.116Z" fill="#1D1D20" />
	<path d="M8.28076 119.75C8.04161 119.888 7.95967 120.194 8.09775 120.433C8.23582 120.672 8.54161 120.754 8.78076 120.616L29.5654 108.616C29.8045 108.478 29.8865 108.172 29.7484 107.933C29.6103 107.694 29.3045 107.612 29.0654 107.75L8.28076 119.75Z" fill="#1D1D20" />
	<path d="M120.527 150.718C120.666 150.957 120.971 151.039 121.21 150.901C121.45 150.763 121.532 150.457 121.393 150.218L109.393 129.433C109.255 129.194 108.95 129.112 108.71 129.25C108.471 129.388 108.389 129.694 108.527 129.933L120.527 150.718Z" fill="#1D1D20" />
	<path d="M38.0977 7.93301C37.9597 7.69387 38.0416 7.38807 38.2808 7.25C38.5199 7.11193 38.8257 7.19387 38.9638 7.43301L50.9638 28.2176C51.1018 28.4568 51.0199 28.7626 50.7808 28.9006C50.5416 29.0387 50.2358 28.9568 50.0977 28.7176L38.0977 7.93301Z" fill="#1D1D20" />
	<path d="M38.0977 150.268C37.9597 150.507 38.0416 150.813 38.2808 150.951C38.5199 151.089 38.8257 151.007 38.9638 150.768L50.9638 129.983C51.1018 129.744 51.0199 129.438 50.7808 129.3C50.5416 129.162 50.2358 129.244 50.0977 129.483L38.0977 150.268Z" fill="#1D1D20" />
	<path d="M74.1618 45V32.48H74.1106L70.2448 35.228V32.9722L74.1413 30.2036H76.4074V45H74.1618ZM78.5938 34.541C78.5938 31.875 80.7368 29.9268 83.6797 29.9268C86.4995 29.9268 88.6016 31.7212 88.6016 34.0693C88.6016 35.792 87.6787 37.0737 85.5152 39.2886L81.8135 43.0107V43.062H88.8374V45H78.7168V43.4414L84.0591 37.9966C85.8638 36.1201 86.3355 35.3408 86.3355 34.1821C86.3355 32.8696 85.146 31.8237 83.6079 31.8237C81.9878 31.8237 80.7676 32.9927 80.7676 34.5308V34.5615H78.5938V34.541Z" fill="#1D1D20" />
	<path d="M122.511 80.8042V78.9995H124.295C125.895 78.9995 126.992 77.9946 126.992 76.6001C126.992 75.2261 126.048 74.3135 124.295 74.3135C122.695 74.3135 121.629 75.2363 121.496 76.6924H119.332C119.506 74.0981 121.465 72.4268 124.398 72.4268C127.197 72.4268 129.237 74.0161 129.237 76.2925C129.237 78.1382 128.027 79.4609 126.192 79.7891V79.8301C128.417 79.9839 129.853 81.3477 129.853 83.4189C129.853 86.0029 127.505 87.7769 124.418 87.7769C121.229 87.7769 119.178 86.0234 119.035 83.4702H121.239C121.383 84.8853 122.552 85.8594 124.418 85.8594C126.223 85.8594 127.515 84.834 127.515 83.3882C127.515 81.7886 126.305 80.8042 124.357 80.8042H122.511Z" fill="#1D1D20" />
	<path d="M34.1515 87.7769C31.5162 87.7769 29.4757 86.1978 29.0348 83.8496H31.3419C31.6906 85.0596 32.8185 85.8696 34.1823 85.8696C36.4894 85.8696 37.8429 83.7368 37.8429 80.0044C37.8429 80.0044 37.8326 80.0044 37.8224 80.0044H37.8121H37.8019C37.2072 81.4604 35.6486 82.4243 33.7413 82.4243C30.9318 82.4243 28.8297 80.3428 28.8297 77.5332C28.8297 74.5698 31.1061 72.4165 34.2335 72.4165C36.4279 72.4165 38.1915 73.5342 39.1451 75.5234C39.7501 76.7026 40.0577 78.1587 40.0577 79.8916C40.0577 84.8442 37.8634 87.7769 34.1515 87.7769ZM34.2335 80.5479C36.0485 80.5479 37.402 79.2456 37.402 77.5024C37.402 75.749 36.028 74.375 34.2643 74.375C32.5006 74.375 31.1163 75.7388 31.1163 77.4614C31.1163 79.2354 32.4391 80.5479 34.2335 80.5479Z" fill="#1D1D20" />
	<path d="M79.7565 130.287C77.5724 130.287 75.819 129.169 74.8551 127.17C74.2501 125.991 73.9425 124.535 73.9425 122.802C73.9425 117.849 76.1573 114.917 79.859 114.917C82.4738 114.917 84.504 116.485 84.9552 118.844H82.6583C82.2994 117.634 81.192 116.844 79.8385 116.844C77.5109 116.844 76.1573 118.957 76.1471 122.679H76.1881C76.8341 121.243 78.403 120.279 80.2487 120.279C83.0685 120.279 85.1603 122.361 85.1603 125.17C85.1603 128.134 82.8942 130.287 79.7565 130.287ZM79.736 128.349C81.4791 128.349 82.8737 126.975 82.8737 125.242C82.8737 123.448 81.5714 122.156 79.7565 122.156C77.9518 122.156 76.6085 123.448 76.6085 125.201C76.6085 126.955 77.9723 128.349 79.736 128.349Z" fill="#1D1D20" />
	<g filter="url(#filter0_dd_130_540)">
		<path d="M10.9971 109.396C11.6459 110.92 13.4078 111.63 14.9323 110.981L69.2207 87.8778C70.3347 87.4037 71.0138 86.3353 71.0456 85.1994L76.0415 83.0733C77.3967 84.8402 79.8219 85.5398 81.9656 84.6275C84.5065 83.5462 85.6897 80.6098 84.6084 78.0689C83.5271 75.528 80.5907 74.3448 78.0498 75.4261C75.906 76.3384 74.7287 78.5713 75.0625 80.773L70.0667 82.899C69.2261 82.1343 67.9853 81.8828 66.8712 82.357L12.5828 105.46C11.0583 106.109 10.3483 107.871 10.9971 109.396Z" fill="#1D1D20" />
	</g>
	<g filter="url(#filter1_dd_130_540)">
		<path d="M84.6824 81.7562C83.7153 84.3427 80.8346 85.6555 78.248 84.6885C76.0656 83.8725 74.79 81.6942 75.0255 79.4797L70.8777 77.9289C70.0721 78.7303 68.8437 79.0367 67.7097 78.6127L39.6095 68.1065C38.0576 67.5262 37.2699 65.7978 37.8501 64.2458C38.4303 62.6939 40.1588 61.9062 41.7107 62.4865L69.8109 72.9927C70.945 73.4167 71.671 74.4538 71.7533 75.5872L75.9012 77.1381C77.1764 75.3127 79.568 74.5059 81.7501 75.3218C84.3366 76.2888 85.6495 79.1696 84.6824 81.7562Z" fill="#1D1D20" />
	</g>
	<path fill-rule="evenodd" clip-rule="evenodd" d="M79.2501 67H80.7501V77.0945C82.044 77.4275 83.0001 78.6021 83.0001 80C83.0001 81.3979 82.044 82.5725 80.7501 82.9055V156H79.2501V82.9055C77.9562 82.5725 77.0001 81.3979 77.0001 80C77.0001 78.6021 77.9562 77.4275 79.2501 77.0945V67ZM80.0001 81.5C80.8285 81.5 81.5001 80.8284 81.5001 80C81.5001 79.1716 80.8285 78.5 80.0001 78.5C79.1717 78.5 78.5001 79.1716 78.5001 80C78.5001 80.8284 79.1717 81.5 80.0001 81.5Z" fill="#FF9600" />
	<path d="M81.5001 80C81.5001 80.8284 80.8285 81.5 80.0001 81.5C79.1717 81.5 78.5001 80.8284 78.5001 80C78.5001 79.1716 79.1717 78.5 80.0001 78.5C80.8285 78.5 81.5001 79.1716 81.5001 80Z" fill="white" />
	<defs>
		<filter id="filter0_dd_130_540" x="9.25671" y="74.0255" width="77.2523" height="39.1961" filterUnits="userSpaceOnUse" color-interpolation-filters="sRGB">
			<feFlood flood-opacity="0" result="BackgroundImageFix" />
			<feColorMatrix in="SourceAlpha" type="matrix" values="0 0 0 0 0 0 0 0 0 0 0 0 0 0 0 0 0 0 127 0" result="hardAlpha" />
			<feOffset dy="0.5" />
			<feGaussianBlur stdDeviation="0.75" />
			<feColorMatrix type="matrix" values="0 0 0 0 0 0 0 0 0 0 0 0 0 0 0 0 0 0 0.19 0" />
			<feBlend mode="normal" in2="BackgroundImageFix" result="effect1_dropShadow_130_540" />
			<feColorMatrix in="SourceAlpha" type="matrix" values="0 0 0 0 0 0 0 0 0 0 0 0 0 0 0 0 0 0 127 0" result="hardAlpha" />
			<feOffset />
			<feGaussianBlur stdDeviation="0.5" />
			<feColorMatrix type="matrix" values="0 0 0 0 0 0 0 0 0 0 0 0 0 0 0 0 0 0 0.039 0" />
			<feBlend mode="normal" in2="effect1_dropShadow_130_540" result="effect2_dropShadow_130_540" />
			<feBlend mode="normal" in="SourceGraphic" in2="effect2_dropShadow_130_540" result="shape" />
		</filter>
		<filter id="filter1_dd_130_540" x="36.1593" y="61.2957" width="50.3411" height="25.7108" filterUnits="userSpaceOnUse" color-interpolation-filters="sRGB">
			<feFlood flood-opacity="0" result="BackgroundImageFix" />
			<feColorMatrix in="SourceAlpha" type="matrix" values="0 0 0 0 0 0 0 0 0 0 0 0 0 0 0 0 0 0 127 0" result="hardAlpha" />
			<feOffset dy="0.5" />
			<feGaussianBlur stdDeviation="0.75" />
			<feColorMatrix type="matrix" values="0 0 0 0 0 0 0 0 0 0 0 0 0 0 0 0 0 0 0.19 0" />
			<feBlend mode="normal" in2="BackgroundImageFix" result="effect1_dropShadow_130_540" />
			<feColorMatrix in="SourceAlpha" type="matrix" values="0 0 0 0 0 0 0 0 0 0 0 0 0 0 0 0 0 0 127 0" result="hardAlpha" />
			<feOffset />
			<feGaussianBlur stdDeviation="0.5" />
			<feColorMatrix type="matrix" values="0 0 0 0 0 0 0 0 0 0 0 0 0 0 0 0 0 0 0.039 0" />
			<feBlend mode="normal" in2="effect1_dropShadow_130_540" result="effect2_dropShadow_130_540" />
			<feBlend mode="normal" in="SourceGraphic" in2="effect2_dropShadow_130_540" result="shape" />
		</filter>
	</defs>
</svg>
