<svg width="60" height="60" viewBox="0 0 60 60" fill="none" xmlns="http://www.w3.org/2000/svg">
<g id="Gallery ICON">
<rect width="60" height="60" rx="13.28" fill="url(#paint0_linear_129_122)"/>
<g id="Group 8603">
<path id="Vector" d="M51.8203 27.0113C51.6485 27.752 51.3489 28.4567 50.9361 29.0909C50.5693 29.6428 50.1015 30.1151 49.5603 30.48C48.9959 30.8516 48.3867 31.1417 47.7496 31.3422C47.0211 31.5725 46.2766 31.7394 45.5239 31.8413L44.8318 34.6077L40.7507 33.5866L41.7735 29.4985C42.3607 29.4823 42.8968 29.4493 43.3818 29.3995C43.929 29.3311 44.4658 29.1827 44.9761 28.9587C45.478 28.7716 45.9392 28.4789 46.3304 28.099C46.7006 27.728 46.9621 27.256 47.0836 26.7397C47.1961 26.4158 47.2262 26.0688 47.171 25.7328C47.1159 25.3967 46.9773 25.0832 46.7689 24.823C46.2249 24.2825 45.5387 23.9206 44.7932 23.781C44.1457 23.6367 43.4776 23.6044 42.8156 23.6854C42.0801 23.7546 41.3539 23.919 40.6539 24.1748L40.1901 24.0587L41.1149 20.3623C41.9304 20.254 42.7516 20.216 43.5703 20.2486C44.6577 20.268 45.7373 20.4109 46.79 20.6747C48.4249 20.9881 49.9049 21.8517 51.0041 23.1335C51.4366 23.6543 51.7372 24.2803 51.8795 24.9564C52.0218 25.6326 52.0015 26.3382 51.8203 27.0113ZM43.9436 39.5365L39.2596 38.3646L40.0601 35.1652L44.744 36.3371L43.9436 39.5365Z" fill="white"/>
<path id="Vector_2" d="M37.821 17.5H15.179C13.1446 17.5 11.5 19.155 11.5 21.1917V35.6562C11.5 37.6929 13.1446 39.3479 15.179 39.3479H15.604L13.4584 43.6688C13.1709 44.147 13.2467 44.7622 13.6472 45.1544C13.881 45.3852 14.1868 45.5 14.4909 45.5C14.7158 45.5 14.9448 45.4361 15.1456 45.3062L25.492 39.3479H37.821C39.8555 39.3479 41.5 37.6929 41.5 35.6562V21.1917C41.5 19.155 39.8554 17.5 37.821 17.5ZM19.9627 30.0082C19.0733 30.0082 18.3489 29.2837 18.3489 28.386C18.3489 27.4882 19.0733 26.7638 19.9627 26.7638C20.8521 26.7638 21.5765 27.4882 21.5765 28.386C21.5765 29.2837 20.8521 30.0082 19.9627 30.0082ZM26.5 30.0082C25.6106 30.0082 24.8862 29.2838 24.8862 28.386C24.8862 27.4882 25.6106 26.7638 26.5 26.7638C27.3894 26.7638 28.1138 27.4882 28.1138 28.386C28.1138 29.2837 27.3894 30.0082 26.5 30.0082ZM33.0373 30.0082C32.1479 30.0082 31.4235 29.2837 31.4235 28.386C31.4235 27.4882 32.1479 26.7638 33.0373 26.7638C33.9267 26.7638 34.6511 27.4882 34.6511 28.386C34.6511 29.2838 33.9267 30.0082 33.0373 30.0082Z" fill="white" stroke="black"/>
</g>
</g>
<defs>
<linearGradient id="paint0_linear_129_122" x1="30" y1="0" x2="30" y2="60" gradientUnits="userSpaceOnUse">
<stop stop-color="#313131"/>
<stop offset="1" stop-color="#141514"/>
</linearGradient>
</defs>
</svg>
