<svg width="60" height="60" viewBox="0 0 60 60" fill="none" xmlns="http://www.w3.org/2000/svg">
<g id="Garages ICON">
<rect width="60" height="60" rx="13.28" fill="url(#paint0_linear_130_38)"/>
<g id="Group 8604">
<path id="Subtract" fill-rule="evenodd" clip-rule="evenodd" d="M14.6246 25.0475C13.4232 25.9634 14.0709 27.8813 15.5816 27.8813V43.1103C15.5816 44.7672 16.9247 46.1103 18.5816 46.1103H19.5077V45.5291V44.7473V44.5212V44.1473V43.9212V42.1298V41.9037V41.5298V41.3037V39.5123V39.2862V38.9123V38.6862V36.8948V36.6687V36.2948V36.0687V34.2773V33.6773H19.5078V33.4511V31.6597V31.0597H20.1078H39.8478H40.4478V31.6597V33.4511V34.0511H40.4476V34.2773V36.0687V36.2948V36.6687V36.8948V38.6862V38.9123V39.2862V39.5123V41.3037V41.5298V41.9037V42.1298V43.9212V44.1473V44.5212V44.7473V45.5291V46.1103H41.0001C42.657 46.1103 44.0001 44.7672 44.0001 43.1103V27.8813C45.5108 27.8813 46.1585 25.9634 44.9572 25.0475L31.0034 14.4095C30.2873 13.8635 29.2945 13.8635 28.5783 14.4095L14.6246 25.0475ZM39.8478 31.6597H20.1078V33.4511H39.8478V31.6597ZM39.8476 34.2773H20.1077V36.0687H39.8476V34.2773ZM20.1077 36.8948H39.8476V38.6862H20.1077V36.8948ZM39.8476 39.5123H20.1077V41.3037H39.8476V39.5123ZM20.1077 42.1298H39.8476V43.9212H20.1077V42.1298ZM39.8476 44.7473H20.1077V45.5291H39.8476V44.7473Z" fill="#7F51AE"/>
<g id="Mask group">
<g id="Mask group_2">
<mask id="mask0_130_38" style="mask-type:alpha" maskUnits="userSpaceOnUse" x="14" y="14" width="32" height="33">
<path id="Subtract_2" fill-rule="evenodd" clip-rule="evenodd" d="M14.6246 25.0475C13.4232 25.9634 14.0709 27.8813 15.5816 27.8813V43.1103C15.5816 44.7672 16.9247 46.1103 18.5816 46.1103H19.5077V45.5291V44.7473V44.5212V44.1473V43.9212V42.1298V41.9037V41.5298V41.3037V39.5123V39.2862V38.9123V38.6862V36.8948V36.6687V36.2948V36.0687V34.2773V33.6773H19.5078V33.4511V31.6597V31.0597H20.1078H39.8478H40.4478V31.6597V33.4511V34.0511H40.4476V34.2773V36.0687V36.2948V36.6687V36.8948V38.6862V38.9123V39.2862V39.5123V41.3037V41.5298V41.9037V42.1298V43.9212V44.1473V44.5212V44.7473V45.5291V46.1103H41.0001C42.657 46.1103 44.0001 44.7672 44.0001 43.1103V27.8813C45.5108 27.8813 46.1585 25.9634 44.9572 25.0475L31.0034 14.4095C30.2873 13.8635 29.2945 13.8635 28.5783 14.4095L14.6246 25.0475ZM39.8478 31.6597H20.1078V33.4511H39.8478V31.6597ZM39.8476 34.2773H20.1077V36.0687H39.8476V34.2773ZM20.1077 36.8948H39.8476V38.6862H20.1077V36.8948ZM39.8476 39.5123H20.1077V41.3037H39.8476V39.5123ZM20.1077 42.1298H39.8476V43.9212H20.1077V42.1298ZM39.8476 44.7473H20.1077V45.5291H39.8476V44.7473Z" fill="#7F51AE"/>
</mask>
<g mask="url(#mask0_130_38)">
<path id="Ellipse 28" d="M32.7953 39.0313C35.8707 44.5966 29.877 50.5648 23.6534 49.2614C20.2984 48.5588 16.6572 47.6664 13.712 47.2246C9.26589 46.2777 6.30808 36.6573 7.19824 30.3303C7.93046 25.1259 15.5686 23.7205 19.1864 27.5328C20.2167 28.6186 22.8986 30.7648 24.2756 31.3515C28.4058 33.1115 31.1508 36.0554 32.7953 39.0313Z" fill="url(#paint1_linear_130_38)" fill-opacity="0.6"/>
<path id="Ellipse 27" d="M50.5438 25.6377C50.1699 29.19 38.9521 28.4422 31.4735 27.3204C24.303 25.7933 20.7798 21.4535 21.5111 18.0197C22.2423 14.586 28.6033 12.1449 35.7737 13.672C42.9442 15.1991 53.5414 24.9212 50.5438 25.6377Z" fill="url(#paint2_linear_130_38)" fill-opacity="0.6"/>
</g>
</g>
</g>
</g>
</g>
<defs>
<linearGradient id="paint0_linear_130_38" x1="30" y1="0" x2="30" y2="60" gradientUnits="userSpaceOnUse">
<stop stop-color="#313131"/>
<stop offset="1" stop-color="#141514"/>
</linearGradient>
<linearGradient id="paint1_linear_130_38" x1="26.0515" y1="31.9945" x2="17.6381" y2="43.0254" gradientUnits="userSpaceOnUse">
<stop stop-color="#3611AE"/>
<stop offset="0.956804" stop-color="#7B4FAD"/>
</linearGradient>
<linearGradient id="paint2_linear_130_38" x1="24.182" y1="18.5331" x2="45.6828" y2="27.1335" gradientUnits="userSpaceOnUse">
<stop stop-color="#CF5BEC"/>
<stop offset="1" stop-color="#62129B"/>
</linearGradient>
</defs>
</svg>
