<svg width="60" height="60" viewBox="0 0 60 60" fill="none" xmlns="http://www.w3.org/2000/svg">
<g id="Groups ICON">
<rect width="60" height="60" rx="13.28" fill="url(#paint0_linear_147_30)"/>
<g id="Group ICON">
<path id="Union" fill-rule="evenodd" clip-rule="evenodd" d="M30.2757 15.5086C31.9582 15.5086 33.3221 14.1447 33.3221 12.4622C33.3221 10.7798 31.9582 9.41586 30.2757 9.41586C28.5932 9.41586 27.2293 10.7798 27.2293 12.4622C27.2293 14.1447 28.5932 15.5086 30.2757 15.5086ZM30.3791 16.1799C28.3137 16.0815 26.9713 14.3727 26.9713 14.3727L26.8015 14.5134C25.7194 15.41 24.8139 16.5005 24.1314 17.7289C25.7014 18.1726 27.1759 18.9022 28.4811 19.881L28.5719 19.9491H34.6647L35.5704 23.9809C35.7846 24.9347 36.9619 24.9943 37.1626 24.0376C37.4905 22.4745 37.6856 20.5486 37.2463 18.8648C36.3169 15.3021 33.5804 13.9596 33.5804 13.9596C33.5804 13.9596 32.4444 16.2782 30.3791 16.1799Z" fill="#E61D25"/>
<path id="Union_2" fill-rule="evenodd" clip-rule="evenodd" d="M45.1462 24.1833C46.8286 24.1833 48.1925 22.8194 48.1925 21.1369C48.1925 19.4545 46.8286 18.0905 45.1462 18.0905C43.4637 18.0905 42.0998 19.4545 42.0998 21.1369C42.0998 22.8194 43.4637 24.1833 45.1462 24.1833ZM42.0596 23.0543C41.1004 21.2226 41.896 19.2004 41.896 19.2004L41.6888 19.1251C40.3682 18.6447 38.9696 18.4147 37.5646 18.447C37.9755 20.0258 38.0915 21.6669 37.9068 23.2879L37.8939 23.4006L40.9741 28.6575L37.9534 31.4772C37.2388 32.1442 37.7826 33.1901 38.7095 32.8796C40.2239 32.3723 41.9842 31.5669 43.2148 30.3368C45.8189 27.7337 45.5937 24.6939 45.5937 24.6939C45.5937 24.6939 43.0189 24.886 42.0596 23.0543Z" fill="#F26B34"/>
<path id="Union_3" fill-rule="evenodd" clip-rule="evenodd" d="M41.9828 36.6059C43.105 34.8693 45.2569 34.5665 45.2569 34.5665L45.2205 34.349C44.9885 32.963 44.5003 31.6323 43.7807 30.4253C42.6086 31.5601 41.2372 32.4689 39.7353 33.106L39.6308 33.1503L36.5711 38.4191L32.6297 37.1776C31.6973 36.8839 31.0546 37.8721 31.7811 38.5261C32.9682 39.5946 34.5357 40.7304 36.2123 41.1961C39.7599 42.1816 42.2951 40.4892 42.2951 40.4892C42.2951 40.4892 40.8605 38.3425 41.9828 36.6059ZM45.1978 41.4286C46.8803 41.4286 48.2442 40.0647 48.2442 38.3822C48.2442 36.6997 46.8803 35.3358 45.1978 35.3358C43.5154 35.3358 42.1515 36.6997 42.1515 38.3822C42.1515 40.0647 43.5154 41.4286 45.1978 41.4286Z" fill="#FECE00"/>
<path id="Union_4" fill-rule="evenodd" clip-rule="evenodd" d="M30.2208 43.2357C32.2861 43.3341 33.6286 45.0429 33.6286 45.0429L33.7984 44.9022C34.8805 44.0056 35.786 42.9151 36.4684 41.6867C34.8985 41.243 33.4239 40.5134 32.1187 39.5346L32.0279 39.4664H25.9352L25.0295 35.4347C24.8152 34.4809 23.6379 34.4213 23.4372 35.378C23.1093 36.9411 22.9143 38.867 23.3535 40.5508C24.2829 44.1135 27.0195 45.4559 27.0195 45.4559C27.0195 45.4559 28.1554 43.1374 30.2208 43.2357ZM30.2756 49.9998C31.9581 49.9998 33.322 48.6359 33.322 46.9534C33.322 45.271 31.9581 43.907 30.2756 43.907C28.5931 43.907 27.2292 45.271 27.2292 46.9534C27.2292 48.6359 28.5931 49.9998 30.2756 49.9998Z" fill="#00A9AC"/>
<path id="Union_5" fill-rule="evenodd" clip-rule="evenodd" d="M18.4988 36.46C19.4595 38.291 18.6655 40.3138 18.6655 40.3138L18.8728 40.389C20.1938 40.8683 21.5926 41.0971 22.9975 41.0638C22.5853 39.4853 22.468 37.8442 22.6515 36.2231L22.6642 36.1104L19.5798 30.856L22.5983 28.0339C23.3123 27.3663 22.7677 26.3208 21.841 26.632C20.327 27.1406 18.5674 27.9474 17.3377 29.1785C14.7358 31.7836 14.9634 34.8233 14.9634 34.8233C14.9634 34.8233 17.538 34.6291 18.4988 36.46ZM15.302 41.4286C16.9845 41.4286 18.3484 40.0647 18.3484 38.3822C18.3484 36.6997 16.9845 35.3358 15.302 35.3358C13.6195 35.3358 12.2556 36.6997 12.2556 38.3822C12.2556 40.0647 13.6195 41.4286 15.302 41.4286Z" fill="#B2D135"/>
<path id="Union_6" fill-rule="evenodd" clip-rule="evenodd" d="M18.5317 22.7905C17.4178 24.5325 15.2674 24.8456 15.2674 24.8456L15.3048 25.0629C15.5434 26.4478 16.038 27.7761 16.7634 28.9797C17.93 27.8393 19.2971 26.9239 20.7959 26.2797L20.9002 26.2348L23.9346 20.9515L27.8819 22.1741C28.8156 22.4633 29.4537 21.4721 28.724 20.8215C27.5318 19.7587 25.9589 18.6304 24.2801 18.1727C20.7278 17.2043 18.2007 18.9087 18.2007 18.9087C18.2007 18.9087 19.6456 21.0485 18.5317 22.7905ZM15.302 24.1832C16.9845 24.1832 18.3484 22.8193 18.3484 21.1368C18.3484 19.4543 16.9845 18.0904 15.302 18.0904C13.6195 18.0904 12.2556 19.4543 12.2556 21.1368C12.2556 22.8193 13.6195 24.1832 15.302 24.1832Z" fill="#87577F"/>
</g>
</g>
<defs>
<linearGradient id="paint0_linear_147_30" x1="30" y1="0" x2="30" y2="60" gradientUnits="userSpaceOnUse">
<stop stop-color="#313131"/>
<stop offset="1" stop-color="#141514"/>
</linearGradient>
</defs>
</svg>
