<svg width="50" height="50" viewBox="0 0 50 50" fill="none" xmlns="http://www.w3.org/2000/svg">
<g id="House ICON">
<rect width="50" height="50" rx="13.28" fill="url(#paint0_linear_405_12)"/>
<g id="Group 8606">
<path id="Union" fill-rule="evenodd" clip-rule="evenodd" d="M25.1332 12.9944C24.7648 12.7235 24.2595 12.737 23.9061 13.0273L8.96466 25.3007C8.53848 25.6507 8.47619 26.2798 8.82544 26.7066L9.31397 27.3037C9.66138 27.7283 10.286 27.7938 10.7139 27.4504L23.4409 17.2353C24.176 16.6452 25.2234 16.6486 25.9547 17.2434L38.4136 27.3766C38.8711 27.7487 39.5495 27.6462 39.8766 27.1555L40.3338 26.4697C40.6122 26.0521 40.538 25.4929 40.1603 25.1624L36.1593 21.6616V12.9223H31.1099V17.389L25.1332 12.9944ZM24.0641 18.8717C24.4346 18.574 24.9635 18.5783 25.3292 18.882L36.1591 27.8763V35.9462C36.1591 37.603 34.816 38.9462 33.1591 38.9462H15.8542C14.1973 38.9462 12.8542 37.603 12.8542 35.9462V27.8763L24.0641 18.8717ZM22.1762 31.1778H27.2256V38.9462H22.1762V31.1778Z" fill="#D8D8D8"/>
</g>
</g>
<defs>
<linearGradient id="paint0_linear_405_12" x1="25" y1="0" x2="25" y2="50" gradientUnits="userSpaceOnUse">
<stop stop-color="#313131"/>
<stop offset="1" stop-color="#141514"/>
</linearGradient>
</defs>
</svg>
