<svg width="60" height="60" viewBox="0 0 60 60" fill="none" xmlns="http://www.w3.org/2000/svg">
<g id="Mail ICON">
<rect width="60" height="60" rx="13.28" fill="url(#paint0_linear_45_182)"/>
<g id="Group 9">
<path id="Vector" d="M48.2486 20.1867L38.5347 30.0812C38.4625 30.1534 38.4625 30.2617 38.5347 30.334L45.3326 37.5742C45.7931 38.0347 45.7931 38.7749 45.3326 39.2354C45.1069 39.4611 44.8 39.5784 44.5021 39.5784C44.2042 39.5784 43.8972 39.4611 43.6715 39.2354L36.9007 32.0222C36.8285 31.9499 36.7111 31.9499 36.6389 32.0222L34.9868 33.7013C33.6056 35.1006 31.7729 35.877 29.8049 35.8861C27.8097 35.8951 25.9139 35.0555 24.5146 33.6381L22.9257 32.0222C22.8535 31.9499 22.7361 31.9499 22.6639 32.0222L15.8931 39.2354C15.6674 39.4611 15.3604 39.5784 15.0625 39.5784C14.7646 39.5784 14.4576 39.4611 14.2319 39.2354C13.7715 38.7749 13.7715 38.0347 14.2319 37.5742L21.0299 30.334C21.0931 30.2617 21.0931 30.1534 21.0299 30.0812L11.3069 20.1867C11.1896 20.0694 11 20.1506 11 20.3131V40.1111C11 41.6999 12.3 42.9999 13.8889 42.9999H45.6667C47.2556 42.9999 48.5556 41.6999 48.5556 40.1111V20.3131C48.5556 20.1506 48.3569 20.0784 48.2486 20.1867Z" fill="#009FFC"/>
<path id="Vector_2" d="M29.7777 33.5299C31.1138 33.5299 32.3687 33.0063 33.3076 32.0493L47.4721 17.6319C46.9756 17.2347 46.3617 17 45.6846 17H13.8798C13.2027 17 12.5798 17.2347 12.0923 17.6319L26.2569 32.0493C27.1867 32.9972 28.4416 33.5299 29.7777 33.5299Z" fill="#009FFC"/>
</g>
</g>
<defs>
<linearGradient id="paint0_linear_45_182" x1="30" y1="0" x2="30" y2="60" gradientUnits="userSpaceOnUse">
<stop stop-color="#313131"/>
<stop offset="1" stop-color="#141514"/>
</linearGradient>
</defs>
</svg>
