<svg width="60" height="60" viewBox="0 0 60 60" fill="none" xmlns="http://www.w3.org/2000/svg">
	<rect width="60" height="60" rx="13.28" fill="url(#paint0_linear_128_106)" />
	<mask id="path-2-inside-1_128_106" fill="white">
		<path d="M45.1989 13.561C44.8779 13.3148 44.4293 12.8824 44.1912 12.5548C43.7266 11.9179 42.8412 11.0187 41.5345 11.0003C39.5073 10.9703 36.5794 12.8025 36.3544 16.7821C36.1287 20.7617 33.5768 26.6175 31.6991 27.8941C29.8215 29.1694 26.5939 33.5997 21.8637 35.1014C17.1337 36.6023 11.2025 37.5785 11.2772 39.1542C11.3373 40.4214 15.9963 40.1862 17.83 40.0447C18.2338 40.0132 18.2521 40.0931 17.874 40.2382C15.8542 41.007 10.0629 43.3214 10.0006 44.5607C9.92577 46.0624 17.2085 42.1576 22.7646 41.8585C28.3206 41.558 31.3606 41.2202 32.9378 43.9223C32.9378 43.9223 33.2478 44.4221 33.8151 44.9902C33.8151 44.9902 34.0501 45.3249 34.0771 45.3725L34.1339 45.5126C34.2679 45.8436 34.2804 46.2113 34.169 46.5506C33.8341 46.6056 33.4801 46.6802 33.1877 46.8064C32.8153 46.9669 32.8556 47.2131 33.1254 47.15C33.3951 47.0885 33.6135 47.1559 33.6135 47.3003C33.6135 47.4461 33.9059 47.4132 34.279 47.2556C34.7223 47.068 35.2647 46.8803 35.4904 46.9624C35.6371 47.0152 35.7499 47.1068 35.8356 47.2029C35.9918 47.3758 35.725 47.5304 35.3211 47.5605C34.9811 47.5861 34.5809 47.655 34.2533 47.8207C33.8928 48.0054 34.0467 48.2429 34.4454 48.1739C35.0895 48.0655 35.9873 47.9504 36.3537 48.0882C36.954 48.3132 38.5685 48.8013 39.8078 48.4635C40.6653 48.2304 41.5411 47.9783 42.1984 47.845C42.595 47.765 43.215 47.414 42.8925 47.3055C42.768 47.2638 42.5745 47.2337 42.285 47.2257C41.2941 47.1971 40.4952 47.5533 39.7595 47.5203C39.3549 47.502 39.2692 47.0791 39.6078 46.8577C39.8518 46.6972 40.1765 46.536 40.5825 46.4429C40.9775 46.3527 41.0868 46.0933 40.6961 45.9863C40.381 45.8991 39.9251 45.872 39.2816 46.0252C38.1552 46.292 37.2075 46.2847 36.5495 45.9343C35.9996 45.4632 35.6252 44.8274 35.4258 44.1313C35.4029 44.0514 35.3857 43.9982 35.3786 43.9898C35.3148 42.7534 35.9639 41.0151 37.9668 39.4174C40.9329 37.0524 43.5602 35.7002 44.3862 32.3215C45.2122 28.9437 42.9219 19.6705 42.9219 19.6705C42.9219 19.6705 42.5445 18.1864 42.727 16.8188C42.7805 16.4179 43.0627 15.8184 43.3844 15.5736C43.7984 15.257 44.4933 14.9397 45.5443 15.0613C45.9466 15.1082 46.2097 14.8722 46.0191 14.5161C45.8644 14.2235 45.6101 13.8754 45.1989 13.561Z" />
	</mask>
	<path d="M45.1989 13.561C44.8779 13.3148 44.4293 12.8824 44.1912 12.5548C43.7266 11.9179 42.8412 11.0187 41.5345 11.0003C39.5073 10.9703 36.5794 12.8025 36.3544 16.7821C36.1287 20.7617 33.5768 26.6175 31.6991 27.8941C29.8215 29.1694 26.5939 33.5997 21.8637 35.1014C17.1337 36.6023 11.2025 37.5785 11.2772 39.1542C11.3373 40.4214 15.9963 40.1862 17.83 40.0447C18.2338 40.0132 18.2521 40.0931 17.874 40.2382C15.8542 41.007 10.0629 43.3214 10.0006 44.5607C9.92577 46.0624 17.2085 42.1576 22.7646 41.8585C28.3206 41.558 31.3606 41.2202 32.9378 43.9223C32.9378 43.9223 33.2478 44.4221 33.8151 44.9902C33.8151 44.9902 34.0501 45.3249 34.0771 45.3725L34.1339 45.5126C34.2679 45.8436 34.2804 46.2113 34.169 46.5506C33.8341 46.6056 33.4801 46.6802 33.1877 46.8064C32.8153 46.9669 32.8556 47.2131 33.1254 47.15C33.3951 47.0885 33.6135 47.1559 33.6135 47.3003C33.6135 47.4461 33.9059 47.4132 34.279 47.2556C34.7223 47.068 35.2647 46.8803 35.4904 46.9624C35.6371 47.0152 35.7499 47.1068 35.8356 47.2029C35.9918 47.3758 35.725 47.5304 35.3211 47.5605C34.9811 47.5861 34.5809 47.655 34.2533 47.8207C33.8928 48.0054 34.0467 48.2429 34.4454 48.1739C35.0895 48.0655 35.9873 47.9504 36.3537 48.0882C36.954 48.3132 38.5685 48.8013 39.8078 48.4635C40.6653 48.2304 41.5411 47.9783 42.1984 47.845C42.595 47.765 43.215 47.414 42.8925 47.3055C42.768 47.2638 42.5745 47.2337 42.285 47.2257C41.2941 47.1971 40.4952 47.5533 39.7595 47.5203C39.3549 47.502 39.2692 47.0791 39.6078 46.8577C39.8518 46.6972 40.1765 46.536 40.5825 46.4429C40.9775 46.3527 41.0868 46.0933 40.6961 45.9863C40.381 45.8991 39.9251 45.872 39.2816 46.0252C38.1552 46.292 37.2075 46.2847 36.5495 45.9343C35.9996 45.4632 35.6252 44.8274 35.4258 44.1313C35.4029 44.0514 35.3857 43.9982 35.3786 43.9898C35.3148 42.7534 35.9639 41.0151 37.9668 39.4174C40.9329 37.0524 43.5602 35.7002 44.3862 32.3215C45.2122 28.9437 42.9219 19.6705 42.9219 19.6705C42.9219 19.6705 42.5445 18.1864 42.727 16.8188C42.7805 16.4179 43.0627 15.8184 43.3844 15.5736C43.7984 15.257 44.4933 14.9397 45.5443 15.0613C45.9466 15.1082 46.2097 14.8722 46.0191 14.5161C45.8644 14.2235 45.6101 13.8754 45.1989 13.561Z" fill="#7D5DEC" />
	<path d="M45.1989 13.561L44.8946 13.9577L44.8952 13.9582L45.1989 13.561ZM44.1912 12.5548L44.5956 12.2608L44.5952 12.2601L44.1912 12.5548ZM41.5345 11.0003L41.5271 11.5003L41.5275 11.5003L41.5345 11.0003ZM36.3544 16.7821L36.8536 16.8105L36.8536 16.8104L36.3544 16.7821ZM31.6991 27.8941L31.98 28.3078L31.9802 28.3076L31.6991 27.8941ZM21.8637 35.1014L22.015 35.578L22.015 35.578L21.8637 35.1014ZM11.2772 39.1542L11.7766 39.1305L11.7766 39.1305L11.2772 39.1542ZM17.83 40.0447L17.8685 40.5432L17.8689 40.5432L17.83 40.0447ZM17.874 40.2382L18.0519 40.7055L18.0531 40.705L17.874 40.2382ZM10.0006 44.5607L9.5012 44.5356L9.50119 44.5358L10.0006 44.5607ZM22.7646 41.8585L22.7915 42.3578L22.7916 42.3578L22.7646 41.8585ZM32.9378 43.9223L32.5058 44.1745L32.5129 44.1859L32.9378 43.9223ZM33.8151 44.9902L34.2242 44.7028L34.1994 44.6675L34.1689 44.6369L33.8151 44.9902ZM34.0771 45.3725L34.5406 45.1848L34.5282 45.1543L34.512 45.1258L34.0771 45.3725ZM34.1339 45.5126L34.5973 45.3249L34.5973 45.3249L34.1339 45.5126ZM34.169 46.5506L34.25 47.0439L34.5494 46.9948L34.644 46.7065L34.169 46.5506ZM33.1877 46.8064L33.3856 47.2655L33.3857 47.2655L33.1877 46.8064ZM33.1254 47.15L33.0141 46.6626L33.0115 46.6632L33.1254 47.15ZM34.279 47.2556L34.4735 47.7162L34.4738 47.7161L34.279 47.2556ZM35.4904 46.9624L35.3196 47.4323L35.3212 47.4329L35.4904 46.9624ZM35.8356 47.2029L35.4627 47.5359L35.4645 47.5378L35.8356 47.2029ZM35.3211 47.5605L35.284 47.0619L35.2836 47.062L35.3211 47.5605ZM34.2533 47.8207L34.0276 47.3745L34.0254 47.3757L34.2533 47.8207ZM34.4454 48.1739L34.3623 47.6808L34.3601 47.6812L34.4454 48.1739ZM36.3537 48.0882L36.1777 48.5562L36.1782 48.5564L36.3537 48.0882ZM39.8078 48.4635L39.6767 47.981L39.6763 47.9811L39.8078 48.4635ZM42.1984 47.845L42.0996 47.3548L42.099 47.3549L42.1984 47.845ZM42.8925 47.3055L43.0519 46.8316L43.0515 46.8315L42.8925 47.3055ZM42.285 47.2257L42.2706 47.7255L42.2712 47.7255L42.285 47.2257ZM39.7595 47.5203L39.7369 48.0198L39.7371 48.0198L39.7595 47.5203ZM39.6078 46.8577L39.8814 47.2763L39.8825 47.2755L39.6078 46.8577ZM40.5825 46.4429L40.4712 45.9555L40.4709 45.9556L40.5825 46.4429ZM40.6961 45.9863L40.5628 46.4682L40.564 46.4686L40.6961 45.9863ZM39.2816 46.0252L39.3968 46.5117L39.3974 46.5116L39.2816 46.0252ZM36.5495 45.9343L36.2242 46.314L36.2659 46.3498L36.3145 46.3756L36.5495 45.9343ZM35.4258 44.1313L35.9064 43.9936L35.9064 43.9936L35.4258 44.1313ZM35.3786 43.9898L34.8793 44.0155L34.8879 44.1841L34.997 44.3129L35.3786 43.9898ZM37.9668 39.4174L37.6551 39.0265L37.655 39.0265L37.9668 39.4174ZM44.3862 32.3215L43.9005 32.2027L43.9005 32.2028L44.3862 32.3215ZM42.9219 19.6705L43.4074 19.5506L43.4065 19.5472L42.9219 19.6705ZM42.727 16.8188L42.2314 16.7526L42.2314 16.7526L42.727 16.8188ZM43.3844 15.5736L43.6872 15.9715L43.6881 15.9707L43.3844 15.5736ZM45.5443 15.0613L45.6021 14.5647L45.6017 14.5646L45.5443 15.0613ZM46.0191 14.5161L45.5771 14.7499L45.5783 14.752L46.0191 14.5161ZM45.5032 13.1643C45.2096 12.939 44.7985 12.5398 44.5956 12.2608L43.7868 12.8488C44.0602 13.2249 44.5463 13.6905 44.8946 13.9577L45.5032 13.1643ZM44.5952 12.2601C44.1014 11.5833 43.0887 10.5221 41.5415 10.5004L41.5275 11.5003C42.5938 11.5152 43.3518 12.2525 43.7873 12.8495L44.5952 12.2601ZM41.5419 10.5004C39.2428 10.4663 36.0952 12.5106 35.8552 16.7539L36.8536 16.8104C37.0637 13.0944 39.7718 11.4743 41.5271 11.5003L41.5419 10.5004ZM35.8552 16.7538C35.7467 18.667 35.0733 21.0674 34.186 23.1563C33.7439 24.1972 33.2543 25.1472 32.766 25.9091C32.27 26.6829 31.8025 27.2192 31.418 27.4807L31.9802 28.3076C32.5345 27.9308 33.0902 27.2564 33.6079 26.4488C34.1331 25.6293 34.6477 24.6272 35.1065 23.5472C36.021 21.3941 36.7364 18.8768 36.8536 16.8105L35.8552 16.7538ZM31.4182 27.4805C30.9071 27.8276 30.3226 28.375 29.6882 28.9873C29.0419 29.6109 28.3253 30.3208 27.5185 31.0395C25.9049 32.4771 23.9781 33.9055 21.7124 34.6248L22.015 35.578C24.4795 34.7955 26.5316 33.258 28.1837 31.7862C29.0098 31.0502 29.7478 30.3195 30.3826 29.7069C31.0292 29.0829 31.5523 28.5983 31.98 28.3078L31.4182 27.4805ZM21.7125 34.6248C20.542 34.9962 19.2944 35.3361 18.0741 35.6633C16.8584 35.9894 15.6655 36.3041 14.6231 36.6215C13.5865 36.937 12.6629 37.2656 11.996 37.628C11.6631 37.8088 11.3646 38.0136 11.1469 38.2526C10.925 38.4963 10.7602 38.8078 10.7778 39.1779L11.7766 39.1305C11.7755 39.1068 11.7797 39.043 11.8863 38.9259C11.9972 38.8041 12.1867 38.6624 12.4734 38.5066C13.0454 38.1959 13.8861 37.8912 14.9143 37.5781C15.9366 37.2669 17.1088 36.9576 18.3331 36.6292C19.5529 36.3021 20.8204 35.957 22.015 35.578L21.7125 34.6248ZM10.7778 39.1779C10.7935 39.5092 10.9646 39.7651 11.1797 39.9454C11.3855 40.1178 11.6471 40.2367 11.9141 40.3234C12.4498 40.4974 13.1464 40.5852 13.8593 40.6269C15.2958 40.7108 16.9466 40.6144 17.8685 40.5432L17.7915 39.5462C16.8797 39.6166 15.2841 39.7084 13.9177 39.6286C13.2291 39.5883 12.635 39.5062 12.223 39.3723C12.0161 39.3051 11.8896 39.2356 11.8219 39.1789C11.7906 39.1526 11.7798 39.1357 11.7771 39.1309C11.7759 39.1287 11.776 39.1283 11.7763 39.1296C11.7767 39.1309 11.7767 39.1315 11.7766 39.1305L10.7778 39.1779ZM17.8689 40.5432C17.9115 40.5399 17.9451 40.5384 17.9705 40.538C17.983 40.5378 17.9927 40.5379 17.9997 40.5382C18.0069 40.5384 18.0101 40.5387 18.0101 40.5387C18.0099 40.5387 18.0085 40.5386 18.0059 40.5382C18.0034 40.5378 17.9992 40.5371 17.9937 40.536C17.984 40.534 17.9625 40.529 17.9344 40.5177C17.9063 40.5064 17.7123 40.4258 17.6577 40.1864C17.603 39.9463 17.7436 39.7894 17.7644 39.7667C17.785 39.7444 17.8024 39.7305 17.8103 39.7245C17.8149 39.721 17.8184 39.7186 17.8205 39.7171C17.8227 39.7157 17.8239 39.7149 17.8241 39.7148C17.8242 39.7148 17.8214 39.7164 17.8151 39.7197C17.8088 39.7229 17.8002 39.7272 17.7888 39.7324C17.7657 39.743 17.7348 39.756 17.6949 39.7713L18.0531 40.705C18.157 40.6651 18.2595 40.6203 18.3428 40.5698C18.3815 40.5463 18.4441 40.5051 18.501 40.4431C18.5425 40.398 18.6914 40.2212 18.6327 39.9641C18.5742 39.7076 18.3642 39.6127 18.3077 39.59C18.2299 39.5586 18.1558 39.5484 18.1108 39.5438C18.0138 39.534 17.9021 39.5376 17.7911 39.5462L17.8689 40.5432ZM17.6961 39.7709C16.6823 40.1568 14.7131 40.9338 12.9848 41.7732C12.123 42.1918 11.3033 42.6344 10.6887 43.0593C10.3825 43.271 10.1095 43.4904 9.90551 43.7127C9.71396 43.9214 9.51794 44.2026 9.5012 44.5356L10.4999 44.5858C10.4988 44.609 10.4974 44.5467 10.6424 44.3887C10.7749 44.2442 10.9803 44.0735 11.2574 43.8819C11.8093 43.5003 12.5754 43.0838 13.4217 42.6728C15.1096 41.8529 17.0459 41.0884 18.0519 40.7055L17.6961 39.7709ZM9.50119 44.5358C9.49134 44.7336 9.54281 44.9497 9.70623 45.1236C9.85785 45.2849 10.0521 45.3516 10.2114 45.3802C10.5172 45.435 10.9002 45.3843 11.2849 45.3034C12.0782 45.1366 13.1878 44.7684 14.4275 44.3598C16.9489 43.5288 20.0925 42.5031 22.7915 42.3578L22.7377 41.3593C19.8806 41.513 16.6048 42.5893 14.1145 43.41C12.8483 43.8273 11.8041 44.1724 11.0792 44.3248C10.7049 44.4035 10.4877 44.4138 10.3879 44.3959C10.3444 44.3881 10.3844 44.385 10.4349 44.4387C10.4971 44.5049 10.5005 44.5755 10.5 44.5856L9.50119 44.5358ZM22.7916 42.3578C25.6 42.2059 27.6855 42.0521 29.2785 42.2602C30.8247 42.4622 31.817 42.9939 32.506 44.1744L33.3696 43.6703C32.4814 42.1486 31.1651 41.4982 29.408 41.2687C27.6976 41.0452 25.4852 41.2107 22.7376 41.3593L22.7916 42.3578ZM32.9378 43.9223C32.5129 44.1859 32.513 44.186 32.513 44.186C32.513 44.1861 32.5131 44.1861 32.5131 44.1862C32.5132 44.1863 32.5132 44.1864 32.5133 44.1865C32.5134 44.1868 32.5136 44.187 32.5138 44.1873C32.5142 44.1879 32.5146 44.1886 32.5151 44.1894C32.5162 44.1911 32.5175 44.1932 32.5192 44.1959C32.5225 44.2011 32.527 44.2082 32.5328 44.217C32.5443 44.2348 32.5606 44.2596 32.5818 44.2906C32.624 44.3527 32.6854 44.4398 32.7651 44.5451C32.9243 44.7554 33.1585 45.0403 33.4612 45.3435L34.1689 44.6369C33.9044 44.3721 33.6999 44.1231 33.5623 43.9414C33.4937 43.8507 33.4421 43.7774 33.4085 43.728C33.3917 43.7033 33.3794 43.6846 33.3717 43.6728C33.3679 43.6669 33.3652 43.6627 33.3637 43.6603C33.3629 43.6592 33.3625 43.6584 33.3623 43.6582C33.3622 43.658 33.3622 43.658 33.3623 43.6581C33.3623 43.6582 33.3624 43.6582 33.3624 43.6584C33.3625 43.6584 33.3625 43.6585 33.3626 43.6586C33.3626 43.6586 33.3626 43.6586 33.3626 43.6587C33.3627 43.6587 33.3627 43.6588 32.9378 43.9223ZM33.8151 44.9902C33.4059 45.2776 33.4059 45.2776 33.4059 45.2776C33.4059 45.2776 33.4059 45.2776 33.4059 45.2776C33.4059 45.2776 33.4059 45.2776 33.4059 45.2776C33.4059 45.2776 33.406 45.2777 33.406 45.2778C33.4061 45.2779 33.4063 45.2781 33.4065 45.2784C33.4069 45.279 33.4076 45.28 33.4084 45.2812C33.4101 45.2836 33.4126 45.2871 33.4158 45.2917C33.4222 45.3008 33.4313 45.3139 33.4424 45.3297C33.4647 45.3615 33.4945 45.4043 33.5251 45.4484C33.5558 45.4927 33.5866 45.5374 33.611 45.5734C33.6419 45.6189 33.6478 45.6291 33.6423 45.6193L34.512 45.1258C34.484 45.0764 34.3991 44.9539 34.3468 44.8786C34.3153 44.8331 34.2847 44.7892 34.262 44.7567C34.2506 44.7405 34.2412 44.7271 34.2346 44.7177C34.2313 44.713 34.2288 44.7093 34.227 44.7068C34.2261 44.7055 34.2254 44.7045 34.225 44.7039C34.2247 44.7036 34.2245 44.7033 34.2244 44.7031C34.2244 44.703 34.2243 44.703 34.2243 44.7029C34.2243 44.7029 34.2243 44.7029 34.2242 44.7029C34.2242 44.7029 34.2242 44.7029 34.2242 44.7028C34.2242 44.7028 34.2242 44.7028 33.8151 44.9902ZM33.6137 45.5602L33.6705 45.7004L34.5973 45.3249L34.5406 45.1848L33.6137 45.5602ZM33.6705 45.7004C33.7601 45.9217 33.7684 46.1677 33.6939 46.3946L34.644 46.7065C34.7923 46.255 34.7758 45.7655 34.5973 45.3249L33.6705 45.7004ZM34.0879 46.0572C33.7457 46.1134 33.3412 46.1956 32.9896 46.3473L33.3857 47.2655C33.6191 47.1648 33.9224 47.0978 34.25 47.0439L34.0879 46.0572ZM32.9897 46.3472C32.8541 46.4057 32.7284 46.4834 32.6282 46.5843C32.5354 46.6778 32.4239 46.834 32.4161 47.0434C32.4067 47.2943 32.5516 47.5027 32.7578 47.5987C32.9326 47.6802 33.1112 47.6668 33.2392 47.6369L33.0115 46.6632C33.0132 46.6628 33.0283 46.6593 33.0546 46.6603C33.0801 46.6613 33.1258 46.667 33.1801 46.6923C33.2364 46.7186 33.3016 46.7662 33.3506 46.8436C33.4004 46.922 33.4181 47.0068 33.4154 47.0807C33.4103 47.2164 33.3418 47.2849 33.3377 47.289C33.3262 47.3006 33.335 47.2873 33.3856 47.2655L32.9897 46.3472ZM33.2366 47.6375C33.3138 47.6199 33.3425 47.6317 33.3234 47.6258C33.3127 47.6225 33.2654 47.6064 33.2148 47.5539C33.1565 47.4932 33.1135 47.4026 33.1135 47.3003H34.1135C34.1135 46.9106 33.804 46.7274 33.6178 46.6701C33.422 46.6098 33.2066 46.6187 33.0141 46.6626L33.2366 47.6375ZM33.1135 47.3003C33.1135 47.4057 33.1413 47.5226 33.2141 47.629C33.2853 47.733 33.3782 47.7962 33.4598 47.8329C33.6076 47.8994 33.7565 47.8974 33.8467 47.8901C34.0429 47.8742 34.2657 47.804 34.4735 47.7162L34.0844 46.795C33.9191 46.8648 33.8092 46.8898 33.7659 46.8933C33.7364 46.8957 33.7889 46.8844 33.8702 46.921C33.9185 46.9428 33.9857 46.9858 34.0394 47.0643C34.0948 47.1453 34.1135 47.2313 34.1135 47.3003H33.1135ZM34.4738 47.7161C34.6867 47.626 34.91 47.5417 35.0985 47.4901C35.193 47.4642 35.2665 47.4499 35.3181 47.4447C35.3802 47.4385 35.3678 47.4498 35.3196 47.4323L35.6613 46.4925C35.5002 46.434 35.3354 46.438 35.2183 46.4497C35.091 46.4625 34.9588 46.4915 34.8341 46.5257C34.5841 46.5942 34.3146 46.6976 34.0841 46.7951L34.4738 47.7161ZM35.3212 47.4329C35.3691 47.4502 35.4158 47.4834 35.4627 47.5359L36.2086 46.8698C36.0839 46.7302 35.905 46.5802 35.6597 46.4919L35.3212 47.4329ZM35.4645 47.5378C35.4296 47.4992 35.3517 47.3788 35.3915 47.2116C35.4244 47.0738 35.5128 47.0181 35.5142 47.0171C35.5239 47.0108 35.5115 47.0206 35.4635 47.0336C35.4192 47.0455 35.3585 47.0564 35.284 47.0619L35.3583 48.0592C35.5957 48.0414 35.8619 47.985 36.0626 47.8534C36.1617 47.7884 36.3127 47.6597 36.3643 47.4434C36.4229 47.1975 36.3197 46.9929 36.2068 46.8679L35.4645 47.5378ZM35.2836 47.062C34.9171 47.0895 34.441 47.1655 34.0276 47.3746L34.4789 48.2669C34.7209 48.1446 35.0451 48.0827 35.3587 48.0591L35.2836 47.062ZM34.0254 47.3757C33.8934 47.4433 33.7496 47.5439 33.6534 47.6949C33.5462 47.8632 33.4964 48.1117 33.6332 48.3451C33.7504 48.5452 33.945 48.6279 34.0806 48.6602C34.227 48.6951 34.3821 48.6923 34.5306 48.6666L34.3601 47.6812C34.3093 47.69 34.2956 47.6834 34.3123 47.6874C34.3182 47.6888 34.4221 47.7135 34.4961 47.8397C34.5358 47.9076 34.555 47.9878 34.5492 48.068C34.5436 48.1445 34.5171 48.2003 34.4968 48.2322C34.4607 48.2888 34.4329 48.2905 34.4812 48.2658L34.0254 47.3757ZM34.5284 48.667C34.844 48.6138 35.2117 48.5609 35.5394 48.5374C35.7033 48.5257 35.8488 48.522 35.9679 48.5277C36.0948 48.5337 36.1586 48.549 36.1777 48.5562L36.5297 47.6202C36.3657 47.5585 36.1798 47.5366 36.0152 47.5288C35.8428 47.5206 35.6548 47.5266 35.468 47.54C35.0942 47.5667 34.6908 47.6255 34.3623 47.6808L34.5284 48.667ZM36.1782 48.5564C36.5002 48.6771 37.0851 48.8653 37.7572 48.9798C38.4218 49.093 39.2183 49.1424 39.9393 48.9459L39.6763 47.9811C39.1581 48.1223 38.5277 48.0966 37.9251 47.994C37.3301 47.8927 36.8076 47.7244 36.5292 47.62L36.1782 48.5564ZM39.939 48.9459C40.8113 48.7088 41.6616 48.4641 42.2979 48.335L42.099 47.3549C41.4206 47.4926 40.5193 47.7519 39.6767 47.981L39.939 48.9459ZM42.2973 48.3351C42.5615 48.2818 42.8772 48.1478 43.0956 47.9999C43.1532 47.9608 43.2149 47.9136 43.2709 47.8582C43.3216 47.808 43.3969 47.7228 43.4427 47.6036C43.4955 47.466 43.5107 47.2679 43.3903 47.0834C43.2886 46.9274 43.1394 46.8611 43.0519 46.8316L42.7332 47.7795C42.7262 47.7771 42.6283 47.7455 42.5528 47.6298C42.4587 47.4855 42.4753 47.3333 42.5091 47.2451C42.5238 47.2068 42.5408 47.1812 42.55 47.1685C42.5597 47.1552 42.5666 47.1483 42.5675 47.1474C42.5684 47.1465 42.5592 47.1554 42.5347 47.172C42.4245 47.2467 42.232 47.3281 42.0996 47.3548L42.2973 48.3351ZM43.0515 46.8315C42.8584 46.7667 42.6079 46.7344 42.2987 46.7259L42.2712 47.7255C42.5411 47.7329 42.6776 47.7608 42.7335 47.7796L43.0515 46.8315ZM42.2994 46.7259C41.7429 46.7098 41.2469 46.8024 40.8305 46.8839C40.3936 46.9695 40.0767 47.034 39.7818 47.0208L39.7371 48.0198C40.1781 48.0396 40.6284 47.9425 41.0226 47.8653C41.4373 47.7841 41.8362 47.7129 42.2706 47.7255L42.2994 46.7259ZM39.7821 47.0208C39.7676 47.0202 39.7885 47.018 39.8215 47.0432C39.8553 47.0691 39.8829 47.1102 39.8934 47.1583C39.9163 47.2631 39.851 47.2961 39.8814 47.2763L39.3342 46.4392C39.026 46.6407 38.8342 46.9958 38.9165 47.372C39.0027 47.7662 39.3487 48.0022 39.7369 48.0198L39.7821 47.0208ZM39.8825 47.2755C40.0849 47.1424 40.355 47.008 40.6942 46.9303L40.4709 45.9556C39.998 46.0639 39.6188 46.2521 39.3331 46.44L39.8825 47.2755ZM40.6938 46.9304C40.8351 46.8981 40.9738 46.8459 41.0938 46.7682C41.2055 46.6958 41.3493 46.5689 41.4114 46.3695C41.485 46.1327 41.4101 45.9033 41.2622 45.7468C41.1351 45.6122 40.9695 45.5428 40.8282 45.5041L40.564 46.4686C40.618 46.4833 40.5853 46.4865 40.5353 46.4335C40.5065 46.403 40.4709 46.3522 40.4521 46.28C40.4328 46.2059 40.4376 46.1332 40.4565 46.0724C40.4744 46.0149 40.5018 45.9772 40.5189 45.9576C40.5362 45.9379 40.5491 45.9296 40.5499 45.929C40.5506 45.9286 40.5275 45.9427 40.4712 45.9555L40.6938 46.9304ZM40.8295 45.5044C40.4175 45.3904 39.8743 45.3702 39.1659 45.5388L39.3974 46.5116C39.9759 46.3739 40.3444 46.4078 40.5628 46.4682L40.8295 45.5044ZM39.1664 45.5386C38.0784 45.7963 37.2799 45.7568 36.7845 45.4929L36.3145 46.3756C37.1351 46.8126 38.232 46.7876 39.3968 46.5117L39.1664 45.5386ZM36.8748 45.5546C36.4094 45.1559 36.0828 44.6093 35.9064 43.9936L34.9451 44.269C35.1676 45.0455 35.5898 45.7705 36.2242 46.314L36.8748 45.5546ZM35.9064 43.9936C35.8944 43.9516 35.8822 43.9108 35.8711 43.877C35.8657 43.8607 35.8585 43.8398 35.85 43.8186C35.8459 43.8082 35.8391 43.7919 35.8299 43.7732C35.8248 43.7631 35.802 43.7161 35.7602 43.6667L34.997 44.3129C34.9846 44.2982 34.975 44.2852 34.9681 44.2752C34.9611 44.2651 34.9555 44.2561 34.9513 44.2491C34.943 44.2352 34.9371 44.2238 34.9336 44.2168C34.9268 44.203 34.9227 44.1928 34.9215 44.1899C34.919 44.1835 34.9188 44.1824 34.9215 44.1905C34.9264 44.2054 34.9343 44.2312 34.9451 44.269L35.9064 43.9936ZM35.8779 43.964C35.8243 42.9249 36.3704 41.3305 38.2786 39.8083L37.655 39.0265C35.5575 40.6997 34.8053 42.5819 34.8793 44.0155L35.8779 43.964ZM38.2785 39.8083C39.711 38.6662 41.1743 37.6852 42.3203 36.615C43.5008 35.5126 44.4297 34.2491 44.8719 32.4403L43.9005 32.2028C43.5167 33.7726 42.7189 34.8745 41.6378 35.8841C40.5221 36.926 39.1887 37.8036 37.6551 39.0265L38.2785 39.8083ZM44.8719 32.4403C45.0981 31.5153 45.1037 30.2364 45.0045 28.8832C44.9043 27.5166 44.6927 26.0235 44.4566 24.6449C44.2203 23.265 43.9582 21.9925 43.7553 21.0653C43.6538 20.6015 43.567 20.2236 43.5055 19.9614C43.4748 19.8302 43.4503 19.7279 43.4335 19.6583C43.4251 19.6234 43.4186 19.5967 43.4142 19.5786C43.412 19.5696 43.4103 19.5627 43.4092 19.558C43.4086 19.5556 43.4082 19.5538 43.4079 19.5526C43.4077 19.552 43.4076 19.5515 43.4075 19.5512C43.4075 19.551 43.4074 19.5509 43.4074 19.5508C43.4074 19.5507 43.4074 19.5506 42.9219 19.6705C42.4365 19.7903 42.4365 19.7903 42.4365 19.7904C42.4366 19.7904 42.4366 19.7905 42.4366 19.7906C42.4367 19.7908 42.4367 19.7912 42.4369 19.7917C42.4371 19.7927 42.4375 19.7943 42.438 19.7964C42.4391 19.8007 42.4407 19.8071 42.4428 19.8157C42.447 19.8329 42.4532 19.8587 42.4614 19.8926C42.4777 19.9604 42.5017 20.0607 42.5319 20.1897C42.5925 20.4477 42.6781 20.8207 42.7784 21.2791C42.9791 22.1962 43.238 23.4531 43.471 24.8137C43.7042 26.1757 43.9103 27.6341 44.0072 28.9563C44.1051 30.2919 44.0873 31.4388 43.9005 32.2027L44.8719 32.4403ZM42.9219 19.6705C43.4065 19.5472 43.4065 19.5473 43.4066 19.5474C43.4066 19.5474 43.4066 19.5474 43.4066 19.5475C43.4066 19.5475 43.4066 19.5476 43.4066 19.5476C43.4066 19.5476 43.4066 19.5476 43.4066 19.5474C43.4065 19.5471 43.4063 19.5465 43.4061 19.5455C43.4056 19.5435 43.4048 19.5402 43.4036 19.5355C43.4014 19.5261 43.3978 19.5114 43.3933 19.4918C43.3843 19.4525 43.3712 19.3935 43.3559 19.3179C43.3252 19.1665 43.2857 18.9497 43.2517 18.692C43.183 18.1714 43.1395 17.5073 43.2226 16.8849L42.2314 16.7526C42.1319 17.4978 42.186 18.2595 42.2603 18.8229C42.2979 19.1072 42.3414 19.3469 42.3758 19.5165C42.393 19.6015 42.408 19.6691 42.4188 19.7163C42.4243 19.7399 42.4287 19.7584 42.4319 19.7714C42.4334 19.7779 42.4347 19.7831 42.4356 19.7868C42.4361 19.7887 42.4365 19.7902 42.4368 19.7913C42.4369 19.7919 42.437 19.7924 42.4371 19.7928C42.4372 19.793 42.4372 19.7932 42.4373 19.7933C42.4373 19.7934 42.4373 19.7935 42.4373 19.7935C42.4374 19.7936 42.4374 19.7937 42.9219 19.6705ZM43.2226 16.8849C43.24 16.754 43.3018 16.5585 43.4006 16.3646C43.5023 16.1649 43.6117 16.0289 43.6872 15.9715L43.0817 15.1757C42.8354 15.363 42.6428 15.6492 42.5096 15.9107C42.3734 16.1779 42.2674 16.4827 42.2314 16.7526L43.2226 16.8849ZM43.6881 15.9707C44.0073 15.7267 44.5743 15.4524 45.4868 15.558L45.6017 14.5646C44.4122 14.4269 43.5895 14.7873 43.0807 15.1764L43.6881 15.9707ZM45.4864 15.5579C45.7755 15.5916 46.1268 15.538 46.3675 15.2832C46.6474 14.9869 46.6263 14.5909 46.46 14.2801L45.5783 14.752C45.5934 14.7803 45.5804 14.7704 45.5828 14.7291C45.5855 14.6819 45.6068 14.6323 45.6406 14.5965C45.6702 14.5652 45.693 14.561 45.6849 14.5632C45.6773 14.5652 45.6503 14.5703 45.6021 14.5647L45.4864 15.5579ZM46.4611 14.2823C46.2768 13.9338 45.9778 13.5272 45.5026 13.1638L44.8952 13.9582C45.2423 14.2236 45.452 14.5132 45.5771 14.7498L46.4611 14.2823Z" fill="black" mask="url(#path-2-inside-1_128_106)" />
	<circle cx="41.5" cy="13.5" r="0.5" stroke="black" stroke-width="0.3" />
	<defs>
		<linearGradient id="paint0_linear_128_106" x1="30" y1="0" x2="30" y2="60" gradientUnits="userSpaceOnUse">
			<stop stop-color="#313131" />
			<stop offset="1" stop-color="#141514" />
		</linearGradient>
	</defs>
</svg>
