<svg width="60" height="60" viewBox="0 0 60 60" fill="none" xmlns="http://www.w3.org/2000/svg">
<g id="Services ICON">
<rect width="60" height="60" rx="13.28" fill="url(#paint0_linear_129_146)"/>
<g id="Subtract">
<mask id="path-2-inside-1_129_146" fill="white">
<path fill-rule="evenodd" clip-rule="evenodd" d="M54 30C54 43.2548 43.2548 54 30 54C16.7452 54 6 43.2548 6 30C6 16.7452 16.7452 6 30 6C43.2548 6 54 16.7452 54 30ZM31 30C31 30.5523 30.5523 31 30 31C29.4477 31 29 30.5523 29 30C29 29.4477 29.4477 29 30 29C30.5523 29 31 29.4477 31 30ZM25.8669 35.5429C25.9557 35.6078 26.0798 35.5851 26.1428 35.495L27.5375 33.4976C27.6011 33.4067 27.5781 33.2818 27.4898 33.2146C26.8415 32.7208 26.3492 32.0515 26.0755 31.2878C25.7794 30.4613 25.7545 29.5666 26.0045 28.7323C26.2544 27.8979 26.7664 27.1667 27.4668 26.6437C28.1672 26.1207 29.0201 25.8326 29.9031 25.821C30.786 25.8094 31.6536 26.0747 32.3813 26.579C33.109 27.0832 33.6594 27.8004 33.9535 28.6276C34.2476 29.4548 34.2703 30.3494 34.0182 31.1832C33.7857 31.9522 33.3306 32.633 32.7105 33.1431C32.6244 33.214 32.6062 33.3406 32.674 33.4292L34.177 35.3925C34.2434 35.4793 34.3675 35.4969 34.4534 35.4292C35.5578 34.5588 36.3675 33.3742 36.774 32.0296C37.1994 30.6223 37.1612 29.1121 36.6648 27.7157C36.1683 26.3194 35.2392 25.1088 34.0109 24.2577C32.7825 23.4065 31.318 22.9586 29.8275 22.9783C28.3371 22.9979 26.8974 23.484 25.7151 24.3669C24.5328 25.2498 23.6686 26.4841 23.2467 27.8925C22.8248 29.3009 22.8668 30.811 23.3666 32.2062C23.8443 33.5394 24.7166 34.7021 25.8669 35.5429ZM23.0747 40.7753C23.0161 40.8686 22.8931 40.8971 22.8004 40.8376C20.4235 39.3118 18.5864 37.0843 17.5566 34.4748C16.5026 31.804 16.3514 28.8779 17.1258 26.138C17.9002 23.3982 19.5582 20.9933 21.8496 19.2863C24.141 17.5792 26.9415 16.6627 29.8284 16.675C32.7154 16.6872 35.5321 17.6276 37.8535 19.3543C40.175 21.0809 41.8752 23.5 42.6976 26.2467C43.52 28.9933 43.42 31.9183 42.4126 34.5804C41.4284 37.1814 39.6302 39.3934 37.2798 40.8991C37.1879 40.958 37.0659 40.9303 37.0069 40.8384L36.4873 40.0287C36.427 39.9347 36.4555 39.8096 36.5494 39.7492C38.6477 38.3982 40.2532 36.4189 41.1333 34.0931C42.0373 31.7042 42.1271 29.0792 41.389 26.6144C40.651 24.1496 39.1252 21.9786 37.0419 20.4292C34.9587 18.8797 32.431 18.0358 29.8402 18.0248C27.2495 18.0137 24.7364 18.8362 22.6801 20.3681C20.6238 21.9 19.1359 24.0582 18.4409 26.5169C17.746 28.9756 17.8817 31.6015 18.8275 33.9983C19.749 36.3333 21.3907 38.3274 23.5147 39.6963C23.6078 39.7563 23.6365 39.8801 23.5776 39.9739L23.0747 40.7753ZM19.4116 46.6525C19.5046 46.7116 19.6276 46.6831 19.6862 46.5898L20.5445 45.2223C20.6034 45.1284 20.5746 45.0046 20.4811 44.9451C17.2238 42.8714 14.7065 39.8304 13.2991 36.2641C11.8673 32.6359 11.6619 28.661 12.7139 24.9391C13.7659 21.2171 16.0182 17.9502 19.1309 15.6313C22.2437 13.3124 26.0479 12.0674 29.9697 12.084C33.8914 12.1007 37.7177 13.3782 40.8713 15.7237C44.0248 18.0692 46.3345 21.3555 47.4517 25.0867C48.5689 28.8178 48.433 32.7913 47.0646 36.4076C45.72 39.9608 43.2572 42.9796 40.0378 45.0257C39.9435 45.0856 39.915 45.2107 39.9754 45.3047L40.8602 46.6837C40.9192 46.7756 41.0411 46.8032 41.1334 46.7448C44.7288 44.4672 47.4792 41.1008 48.9791 37.1369C50.5023 33.1118 50.6535 28.6892 49.41 24.5363C48.1665 20.3835 45.5958 16.7257 42.0858 14.1151C38.5758 11.5045 34.317 10.0826 29.952 10.064C25.587 10.0455 21.3527 11.4313 17.8881 14.0123C14.4236 16.5933 11.9167 20.2295 10.7458 24.3721C9.57485 28.5147 9.80348 32.9389 11.3971 36.9772C12.9666 40.9541 15.7761 44.3442 19.4116 46.6525Z"/>
</mask>
<path fill-rule="evenodd" clip-rule="evenodd" d="M54 30C54 43.2548 43.2548 54 30 54C16.7452 54 6 43.2548 6 30C6 16.7452 16.7452 6 30 6C43.2548 6 54 16.7452 54 30ZM31 30C31 30.5523 30.5523 31 30 31C29.4477 31 29 30.5523 29 30C29 29.4477 29.4477 29 30 29C30.5523 29 31 29.4477 31 30ZM25.8669 35.5429C25.9557 35.6078 26.0798 35.5851 26.1428 35.495L27.5375 33.4976C27.6011 33.4067 27.5781 33.2818 27.4898 33.2146C26.8415 32.7208 26.3492 32.0515 26.0755 31.2878C25.7794 30.4613 25.7545 29.5666 26.0045 28.7323C26.2544 27.8979 26.7664 27.1667 27.4668 26.6437C28.1672 26.1207 29.0201 25.8326 29.9031 25.821C30.786 25.8094 31.6536 26.0747 32.3813 26.579C33.109 27.0832 33.6594 27.8004 33.9535 28.6276C34.2476 29.4548 34.2703 30.3494 34.0182 31.1832C33.7857 31.9522 33.3306 32.633 32.7105 33.1431C32.6244 33.214 32.6062 33.3406 32.674 33.4292L34.177 35.3925C34.2434 35.4793 34.3675 35.4969 34.4534 35.4292C35.5578 34.5588 36.3675 33.3742 36.774 32.0296C37.1994 30.6223 37.1612 29.1121 36.6648 27.7157C36.1683 26.3194 35.2392 25.1088 34.0109 24.2577C32.7825 23.4065 31.318 22.9586 29.8275 22.9783C28.3371 22.9979 26.8974 23.484 25.7151 24.3669C24.5328 25.2498 23.6686 26.4841 23.2467 27.8925C22.8248 29.3009 22.8668 30.811 23.3666 32.2062C23.8443 33.5394 24.7166 34.7021 25.8669 35.5429ZM23.0747 40.7753C23.0161 40.8686 22.8931 40.8971 22.8004 40.8376C20.4235 39.3118 18.5864 37.0843 17.5566 34.4748C16.5026 31.804 16.3514 28.8779 17.1258 26.138C17.9002 23.3982 19.5582 20.9933 21.8496 19.2863C24.141 17.5792 26.9415 16.6627 29.8284 16.675C32.7154 16.6872 35.5321 17.6276 37.8535 19.3543C40.175 21.0809 41.8752 23.5 42.6976 26.2467C43.52 28.9933 43.42 31.9183 42.4126 34.5804C41.4284 37.1814 39.6302 39.3934 37.2798 40.8991C37.1879 40.958 37.0659 40.9303 37.0069 40.8384L36.4873 40.0287C36.427 39.9347 36.4555 39.8096 36.5494 39.7492C38.6477 38.3982 40.2532 36.4189 41.1333 34.0931C42.0373 31.7042 42.1271 29.0792 41.389 26.6144C40.651 24.1496 39.1252 21.9786 37.0419 20.4292C34.9587 18.8797 32.431 18.0358 29.8402 18.0248C27.2495 18.0137 24.7364 18.8362 22.6801 20.3681C20.6238 21.9 19.1359 24.0582 18.4409 26.5169C17.746 28.9756 17.8817 31.6015 18.8275 33.9983C19.749 36.3333 21.3907 38.3274 23.5147 39.6963C23.6078 39.7563 23.6365 39.8801 23.5776 39.9739L23.0747 40.7753ZM19.4116 46.6525C19.5046 46.7116 19.6276 46.6831 19.6862 46.5898L20.5445 45.2223C20.6034 45.1284 20.5746 45.0046 20.4811 44.9451C17.2238 42.8714 14.7065 39.8304 13.2991 36.2641C11.8673 32.6359 11.6619 28.661 12.7139 24.9391C13.7659 21.2171 16.0182 17.9502 19.1309 15.6313C22.2437 13.3124 26.0479 12.0674 29.9697 12.084C33.8914 12.1007 37.7177 13.3782 40.8713 15.7237C44.0248 18.0692 46.3345 21.3555 47.4517 25.0867C48.5689 28.8178 48.433 32.7913 47.0646 36.4076C45.72 39.9608 43.2572 42.9796 40.0378 45.0257C39.9435 45.0856 39.915 45.2107 39.9754 45.3047L40.8602 46.6837C40.9192 46.7756 41.0411 46.8032 41.1334 46.7448C44.7288 44.4672 47.4792 41.1008 48.9791 37.1369C50.5023 33.1118 50.6535 28.6892 49.41 24.5363C48.1665 20.3835 45.5958 16.7257 42.0858 14.1151C38.5758 11.5045 34.317 10.0826 29.952 10.064C25.587 10.0455 21.3527 11.4313 17.8881 14.0123C14.4236 16.5933 11.9167 20.2295 10.7458 24.3721C9.57485 28.5147 9.80348 32.9389 11.3971 36.9772C12.9666 40.9541 15.7761 44.3442 19.4116 46.6525Z" fill="url(#paint1_linear_129_146)"/>
<path d="M26.1428 35.495L25.5689 35.0942L25.5689 35.0942L26.1428 35.495ZM25.8669 35.5429L26.28 34.9777L25.8669 35.5429ZM27.5375 33.4976L28.1115 33.8984L28.1115 33.8984L27.5375 33.4976ZM27.4898 33.2146L27.0657 33.7715L27.0657 33.7715L27.4898 33.2146ZM26.0755 31.2878L26.7345 31.0517L26.0755 31.2878ZM27.4668 26.6437L27.048 26.0828L27.4668 26.6437ZM29.9031 25.821L29.9123 26.521L29.9031 25.821ZM32.3813 26.579L31.9826 27.1543L31.9826 27.1543L32.3813 26.579ZM33.9535 28.6276L34.6131 28.3931L34.6131 28.3931L33.9535 28.6276ZM34.0182 31.1832L33.3482 30.9806L34.0182 31.1832ZM32.7105 33.1431L33.1553 33.6837L33.1553 33.6837L32.7105 33.1431ZM32.674 33.4292L33.2299 33.0037L33.2299 33.0037L32.674 33.4292ZM34.177 35.3925L34.7328 34.967L34.7328 34.967L34.177 35.3925ZM34.4534 35.4292L34.8867 35.979L34.8867 35.979L34.4534 35.4292ZM36.774 32.0296L36.104 31.8271L36.774 32.0296ZM36.6648 27.7157L37.3243 27.4812V27.4812L36.6648 27.7157ZM34.0109 24.2577L34.4095 23.6823L34.0109 24.2577ZM29.8275 22.9783L29.8368 23.6782L29.8275 22.9783ZM25.7151 24.3669L26.1339 24.9278L25.7151 24.3669ZM23.2467 27.8925L23.9173 28.0934L23.2467 27.8925ZM23.3666 32.2062L22.7077 32.4423V32.4423L23.3666 32.2062ZM22.8004 40.8376L22.4223 41.4267L22.4223 41.4267L22.8004 40.8376ZM23.0747 40.7753L22.4818 40.4032V40.4032L23.0747 40.7753ZM17.5566 34.4748L18.2077 34.2178L17.5566 34.4748ZM17.1258 26.138L16.4522 25.9476L17.1258 26.138ZM29.8284 16.675L29.8314 15.975L29.8284 16.675ZM42.4126 34.5804L41.758 34.3327L42.4126 34.5804ZM37.2798 40.8991L36.9022 40.3097L36.9022 40.3097L37.2798 40.8991ZM37.0069 40.8384L37.5961 40.4604L37.5961 40.4603L37.0069 40.8384ZM36.4873 40.0287L37.0765 39.6506L37.0765 39.6506L36.4873 40.0287ZM36.5494 39.7492L36.9283 40.3377L36.9284 40.3377L36.5494 39.7492ZM41.1333 34.0931L41.788 34.3408L41.1333 34.0931ZM37.0419 20.4292L36.6242 20.9908L37.0419 20.4292ZM29.8402 18.0248L29.8373 18.7247L29.8402 18.0248ZM22.6801 20.3681L23.0983 20.9295L22.6801 20.3681ZM18.4409 26.5169L17.7673 26.3265L18.4409 26.5169ZM18.8275 33.9983L19.4787 33.7414H19.4787L18.8275 33.9983ZM23.5147 39.6963L23.8939 39.1079L23.5147 39.6963ZM23.5776 39.9739L22.9847 39.6018H22.9847L23.5776 39.9739ZM19.6862 46.5898L20.2791 46.962H20.2791L19.6862 46.5898ZM19.4116 46.6525L19.0364 47.2435L19.0364 47.2435L19.4116 46.6525ZM20.5445 45.2223L19.9516 44.8502H19.9516L20.5445 45.2223ZM20.4811 44.9451L20.8571 44.3546L20.4811 44.9451ZM13.2991 36.2641L13.9502 36.0071L13.2991 36.2641ZM12.7139 24.9391L12.0402 24.7487L12.7139 24.9391ZM19.1309 15.6313L19.5491 16.1927L19.1309 15.6313ZM29.9697 12.084L29.9726 11.3841L29.9697 12.084ZM40.8713 15.7237L41.289 15.162L40.8713 15.7237ZM47.4517 25.0867L48.1223 24.8859L47.4517 25.0867ZM47.0646 36.4076L47.7193 36.6553L47.0646 36.4076ZM40.0378 45.0257L40.4133 45.6165L40.4133 45.6165L40.0378 45.0257ZM39.9754 45.3047L39.3862 45.6828L39.9754 45.3047ZM40.8602 46.6837L40.271 47.0617L40.2711 47.0617L40.8602 46.6837ZM41.1334 46.7448L41.508 47.3361H41.508L41.1334 46.7448ZM48.9791 37.1369L49.6338 37.3846L48.9791 37.1369ZM49.41 24.5363L48.7394 24.7371L49.41 24.5363ZM42.0858 14.1151L41.668 14.6768L42.0858 14.1151ZM29.952 10.064L29.949 10.764L29.952 10.064ZM17.8881 14.0123L18.3063 14.5736L17.8881 14.0123ZM10.7458 24.3721L11.4194 24.5625H11.4194L10.7458 24.3721ZM11.3971 36.9772L10.746 37.2341L11.3971 36.9772ZM30 54.7C43.6414 54.7 54.7 43.6414 54.7 30H53.3C53.3 42.8682 42.8682 53.3 30 53.3V54.7ZM5.3 30C5.3 43.6414 16.3586 54.7 30 54.7V53.3C17.1318 53.3 6.7 42.8682 6.7 30H5.3ZM30 5.3C16.3586 5.3 5.3 16.3586 5.3 30H6.7C6.7 17.1318 17.1318 6.7 30 6.7V5.3ZM54.7 30C54.7 16.3586 43.6414 5.3 30 5.3V6.7C42.8682 6.7 53.3 17.1318 53.3 30H54.7ZM30 31.7C30.9389 31.7 31.7 30.9389 31.7 30H30.3C30.3 30.1657 30.1657 30.3 30 30.3V31.7ZM28.3 30C28.3 30.9389 29.0611 31.7 30 31.7V30.3C29.8343 30.3 29.7 30.1657 29.7 30H28.3ZM30 28.3C29.0611 28.3 28.3 29.0611 28.3 30H29.7C29.7 29.8343 29.8343 29.7 30 29.7V28.3ZM31.7 30C31.7 29.0611 30.9389 28.3 30 28.3V29.7C30.1657 29.7 30.3 29.8343 30.3 30H31.7ZM25.5689 35.0942C25.7234 34.8729 26.0417 34.8036 26.28 34.9777L25.4538 36.108C25.8696 36.4119 26.4363 36.2973 26.7167 35.8957L25.5689 35.0942ZM26.9636 33.0968L25.5689 35.0942L26.7167 35.8957L28.1115 33.8984L26.9636 33.0968ZM27.0657 33.7715C26.8724 33.6242 26.8002 33.3309 26.9636 33.0968L28.1115 33.8984C28.4019 33.4824 28.2838 32.9393 27.9139 32.6576L27.0657 33.7715ZM25.4165 31.5239C25.7363 32.4164 26.3108 33.1966 27.0657 33.7715L27.9139 32.6576C27.3721 32.2451 26.962 31.6867 26.7345 31.0517L25.4165 31.5239ZM25.3339 28.5314C25.0407 29.5101 25.0704 30.5579 25.4165 31.5239L26.7345 31.0517C26.4883 30.3646 26.4683 29.6231 26.675 28.9332L25.3339 28.5314ZM27.048 26.0828C26.2276 26.6954 25.6272 27.5526 25.3339 28.5314L26.675 28.9332C26.8817 28.2433 27.3051 27.6381 27.8856 27.2046L27.048 26.0828ZM29.8938 25.1211C28.8647 25.1346 27.8681 25.4704 27.048 26.0828L27.8856 27.2046C28.4663 26.7709 29.1755 26.5307 29.9123 26.521L29.8938 25.1211ZM32.78 26.0036C31.9329 25.4166 30.9228 25.1075 29.8938 25.1211L29.9123 26.521C30.6492 26.5113 31.3743 26.7328 31.9826 27.1543L32.78 26.0036ZM34.6131 28.3931C34.2694 27.4265 33.6271 26.5906 32.78 26.0036L31.9826 27.1543C32.5909 27.5758 33.0494 28.1743 33.294 28.8621L34.6131 28.3931ZM34.6883 31.3857C34.9839 30.4077 34.9568 29.3599 34.6131 28.3931L33.294 28.8621C33.5384 29.5496 33.5566 30.2912 33.3482 30.9806L34.6883 31.3857ZM33.1553 33.6837C33.8816 33.086 34.4156 32.2879 34.6883 31.3857L33.3482 30.9806C33.1559 31.6166 32.7795 32.1799 32.2658 32.6026L33.1553 33.6837ZM33.2299 33.0037C33.4046 33.232 33.3429 33.5293 33.1553 33.6837L32.2658 32.6026C31.9058 32.8988 31.8078 33.4492 32.1182 33.8547L33.2299 33.0037ZM34.7328 34.967L33.2299 33.0037L32.1182 33.8547L33.6211 35.818L34.7328 34.967ZM34.0201 34.8794C34.251 34.6975 34.5698 34.7541 34.7328 34.967L33.6211 35.818C33.917 36.2045 34.484 36.2963 34.8867 35.979L34.0201 34.8794ZM36.104 31.8271C35.7392 33.0337 35.0124 34.0974 34.0201 34.8794L34.8867 35.979C36.1032 35.0202 36.9959 33.7146 37.4441 32.2322L36.104 31.8271ZM36.0052 27.9502C36.452 29.2069 36.4858 30.564 36.104 31.8271L37.4441 32.2322C37.9131 30.6805 37.8704 29.0172 37.3243 27.4812L36.0052 27.9502ZM33.6122 24.833C34.7211 25.6014 35.5583 26.6933 36.0052 27.9502L37.3243 27.4812C36.7783 25.9455 35.7573 24.6162 34.4095 23.6823L33.6122 24.833ZM29.8368 23.6782C31.1812 23.6605 32.5032 24.0646 33.6122 24.833L34.4095 23.6823C33.0618 22.7484 31.4548 22.2568 29.8183 22.2783L29.8368 23.6782ZM26.1339 24.9278C27.1965 24.1343 28.4925 23.6959 29.8368 23.6782L29.8183 22.2783C28.1817 22.2999 26.5983 22.8338 25.2963 23.8061L26.1339 24.9278ZM23.9173 28.0934C24.2959 26.8294 25.0715 25.7212 26.1339 24.9278L25.2963 23.8061C23.9941 24.7785 23.0414 26.1387 22.5761 27.6916L23.9173 28.0934ZM24.0256 31.9701C23.5757 30.7144 23.5386 29.3574 23.9173 28.0934L22.5761 27.6916C22.111 29.2444 22.1578 30.9077 22.7077 32.4423L24.0256 31.9701ZM26.28 34.9777C25.2416 34.2188 24.4556 33.1702 24.0256 31.9701L22.7077 32.4423C23.233 33.9086 24.1916 35.1854 25.4538 36.108L26.28 34.9777ZM22.4223 41.4267C22.8481 41.7 23.4055 41.565 23.6676 41.1474L22.4818 40.4032C22.6268 40.1722 22.9381 40.0942 23.1786 40.2486L22.4223 41.4267ZM16.9055 34.7318C17.9897 37.4792 19.9229 39.8223 22.4223 41.4267L23.1786 40.2486C20.9241 38.8013 19.1832 36.6895 18.2077 34.2178L16.9055 34.7318ZM16.4522 25.9476C15.6357 28.8364 15.7957 31.9196 16.9055 34.7318L18.2077 34.2178C17.2095 31.6883 17.0671 28.9193 17.7994 26.3284L16.4522 25.9476ZM21.4314 18.7249C19.0168 20.5237 17.2687 23.0588 16.4522 25.9476L17.7994 26.3284C18.5317 23.7376 20.0996 21.4629 22.2678 19.8476L21.4314 18.7249ZM29.8314 15.975C26.7945 15.9621 23.8459 16.9262 21.4314 18.7249L22.2678 19.8476C24.4362 18.2322 27.0885 17.3633 29.8255 17.3749L29.8314 15.975ZM38.2713 18.7926C35.8302 16.9769 32.8682 15.9879 29.8314 15.975L29.8255 17.3749C32.5625 17.3866 35.234 18.2783 37.4358 19.9159L38.2713 18.7926ZM43.3682 26.0459C42.5021 23.1535 40.7125 20.6083 38.2713 18.7926L37.4358 19.9159C39.6375 21.5535 41.2483 23.8466 42.027 26.4475L43.3682 26.0459ZM43.0673 34.8282C44.1295 32.0212 44.2343 28.9385 43.3682 26.0459L42.027 26.4475C42.8057 29.048 42.7105 31.8155 41.758 34.3327L43.0673 34.8282ZM37.6574 41.4885C40.1338 39.9021 42.0296 37.5706 43.0673 34.8282L41.758 34.3327C40.8273 36.7921 39.1267 38.8846 36.9022 40.3097L37.6574 41.4885ZM36.4178 41.2164C36.6819 41.628 37.2346 41.7594 37.6575 41.4885L36.9022 40.3097C37.1412 40.1566 37.45 40.2327 37.5961 40.4604L36.4178 41.2164ZM35.8982 40.4067L36.4178 41.2164L37.5961 40.4603L37.0765 39.6506L35.8982 40.4067ZM36.1705 39.1606C35.7586 39.4257 35.625 39.981 35.8982 40.4067L37.0765 39.6506C37.229 39.8884 37.1524 40.1935 36.9283 40.3377L36.1705 39.1606ZM40.4786 33.8453C39.6518 36.0302 38.1435 37.8903 36.1705 39.1606L36.9284 40.3377C39.1519 38.9061 40.8545 36.8077 41.788 34.3408L40.4786 33.8453ZM40.7184 26.8152C41.4127 29.134 41.3278 31.6013 40.4786 33.8453L41.788 34.3408C42.7468 31.807 42.8414 29.0245 42.0596 26.4136L40.7184 26.8152ZM36.6242 20.9908C38.5877 22.4512 40.0241 24.4962 40.7184 26.8152L42.0596 26.4136C41.2779 23.803 39.6627 21.506 37.4597 19.8675L36.6242 20.9908ZM29.8373 18.7247C32.2782 18.7351 34.6606 19.5304 36.6242 20.9908L37.4597 19.8675C35.2568 18.229 32.5838 17.3364 29.8432 17.3248L29.8373 18.7247ZM23.0983 20.9295C25.0316 19.4892 27.3966 18.7144 29.8373 18.7247L29.8432 17.3248C27.1025 17.3131 24.4412 18.1833 22.2619 19.8068L23.0983 20.9295ZM19.1145 26.7073C19.7674 24.3975 21.1652 22.3696 23.0983 20.9295L22.2619 19.8068C20.0824 21.4304 18.5044 23.7188 17.7673 26.3265L19.1145 26.7073ZM19.4787 33.7414C18.5886 31.4859 18.4617 29.0171 19.1145 26.7073L17.7673 26.3265C17.0303 28.9341 17.1748 31.7172 18.1764 34.2553L19.4787 33.7414ZM23.8939 39.1079C21.8918 37.8176 20.3459 35.9389 19.4787 33.7414L18.1764 34.2553C19.1521 36.7277 20.8895 38.8372 23.1354 40.2847L23.8939 39.1079ZM24.1705 40.346C24.4373 39.9211 24.3028 39.3715 23.8939 39.1079L23.1354 40.2847C22.9128 40.1412 22.8358 39.839 22.9847 39.6018L24.1705 40.346ZM23.6676 41.1474L24.1705 40.346L22.9847 39.6018L22.4818 40.4032L23.6676 41.1474ZM19.0933 46.2177C19.2389 45.9857 19.5488 45.9105 19.7869 46.0616L19.0364 47.2435C19.4604 47.5126 20.0164 47.3805 20.2791 46.962L19.0933 46.2177ZM19.9516 44.8502L19.0933 46.2177L20.2791 46.962L21.1374 45.5944L19.9516 44.8502ZM20.1052 45.5356C19.8786 45.3913 19.8031 45.0868 19.9516 44.8502L21.1374 45.5944C21.4037 45.1701 21.2707 44.6179 20.8571 44.3546L20.1052 45.5356ZM12.648 36.5211C14.1101 40.2261 16.7244 43.3833 20.1052 45.5356L20.8571 44.3546C17.7232 42.3596 15.3029 39.4348 13.9502 36.0071L12.648 36.5211ZM12.0402 24.7487C10.9462 28.6195 11.1604 32.7516 12.648 36.5211L13.9502 36.0071C12.5742 32.5203 12.3776 28.7025 13.3875 25.1295L12.0402 24.7487ZM18.7127 15.07C15.4768 17.4807 13.1344 20.8778 12.0402 24.7487L13.3875 25.1295C14.3973 21.5565 16.5596 18.4198 19.5491 16.1927L18.7127 15.07ZM29.9726 11.3841C25.9009 11.3668 21.9485 12.6595 18.7127 15.07L19.5491 16.1927C22.5388 13.9654 26.195 12.768 29.9667 12.784L29.9726 11.3841ZM41.289 15.162C38.0158 12.7275 34.0442 11.4014 29.9726 11.3841L29.9667 12.784C33.7386 12.8001 37.4196 14.0289 40.4535 16.2854L41.289 15.162ZM48.1223 24.8859C46.9614 21.009 44.5623 17.5966 41.289 15.162L40.4535 16.2854C43.4873 18.5419 45.7075 21.7021 46.7811 25.2875L48.1223 24.8859ZM47.7193 36.6553C49.1425 32.8942 49.2832 28.763 48.1223 24.8859L46.7811 25.2875C47.8546 28.8725 47.7235 32.6884 46.4099 36.1598L47.7193 36.6553ZM40.4133 45.6165C43.7596 43.4897 46.3208 40.3508 47.7193 36.6553L46.4099 36.1598C45.1192 39.5707 42.7548 42.4695 39.6623 44.4349L40.4133 45.6165ZM40.5645 44.9267C40.7166 45.1638 40.6415 45.4714 40.4133 45.6165L39.6623 44.4349C39.2455 44.6998 39.1134 45.2577 39.3862 45.6828L40.5645 44.9267ZM41.4493 46.3056L40.5645 44.9267L39.3862 45.6828L40.271 47.0617L41.4493 46.3056ZM40.7588 46.1534C40.9952 46.0037 41.3026 46.077 41.4493 46.3056L40.2711 47.0617C40.5358 47.4742 41.0871 47.6028 41.508 47.3361L40.7588 46.1534ZM48.3245 36.8891C46.8785 40.7103 44.2268 43.9565 40.7588 46.1534L41.508 47.3361C45.2308 44.9778 48.0799 41.4912 49.6338 37.3846L48.3245 36.8891ZM48.7394 24.7371C49.9392 28.744 49.7928 33.009 48.3245 36.8891L49.6338 37.3846C51.2118 33.2147 51.3678 28.6345 50.0806 24.3356L48.7394 24.7371ZM41.668 14.6768C45.0583 17.1984 47.5396 20.7301 48.7394 24.7371L50.0806 24.3356C48.7935 20.0369 46.1333 16.2531 42.5036 13.5534L41.668 14.6768ZM29.949 10.764C34.1642 10.7819 38.2777 12.1551 41.668 14.6768L42.5036 13.5534C38.8739 10.8538 34.4698 9.38323 29.955 9.36404L29.949 10.764ZM18.3063 14.5736C21.6479 12.0843 25.734 10.7461 29.949 10.764L29.955 9.36404C25.44 9.34486 21.0575 10.7783 17.4699 13.4509L18.3063 14.5736ZM11.4194 24.5625C12.5482 20.5688 14.9649 17.0629 18.3063 14.5736L17.4699 13.4509C13.8822 16.1237 11.2852 19.8901 10.0721 24.1817L11.4194 24.5625ZM12.0483 36.7202C10.5104 32.8233 10.2905 28.5562 11.4194 24.5625L10.0721 24.1817C8.85915 28.4732 9.09658 33.0546 10.746 37.2341L12.0483 36.7202ZM19.7869 46.0616C16.2752 43.8319 13.5629 40.5582 12.0483 36.7202L10.746 37.2341C12.3703 41.35 15.2771 44.8565 19.0364 47.2435L19.7869 46.0616Z" fill="black" mask="url(#path-2-inside-1_129_146)"/>
</g>
</g>
<defs>
<linearGradient id="paint0_linear_129_146" x1="30" y1="0" x2="30" y2="60" gradientUnits="userSpaceOnUse">
<stop stop-color="#313131"/>
<stop offset="1" stop-color="#141514"/>
</linearGradient>
<linearGradient id="paint1_linear_129_146" x1="30" y1="6" x2="30.2526" y2="54" gradientUnits="userSpaceOnUse">
<stop stop-color="#FBA93D"/>
<stop offset="0.598145" stop-color="#6D583B"/>
<stop offset="1" stop-color="#3C3B3B"/>
</linearGradient>
</defs>
</svg>
