<svg width="60" height="60" viewBox="0 0 60 60" fill="none" xmlns="http://www.w3.org/2000/svg">
<g id="Settings ICON">
<rect width="60" height="60" rx="13.28" fill="url(#paint0_linear_127_48)"/>
<path id="Subtract" fill-rule="evenodd" clip-rule="evenodd" d="M51 30C51 41.598 41.598 51 30 51C18.402 51 9 41.598 9 30C9 18.402 18.402 9 30 9C41.598 9 51 18.402 51 30ZM28.2131 13.2184C28.1237 13.2278 28.0491 13.2924 28.0329 13.3808L27.7835 14.7443C27.48 16.4037 25.3849 16.9651 24.2923 15.6798L23.3946 14.6237C23.3352 14.5538 23.2364 14.5348 23.1525 14.5721C22.0555 15.0597 21.0202 15.6609 20.0614 16.3607C19.989 16.4136 19.9569 16.5065 19.987 16.591L20.4528 17.8965C21.0196 19.4854 19.4859 21.0191 17.897 20.4523L16.5915 19.9865C16.507 19.9564 16.414 19.9885 16.3611 20.0609C15.6613 21.0196 15.0602 22.0549 14.5725 23.1518C14.5352 23.2357 14.5542 23.3346 14.6242 23.3941L15.6803 24.2918C16.9656 25.3844 16.4042 27.4795 14.7448 27.783L13.3813 28.0324C13.2927 28.0486 13.2281 28.1233 13.2186 28.2129C13.1568 28.8001 13.1251 29.3963 13.1251 29.9999C13.1251 30.6034 13.1568 31.1995 13.2186 31.7867C13.228 31.8763 13.2927 31.9509 13.3813 31.9671L14.7448 32.2165C16.4042 32.5201 16.9656 34.6152 15.6803 35.7078L14.6242 36.6055C14.5542 36.665 14.5352 36.764 14.5725 36.8479C15.0601 37.9447 15.6612 38.9799 16.3609 39.9385C16.4139 40.0111 16.5069 40.0432 16.5915 40.013L17.897 39.5473C19.4859 38.9804 21.0196 40.5142 20.4528 42.103L19.987 43.4085C19.9569 43.4931 19.989 43.5862 20.0615 43.6391C21.0202 44.3389 22.0554 44.94 23.1522 45.4276C23.2361 45.4649 23.3351 45.4459 23.3946 45.3759L24.2923 44.3198C25.3849 43.0345 27.48 43.5959 27.7835 45.2553L28.0329 46.6187C28.0491 46.7073 28.1238 46.772 28.2134 46.7814C28.8005 46.8432 29.3966 46.8749 30.0001 46.8749C30.6038 46.8749 31.2 46.8432 31.7873 46.7814C31.8768 46.772 31.9515 46.7073 31.9677 46.6187L32.217 45.2553C32.5206 43.5959 34.6157 43.0345 35.7083 44.3198L36.606 45.3759C36.6654 45.4459 36.7643 45.4648 36.8482 45.4275C37.9452 44.9399 38.9804 44.3387 39.9392 43.6388C40.0116 43.586 40.0437 43.493 40.0136 43.4085L39.5478 42.103C38.9809 40.5142 40.5147 38.9804 42.1035 39.5473L43.409 40.013C43.4935 40.0432 43.5864 40.0111 43.6393 39.9387C44.3391 38.9799 44.9404 37.9445 45.428 36.8475C45.4653 36.7637 45.4463 36.6649 45.3764 36.6055L44.3203 35.7078C43.035 34.6152 43.5964 32.5201 45.2558 32.2165L46.6193 31.9671C46.7077 31.951 46.7722 31.8764 46.7816 31.787C46.8434 31.1998 46.8751 30.6035 46.8751 29.9999C46.8751 29.3962 46.8434 28.7998 46.7816 28.2125C46.7722 28.1231 46.7077 28.0486 46.6193 28.0324L45.2558 27.783C43.5964 27.4795 43.035 25.3844 44.3203 24.2918L45.3764 23.3941C45.4463 23.3347 45.4652 23.236 45.428 23.1522C44.9403 22.0551 44.339 21.0197 43.639 20.0608C43.5862 19.9885 43.4934 19.9564 43.4091 19.9865L42.1035 20.4523C40.5147 21.0191 38.9809 19.4854 39.5478 17.8965L40.0136 16.591C40.0437 16.5067 40.0116 16.4138 39.9393 16.361C38.9804 15.6611 37.945 15.0598 36.8479 14.5721C36.7641 14.5349 36.6654 14.5538 36.606 14.6237L35.7083 15.6798C34.6157 16.9651 32.5206 16.4037 32.217 14.7443L31.9677 13.3808C31.9515 13.2924 31.877 13.2278 31.7875 13.2184C31.2002 13.1566 30.6039 13.1249 30.0001 13.1249C29.3965 13.1249 28.8003 13.1566 28.2131 13.2184ZM30.0003 41.6248C36.4206 41.6248 41.6253 36.4201 41.6253 29.9998C41.6253 23.5795 36.4206 18.3748 30.0003 18.3748C23.58 18.3748 18.3753 23.5795 18.3753 29.9998C18.3753 36.4201 23.58 41.6248 30.0003 41.6248ZM40.8754 29.9999C40.8754 36.0059 36.0065 40.8749 30.0004 40.8749C23.9943 40.8749 19.1254 36.0059 19.1254 29.9999C19.1254 23.9938 23.9943 19.1249 30.0004 19.1249C36.0065 19.1249 40.8754 23.9938 40.8754 29.9999ZM20.7294 29.9999C20.7294 31.9274 21.3177 33.7176 22.3244 35.2006L22.3246 35.2005L28.8931 29.6889C29.1195 29.4989 29.2503 29.2184 29.2503 28.9228V20.7588C24.4808 21.1407 20.7294 25.1322 20.7294 29.9999ZM30.0004 39.2708C27.347 39.2708 24.9539 38.1561 23.264 36.3695C23.2723 36.363 23.2806 36.3564 23.2888 36.3495L29.3373 31.2742C29.7091 30.9623 30.2511 30.9623 30.6229 31.2742L36.6714 36.3495C36.6873 36.3628 36.7035 36.3753 36.72 36.3871C35.031 38.1634 32.645 39.2708 30.0004 39.2708ZM39.2713 29.9999C39.2713 31.9371 38.6772 33.7355 37.6611 35.2229C37.6528 35.2153 37.6443 35.2078 37.6356 35.2005L31.1075 29.7227C30.8811 29.5327 30.7503 29.2523 30.7503 28.9567V20.7588C35.5198 21.1406 39.2713 25.1321 39.2713 29.9999Z" fill="#8895B4"/>
</g>
<defs>
<linearGradient id="paint0_linear_127_48" x1="30" y1="0" x2="30" y2="60" gradientUnits="userSpaceOnUse">
<stop stop-color="#313131"/>
<stop offset="1" stop-color="#141514"/>
</linearGradient>
</defs>
</svg>
