<svg width="60" height="60" viewBox="0 0 60 60" fill="none" xmlns="http://www.w3.org/2000/svg">
<g id="Wallet ICON">
<rect width="60" height="60" rx="13.28" fill="url(#paint0_linear_45_188)"/>
<g id="Group 10">
<path id="Vector" d="M38.2514 17H38.4778L38.7544 17.0503L39.1064 17.2515L39.3578 17.4778L39.4836 17.6035L39.6596 17.8549L39.8859 18.3327L40.2379 19.2882L40.4894 20.0174L40.7157 20.6712L40.9168 21.1238V21.1741L41.4449 21.0986L42.0986 20.9981H42.3501L42.7021 21.0484L42.9284 21.1489L43.1547 21.2998L43.381 21.5513L43.6325 22.029L43.7834 22.5571L43.9594 23.3868L44.1857 24.6441L44.3114 25.3985L44.3617 25.5493L44.4623 25.5745L45.2921 25.5996L45.8201 25.675L46.147 25.8008L46.3733 25.9768L46.6499 26.2534L46.8259 26.5551L46.9265 26.9072L46.9516 27.058L46.9768 27.5609V31.9865L47.0271 32.2379L47.5048 32.3636L47.706 32.4391V32.4894L47.8066 32.5145L47.9574 32.6151L48.2089 32.8414L48.3598 33.0677L48.4855 33.3191L48.5609 33.6209L48.5861 33.8723V34.5513L48.5358 35.0542L48.4352 35.3559L48.2843 35.6325L47.9826 35.9845L47.7814 36.1354L47.5803 36.236L47.2282 36.3114L46.7756 36.3617L46.9014 36.4874L46.9516 36.7137L46.9768 37.2166V41.3656L46.9014 41.8433L46.8008 42.1199L46.5242 42.4971L46.2979 42.7485L45.9961 42.8743L45.4932 42.9497L45.0155 42.9749L43.4565 43H19.1663L18.7389 42.9497L18.2611 42.7737L17.7331 42.4217L17.4565 42.2205L17.3056 42.0445L17.1044 41.7176L16.9536 41.4159L16.7524 40.913L16.5764 40.4101L16.3752 39.8569L16.1741 39.2785L15.9478 38.6499L15.7718 38.147L15.2437 36.7137L14.8665 35.6828L14.5899 34.9536L14.1373 33.6963L13.8859 32.9923L13.4584 31.8356L12.8801 30.2515L12.7041 29.7737L12.6035 29.472L12.528 29.2959L12.352 28.793L12.1006 28.0135L12 27.6615V27.3095L12.2012 26.9072L12.4023 26.6557L12.6538 26.4043L13.1315 26.1528L13.7099 25.9014L14.3888 25.6499L14.9671 25.4236L15.3946 25.2727L15.9981 25.0464L16.9033 24.7195L17.8337 24.3926L18.3868 24.1915L18.5377 24.1412L20.6499 23.3617L21.4043 23.0851L22.0077 22.8588L22.6867 22.6073L23.793 22.205L27.3385 20.9226L29.9787 19.9671L30.7079 19.6905L31.7389 19.3133L32.2418 19.1373L33.9516 18.5087L34.706 18.2321L35.2592 18.0309L35.5861 17.9052L36.4662 17.5783L37.5977 17.176L37.8994 17.0754L38.2514 17Z" fill="#1A7AC4"/>
<path id="Vector_2" d="M38.2514 17H38.4778L38.7544 17.0503L39.1064 17.2515L39.3578 17.4778L39.4836 17.6035L39.6596 17.8549L39.8859 18.3327L40.2379 19.2882L40.4894 20.0174L40.7157 20.6712L40.9168 21.1238V21.1741L41.4449 21.0986L42.0986 20.9981H42.3501L42.7021 21.0484L42.9284 21.1489L43.1547 21.2998L43.381 21.5513L43.6325 22.029L43.7582 22.4565L43.8337 22.9342L44.0097 23.8395L44.06 24.1663L44.1605 24.6944L44.2611 25.2979L44.2863 25.5745L44.1857 25.6248L39.4333 25.6499H22.8124L18.4371 25.675L18.2108 25.8008L17.9594 26.0271L17.7079 26.3791L17.5822 26.6557L17.5571 26.9323L17.5319 27.7621V39.6306L17.4816 40.2089L17.4565 40.4855V41.0638L17.5822 41.8182L17.6576 42.0948L17.7582 42.3965L17.6576 42.3714L17.4062 42.1702L17.205 41.8936L17.0039 41.5416L16.7524 40.913L16.5764 40.4101L16.3752 39.8569L16.1741 39.2785L15.9478 38.6499L15.7718 38.147L15.2437 36.7137L14.8665 35.6828L14.5899 34.9536L14.1373 33.6963L13.8859 32.9923L13.4584 31.8356L12.8801 30.2515L12.7041 29.7737L12.6035 29.472L12.528 29.2959L12.352 28.793L12.1006 28.0135L12 27.6615V27.3095L12.2012 26.9072L12.4023 26.6557L12.6538 26.4043L13.1315 26.1528L13.7099 25.9014L14.3888 25.6499L14.9671 25.4236L15.3946 25.2727L15.9981 25.0464L16.9033 24.7195L17.8337 24.3926L18.3868 24.1915L18.5377 24.1412L20.6499 23.3617L21.4043 23.0851L22.0077 22.8588L22.6867 22.6073L23.793 22.205L27.3385 20.9226L29.9787 19.9671L30.7079 19.6905L31.7389 19.3133L32.2418 19.1373L33.9516 18.5087L34.706 18.2321L35.2592 18.0309L35.5861 17.9052L36.4662 17.5783L37.5977 17.176L37.8994 17.0754L38.2514 17Z" fill="#75C2E9"/>
<path id="Vector_3" d="M38.2514 17H38.4778L38.7544 17.0503L39.1064 17.2515L39.3578 17.4778L39.4836 17.6035L39.6596 17.8549L39.8859 18.3327L40.2379 19.2882L40.4894 20.0174L40.7157 20.6712L40.8665 21.0232V21.1741L40.6151 21.2747L40.0367 21.4004L38.4778 21.7021L36.3656 22.0542L35.2843 22.2553L34.1528 22.4565L32.8453 22.7079L31.7137 22.9091L30.4062 23.1354L29.501 23.2863L28.7718 23.412L28.4449 23.4623L27.4139 23.6383L25.2012 24.0155L24.1199 24.1915L23.3153 24.3172L22.3346 24.4681L21.4797 24.5938L19.8453 24.8453L18.8897 24.971L18.2863 25.0716L17.2302 25.323L16.8027 25.4236L16.2244 25.5745L15.9226 25.675L15.47 25.8511L15.3694 25.9265L14.9671 26.1277L14.7408 26.2534L14.7157 26.3037V26.882L14.7911 27.5358L15.0426 29.0193L15.2437 30.2515L15.3946 31.1315L15.5957 32.3888L15.7718 33.4952L15.9226 34.501L16.0986 35.4565L16.2495 36.236L16.4758 37.5938L16.5764 38.2476L16.7776 39.0774L16.9284 39.6054L17.1044 40.1335L17.205 40.3849L17.3559 40.8375L17.4565 41.4662L17.5068 41.8685L17.5319 41.9439V42.1451L17.4565 42.1702L17.3559 42.1199L17.1044 41.7176L16.9536 41.4159L16.7524 40.913L16.5764 40.4101L16.3752 39.8569L16.1741 39.2785L15.9478 38.6499L15.7718 38.147L15.2437 36.7137L14.8665 35.6828L14.5899 34.9536L14.1373 33.6963L13.8859 32.9923L13.4584 31.8356L12.8801 30.2515L12.7041 29.7737L12.6035 29.472L12.528 29.2959L12.352 28.793L12.1006 28.0135L12 27.6615V27.3095L12.2012 26.9072L12.4023 26.6557L12.6538 26.4043L13.1315 26.1528L13.7099 25.9014L14.3888 25.6499L14.9671 25.4236L15.3946 25.2727L15.9981 25.0464L16.9033 24.7195L17.8337 24.3926L18.3868 24.1915L18.5377 24.1412L20.6499 23.3617L21.4043 23.0851L22.0077 22.8588L22.6867 22.6073L23.793 22.205L27.3385 20.9226L29.9787 19.9671L30.7079 19.6905L31.7389 19.3133L32.2418 19.1373L33.9516 18.5087L34.706 18.2321L35.2592 18.0309L35.5861 17.9052L36.4662 17.5783L37.5977 17.176L37.8994 17.0754L38.2514 17Z" fill="#CDEEFC"/>
<path id="Vector_4" d="M43.5069 32.3385H47.2536L47.5804 32.3888L47.7062 32.4391V32.4894L47.8067 32.5146L47.9576 32.6151L48.2091 32.8414L48.3599 33.0678L48.4857 33.3192L48.5611 33.6209L48.5862 33.8724V34.5513L48.5359 35.0542L48.4354 35.356L48.2845 35.6326L47.9828 35.9846L47.7816 36.1355L47.6559 36.2109L47.2033 36.2612H46.9015V36.3115H42.2497L41.9228 36.2612L41.6211 36.1355L41.3947 35.9594L41.1936 35.708L41.0679 35.4565L40.9924 35.1799L40.9421 34.8028V33.8221L41.0176 33.3695L41.1433 33.0678L41.4199 32.7409L41.6462 32.5397L41.8725 32.4391L42.3503 32.3637L43.5069 32.3385Z" fill="#CEEEFC"/>
</g>
</g>
<defs>
<linearGradient id="paint0_linear_45_188" x1="30" y1="0" x2="30" y2="60" gradientUnits="userSpaceOnUse">
<stop stop-color="#313131"/>
<stop offset="1" stop-color="#141514"/>
</linearGradient>
</defs>
</svg>
